<svg xmlns="http://www.w3.org/2000/svg" width="50.332" height="50.3" viewBox="0 0 50.332 50.3">
  <g id="noun-secure-house-396255" transform="translate(-69.843 0.152)">
    <path id="Path_39882" data-name="Path 39882" d="M268.682,295.286h-9.828v-13.1h13.1v1.092a1.092,1.092,0,0,0,2.184,0V281.09A1.092,1.092,0,0,0,273.05,280H257.762a1.092,1.092,0,0,0-1.092,1.092v15.288a1.092,1.092,0,0,0,1.092,1.092h10.92a1.092,1.092,0,0,0,0-2.184Z" transform="translate(-170.398 -255.605)" fill="#64a84d" stroke="#64a84d" stroke-width="0.3"/>
    <path id="Path_39883" data-name="Path 39883" d="M98.133,47.914H78.341V23.956A1.042,1.042,0,0,0,77.3,22.914H73.564l20.4-20.4a1.516,1.516,0,0,1,2.079,0l7.6,7.6a1.043,1.043,0,0,0,1.779-.738V2.081h6.25V17.706a1.044,1.044,0,0,0,.306.738l4.471,4.471h-3.736a1.042,1.042,0,0,0,0,2.084h6.25a1.041,1.041,0,0,0,.738-1.777l-5.946-5.946V1.039A1.042,1.042,0,0,0,112.716,0h-8.333a1.042,1.042,0,0,0-1.042,1.042V6.858L97.52,1.039a3.656,3.656,0,0,0-5.025,0L70.313,23.219A1.043,1.043,0,0,0,71.05,25h5.208V48.955A1.042,1.042,0,0,0,77.3,50H98.133a1.042,1.042,0,1,0,0-2.083Z" fill="#64a84d" stroke="#64a84d" stroke-width="0.3"/>
    <path id="Path_39884" data-name="Path 39884" d="M438.559,312.07h-1.092v-1.092a7.644,7.644,0,1,0-15.288,0v1.092h-1.092a1.093,1.093,0,0,0-1.092,1.092v13.1a1.092,1.092,0,0,0,1.092,1.092h17.473a1.092,1.092,0,0,0,1.092-1.092v-13.1a1.093,1.093,0,0,0-1.092-1.092Zm-14.2-1.092a5.46,5.46,0,1,1,10.92,0v1.092h-10.92Zm13.1,14.2H422.179v-10.92h15.288Z" transform="translate(-319.644 -277.361)" fill="#64a84d" stroke="#64a84d" stroke-width="0.3"/>
    <path id="Path_39885" data-name="Path 39885" d="M503.852,443.33a2.185,2.185,0,0,0-2.184,2.184,2.151,2.151,0,0,0,1.092,1.85v1.427a1.092,1.092,0,0,0,2.184,0v-1.426a2.151,2.151,0,0,0,1.092-1.85,2.185,2.185,0,0,0-2.184-2.184Z" transform="translate(-393.673 -404.253)" fill="#64a84d" stroke="#64a84d" stroke-width="0.3"/>
  </g>
</svg>
