<svg xmlns="http://www.w3.org/2000/svg" width="49.763" height="50" viewBox="0 0 49.763 50">
  <g id="noun-notebook-231840" transform="translate(-122.498 -1.996)">
    <g id="Group_70102" data-name="Group 70102" transform="translate(122.498 1.996)">
      <path id="Path_39862" data-name="Path 39862" d="M158.226,52H128.878c-3.518,0-6.38-2.544-6.38-5.671V7.667C122.5,4.54,125.36,2,128.878,2h29.347c3.518,0,6.38,2.544,6.38,5.671V46.324c0,3.127-2.862,5.672-6.379,5.672ZM128.878,4.265a3.638,3.638,0,0,0-3.828,3.4V46.324a3.638,3.638,0,0,0,3.828,3.4h29.347a3.638,3.638,0,0,0,3.828-3.4V7.667a3.638,3.638,0,0,0-3.828-3.4Z" transform="translate(-122.498 -1.996)" fill="#64a84d"/>
      <path id="Path_39863" data-name="Path 39863" d="M390.65,52H380.442a1.142,1.142,0,1,1,0-2.269H390.65a3.638,3.638,0,0,0,3.828-3.4V7.669a3.638,3.638,0,0,0-3.828-3.4H380.442a1.212,1.212,0,0,1-1.276-1.134A1.212,1.212,0,0,1,380.442,2H390.65c3.518,0,6.38,2.544,6.38,5.671V46.326c0,3.128-2.862,5.672-6.379,5.672Z" transform="translate(-351.095 -1.998)" fill="#64a84d"/>
      <path id="Path_39864" data-name="Path 39864" d="M425.65,52H415.442a1.142,1.142,0,1,1,0-2.269H425.65a3.638,3.638,0,0,0,3.828-3.4V7.669a3.638,3.638,0,0,0-3.828-3.4H415.442a1.212,1.212,0,0,1-1.276-1.134A1.212,1.212,0,0,1,415.442,2H425.65c3.518,0,6.38,2.544,6.38,5.671V46.326c0,3.128-2.862,5.672-6.379,5.672Z" transform="translate(-382.267 -1.998)" fill="#64a84d"/>
      <path id="Path_39865" data-name="Path 39865" d="M228.778,52a1.19,1.19,0,0,1-1.276-1.077V3.081a1.295,1.295,0,0,1,2.552,0V50.927A1.19,1.19,0,0,1,228.778,52Z" transform="translate(-216.018 -2.003)" fill="#64a84d"/>
    </g>
  </g>
</svg>
