<svg id="Group_70114" data-name="Group 70114" xmlns="http://www.w3.org/2000/svg" xmlns:xlink="http://www.w3.org/1999/xlink" width="40.704" height="50" viewBox="0 0 40.704 50">
  <defs>
    <clipPath id="clip-path">
      <rect id="Rectangle_18460" data-name="Rectangle 18460" width="40.704" height="50" fill="none"/>
    </clipPath>
  </defs>
  <g id="Group_70113" data-name="Group 70113" clip-path="url(#clip-path)">
    <path id="Path_112023" data-name="Path 112023" d="M27.235,29.98l-.561-.327.439-.469a8.364,8.364,0,0,0,2.276-5.673,8.921,8.921,0,0,0-8.908-8.735h-.255A8.943,8.943,0,0,0,11.3,23.531a8.515,8.515,0,0,0,2.276,5.663l.429.459-.551.327A12.762,12.762,0,0,0,7.133,40.867a1.306,1.306,0,0,0,1.276,1.2H32.286a1.321,1.321,0,0,0,1.286-1.245A12.766,12.766,0,0,0,27.235,29.98M9.857,39.622l.112-.6a10.4,10.4,0,0,1,6.816-7.939,1.2,1.2,0,0,0,.8-1.5,1.171,1.171,0,0,0-.561-.684,6.19,6.19,0,0,1-3.153-5.378,6.358,6.358,0,0,1,6.449-6.306h.031a6.377,6.377,0,0,1,6.49,6.255A6.25,6.25,0,0,1,23.663,28.9a1.2,1.2,0,0,0,.224,2.184,10.4,10.4,0,0,1,6.827,7.939l.112.6ZM25.929,6.939a.494.494,0,0,0-.173,0H14.827a1.3,1.3,0,0,0-1.2,1.306,1.347,1.347,0,0,0,1.347,1.133H25.714a1.235,1.235,0,0,0,1.347-1.133,1.222,1.222,0,0,0-1.133-1.306M27.235,29.98l-.561-.327.439-.469a8.364,8.364,0,0,0,2.276-5.673,8.921,8.921,0,0,0-8.908-8.735h-.255A8.943,8.943,0,0,0,11.3,23.531a8.515,8.515,0,0,0,2.276,5.663l.429.459-.551.327A12.762,12.762,0,0,0,7.133,40.867a1.306,1.306,0,0,0,1.276,1.2H32.286a1.321,1.321,0,0,0,1.286-1.245A12.766,12.766,0,0,0,27.235,29.98M9.857,39.622l.112-.6a10.4,10.4,0,0,1,6.816-7.939,1.2,1.2,0,0,0,.8-1.5,1.171,1.171,0,0,0-.561-.684,6.19,6.19,0,0,1-3.153-5.378,6.358,6.358,0,0,1,6.449-6.306h.031a6.377,6.377,0,0,1,6.49,6.255A6.25,6.25,0,0,1,23.663,28.9a1.2,1.2,0,0,0,.224,2.184,10.4,10.4,0,0,1,6.827,7.939l.112.6ZM25.929,6.939a.494.494,0,0,0-.173,0H14.827a1.3,1.3,0,0,0-1.2,1.306,1.347,1.347,0,0,0,1.347,1.133H25.714a1.235,1.235,0,0,0,1.347-1.133,1.222,1.222,0,0,0-1.133-1.306m0,0a.494.494,0,0,0-.173,0H14.827a1.3,1.3,0,0,0-1.2,1.306,1.347,1.347,0,0,0,1.347,1.133H25.714a1.235,1.235,0,0,0,1.347-1.133,1.222,1.222,0,0,0-1.133-1.306M27.235,29.98l-.561-.327.439-.469a8.364,8.364,0,0,0,2.276-5.673,8.921,8.921,0,0,0-8.908-8.735h-.255A8.943,8.943,0,0,0,11.3,23.531a8.515,8.515,0,0,0,2.276,5.663l.429.459-.551.327A12.762,12.762,0,0,0,7.133,40.867a1.306,1.306,0,0,0,1.276,1.2H32.286a1.321,1.321,0,0,0,1.286-1.245A12.766,12.766,0,0,0,27.235,29.98M9.857,39.622l.112-.6a10.4,10.4,0,0,1,6.816-7.939,1.2,1.2,0,0,0,.8-1.5,1.171,1.171,0,0,0-.561-.684,6.19,6.19,0,0,1-3.153-5.378,6.358,6.358,0,0,1,6.449-6.306h.031a6.377,6.377,0,0,1,6.49,6.255A6.25,6.25,0,0,1,23.663,28.9a1.2,1.2,0,0,0,.224,2.184,10.4,10.4,0,0,1,6.827,7.939l.112.6ZM27.235,29.98l-.561-.327.439-.469a8.364,8.364,0,0,0,2.276-5.673,8.921,8.921,0,0,0-8.908-8.735h-.255A8.943,8.943,0,0,0,11.3,23.531a8.515,8.515,0,0,0,2.276,5.663l.429.459-.551.327A12.762,12.762,0,0,0,7.133,40.867a1.306,1.306,0,0,0,1.276,1.2H32.286a1.321,1.321,0,0,0,1.286-1.245A12.766,12.766,0,0,0,27.235,29.98M9.857,39.622l.112-.6a10.4,10.4,0,0,1,6.816-7.939,1.2,1.2,0,0,0,.8-1.5,1.171,1.171,0,0,0-.561-.684,6.19,6.19,0,0,1-3.153-5.378,6.358,6.358,0,0,1,6.449-6.306h.031a6.377,6.377,0,0,1,6.49,6.255A6.25,6.25,0,0,1,23.663,28.9a1.2,1.2,0,0,0,.224,2.184,10.4,10.4,0,0,1,6.827,7.939l.112.6ZM25.929,6.939a.494.494,0,0,0-.173,0H14.827a1.3,1.3,0,0,0-1.2,1.306,1.347,1.347,0,0,0,1.347,1.133H25.714a1.235,1.235,0,0,0,1.347-1.133,1.222,1.222,0,0,0-1.133-1.306m0,0a.494.494,0,0,0-.173,0H14.827a1.3,1.3,0,0,0-1.2,1.306,1.347,1.347,0,0,0,1.347,1.133H25.714a1.235,1.235,0,0,0,1.347-1.133,1.222,1.222,0,0,0-1.133-1.306M27.235,29.98l-.561-.327.439-.469a8.364,8.364,0,0,0,2.276-5.673,8.921,8.921,0,0,0-8.908-8.735h-.255A8.943,8.943,0,0,0,11.3,23.531a8.515,8.515,0,0,0,2.276,5.663l.429.459-.551.327A12.762,12.762,0,0,0,7.133,40.867a1.306,1.306,0,0,0,1.276,1.2H32.286a1.321,1.321,0,0,0,1.286-1.245A12.766,12.766,0,0,0,27.235,29.98M9.857,39.622l.112-.6a10.4,10.4,0,0,1,6.816-7.939,1.2,1.2,0,0,0,.8-1.5,1.171,1.171,0,0,0-.561-.684,6.19,6.19,0,0,1-3.153-5.378,6.358,6.358,0,0,1,6.449-6.306h.031a6.377,6.377,0,0,1,6.49,6.255A6.25,6.25,0,0,1,23.663,28.9a1.2,1.2,0,0,0,.224,2.184,10.4,10.4,0,0,1,6.827,7.939l.112.6ZM27.235,29.98l-.561-.327.439-.469a8.364,8.364,0,0,0,2.276-5.673,8.921,8.921,0,0,0-8.908-8.735h-.255A8.943,8.943,0,0,0,11.3,23.531a8.515,8.515,0,0,0,2.276,5.663l.429.459-.551.327A12.762,12.762,0,0,0,7.133,40.867a1.306,1.306,0,0,0,1.276,1.2H32.286a1.321,1.321,0,0,0,1.286-1.245A12.766,12.766,0,0,0,27.235,29.98M9.857,39.622l.112-.6a10.4,10.4,0,0,1,6.816-7.939,1.2,1.2,0,0,0,.8-1.5,1.171,1.171,0,0,0-.561-.684,6.19,6.19,0,0,1-3.153-5.378,6.358,6.358,0,0,1,6.449-6.306h.031a6.377,6.377,0,0,1,6.49,6.255A6.25,6.25,0,0,1,23.663,28.9a1.2,1.2,0,0,0,.224,2.184,10.4,10.4,0,0,1,6.827,7.939l.112.6ZM14.969,9.378H25.714a1.235,1.235,0,0,0,1.347-1.133,1.222,1.222,0,0,0-1.133-1.306.494.494,0,0,0-.173,0H14.827a1.3,1.3,0,0,0-1.2,1.306,1.347,1.347,0,0,0,1.347,1.133M36.245,0H4.439A4.459,4.459,0,0,0,0,4.357V45.663A4.466,4.466,0,0,0,4.49,50H36.235A4.477,4.477,0,0,0,40.7,45.653V4.347A4.482,4.482,0,0,0,36.245,0m1.888,45.663a1.888,1.888,0,0,1-1.867,1.9H4.408a1.9,1.9,0,0,1-1.867-1.806V4.347A1.89,1.89,0,0,1,4.408,2.439H36.194a1.879,1.879,0,0,1,1.327.5,1.84,1.84,0,0,1,.612,1.306ZM27.235,29.98l-.561-.327.439-.469a8.364,8.364,0,0,0,2.276-5.673,8.921,8.921,0,0,0-8.908-8.735h-.255A8.943,8.943,0,0,0,11.3,23.531a8.515,8.515,0,0,0,2.276,5.663l.429.459-.551.327A12.762,12.762,0,0,0,7.133,40.867a1.306,1.306,0,0,0,1.276,1.2H32.286a1.321,1.321,0,0,0,1.286-1.245A12.766,12.766,0,0,0,27.235,29.98m3.592,9.643H9.857l.112-.6a10.4,10.4,0,0,1,6.816-7.939,1.2,1.2,0,0,0,.8-1.5,1.171,1.171,0,0,0-.561-.684,6.19,6.19,0,0,1-3.153-5.378,6.358,6.358,0,0,1,6.449-6.306h.031a6.377,6.377,0,0,1,6.49,6.255A6.25,6.25,0,0,1,23.663,28.9a1.2,1.2,0,0,0,.224,2.184,10.4,10.4,0,0,1,6.827,7.939ZM14.969,9.378H25.714a1.235,1.235,0,0,0,1.347-1.133,1.222,1.222,0,0,0-1.133-1.306.494.494,0,0,0-.173,0H14.827a1.3,1.3,0,0,0-1.2,1.306,1.347,1.347,0,0,0,1.347,1.133M25.929,6.939a.494.494,0,0,0-.173,0H14.827a1.3,1.3,0,0,0-1.2,1.306,1.347,1.347,0,0,0,1.347,1.133H25.714a1.235,1.235,0,0,0,1.347-1.133,1.222,1.222,0,0,0-1.133-1.306M27.235,29.98l-.561-.327.439-.469a8.364,8.364,0,0,0,2.276-5.673,8.921,8.921,0,0,0-8.908-8.735h-.255A8.943,8.943,0,0,0,11.3,23.531a8.515,8.515,0,0,0,2.276,5.663l.429.459-.551.327A12.762,12.762,0,0,0,7.133,40.867a1.306,1.306,0,0,0,1.276,1.2H32.286a1.321,1.321,0,0,0,1.286-1.245A12.766,12.766,0,0,0,27.235,29.98M9.857,39.622l.112-.6a10.4,10.4,0,0,1,6.816-7.939,1.2,1.2,0,0,0,.8-1.5,1.171,1.171,0,0,0-.561-.684,6.19,6.19,0,0,1-3.153-5.378,6.358,6.358,0,0,1,6.449-6.306h.031a6.377,6.377,0,0,1,6.49,6.255A6.25,6.25,0,0,1,23.663,28.9a1.2,1.2,0,0,0,.224,2.184,10.4,10.4,0,0,1,6.827,7.939l.112.6ZM27.235,29.98l-.561-.327.439-.469a8.364,8.364,0,0,0,2.276-5.673,8.921,8.921,0,0,0-8.908-8.735h-.255A8.943,8.943,0,0,0,11.3,23.531a8.515,8.515,0,0,0,2.276,5.663l.429.459-.551.327A12.762,12.762,0,0,0,7.133,40.867a1.306,1.306,0,0,0,1.276,1.2H32.286a1.321,1.321,0,0,0,1.286-1.245A12.766,12.766,0,0,0,27.235,29.98M9.857,39.622l.112-.6a10.4,10.4,0,0,1,6.816-7.939,1.2,1.2,0,0,0,.8-1.5,1.171,1.171,0,0,0-.561-.684,6.19,6.19,0,0,1-3.153-5.378,6.358,6.358,0,0,1,6.449-6.306h.031a6.377,6.377,0,0,1,6.49,6.255A6.25,6.25,0,0,1,23.663,28.9a1.2,1.2,0,0,0,.224,2.184,10.4,10.4,0,0,1,6.827,7.939l.112.6ZM25.929,6.939a.494.494,0,0,0-.173,0H14.827a1.3,1.3,0,0,0-1.2,1.306,1.347,1.347,0,0,0,1.347,1.133H25.714a1.235,1.235,0,0,0,1.347-1.133,1.222,1.222,0,0,0-1.133-1.306m0,0a.494.494,0,0,0-.173,0H14.827a1.3,1.3,0,0,0-1.2,1.306,1.347,1.347,0,0,0,1.347,1.133H25.714a1.235,1.235,0,0,0,1.347-1.133,1.222,1.222,0,0,0-1.133-1.306M27.235,29.98l-.561-.327.439-.469a8.364,8.364,0,0,0,2.276-5.673,8.921,8.921,0,0,0-8.908-8.735h-.255A8.943,8.943,0,0,0,11.3,23.531a8.515,8.515,0,0,0,2.276,5.663l.429.459-.551.327A12.762,12.762,0,0,0,7.133,40.867a1.306,1.306,0,0,0,1.276,1.2H32.286a1.321,1.321,0,0,0,1.286-1.245A12.766,12.766,0,0,0,27.235,29.98M9.857,39.622l.112-.6a10.4,10.4,0,0,1,6.816-7.939,1.2,1.2,0,0,0,.8-1.5,1.171,1.171,0,0,0-.561-.684,6.19,6.19,0,0,1-3.153-5.378,6.358,6.358,0,0,1,6.449-6.306h.031a6.377,6.377,0,0,1,6.49,6.255A6.25,6.25,0,0,1,23.663,28.9a1.2,1.2,0,0,0,.224,2.184,10.4,10.4,0,0,1,6.827,7.939l.112.6ZM27.235,29.98l-.561-.327.439-.469a8.364,8.364,0,0,0,2.276-5.673,8.921,8.921,0,0,0-8.908-8.735h-.255A8.943,8.943,0,0,0,11.3,23.531a8.515,8.515,0,0,0,2.276,5.663l.429.459-.551.327A12.762,12.762,0,0,0,7.133,40.867a1.306,1.306,0,0,0,1.276,1.2H32.286a1.321,1.321,0,0,0,1.286-1.245A12.766,12.766,0,0,0,27.235,29.98M9.857,39.622l.112-.6a10.4,10.4,0,0,1,6.816-7.939,1.2,1.2,0,0,0,.8-1.5,1.171,1.171,0,0,0-.561-.684,6.19,6.19,0,0,1-3.153-5.378,6.358,6.358,0,0,1,6.449-6.306h.031a6.377,6.377,0,0,1,6.49,6.255A6.25,6.25,0,0,1,23.663,28.9a1.2,1.2,0,0,0,.224,2.184,10.4,10.4,0,0,1,6.827,7.939l.112.6ZM25.929,6.939a.494.494,0,0,0-.173,0H14.827a1.3,1.3,0,0,0-1.2,1.306,1.347,1.347,0,0,0,1.347,1.133H25.714a1.235,1.235,0,0,0,1.347-1.133,1.222,1.222,0,0,0-1.133-1.306" fill="#64a84d"/>
  </g>
</svg>
