<svg xmlns="http://www.w3.org/2000/svg" width="68.728" height="50" viewBox="0 0 68.728 50">
  <g id="noun-secure-transport-978595" transform="translate(0 -36.457)">
    <path id="Path_39872" data-name="Path 39872" d="M2.3,62.8H41.243V41.044a2.3,2.3,0,0,0-2.3-2.3H4.595a2.3,2.3,0,0,0-2.3,2.3Zm40.091,2.291H1.154A1.146,1.146,0,0,1,.008,63.947v-22.9A4.592,4.592,0,0,1,4.6,36.457H38.948a4.592,4.592,0,0,1,4.587,4.588v22.9a1.146,1.146,0,0,1-1.145,1.146Z" transform="translate(-0.007)" fill="#64a84d"/>
    <path id="Path_39873" data-name="Path 39873" d="M498.953,134.166H480.3a1.971,1.971,0,0,1-1.969-1.969V120.1a1.971,1.971,0,0,1,1.969-1.969h11.359a1.145,1.145,0,1,1,0,2.291H480.626v11.455h18.326a1.145,1.145,0,1,1,0,2.291" transform="translate(-431.372 -73.474)" fill="#64a84d"/>
    <path id="Path_39874" data-name="Path 39874" d="M486.35,377.079a5.727,5.727,0,1,0,5.727,5.727,5.734,5.734,0,0,0-5.727-5.727m0,13.745a8.018,8.018,0,1,1,8.018-8.018,8.027,8.027,0,0,1-8.018,8.018" transform="translate(-431.369 -304.367)" fill="#64a84d"/>
    <path id="Path_39875" data-name="Path 39875" d="M66.35,377.079a5.727,5.727,0,1,0,5.727,5.727,5.734,5.734,0,0,0-5.727-5.727m0,13.745a8.018,8.018,0,1,1,8.018-8.018,8.027,8.027,0,0,1-8.018,8.018" transform="translate(-52.605 -304.367)" fill="#64a84d"/>
    <path id="Path_39876" data-name="Path 39876" d="M614.694,318.745h-6.873a1.146,1.146,0,0,1,0-2.291h6.873a1.146,1.146,0,0,1,0,2.291" transform="translate(-547.112 -252.07)" fill="#64a84d"/>
    <path id="Path_39877" data-name="Path 39877" d="M446.353,111.143h-5.727a1.157,1.157,0,0,1-1.146-1.168,5.728,5.728,0,1,0-11.454,0,1.157,1.157,0,0,1-1.146,1.168h-5.727a1.168,1.168,0,0,1,0-2.335h4.663a8,8,0,0,1,15.874,0h3.518V86.521a1.594,1.594,0,0,0-.4-1.06L434.852,74.3a1.535,1.535,0,0,0-1.144-.516H421.154a1.168,1.168,0,0,1,0-2.335h12.553a3.81,3.81,0,0,1,2.84,1.28L446.5,83.89a3.944,3.944,0,0,1,1,2.63v23.456a1.157,1.157,0,0,1-1.146,1.168" transform="translate(-378.772 -31.559)" fill="#64a84d"/>
    <path id="Path_39878" data-name="Path 39878" d="M42.381,320.82H20.618a1.146,1.146,0,0,1-1.146-1.146,5.727,5.727,0,0,0-11.454,0,1.146,1.146,0,0,1-1.146,1.146H4.008A4.013,4.013,0,0,1,0,316.813V305.929a1.145,1.145,0,0,1,2.291,0v10.883a1.718,1.718,0,0,0,1.717,1.717h1.8a8.019,8.019,0,0,1,15.874,0H41.236v-12.6a1.145,1.145,0,0,1,2.291,0v13.745a1.146,1.146,0,0,1-1.145,1.146" transform="translate(0 -241.236)" fill="#64a84d"/>
    <path id="Path_39879" data-name="Path 39879" d="M121.257,435.419a2.291,2.291,0,1,1-2.291-2.291,2.292,2.292,0,0,1,2.291,2.291" transform="translate(-105.221 -356.979)" fill="#64a84d"/>
    <path id="Path_39880" data-name="Path 39880" d="M541.258,435.419a2.291,2.291,0,1,1-2.291-2.291,2.292,2.292,0,0,1,2.291,2.291" transform="translate(-483.985 -356.979)" fill="#64a84d"/>
    <path id="Path_39881" data-name="Path 39881" d="M142.3,98.911v3.406a6.394,6.394,0,0,0,2.931,5.432,6.77,6.77,0,0,0,1.651.724,6.8,6.8,0,0,0,1.652-.724,6.4,6.4,0,0,0,2.93-5.432V98.908a10.9,10.9,0,0,1-4.573-1.5,10.774,10.774,0,0,1-4.591,1.5m4.582,11.914a1.142,1.142,0,0,1-.365-.06l-.215-.072a9.321,9.321,0,0,1-2.351-1.045,8.625,8.625,0,0,1-3.941-7.332V97.9a1.144,1.144,0,0,1,1.021-1.138c2.7-.3,4.206-.782,5.034-1.627a1.145,1.145,0,0,1,1.62-.017c.867.849,2.425,1.356,5.05,1.644a1.144,1.144,0,0,1,1.021,1.138v4.418a8.626,8.626,0,0,1-3.941,7.332,9.352,9.352,0,0,1-2.352,1.046l-.214.071a1.144,1.144,0,0,1-.365.06" transform="translate(-126.261 -52.605)" fill="#64a84d"/>
  </g>
</svg>
