<svg xmlns="http://www.w3.org/2000/svg" width="50.003" height="50" viewBox="0 0 50.003 50">
  <g id="noun-certified-3325044" transform="translate(-89.894 -19.896)">
    <path id="Path_39889" data-name="Path 39889" d="M136.528,44.9l3.213-5.744a1.254,1.254,0,0,0-.454-1.682l-5.66-3.364-.084-6.585a1.262,1.262,0,0,0-1.245-1.245l-6.585-.084-3.373-5.685a1.254,1.254,0,0,0-1.682-.454L114.9,23.265l-5.744-3.213a1.254,1.254,0,0,0-1.682.454l-3.364,5.66-6.585.084A1.262,1.262,0,0,0,96.275,27.5l-.084,6.585-5.685,3.373a1.254,1.254,0,0,0-.454,1.682L93.264,44.9l-3.213,5.744a1.254,1.254,0,0,0,.454,1.682l5.66,3.364.084,6.585a1.262,1.262,0,0,0,1.245,1.245l6.585.084,3.364,5.66h0a1.253,1.253,0,0,0,1.682.454L114.9,66.53l5.744,3.213a1.262,1.262,0,0,0,1.682-.454l3.364-5.66,6.585-.084a1.262,1.262,0,0,0,1.245-1.245l.084-6.585,5.66-3.364h0a1.253,1.253,0,0,0,.454-1.682ZM131.717,53.9a1.279,1.279,0,0,0-.606,1.085l-.076,6.064-6.047.059a1.279,1.279,0,0,0-1.068.623l-3.137,5.206-5.29-2.961h0a1.26,1.26,0,0,0-1.228,0l-5.257,2.96-3.12-5.223a1.279,1.279,0,0,0-1.085-.606l-6.064-.076L98.68,54.99a1.279,1.279,0,0,0-.606-1.085l-5.223-3.12,2.961-5.29h0a1.27,1.27,0,0,0,0-1.228l-2.96-5.257,5.223-3.12A1.279,1.279,0,0,0,98.68,34.8l.076-6.064,6.047-.059a1.279,1.279,0,0,0,1.085-.606l3.12-5.223,5.29,2.961h0a1.27,1.27,0,0,0,1.228,0l5.257-2.96,3.12,5.223a1.279,1.279,0,0,0,1.068.623l6.064.076.076,6.03a1.279,1.279,0,0,0,.606,1.085l5.223,3.12-2.961,5.29h0a1.27,1.27,0,0,0,0,1.228l2.96,5.257ZM124.4,37.21a1.253,1.253,0,0,1,0,1.783,85.746,85.746,0,0,0-10.815,13.34,1.269,1.269,0,0,1-.951.605h-.126a1.245,1.245,0,0,1-.925-.4l-6.257-6.8a1.262,1.262,0,0,1,1.859-1.682l5.189,5.576a95.22,95.22,0,0,1,10.261-12.4,1.27,1.27,0,0,1,1.783-.026Z" fill="#64a84d"/>
  </g>
</svg>
