<svg xmlns="http://www.w3.org/2000/svg" xmlns:xlink="http://www.w3.org/1999/xlink" width="46.716" height="50" viewBox="0 0 46.716 50">
  <defs>
    <clipPath id="clip-path">
      <rect id="Rectangle_18457" data-name="Rectangle 18457" width="46.716" height="50" fill="none"/>
    </clipPath>
  </defs>
  <g id="Group_70108" data-name="Group 70108" transform="translate(0 0)">
    <g id="Group_70107" data-name="Group 70107" transform="translate(0 0)" clip-path="url(#clip-path)">
      <path id="Path_112013" data-name="Path 112013" d="M40.038,0H9.617A8.358,8.358,0,0,0,8.034,16.565c.112.02.254.041.436.061a2.138,2.138,0,0,1,1.939,2.314,2.248,2.248,0,0,1-.142.6L.32,44.011A4.279,4.279,0,0,0,.35,47.33a4.35,4.35,0,0,0,2.365,2.324,4.636,4.636,0,0,0,1.715.335L9.14,50h.01a3.157,3.157,0,0,0,2.933-1.969l5.359-13.185a3.779,3.779,0,0,1-2.568-4.608l.091-.264L17.626,22.8a3.958,3.958,0,0,1,3.38-2.538l.3-.01h2.071l.426-1.066a3.923,3.923,0,0,1,3.644-2.436H40.038a6.693,6.693,0,0,0,6.679-6.628V6.628A6.693,6.693,0,0,0,40.038,0M22.711,16.3a6.3,6.3,0,0,0-.893,1.238l-.112.193-.863.02a6.48,6.48,0,0,0-5.572,4.172L12.48,29.507a6.256,6.256,0,0,0,1.634,6.222l.193.173L9.759,47.087a.671.671,0,0,1-.609.4H4.431a1.969,1.969,0,0,1-.721-.132,1.832,1.832,0,0,1-1.066-2.375l9.947-24.482a4.631,4.631,0,0,0-3.877-6.364l-.152-.02A5.838,5.838,0,0,1,5.6,4.121a5.754,5.754,0,0,1,4.182-1.6H20.772l-.4.6a6.341,6.341,0,0,0-1.056,3.512l.01,3.928a6.369,6.369,0,0,0,3.289,5.156l.426.233Zm21.2-6.171A3.915,3.915,0,0,1,40.271,14l-.274.01H25.736a3.935,3.935,0,0,1-3.9-3.583l-.01-.284V6.628a3.91,3.91,0,0,1,3.908-3.877H40.007a3.919,3.919,0,0,1,3.9,3.583l.01.284Z" transform="translate(0 0)" fill="#64a84d"/>
      <path id="Path_112014" data-name="Path 112014" d="M24.639,23.941l-2.994,7.684a1.553,1.553,0,0,1-1.451.985H18.508a1.563,1.563,0,0,1-.568-.1,1.539,1.539,0,0,1-.863-.792,1.507,1.507,0,0,1-.03-1.188l2.984-7.684a1.576,1.576,0,0,1,1.462-.995h1.675a1.533,1.533,0,0,1,.568.112,1.525,1.525,0,0,1,.9,1.979" transform="translate(0.254 0.328)" fill="#64a84d"/>
    </g>
  </g>
</svg>
