<svg xmlns="http://www.w3.org/2000/svg" xmlns:xlink="http://www.w3.org/1999/xlink" width="50" height="50" viewBox="0 0 50 50">
  <defs>
    <clipPath id="clip-path">
      <rect id="Rectangle_18459" data-name="Rectangle 18459" width="50" height="50" fill="none"/>
    </clipPath>
  </defs>
  <g id="Group_70112" data-name="Group 70112" transform="translate(0 0)">
    <g id="Group_70111" data-name="Group 70111" transform="translate(0 0)" clip-path="url(#clip-path)">
      <path id="Path_112022" data-name="Path 112022" d="M48.8,21.054A7.168,7.168,0,1,0,36.84,28.962l.111.172-7.827,7.817-.172-.111a7.171,7.171,0,1,0-5.383,13.009,7.085,7.085,0,0,0,5.383-1.04,7.177,7.177,0,0,0,2.03-9.938l-.111-.172L38.7,30.881l.172.111A7.168,7.168,0,0,0,48.8,21.054M25,47.536a4.707,4.707,0,1,1,4.706-4.707A4.711,4.711,0,0,1,25,47.536M42.819,29.71a4.707,4.707,0,0,1-.1-9.413h.111A4.724,4.724,0,0,1,47.536,25a4.726,4.726,0,0,1-4.717,4.706M30.982,3.228a7.172,7.172,0,0,0-11.968,7.908l.111.172-7.817,7.827-.172-.121a7.206,7.206,0,0,0-7.908,0,7.172,7.172,0,1,0,9.938,2.03l-.121-.172,7.625-7.615.061-.3.313.212a7.172,7.172,0,0,0,9.938-9.938M7.177,29.71a4.706,4.706,0,1,1,4.706-4.7,4.711,4.711,0,0,1-4.706,4.7M25,11.894h-.01a4.724,4.724,0,0,1-4.707-4.717A4.712,4.712,0,1,1,25,11.894M48.8,3.228A7.168,7.168,0,1,0,36.84,11.136l.111.172-7.827,7.827-.172-.111a7.173,7.173,0,0,0-9.938,9.938l.111.172-7.817,7.817-.172-.111a7.172,7.172,0,1,0,2.03,2.03l-.121-.172,7.827-7.827.172.121a7.172,7.172,0,0,0,9.938-9.938l-.111-.182L38.7,13.055l.172.111A7.167,7.167,0,0,0,48.8,3.228M7.177,47.536a4.707,4.707,0,1,1,4.706-4.707,4.711,4.711,0,0,1-4.706,4.707M25,29.71h-.01a4.668,4.668,0,0,1-3.323-1.374,4.706,4.706,0,1,1,6.656-6.656A4.662,4.662,0,0,1,29.71,25,4.711,4.711,0,0,1,25,29.71M42.819,11.894a4.712,4.712,0,1,1,4.717-4.706,4.711,4.711,0,0,1-4.717,4.706M7.177.006a7.176,7.176,0,0,0,0,14.352h.01A7.176,7.176,0,0,0,7.177.006m0,11.887a4.71,4.71,0,0,1-.252-9.413V2.47h.252a4.712,4.712,0,0,1,0,9.423M42.819,35.658h-.162a7.262,7.262,0,1,0,.162,0m0,11.877a4.707,4.707,0,1,1,4.717-4.707,4.711,4.711,0,0,1-4.717,4.707" transform="translate(0 0)" fill="#64a84d"/>
    </g>
  </g>
</svg>
