<svg xmlns="http://www.w3.org/2000/svg" width="50.717" height="50" viewBox="0 0 50.717 50">
  <path id="noun-barcode-1923705" d="M139.489,148.885h-2.536V114.56h2.536Zm20.287-34.327H157.24v34.327h2.536Zm-25.359,0h-5.072v34.327h5.072Zm15.215,0h-7.608v34.327h7.608Zm-22.823,0h-2.536v34.327h2.536Zm40.573-5.225V154.11a2.653,2.653,0,0,1-.742,1.847,2.5,2.5,0,0,1-1.793.765H119.2a2.5,2.5,0,0,1-1.793-.765,2.653,2.653,0,0,1-.743-1.847V109.334a2.653,2.653,0,0,1,.743-1.847,2.5,2.5,0,0,1,1.793-.765h45.645a2.5,2.5,0,0,1,1.793.765A2.653,2.653,0,0,1,167.383,109.334Zm-2.536,0H119.2V154.11h45.645ZM154.7,114.559h-2.536v34.327H154.7Z" transform="translate(-116.666 -106.722)" fill="#64a84d"/>
</svg>
