<svg xmlns="http://www.w3.org/2000/svg" width="40.484" height="50" viewBox="0 0 40.484 50">
  <g id="noun-shield-4475434" transform="translate(-173.91 -59.809)">
    <path id="Path_38572" data-name="Path 38572" d="M211.594,64.274,194.98,59.93h0a3.76,3.76,0,0,0-1.908,0L176.7,64.271a3.752,3.752,0,0,0-2.789,3.624V89.748a13.712,13.712,0,0,0,6.155,11.46l12.175,8.061a3.247,3.247,0,0,0,3.572.011L208.17,101.2A13.7,13.7,0,0,0,214.395,89.7V67.9a3.749,3.749,0,0,0-2.8-3.626Zm.3,25.425a11.21,11.21,0,0,1-5.093,9.413l-12.358,8.077a.748.748,0,0,1-.825,0l-12.175-8.061a11.219,11.219,0,0,1-5.036-9.376V67.894a1.251,1.251,0,0,1,.93-1.208l16.373-4.337a1.231,1.231,0,0,1,.32-.042,1.257,1.257,0,0,1,.316.041l16.614,4.344A1.249,1.249,0,0,1,211.9,67.9Z" transform="translate(0 0)" fill="#64a84d"/>
    <path id="Path_38573" data-name="Path 38573" d="M245.032,107.8l-13.07-3.464a1.132,1.132,0,0,0-.589,0l-12.855,3.453a1.17,1.17,0,0,0-.861,1.133v18.713a8.224,8.224,0,0,0,3.628,6.848l9.753,6.548h0a1.145,1.145,0,0,0,1.273,0l9.916-6.569a8.219,8.219,0,0,0,3.669-6.876V108.935a1.171,1.171,0,0,0-.865-1.135Zm-1.45,19.79a5.869,5.869,0,0,1-2.622,4.911l-9.278,6.148-9.119-6.123a5.878,5.878,0,0,1-2.592-4.891v-17.81l11.7-3.141,11.911,3.157Z" transform="translate(-37.625 -38.263)" fill="#64a84d"/>
  </g>
</svg>
