<svg id="Group_70110" data-name="Group 70110" xmlns="http://www.w3.org/2000/svg" xmlns:xlink="http://www.w3.org/1999/xlink" width="51.7" height="50" viewBox="0 0 51.7 50">
  <defs>
    <clipPath id="clip-path">
      <rect id="Rectangle_18458" data-name="Rectangle 18458" width="51.7" height="50" fill="none"/>
    </clipPath>
  </defs>
  <g id="Group_70109" data-name="Group 70109" transform="translate(0 0)" clip-path="url(#clip-path)">
    <path id="Path_112015" data-name="Path 112015" d="M39.724,32.211H35.941a1.353,1.353,0,0,0,0,2.7h3.783a1.353,1.353,0,0,0,0-2.7" transform="translate(0 2.269)" fill="#64a84d"/>
    <path id="Path_112016" data-name="Path 112016" d="M48.45,0a1.381,1.381,0,0,0-.21.011.808.808,0,0,1-.32.054H3.79A1.059,1.059,0,0,1,3.47.011,1.381,1.381,0,0,0,3.26,0,3.381,3.381,0,0,0,0,3.49V41.233a3.932,3.932,0,0,0,3.79,4.046H5.67V50h5.88l1.89-4.721H38.26L40.15,50h5.88V45.279h1.89a3.93,3.93,0,0,0,3.78-4.046V3.49A3.38,3.38,0,0,0,48.45,0M27.11,2.762H47.92A1.3,1.3,0,0,1,49.18,4.11v9.452a1.308,1.308,0,0,1-1.26,1.349H27.11ZM2.52,4.11A1.316,1.316,0,0,1,3.79,2.762h20.8V14.911H3.79a1.323,1.323,0,0,1-1.27-1.349Zm1.27,13.5h20.8V29.758H3.79a1.308,1.308,0,0,1-1.26-1.349l-.01-9.452a1.316,1.316,0,0,1,1.27-1.349M9.89,47.3H8.2V45.279h2.5ZM24.6,42.582H3.79a1.308,1.308,0,0,1-1.26-1.349V32.22a3.612,3.612,0,0,0,1.26.235H24.6Zm2.51-24.973H47.92a1.3,1.3,0,0,1,1.26,1.349v9.452a1.308,1.308,0,0,1-1.26,1.349H27.11ZM43.51,47.3H41.82l-.81-2.023h2.5Zm5.68-6.069a1.315,1.315,0,0,1-1.26,1.349H27.12V32.456H47.93a3.656,3.656,0,0,0,1.26-.235Z" transform="translate(0 0)" fill="#64a84d"/>
    <path id="Path_112017" data-name="Path 112017" d="M15.135,32.211H11.352a1.353,1.353,0,0,0,0,2.7h3.783a1.353,1.353,0,0,0,0-2.7" transform="translate(0 2.269)" fill="#64a84d"/>
    <path id="Path_112018" data-name="Path 112018" d="M39.724,18.34H35.941a1.353,1.353,0,0,0,0,2.7h3.783a1.353,1.353,0,0,0,0-2.7" transform="translate(0 1.292)" fill="#64a84d"/>
    <path id="Path_112019" data-name="Path 112019" d="M11.352,21.04h3.783a1.353,1.353,0,0,0,0-2.7H11.352a1.353,1.353,0,0,0,0,2.7" transform="translate(0 1.292)" fill="#64a84d"/>
    <path id="Path_112020" data-name="Path 112020" d="M35.941,7.169h3.783a1.308,1.308,0,0,0,1.261-1.35,1.308,1.308,0,0,0-1.261-1.35H35.941a1.308,1.308,0,0,0-1.261,1.35,1.308,1.308,0,0,0,1.261,1.35" transform="translate(0 0.315)" fill="#64a84d"/>
    <path id="Path_112021" data-name="Path 112021" d="M11.352,7.169h3.783A1.308,1.308,0,0,0,16.4,5.819a1.308,1.308,0,0,0-1.261-1.35H11.352a1.308,1.308,0,0,0-1.261,1.35,1.308,1.308,0,0,0,1.261,1.35" transform="translate(0 0.315)" fill="#64a84d"/>
  </g>
</svg>
