<svg xmlns="http://www.w3.org/2000/svg" width="44.888" height="50" viewBox="0 0 44.888 50">
  <g id="noun-24-hours-2853670" transform="translate(-126.482 -31.175)">
    <path id="Path_39886" data-name="Path 39886" d="M340.677,152.927V140.444a1.172,1.172,0,1,0-2.343,0V153.4a1.191,1.191,0,0,0,.029.146,1.164,1.164,0,0,0,.058.291,1.061,1.061,0,0,0,.157.247.975.975,0,0,0,.084.129l5.015,5.178a1.171,1.171,0,0,0,1.684-1.629Z" transform="translate(-190.579 -97.232)" fill="#64a84d"/>
    <path id="Path_39887" data-name="Path 39887" d="M270.044,38.643a22.324,22.324,0,0,0-15.881-4.849,4.563,4.563,0,1,0,.406,2.325A20.09,20.09,0,0,1,271.688,68.74a1.173,1.173,0,0,0,1.83,1.467,22.479,22.479,0,0,0-3.473-31.563Z" transform="translate(-107.073)" fill="#64a84d"/>
    <path id="Path_39888" data-name="Path 39888" d="M154.868,166.128a4.544,4.544,0,0,0-4.513,4.158,20.091,20.091,0,0,1-17.118-32.622,1.172,1.172,0,0,0-1.829-1.467,22.456,22.456,0,0,0,17.484,36.5c.62,0,1.247-.039,1.869-.091a4.545,4.545,0,1,0,4.108-6.48Z" transform="translate(0 -94.055)" fill="#64a84d"/>
  </g>
</svg>
