<svg xmlns="http://www.w3.org/2000/svg" width="44.821" height="50" viewBox="0 0 44.821 50">
  <g id="noun-compliance-2673723" transform="translate(-112.561 -15.124)">
    <path id="Path_39868" data-name="Path 39868" d="M152.466,45.3a4.873,4.873,0,0,0-3.541,1.533l-3.964-2.273a11.272,11.272,0,0,0,.951-4.387,11.077,11.077,0,0,0-.951-4.387l3.964-2.273a4.873,4.873,0,0,0,3.541,1.533,4.915,4.915,0,1,0-4.915-4.915,5.76,5.76,0,0,0,.211,1.374L143.8,33.781a10.687,10.687,0,0,0-7.611-4.387V24.8a4.915,4.915,0,1,0-2.325,0v4.6a10.9,10.9,0,0,0-7.664,4.387l-3.964-2.273a5.74,5.74,0,0,0,.211-1.374,4.915,4.915,0,1,0-4.915,4.915,4.873,4.873,0,0,0,3.541-1.533l3.964,2.273a9.684,9.684,0,0,0-1,4.334,10.878,10.878,0,0,0,.951,4.387l-3.964,2.273a4.873,4.873,0,0,0-3.541-1.533,4.915,4.915,0,1,0,4.915,4.915,5.76,5.76,0,0,0-.211-1.374l3.964-2.326a10.8,10.8,0,0,0,7.664,4.387v4.6a4.876,4.876,0,0,0-3.753,4.757,4.915,4.915,0,1,0,9.831,0,4.875,4.875,0,0,0-3.753-4.757v-4.6a10.687,10.687,0,0,0,7.611-4.387l3.964,2.326a5.74,5.74,0,0,0-.211,1.374,4.915,4.915,0,0,0,9.831,0,4.848,4.848,0,0,0-4.862-4.863Zm0-17.865a2.59,2.59,0,1,1-2.59,2.59A2.594,2.594,0,0,1,152.466,27.439Zm-34.99,5.18a2.59,2.59,0,1,1,2.59-2.59A2.594,2.594,0,0,1,117.476,32.619Zm0,20.191a2.59,2.59,0,1,1,2.59-2.59A2.594,2.594,0,0,1,117.476,52.809Zm14.905-32.876a2.59,2.59,0,1,1,2.59,2.59A2.594,2.594,0,0,1,132.381,19.933Zm5.18,40.381a2.59,2.59,0,1,1-2.59-2.59A2.594,2.594,0,0,1,137.561,60.315Zm-2.59-11.575a8.615,8.615,0,1,1,8.615-8.615A8.617,8.617,0,0,1,134.971,48.739Zm17.5,4.07a2.59,2.59,0,1,1,2.59-2.59A2.594,2.594,0,0,1,152.466,52.809Z" transform="translate(0)" fill="#64a84d"/>
    <path id="Path_39869" data-name="Path 39869" d="M303.755,241.978l-5.283,5.283-2.548-2.548A1.362,1.362,0,1,0,294,246.639l3.542,3.542a1.412,1.412,0,0,0,.994.373,1.525,1.525,0,0,0,.994-.373l6.214-6.214a1.315,1.315,0,0,0,0-1.926,1.339,1.339,0,0,0-1.989-.062Z" transform="translate(-164.875 -205.747)" fill="#64a84d"/>
  </g>
</svg>
