<svg xmlns="http://www.w3.org/2000/svg" width="193.025" height="70.84" viewBox="0 0 193.025 70.84">
  <g id="Group_36033" data-name="Group 36033" transform="translate(-138 -7237.427)">
    <path id="Path_31103" data-name="Path 31103" d="M53.343,69.2l8.409,14.565H78.57L86.979,69.2,78.57,54.632H61.752ZM77.165,57.065l7,12.132-7,12.132H63.157l-7-12.132,7-12.132Z" transform="translate(102.542 7201.112)" fill="#fff"/>
    <path id="Path_31104" data-name="Path 31104" d="M23.934,25.087,16.657,12.48A42.819,42.819,0,0,1,5.652,21.956,44.051,44.051,0,0,1,0,24.834,93.908,93.908,0,0,0,3.811,39.652H15.527ZM5.559,37.218A91.982,91.982,0,0,1,2.739,26.276c1.408-.666,2.8-1.414,4.168-2.236a46.129,46.129,0,0,0,9.328-7.425l4.89,8.472-7,12.132Z" transform="translate(138 7229.131)" fill="#fff"/>
    <path id="Path_31105" data-name="Path 31105" d="M155.338,22.249a42.835,42.835,0,0,1-10.883-9.328l-7.762,13.443,8.41,14.565h11.726a93.385,93.385,0,0,0,4.161-15.8,44.051,44.051,0,0,1-5.652-2.878M155.1,38.5h-8.6l-7-12.132,5.383-9.322a46.142,46.142,0,0,0,9.2,7.291,47.22,47.22,0,0,0,4.168,2.235A91.432,91.432,0,0,1,155.1,38.5" transform="translate(47.138 7228.838)" fill="#fff"/>
    <path id="Path_31106" data-name="Path 31106" d="M136.693,116.838l5.174,8.962a77.1,77.1,0,0,0,14.23-23.527H145.1Zm15.764-12.132a74.482,74.482,0,0,1-10.208,16.888l-2.746-4.756,7.005-12.132Z" transform="translate(47.138 7169.444)" fill="#fff"/>
    <path id="Path_31107" data-name="Path 31107" d="M68.245,149.081l-5.676,9.831a61.33,61.33,0,0,0,14.086,11.025A61.374,61.374,0,0,0,90.74,158.912l-5.676-9.831Zm8.41,18.052a59.427,59.427,0,0,1-11.048-8.616l4.043-7H83.66l4.042,7a59.452,59.452,0,0,1-11.048,8.616" transform="translate(96.41 7138.33)" fill="#fff"/>
    <path id="Path_31108" data-name="Path 31108" d="M25.407,102.273H14.593a77.163,77.163,0,0,0,14.12,23.4l5.1-8.839Zm2.929,19.19a74.587,74.587,0,0,1-10.1-16.757H24l7,12.132Z" transform="translate(128.299 7169.444)" fill="#fff"/>
    <path id="Path_31109" data-name="Path 31109" d="M80.289,16.25,88.482,2.059Q87.776,1.071,87.112,0H56.284q-.571.92-1.17,1.776L63.47,16.25ZM85.456,2.434,78.884,13.817H64.874L58.3,2.434Z" transform="translate(101.365 7237.426)" fill="#fff"/>
    <path id="Path_31110" data-name="Path 31110" d="M95.054,94.73h6.205l-1.862-4h0a2.3,2.3,0,1,0-2.51,0h0Z" transform="translate(74.816 7179.929)" fill="#fff"/>
    <path id="Path_31111" data-name="Path 31111" d="M247.9,80.069l2.316-1.39q2.445,4.5,5.651,4.5a5.412,5.412,0,0,0,2.575-.639,4.519,4.519,0,0,0,1.834-1.714,4.436,4.436,0,0,0,.63-2.279,4.621,4.621,0,0,0-.926-2.686,22.2,22.2,0,0,0-4.668-4.372,23.829,23.829,0,0,1-4.243-3.724,6.8,6.8,0,0,1-1.445-4.168,6.331,6.331,0,0,1,.852-3.242,6.086,6.086,0,0,1,2.4-2.307,6.92,6.92,0,0,1,3.363-.843,7.169,7.169,0,0,1,3.6.954,12.36,12.36,0,0,1,3.548,3.511l-2.223,1.686a10.671,10.671,0,0,0-2.622-2.686,4.516,4.516,0,0,0-2.362-.649,3.741,3.741,0,0,0-2.7,1,3.274,3.274,0,0,0-1.047,2.464,4.2,4.2,0,0,0,.371,1.723,6.353,6.353,0,0,0,1.352,1.816q.538.519,3.521,2.723a19.836,19.836,0,0,1,4.854,4.65,7.5,7.5,0,0,1,1.315,4.094,6.949,6.949,0,0,1-2.251,5.15,7.565,7.565,0,0,1-5.475,2.186,8.029,8.029,0,0,1-4.5-1.325,12.111,12.111,0,0,1-3.724-4.437" transform="translate(-26.783 7199.4)" fill="#fff"/>
    <path id="Path_31112" data-name="Path 31112" d="M304.779,58.091h2.593v7.485h4.113v2.242h-4.113V85.733h-2.593V67.818H301.24V65.576h3.539Z" transform="translate(-62.24 7198.813)" fill="#fff"/>
    <path id="Path_31113" data-name="Path 31113" d="M345.575,78.868A9.985,9.985,0,0,1,353.3,82.24a10.822,10.822,0,0,1-.158,14.664,10.655,10.655,0,0,1-15.144,0,10.8,10.8,0,0,1-.158-14.645,9.979,9.979,0,0,1,7.739-3.39m-.009,2.538a7.482,7.482,0,0,0-5.559,2.39,7.987,7.987,0,0,0-2.324,5.78,8.2,8.2,0,0,0,1.06,4.076,7.512,7.512,0,0,0,2.863,2.918,8.144,8.144,0,0,0,7.92,0,7.512,7.512,0,0,0,2.863-2.918,8.2,8.2,0,0,0,1.06-4.076,7.97,7.97,0,0,0-2.334-5.78,7.49,7.49,0,0,0-5.549-2.39" transform="translate(-84.715 7185.002)" fill="#fff"/>
    <path id="Path_31114" data-name="Path 31114" d="M408.97,79.387h2.649v2.946a9.3,9.3,0,0,1,2.5-2.6,4.931,4.931,0,0,1,2.742-.861,4.732,4.732,0,0,1,2.3.686l-1.352,2.186a3.615,3.615,0,0,0-1.371-.352,3.751,3.751,0,0,0-2.5,1.065A6.739,6.739,0,0,0,412.1,85.76a31.706,31.706,0,0,0-.482,6.966v6.818H408.97Z" transform="translate(-133.85 7185.002)" fill="#fff"/>
    <path id="Path_31115" data-name="Path 31115" d="M456.637,92.855,458.823,94a11.912,11.912,0,0,1-2.485,3.409,9.867,9.867,0,0,1-3.171,1.973,11.064,11.064,0,0,1-3.987.676,9.634,9.634,0,0,1-7.714-3.233,10.906,10.906,0,0,1-2.781-7.309,10.774,10.774,0,0,1,2.355-6.836,9.628,9.628,0,0,1,7.992-3.817,9.943,9.943,0,0,1,8.233,3.909,10.912,10.912,0,0,1,2.225,6.892H441.352a8.207,8.207,0,0,0,2.244,5.758,7.16,7.16,0,0,0,5.361,2.246,8.613,8.613,0,0,0,3-.535,7.866,7.866,0,0,0,2.476-1.421,12.082,12.082,0,0,0,2.208-2.861m0-5.428a8.606,8.606,0,0,0-1.512-3.316,7.159,7.159,0,0,0-2.625-2,8.044,8.044,0,0,0-3.432-.76,7.393,7.393,0,0,0-5.1,1.908,8.622,8.622,0,0,0-2.356,4.169Z" transform="translate(-153.602 7185.002)" fill="#fff"/>
    <rect id="Rectangle_9606" data-name="Rectangle 9606" width="2.723" height="27.252" transform="translate(310.264 7257.292)" fill="#fff"/>
    <path id="Path_31116" data-name="Path 31116" d="M531.175,61.919V59.251h14.932v2.668h-6.077V86.5h-2.779V61.919Z" transform="translate(-215.082 7198.041)" fill="#fff"/>
    <path id="Path_31117" data-name="Path 31117" d="M256.586,157.362h4.782v.824H257.42v2.639h3.914v.824H257.42v3.309h3.914v.824h-4.748Z" transform="translate(-32.558 7132.826)" fill="#fff"/>
    <path id="Path_31118" data-name="Path 31118" d="M274.453,163.9h.794v2.908a6.285,6.285,0,0,0,.113,1.465,1.634,1.634,0,0,0,.651.9,1.962,1.962,0,0,0,1.145.332,1.921,1.921,0,0,0,1.128-.323,1.657,1.657,0,0,0,.639-.85,6.057,6.057,0,0,0,.119-1.528V163.9h.811v3.057a4.877,4.877,0,0,1-.3,1.941,2.289,2.289,0,0,1-.9,1.022,2.814,2.814,0,0,1-1.5.369,2.842,2.842,0,0,1-1.506-.369,2.269,2.269,0,0,1-.9-1.031,5.073,5.073,0,0,1-.3-1.989Z" transform="translate(-44.434 7128.479)" fill="#fff"/>
    <path id="Path_31119" data-name="Path 31119" d="M294.926,163.583h.811v.91a2.857,2.857,0,0,1,.766-.8,1.5,1.5,0,0,1,.84-.267,1.436,1.436,0,0,1,.7.212l-.414.675a1.1,1.1,0,0,0-.419-.109,1.145,1.145,0,0,0-.766.329,2.09,2.09,0,0,0-.562,1.022,9.9,9.9,0,0,0-.148,2.152v2.106h-.811Z" transform="translate(-58.043 7128.797)" fill="#fff"/>
    <path id="Path_31120" data-name="Path 31120" d="M308.57,163.422a3.045,3.045,0,0,1,2.364,1.042,3.366,3.366,0,0,1-.048,4.531,3.242,3.242,0,0,1-4.637,0,3.358,3.358,0,0,1-.048-4.525,3.043,3.043,0,0,1,2.369-1.048m0,.785a2.282,2.282,0,0,0-1.7.738,2.48,2.48,0,0,0-.711,1.786,2.551,2.551,0,0,0,.324,1.259,2.31,2.31,0,0,0,.877.9,2.472,2.472,0,0,0,2.425,0,2.315,2.315,0,0,0,.877-.9,2.552,2.552,0,0,0,.324-1.259,2.474,2.474,0,0,0-.714-1.786,2.285,2.285,0,0,0-1.7-.738" transform="translate(-64.971 7128.797)" fill="#fff"/>
    <path id="Path_31121" data-name="Path 31121" d="M328.967,163.583h.794v1.145a3.2,3.2,0,0,1,1.083-.979,2.857,2.857,0,0,1,1.366-.327,3.034,3.034,0,0,1,2.25.956,3.172,3.172,0,0,1,.935,2.3,3.235,3.235,0,0,1-.926,2.333,3.1,3.1,0,0,1-3.591.649,3.417,3.417,0,0,1-1.117-.922v3.349h-.794Zm3.177.612a2.323,2.323,0,0,0-1.735.726,2.493,2.493,0,0,0-.7,1.807,2.584,2.584,0,0,0,.314,1.275,2.3,2.3,0,0,0,.9.9,2.471,2.471,0,0,0,1.237.332,2.314,2.314,0,0,0,1.2-.335,2.442,2.442,0,0,0,.9-.935,2.546,2.546,0,0,0,0-2.516,2.4,2.4,0,0,0-.891-.923,2.374,2.374,0,0,0-1.222-.329" transform="translate(-80.67 7128.797)" fill="#fff"/>
    <path id="Path_31122" data-name="Path 31122" d="M357.171,167.744l.669.355a3.681,3.681,0,0,1-.761,1.053,3.012,3.012,0,0,1-.971.61,3.354,3.354,0,0,1-1.221.209,2.938,2.938,0,0,1-2.362-1,3.389,3.389,0,0,1-.852-2.258,3.349,3.349,0,0,1,.721-2.112,2.939,2.939,0,0,1,2.448-1.18,3.035,3.035,0,0,1,2.521,1.208,3.393,3.393,0,0,1,.681,2.13h-5.554a2.549,2.549,0,0,0,.687,1.779,2.183,2.183,0,0,0,1.642.694,2.614,2.614,0,0,0,.917-.165,2.412,2.412,0,0,0,.758-.439,3.728,3.728,0,0,0,.676-.884m0-1.677a2.663,2.663,0,0,0-.463-1.025,2.2,2.2,0,0,0-.8-.618,2.441,2.441,0,0,0-1.051-.235,2.251,2.251,0,0,0-1.562.589,2.672,2.672,0,0,0-.722,1.288Z" transform="translate(-95.764 7128.797)" fill="#fff"/>
    <path id="Path_31123" data-name="Path 31123" d="M380.689,163.583v6.228h-.783V168.74a3.4,3.4,0,0,1-1.12.922,3.108,3.108,0,0,1-3.6-.649,3.232,3.232,0,0,1-.928-2.333,3.169,3.169,0,0,1,.936-2.3,3.038,3.038,0,0,1,2.252-.956,2.89,2.89,0,0,1,1.376.327,3.136,3.136,0,0,1,1.081.979v-1.145Zm-3.174.612a2.378,2.378,0,0,0-1.224.329,2.4,2.4,0,0,0-.892.923,2.543,2.543,0,0,0,0,2.516,2.444,2.444,0,0,0,.9.935,2.328,2.328,0,0,0,1.21.335,2.462,2.462,0,0,0,1.236-.332,2.311,2.311,0,0,0,.9-.9,2.581,2.581,0,0,0,.314-1.275,2.491,2.491,0,0,0-.705-1.807,2.328,2.328,0,0,0-1.737-.726" transform="translate(-110.778 7128.797)" fill="#fff"/>
    <path id="Path_31124" data-name="Path 31124" d="M398.76,163.583h.794V164.7a3.332,3.332,0,0,1,1.056-.959,2.576,2.576,0,0,1,1.259-.318,2.176,2.176,0,0,1,1.228.355,2.108,2.108,0,0,1,.791.956,5.094,5.094,0,0,1,.255,1.872v3.206h-.794V166.84a7.37,7.37,0,0,0-.089-1.437,1.447,1.447,0,0,0-1.551-1.242,1.947,1.947,0,0,0-1.291.481,2.254,2.254,0,0,0-.752,1.19,8.339,8.339,0,0,0-.114,1.695v2.284h-.794Z" transform="translate(-127.063 7128.797)" fill="#fff"/>
    <path id="Path_31125" data-name="Path 31125" d="M431.824,157.362l3.891,8.42h-.9l-1.313-2.77h-3.595l-1.3,2.77h-.93l3.943-8.42Zm-.105,1.789-1.43,3.048h2.853Z" transform="translate(-146.285 7132.826)" fill="#fff"/>
    <path id="Path_31126" data-name="Path 31126" d="M454.223,163.583h.811v.91a2.86,2.86,0,0,1,.766-.8,1.5,1.5,0,0,1,.84-.267,1.438,1.438,0,0,1,.7.212l-.414.675a1.1,1.1,0,0,0-.42-.109,1.143,1.143,0,0,0-.766.329,2.084,2.084,0,0,0-.562,1.022,9.872,9.872,0,0,0-.148,2.152v2.106h-.811Z" transform="translate(-163.93 7128.797)" fill="#fff"/>
    <path id="Path_31127" data-name="Path 31127" d="M470.959,164.876l-.63.4a2.63,2.63,0,0,0-2.227-1.094,2.564,2.564,0,0,0-1.873.732,2.4,2.4,0,0,0-.745,1.778,2.545,2.545,0,0,0,.343,1.281,2.411,2.411,0,0,0,.94.932,2.826,2.826,0,0,0,3.561-.761l.63.418a2.983,2.983,0,0,1-1.189,1.043,3.772,3.772,0,0,1-1.7.37,3.339,3.339,0,0,1-2.428-.939,3.068,3.068,0,0,1-.964-2.284,3.285,3.285,0,0,1,.451-1.68,3.189,3.189,0,0,1,1.24-1.211,3.6,3.6,0,0,1,1.764-.435,3.743,3.743,0,0,1,1.183.189,3.282,3.282,0,0,1,.967.492,2.674,2.674,0,0,1,.675.773" transform="translate(-170.88 7128.797)" fill="#fff"/>
    <path id="Path_31128" data-name="Path 31128" d="M487.96,156.73h.794v3.52a3.385,3.385,0,0,1,1.061-.959,2.567,2.567,0,0,1,1.254-.318,2.174,2.174,0,0,1,1.228.355,2.108,2.108,0,0,1,.791.953,5.092,5.092,0,0,1,.255,1.875v3.206h-.794v-2.971a7.663,7.663,0,0,0-.085-1.437,1.634,1.634,0,0,0-.536-.93,1.579,1.579,0,0,0-1.019-.312,1.946,1.946,0,0,0-1.29.481,2.254,2.254,0,0,0-.752,1.19,8.3,8.3,0,0,0-.113,1.695v2.284h-.794Z" transform="translate(-186.356 7133.246)" fill="#fff"/>
    <path id="Path_31129" data-name="Path 31129" d="M508.626,156.252a.627.627,0,0,1,.463.194.645.645,0,0,1,.192.47.636.636,0,0,1-.192.463.642.642,0,0,1-.921,0,.637.637,0,0,1-.192-.463.646.646,0,0,1,.192-.47.621.621,0,0,1,.458-.194m-.394,2.565h.794v6.228h-.794Z" transform="translate(-199.661 7133.563)" fill="#fff"/>
    <path id="Path_31130" data-name="Path 31130" d="M514.287,163.9h.845l2.072,4.54,2.047-4.54h.851l-2.825,6.228h-.147Z" transform="translate(-203.856 7128.479)" fill="#fff"/>
    <path id="Path_31131" data-name="Path 31131" d="M539.833,167.744l.67.355a3.682,3.682,0,0,1-.761,1.053,3.014,3.014,0,0,1-.971.61,3.353,3.353,0,0,1-1.221.209,2.938,2.938,0,0,1-2.362-1,3.389,3.389,0,0,1-.852-2.258,3.347,3.347,0,0,1,.721-2.112,2.938,2.938,0,0,1,2.447-1.18,3.035,3.035,0,0,1,2.521,1.208,3.4,3.4,0,0,1,.682,2.13h-5.554a2.551,2.551,0,0,0,.687,1.779,2.183,2.183,0,0,0,1.642.694,2.617,2.617,0,0,0,.917-.165,2.407,2.407,0,0,0,.758-.439,3.719,3.719,0,0,0,.676-.884m0-1.677a2.673,2.673,0,0,0-.463-1.025,2.2,2.2,0,0,0-.8-.618,2.441,2.441,0,0,0-1.051-.235,2.252,2.252,0,0,0-1.562.589,2.673,2.673,0,0,0-.721,1.288Z" transform="translate(-217.183 7128.797)" fill="#fff"/>
    <path id="Path_31132" data-name="Path 31132" d="M559.7,164.264l-.51.532a1.829,1.829,0,0,0-1.246-.624.938.938,0,0,0-.663.258.8.8,0,0,0-.276.6.9.9,0,0,0,.227.578,3.2,3.2,0,0,0,.955.659,3.572,3.572,0,0,1,1.205.893,1.636,1.636,0,0,1,.313.979,1.764,1.764,0,0,1-.534,1.3,1.814,1.814,0,0,1-1.335.532,2.314,2.314,0,0,1-1.02-.235,2.214,2.214,0,0,1-.8-.647l.5-.572a1.731,1.731,0,0,0,1.291.693,1.158,1.158,0,0,0,.813-.309.96.96,0,0,0,.335-.727.938.938,0,0,0-.222-.612,3.563,3.563,0,0,0-1-.664,3.211,3.211,0,0,1-1.137-.859,1.627,1.627,0,0,1-.3-.967,1.581,1.581,0,0,1,.48-1.179,1.664,1.664,0,0,1,1.213-.469,2.5,2.5,0,0,1,1.716.842" transform="translate(-231.591 7128.797)" fill="#fff"/>
  </g>
</svg>
