<svg xmlns="http://www.w3.org/2000/svg" xmlns:xlink="http://www.w3.org/1999/xlink" width="131.413" height="48.228" viewBox="0 0 131.413 48.228">
  <defs>
    <clipPath id="clip-path">
      <rect id="Rectangle_9607" data-name="Rectangle 9607" width="131.413" height="48.228" fill="#4b5358"/>
    </clipPath>
  </defs>
  <g id="Group_22093" data-name="Group 22093" transform="translate(-130 -13.155)">
    <g id="Group_36230" data-name="Group 36230" transform="translate(130 13.155)">
      <path id="Path_31103" data-name="Path 31103" d="M53.343,64.548l5.725,9.916h11.45l5.725-9.916-5.725-9.916H59.068Zm16.218-8.259,4.768,8.259-4.768,8.259H60.024l-4.769-8.259,4.769-8.259Z" transform="translate(-41.167 -42.162)" fill="#64a84d"/>
      <g id="Group_22088" data-name="Group 22088">
        <g id="Group_22087" data-name="Group 22087" clip-path="url(#clip-path)">
          <path id="Path_31104" data-name="Path 31104" d="M16.295,21.063,11.341,12.48a29.151,29.151,0,0,1-7.492,6.451A29.989,29.989,0,0,1,0,20.891,63.933,63.933,0,0,0,2.594,30.979h7.976ZM3.784,29.322a62.622,62.622,0,0,1-1.919-7.45c.958-.453,1.909-.963,2.838-1.522a31.405,31.405,0,0,0,6.35-5.055l3.329,5.768L9.614,29.322Z" transform="translate(0 -9.631)" fill="#64a84d"/>
          <path id="Path_31105" data-name="Path 31105" d="M149.386,19.271a29.163,29.163,0,0,1-7.409-6.35l-5.285,9.152,5.726,9.916H150.4a63.578,63.578,0,0,0,2.833-10.758,29.989,29.989,0,0,1-3.848-1.96m-.159,11.061h-5.852l-4.769-8.259,3.665-6.347a31.414,31.414,0,0,0,6.262,4.964,32.145,32.145,0,0,0,2.838,1.522,62.248,62.248,0,0,1-2.142,8.12" transform="translate(-105.491 -9.972)" fill="#64a84d"/>
          <path id="Path_31106" data-name="Path 31106" d="M136.693,112.189l3.523,6.1a52.488,52.488,0,0,0,9.688-16.017h-7.485Zm10.732-8.259a50.708,50.708,0,0,1-6.95,11.5l-1.869-3.238,4.769-8.259Z" transform="translate(-105.491 -78.928)" fill="#64a84d"/>
          <path id="Path_31107" data-name="Path 31107" d="M66.433,149.081l-3.864,6.693a41.755,41.755,0,0,0,9.59,7.506,41.785,41.785,0,0,0,9.59-7.506l-3.864-6.693Zm5.726,12.29a40.458,40.458,0,0,1-7.521-5.866l2.752-4.767h9.538L79.68,155.5a40.475,40.475,0,0,1-7.521,5.866" transform="translate(-48.287 -115.051)" fill="#64a84d"/>
          <path id="Path_31108" data-name="Path 31108" d="M21.955,102.273H14.593a52.533,52.533,0,0,0,9.613,15.934l3.473-6.018Zm1.994,13.065a50.779,50.779,0,0,1-6.878-11.408H21l4.768,8.259Z" transform="translate(-11.262 -78.928)" fill="#64a84d"/>
          <path id="Path_31109" data-name="Path 31109" d="M72.253,11.064,77.831,1.4Q77.351.73,76.9,0H55.911q-.389.626-.8,1.209L60.8,11.064Zm3.518-9.406L71.3,9.407H61.759l-4.474-7.75Z" transform="translate(-42.534 -0.001)" fill="#64a84d"/>
          <path id="Path_31110" data-name="Path 31110" d="M95.054,92.1h4.225L98.011,89.38h0a1.568,1.568,0,1,0-1.709,0h0Z" transform="translate(-73.357 -66.755)" fill="#64a84d"/>
          <path id="Path_31111" data-name="Path 31111" d="M247.9,72.772l1.577-.946q1.665,3.065,3.847,3.065a3.684,3.684,0,0,0,1.753-.435,3.077,3.077,0,0,0,1.249-1.167,3.02,3.02,0,0,0,.429-1.552,3.146,3.146,0,0,0-.631-1.829,15.109,15.109,0,0,0-3.178-2.977,16.221,16.221,0,0,1-2.889-2.536,4.632,4.632,0,0,1-.984-2.838,4.311,4.311,0,0,1,.58-2.207,4.144,4.144,0,0,1,1.633-1.57,4.711,4.711,0,0,1,2.289-.574,4.881,4.881,0,0,1,2.453.65,8.415,8.415,0,0,1,2.415,2.39l-1.513,1.148a7.264,7.264,0,0,0-1.785-1.829,3.075,3.075,0,0,0-1.608-.442,2.547,2.547,0,0,0-1.835.681,2.229,2.229,0,0,0-.713,1.678,2.856,2.856,0,0,0,.252,1.173,4.325,4.325,0,0,0,.921,1.236q.366.353,2.4,1.854a13.5,13.5,0,0,1,3.3,3.166,5.105,5.105,0,0,1,.9,2.788,4.731,4.731,0,0,1-1.533,3.506,5.15,5.15,0,0,1-3.727,1.489,5.466,5.466,0,0,1-3.065-.9,8.246,8.246,0,0,1-2.536-3.021" transform="translate(-191.313 -44.149)" fill="#4b5358"/>
          <path id="Path_31112" data-name="Path 31112" d="M303.649,58.091h1.766v5.1h2.8v1.526h-2.8v12.2h-1.766v-12.2H301.24V63.187h2.409Z" transform="translate(-232.478 -44.831)" fill="#4b5358"/>
          <path id="Path_31113" data-name="Path 31113" d="M342.216,78.868a6.8,6.8,0,0,1,5.256,2.3,7.368,7.368,0,0,1-.107,9.983,7.254,7.254,0,0,1-10.31,0,7.352,7.352,0,0,1-.107-9.97,6.793,6.793,0,0,1,5.269-2.308M342.21,80.6a5.094,5.094,0,0,0-3.785,1.627,5.438,5.438,0,0,0-1.582,3.935,5.582,5.582,0,0,0,.722,2.775,5.114,5.114,0,0,0,1.949,1.987,5.545,5.545,0,0,0,5.392,0,5.114,5.114,0,0,0,1.949-1.987,5.582,5.582,0,0,0,.722-2.775,5.426,5.426,0,0,0-1.589-3.935A5.1,5.1,0,0,0,342.21,80.6" transform="translate(-258.572 -60.865)" fill="#4b5358"/>
          <path id="Path_31114" data-name="Path 31114" d="M408.97,79.221h1.8v2.006a6.331,6.331,0,0,1,1.7-1.772,3.357,3.357,0,0,1,1.866-.586,3.222,3.222,0,0,1,1.564.467l-.921,1.488a2.461,2.461,0,0,0-.934-.24,2.554,2.554,0,0,0-1.7.725A4.589,4.589,0,0,0,411.1,83.56a21.583,21.583,0,0,0-.328,4.743v4.641h-1.8Z" transform="translate(-315.618 -60.865)" fill="#4b5358"/>
          <path id="Path_31115" data-name="Path 31115" d="M450.907,88.391l1.488.782a8.107,8.107,0,0,1-1.692,2.321,6.717,6.717,0,0,1-2.159,1.343,7.532,7.532,0,0,1-2.714.46,6.559,6.559,0,0,1-5.252-2.2,7.425,7.425,0,0,1-1.894-4.976,7.335,7.335,0,0,1,1.6-4.654,6.554,6.554,0,0,1,5.441-2.6,6.77,6.77,0,0,1,5.605,2.661,7.429,7.429,0,0,1,1.515,4.692H440.5a5.588,5.588,0,0,0,1.528,3.92,4.875,4.875,0,0,0,3.65,1.529,5.864,5.864,0,0,0,2.039-.365,5.357,5.357,0,0,0,1.686-.967,8.227,8.227,0,0,0,1.5-1.948m0-3.7a5.858,5.858,0,0,0-1.029-2.258,4.874,4.874,0,0,0-1.787-1.362,5.475,5.475,0,0,0-2.336-.517,5.033,5.033,0,0,0-3.473,1.3,5.87,5.87,0,0,0-1.6,2.838Z" transform="translate(-338.55 -60.865)" fill="#4b5358"/>
          <rect id="Rectangle_9606" data-name="Rectangle 9606" width="1.854" height="18.554" transform="translate(117.278 13.525)" fill="#4b5358"/>
          <path id="Path_31116" data-name="Path 31116" d="M531.175,61.068V59.251h10.166v1.816H537.2V77.805h-1.892V61.068Z" transform="translate(-409.928 -45.727)" fill="#4b5358"/>
          <path id="Path_31117" data-name="Path 31117" d="M256.586,157.362h3.256v.561h-2.688v1.8h2.665v.561h-2.665v2.252h2.665v.561h-3.233Z" transform="translate(-198.017 -121.442)" fill="#4b5358"/>
          <path id="Path_31118" data-name="Path 31118" d="M274.453,163.9h.541v1.98a4.28,4.28,0,0,0,.077,1,1.112,1.112,0,0,0,.443.616,1.335,1.335,0,0,0,.779.226,1.308,1.308,0,0,0,.768-.22,1.128,1.128,0,0,0,.435-.579,4.123,4.123,0,0,0,.081-1.04V163.9h.552v2.081a3.321,3.321,0,0,1-.2,1.321,1.558,1.558,0,0,1-.61.7,1.915,1.915,0,0,1-1.022.251A1.935,1.935,0,0,1,275.27,168a1.545,1.545,0,0,1-.614-.7,3.454,3.454,0,0,1-.2-1.354Z" transform="translate(-211.806 -126.489)" fill="#4b5358"/>
          <path id="Path_31119" data-name="Path 31119" d="M294.926,163.531h.552v.62A1.944,1.944,0,0,1,296,163.6a1.02,1.02,0,0,1,.572-.181.977.977,0,0,1,.479.145l-.282.46a.747.747,0,0,0-.286-.074.779.779,0,0,0-.522.224,1.422,1.422,0,0,0-.382.7,6.735,6.735,0,0,0-.1,1.465v1.434h-.552Z" transform="translate(-227.606 -126.119)" fill="#4b5358"/>
          <path id="Path_31120" data-name="Path 31120" d="M307.542,163.422a2.073,2.073,0,0,1,1.609.709,2.291,2.291,0,0,1-.033,3.085,2.207,2.207,0,0,1-3.157,0,2.286,2.286,0,0,1-.033-3.081,2.071,2.071,0,0,1,1.613-.713m0,.534a1.554,1.554,0,0,0-1.159.5,1.688,1.688,0,0,0-.484,1.216,1.737,1.737,0,0,0,.221.857,1.573,1.573,0,0,0,.6.614,1.683,1.683,0,0,0,1.651,0,1.576,1.576,0,0,0,.6-.614,1.736,1.736,0,0,0,.221-.857,1.685,1.685,0,0,0-.486-1.216,1.555,1.555,0,0,0-1.157-.5" transform="translate(-235.649 -126.119)" fill="#4b5358"/>
          <path id="Path_31121" data-name="Path 31121" d="M328.967,163.531h.54v.779a2.18,2.18,0,0,1,.737-.666,1.945,1.945,0,0,1,.93-.222,2.065,2.065,0,0,1,1.532.651,2.159,2.159,0,0,1,.637,1.567,2.2,2.2,0,0,1-.631,1.588,2.11,2.11,0,0,1-2.444.442,2.327,2.327,0,0,1-.76-.627v2.28h-.54Zm2.163.417a1.582,1.582,0,0,0-1.181.494,1.7,1.7,0,0,0-.48,1.23,1.759,1.759,0,0,0,.214.868,1.569,1.569,0,0,0,.613.611,1.682,1.682,0,0,0,.842.226,1.576,1.576,0,0,0,.819-.228,1.663,1.663,0,0,0,.611-.636,1.733,1.733,0,0,0,0-1.713,1.635,1.635,0,0,0-.607-.629,1.616,1.616,0,0,0-.832-.224" transform="translate(-253.876 -126.119)" fill="#4b5358"/>
          <path id="Path_31122" data-name="Path 31122" d="M355.416,166.364l.456.242a2.507,2.507,0,0,1-.518.717,2.051,2.051,0,0,1-.661.415,2.283,2.283,0,0,1-.831.142,2,2,0,0,1-1.608-.68,2.307,2.307,0,0,1-.58-1.538,2.28,2.28,0,0,1,.491-1.438,2,2,0,0,1,1.666-.8,2.066,2.066,0,0,1,1.716.822,2.31,2.31,0,0,1,.464,1.45H352.23a1.735,1.735,0,0,0,.468,1.211,1.486,1.486,0,0,0,1.118.472,1.78,1.78,0,0,0,.624-.113,1.642,1.642,0,0,0,.516-.3,2.537,2.537,0,0,0,.46-.6m0-1.142a1.813,1.813,0,0,0-.315-.7,1.5,1.5,0,0,0-.547-.421,1.662,1.662,0,0,0-.715-.16,1.532,1.532,0,0,0-1.063.4,1.819,1.819,0,0,0-.491.877Z" transform="translate(-271.4 -126.119)" fill="#4b5358"/>
          <path id="Path_31123" data-name="Path 31123" d="M378.637,163.531v4.24H378.1v-.729a2.316,2.316,0,0,1-.763.627,2.116,2.116,0,0,1-2.449-.442,2.2,2.2,0,0,1-.632-1.588,2.158,2.158,0,0,1,.638-1.567,2.068,2.068,0,0,1,1.533-.651,1.967,1.967,0,0,1,.937.222,2.135,2.135,0,0,1,.736.666v-.779Zm-2.161.417a1.619,1.619,0,0,0-.833.224,1.636,1.636,0,0,0-.607.629,1.731,1.731,0,0,0,0,1.713,1.663,1.663,0,0,0,.611.636,1.585,1.585,0,0,0,.824.228,1.676,1.676,0,0,0,.841-.226,1.573,1.573,0,0,0,.611-.611,1.757,1.757,0,0,0,.214-.868,1.7,1.7,0,0,0-.48-1.23,1.585,1.585,0,0,0-1.182-.494" transform="translate(-288.831 -126.119)" fill="#4b5358"/>
          <path id="Path_31124" data-name="Path 31124" d="M398.76,163.531h.541v.76a2.268,2.268,0,0,1,.719-.653,1.754,1.754,0,0,1,.857-.216,1.481,1.481,0,0,1,.836.242,1.436,1.436,0,0,1,.539.651,3.47,3.47,0,0,1,.174,1.274v2.182h-.541v-2.023a5.016,5.016,0,0,0-.06-.978.985.985,0,0,0-1.056-.846,1.326,1.326,0,0,0-.879.328,1.535,1.535,0,0,0-.512.81,5.678,5.678,0,0,0-.077,1.154v1.555h-.541Z" transform="translate(-307.738 -126.119)" fill="#4b5358"/>
          <path id="Path_31125" data-name="Path 31125" d="M430.5,157.362l2.649,5.732h-.613l-.894-1.886H429.2l-.885,1.886h-.633l2.684-5.732Zm-.072,1.218-.974,2.075H431.4Z" transform="translate(-330.054 -121.442)" fill="#4b5358"/>
          <path id="Path_31126" data-name="Path 31126" d="M454.223,163.531h.552v.62a1.948,1.948,0,0,1,.521-.548,1.021,1.021,0,0,1,.572-.181.979.979,0,0,1,.479.145l-.282.46a.749.749,0,0,0-.286-.074.778.778,0,0,0-.521.224,1.419,1.419,0,0,0-.382.7,6.723,6.723,0,0,0-.1,1.465v1.434h-.552Z" transform="translate(-350.541 -126.119)" fill="#4b5358"/>
          <path id="Path_31127" data-name="Path 31127" d="M468.954,164.412l-.429.269a1.79,1.79,0,0,0-1.516-.745,1.745,1.745,0,0,0-1.275.5,1.633,1.633,0,0,0-.507,1.21,1.733,1.733,0,0,0,.233.872,1.641,1.641,0,0,0,.64.634,1.924,1.924,0,0,0,2.425-.518l.429.284a2.031,2.031,0,0,1-.809.71,2.569,2.569,0,0,1-1.157.252,2.273,2.273,0,0,1-1.653-.639,2.088,2.088,0,0,1-.656-1.555,2.237,2.237,0,0,1,.307-1.144,2.171,2.171,0,0,1,.844-.824,2.447,2.447,0,0,1,1.2-.3,2.548,2.548,0,0,1,.805.129,2.234,2.234,0,0,1,.658.335,1.822,1.822,0,0,1,.46.526" transform="translate(-358.61 -126.119)" fill="#4b5358"/>
          <path id="Path_31128" data-name="Path 31128" d="M487.96,156.73h.541v2.4a2.3,2.3,0,0,1,.722-.653,1.748,1.748,0,0,1,.853-.216,1.48,1.48,0,0,1,.836.242,1.435,1.435,0,0,1,.539.649,3.467,3.467,0,0,1,.174,1.276v2.182h-.541v-2.023a5.222,5.222,0,0,0-.058-.978,1.113,1.113,0,0,0-.365-.633,1.075,1.075,0,0,0-.694-.213,1.325,1.325,0,0,0-.879.328,1.534,1.534,0,0,0-.512.81,5.653,5.653,0,0,0-.077,1.154v1.555h-.541Z" transform="translate(-376.577 -120.954)" fill="#4b5358"/>
          <path id="Path_31129" data-name="Path 31129" d="M508.418,156.252a.427.427,0,0,1,.315.132.439.439,0,0,1,.131.32.433.433,0,0,1-.131.315.437.437,0,0,1-.627,0,.434.434,0,0,1-.131-.315.44.44,0,0,1,.131-.32.423.423,0,0,1,.312-.132M508.15,158h.541v4.24h-.541Z" transform="translate(-392.024 -120.586)" fill="#4b5358"/>
          <path id="Path_31130" data-name="Path 31130" d="M514.287,163.9h.575l1.41,3.091,1.393-3.091h.579l-1.923,4.24h-.1Z" transform="translate(-396.895 -126.488)" fill="#4b5358"/>
          <path id="Path_31131" data-name="Path 31131" d="M538.078,166.364l.456.242a2.506,2.506,0,0,1-.518.717,2.053,2.053,0,0,1-.661.415,2.284,2.284,0,0,1-.831.142,2,2,0,0,1-1.608-.68,2.307,2.307,0,0,1-.58-1.538,2.279,2.279,0,0,1,.491-1.438,2,2,0,0,1,1.666-.8,2.066,2.066,0,0,1,1.716.822,2.311,2.311,0,0,1,.464,1.45h-3.781a1.736,1.736,0,0,0,.468,1.211,1.486,1.486,0,0,0,1.117.472,1.782,1.782,0,0,0,.625-.113,1.64,1.64,0,0,0,.516-.3,2.531,2.531,0,0,0,.46-.6m0-1.142a1.818,1.818,0,0,0-.315-.7,1.5,1.5,0,0,0-.547-.421,1.662,1.662,0,0,0-.715-.16,1.533,1.533,0,0,0-1.063.4,1.819,1.819,0,0,0-.491.877Z" transform="translate(-412.367 -126.119)" fill="#4b5358"/>
          <path id="Path_31132" data-name="Path 31132" d="M558.521,163.995l-.347.363a1.245,1.245,0,0,0-.848-.425.638.638,0,0,0-.451.175.544.544,0,0,0-.188.409.609.609,0,0,0,.155.393,2.179,2.179,0,0,0,.65.448,2.43,2.43,0,0,1,.821.608,1.114,1.114,0,0,1,.213.667,1.2,1.2,0,0,1-.364.885,1.235,1.235,0,0,1-.909.362,1.576,1.576,0,0,1-.694-.16,1.507,1.507,0,0,1-.547-.44l.34-.39a1.178,1.178,0,0,0,.879.472.788.788,0,0,0,.554-.21.654.654,0,0,0,.228-.5.638.638,0,0,0-.151-.417,2.426,2.426,0,0,0-.681-.452,2.185,2.185,0,0,1-.774-.585,1.107,1.107,0,0,1-.205-.659,1.076,1.076,0,0,1,.327-.8,1.133,1.133,0,0,1,.826-.32,1.7,1.7,0,0,1,1.168.573" transform="translate(-429.095 -126.119)" fill="#4b5358"/>
        </g>
      </g>
    </g>
  </g>
</svg>
