<svg xmlns="http://www.w3.org/2000/svg" width="19.069" height="19.069" viewBox="0 0 19.069 19.069">
  <path id="Path_26" data-name="Path 26" d="M78.217,68.683a9.534,9.534,0,1,0,9.534,9.534A9.545,9.545,0,0,0,78.217,68.683ZM76.948,72.47c.489-1.37,1.038-1.881,1.269-1.881s.78.511,1.269,1.881a12.642,12.642,0,0,1,.481,1.79c-.571-.041-1.157-.061-1.75-.061s-1.179.021-1.75.061A12.647,12.647,0,0,1,76.948,72.47Zm-1.51-1.356c-.1.219-.194.457-.286.715a15.373,15.373,0,0,0-.663,2.661,15.384,15.384,0,0,0-2.661.663c-.258.092-.5.188-.715.286A7.67,7.67,0,0,1,75.438,71.114Zm-4.848,7.1c0-.231.511-.78,1.881-1.269a12.643,12.643,0,0,1,1.79-.481c-.04.571-.061,1.157-.061,1.75s.021,1.179.061,1.75a12.657,12.657,0,0,1-1.79-.481C71.1,79,70.59,78.448,70.59,78.217ZM71.114,81c.219.1.457.193.715.286a15.383,15.383,0,0,0,2.661.663,15.375,15.375,0,0,0,.663,2.661c.092.258.188.5.286.715A7.669,7.669,0,0,1,71.114,81Zm8.372,2.968c-.489,1.37-1.038,1.881-1.269,1.881s-.78-.511-1.269-1.881a12.651,12.651,0,0,1-.481-1.79c.571.041,1.157.061,1.75.061s1.179-.021,1.75-.061A12.648,12.648,0,0,1,79.487,83.964Zm.753-3.724c-.652.058-1.33.089-2.023.089s-1.371-.03-2.023-.089c-.058-.652-.089-1.33-.089-2.023s.03-1.371.089-2.023c.652-.058,1.33-.089,2.023-.089s1.371.03,2.023.089c.058.652.089,1.33.089,2.023S80.3,79.588,80.24,80.24Zm5.081-4.8c-.219-.1-.457-.194-.715-.286a15.382,15.382,0,0,0-2.661-.663,15.384,15.384,0,0,0-.663-2.661c-.092-.258-.188-.5-.286-.715A7.669,7.669,0,0,1,85.321,75.438ZM81,85.321c.1-.219.194-.457.286-.715a15.383,15.383,0,0,0,.663-2.661,15.384,15.384,0,0,0,2.661-.663c.258-.092.5-.188.715-.286A7.669,7.669,0,0,1,81,85.321Zm2.968-5.834a12.642,12.642,0,0,1-1.79.481c.041-.571.061-1.157.061-1.75s-.021-1.179-.061-1.75a12.657,12.657,0,0,1,1.79.481c1.37.489,1.881,1.038,1.881,1.269S85.334,79,83.964,79.487Z" transform="translate(-68.683 -68.683)" fill="#fff"/>
</svg>
