<svg xmlns="http://www.w3.org/2000/svg" width="23.893" height="24" viewBox="0 0 23.893 24">
  <g id="Group_21158" data-name="Group 21158" transform="translate(-747.468 -7316.01)">
    <path id="Path_26791" data-name="Path 26791" d="M140.562,120.186h4.991V136.22h-4.991Zm2.5-7.967a2.889,2.889,0,1,1-2.893,2.888,2.891,2.891,0,0,1,2.893-2.888" transform="translate(607.303 7203.792)" fill="#fff"/>
    <path id="Path_26792" data-name="Path 26792" d="M143.874,115.913h4.78v2.193h.064a5.246,5.246,0,0,1,4.72-2.59c5.046,0,5.976,3.32,5.976,7.636v8.8h-4.98v-7.8c0-1.86-.037-4.252-2.59-4.252-2.594,0-2.991,2.027-2.991,4.116v7.932h-4.98Z" transform="translate(611.946 7208.006)" fill="#fff"/>
  </g>
</svg>
