<svg id="Group_70106" data-name="Group 70106" xmlns="http://www.w3.org/2000/svg" xmlns:xlink="http://www.w3.org/1999/xlink" width="50" height="50" viewBox="0 0 50 50">
  <defs>
    <clipPath id="clip-path">
      <rect id="Rectangle_18456" data-name="Rectangle 18456" width="50" height="50" fill="none"/>
    </clipPath>
  </defs>
  <g id="Group_70105" data-name="Group 70105" clip-path="url(#clip-path)">
    <path id="Path_112008" data-name="Path 112008" d="M30.221,20.319a6.962,6.962,0,0,0-4.946-2.049h-.01a7,7,0,0,0-7,7,7.013,7.013,0,0,0,7,7.015h.01a7.008,7.008,0,0,0,4.956-11.961m-4.946,9h-.01a4.055,4.055,0,1,1,.01,0" transform="translate(-0.27 -0.27)" fill="#cee4ff"/>
    <path id="Path_112009" data-name="Path 112009" d="M32.814,7.547a1.436,1.436,0,0,1-.433,1.044,1.512,1.512,0,0,1-2.079,0L26.735,5.034v7.074a1.471,1.471,0,0,1-1.429,1.438h-.039a1.472,1.472,0,0,1-1.478-1.429V5.034L20.232,8.591a1.494,1.494,0,0,1-1.044.433.107.107,0,0,1-.059-.01,1.441,1.441,0,0,1-.985-.433,1.475,1.475,0,0,1,0-2.079L24.222.433a1.284,1.284,0,0,1,.217-.187l.108-.059c.039-.03.089-.049.138-.079a1.644,1.644,0,0,1,.177-.049.3.3,0,0,1,.108-.03,1.444,1.444,0,0,1,.581,0c.1.02.177.049.246.069a1.759,1.759,0,0,1,.187.089.866.866,0,0,0,.1.059A1.22,1.22,0,0,1,26.3.424L32.38,6.5a1.453,1.453,0,0,1,.433,1.044" transform="translate(-0.262)" fill="#cee4ff"/>
    <path id="Path_112010" data-name="Path 112010" d="M32.823,42.99a1.476,1.476,0,0,1-.433,1.044l-6.079,6.079a2.079,2.079,0,0,1-.227.187.912.912,0,0,0-.1.049c-.039.03-.089.049-.138.079-.079.03-.128.039-.177.059a.8.8,0,0,0-.108.03,1.493,1.493,0,0,1-.591,0,1.115,1.115,0,0,0-.148-.039c-.01-.01-.069-.02-.118-.039-.069-.039-.118-.059-.158-.089a.916.916,0,0,1-.1-.049,1.433,1.433,0,0,1-.227-.187l-6.079-6.079a1.487,1.487,0,0,1,0-2.089,1.525,1.525,0,0,1,2.089,0l3.557,3.567V38.438a1.478,1.478,0,0,1,2.956-.02v7.094L30.3,41.946a1.525,1.525,0,0,1,2.089,0,1.494,1.494,0,0,1,.433,1.044" transform="translate(-0.262 -0.547)" fill="#cee4ff"/>
    <path id="Path_112011" data-name="Path 112011" d="M13.547,25.218a1.474,1.474,0,0,1-1.429,1.517H5.034l3.557,3.557a1.475,1.475,0,0,1,0,2.089,1.476,1.476,0,0,1-1.044.433,1.454,1.454,0,0,1-1.034-.433L.433,26.3a1.345,1.345,0,0,1-.187-.227A.4.4,0,0,1,.2,25.986c-.03-.059-.059-.108-.079-.158A1.105,1.105,0,0,1,.069,25.7a.036.036,0,0,0-.01-.03c0-.01-.03-.108-.03-.118a1.444,1.444,0,0,1,0-.581.606.606,0,0,1,.03-.108.738.738,0,0,1,.049-.158c.03-.069.059-.118.079-.167s.049-.079.069-.1a.945.945,0,0,1,.177-.227l6.079-6.069a1.493,1.493,0,0,1,2.079,0,1.414,1.414,0,0,1,.433,1.034,1.436,1.436,0,0,1-.433,1.044L5.034,23.789h7.074a1.471,1.471,0,0,1,1.438,1.429" transform="translate(0 -0.262)" fill="#cee4ff"/>
    <path id="Path_112012" data-name="Path 112012" d="M50.517,25.543a.606.606,0,0,1-.03.108.738.738,0,0,1-.049.158c-.03.069-.059.118-.079.167l-.059.1a2.079,2.079,0,0,1-.187.227L44.034,32.38A1.454,1.454,0,0,1,43,32.814a1.478,1.478,0,0,1-1.044-2.522l3.557-3.557H38.438a1.473,1.473,0,1,1,0-2.946h7.074l-3.557-3.567a1.457,1.457,0,0,1,0-2.079,1.493,1.493,0,0,1,2.079,0l6.079,6.069a2.079,2.079,0,0,1,.187.227c.01.01.039.079.049.089.03.059.059.108.079.158s.03.089.049.128a.036.036,0,0,0,.01.03c0,.01.03.108.03.108a1.492,1.492,0,0,1,0,.591" transform="translate(-0.546 -0.262)" fill="#cee4ff"/>
  </g>
</svg>
