<svg xmlns="http://www.w3.org/2000/svg" width="57.935" height="57.944" viewBox="0 0 57.935 57.944">
  <g id="noun-encryption-1378916" transform="translate(-75.602 -6.797)">
    <path id="Path_40618" data-name="Path 40618" d="M570.406,255.438a1.477,1.477,0,0,0-1.478-1.478h-3.417a1.478,1.478,0,1,0,0,2.956h3.417a1.478,1.478,0,0,0,1.478-1.478Z" transform="translate(-436.869 -221.071)" fill="#cfe4ff"/>
    <path id="Path_40619" data-name="Path 40619" d="M541.084,315.03l-2.418-2.111a1.479,1.479,0,0,0-1.945,2.229l2.418,2.111h0a1.479,1.479,0,0,0,1.945-2.229Z" transform="translate(-411.987 -273.48)" fill="#cfe4ff"/>
    <path id="Path_40620" data-name="Path 40620" d="M537.726,181.638a1.47,1.47,0,0,0,.969-.367l2.418-2.11a1.478,1.478,0,0,0-1.945-2.2l-2.418,2.111h0a1.478,1.478,0,0,0,.976,2.589Z" transform="translate(-412.016 -151.964)" fill="#cfe4ff"/>
    <path id="Path_40621" data-name="Path 40621" d="M77.08,256.916H80.5a1.478,1.478,0,1,0,0-2.956H77.08a1.478,1.478,0,1,0,0,2.956Z" transform="translate(0 -221.071)" fill="#cfe4ff"/>
    <path id="Path_40622" data-name="Path 40622" d="M117.858,180.25a1.478,1.478,0,0,0-.142-2.087l-2.412-2.052a1.479,1.479,0,0,0-1.945,2.229l2.418,2.11a1.478,1.478,0,0,0,2.081-.2Z" transform="translate(-33.318 -151.115)" fill="#cfe4ff"/>
    <path id="Path_40623" data-name="Path 40623" d="M113.265,317.007a1.478,1.478,0,0,0,2.087.142l2.418-2.11h0a1.479,1.479,0,0,0-1.945-2.229l-2.418,2.122a1.478,1.478,0,0,0-.142,2.075Z" transform="translate(-33.365 -273.381)" fill="#cfe4ff"/>
    <path id="Path_40624" data-name="Path 40624" d="M177.834,56.223a5,5,0,1,0,5.025-1.247v-10h5.078v2.838a1.477,1.477,0,0,0,.668,1.235l6.2,4.073v1.85a4.984,4.984,0,1,0,2.944,0V52.327a1.477,1.477,0,0,0-.668-1.236l-6.189-4.073v-2.04h3.045a3.795,3.795,0,0,0,3.8-3.8V27.55a3.794,3.794,0,0,0-3.8-3.8h-.863V18.228a11.694,11.694,0,0,0-23.381,0v5.533h-.875a3.8,3.8,0,0,0-3.8,3.8V41.183a3.8,3.8,0,0,0,3.8,3.8h3.045v2.04l-6.2,4.073a1.477,1.477,0,0,0-.668,1.236v2.642a4.983,4.983,0,1,0,2.944,0V53.125l6.2-4.073a1.477,1.477,0,0,0,.668-1.235V44.978h5.1v10a4.97,4.97,0,0,0-2.069,1.247Zm19.893,4.96a2.056,2.056,0,1,0,0-.012Zm-29.813,0a2.05,2.05,0,1,0,0-.012Zm4.729-42.954h0a8.738,8.738,0,0,1,17.469,0v5.533H186.76V18.228a5.38,5.38,0,0,0-10.759,0v5.533h-3.358ZM183.8,23.762h-4.848V18.228a2.424,2.424,0,0,1,4.848,0Zm-15.82,17.422V27.551a.839.839,0,0,1,.839-.839h25.125a.839.839,0,0,1,.84.839V41.183a.84.84,0,0,1-.84.84h-25.13a.839.839,0,0,1-.833-.84Zm14.838,20a2.04,2.04,0,1,1,.592-1.44,2.026,2.026,0,0,1-.592,1.44Z" transform="translate(-76.811 0)" fill="#cfe4ff"/>
  </g>
</svg>
