<svg xmlns="http://www.w3.org/2000/svg" width="45.673" height="45.673" viewBox="0 0 45.673 45.673">
  <g id="noun-web-1253651" transform="translate(-169.36 -99.363)">
    <path id="Path_38562" data-name="Path 38562" d="M192.2,99.863A22.337,22.337,0,1,0,214.533,122.2,22.362,22.362,0,0,0,192.2,99.863Zm1.041,32.189a25.026,25.026,0,0,1,6.456,1.226,22,22,0,0,1-6.456,7.846Zm0-2.087v-6.724h9a25.007,25.007,0,0,1-1.7,8.126A27.11,27.11,0,0,0,193.239,129.965Zm0-8.807v-6.03a27.108,27.108,0,0,0,7.538-1.483,25.086,25.086,0,0,1,1.461,7.514Zm0-8.118v-9.765a22.088,22.088,0,0,1,6.742,8.445,25.066,25.066,0,0,1-6.742,1.32Zm-2.083.032a25.137,25.137,0,0,1-6.851-1.123,22.126,22.126,0,0,1,6.851-8.675Zm0,2.083v6h-9a25.09,25.09,0,0,1,1.377-7.266,27.225,27.225,0,0,0,7.621,1.264Zm-11.08,6h-8.1a20.137,20.137,0,0,1,4.024-11.1,25.438,25.438,0,0,0,5.584,3.126,27.152,27.152,0,0,0-1.5,7.969Zm0,2.083a27.169,27.169,0,0,0,1.717,8.581,25.551,25.551,0,0,0-5.446,2.962,20.146,20.146,0,0,1-4.376-11.543Zm2.082,0h9v6.7a27.191,27.191,0,0,0-7.4,1.195,25.025,25.025,0,0,1-1.6-7.891Zm9,8.779v9.1a22.005,22.005,0,0,1-6.563-8.071,25.115,25.115,0,0,1,6.563-1.032Zm10.488,2a23.268,23.268,0,0,1,4.675,2.678,20.2,20.2,0,0,1-11.109,5.53,24.251,24.251,0,0,0,6.434-8.208Zm.843-1.9a27.111,27.111,0,0,0,1.832-8.874h8.1a20.165,20.165,0,0,1-4.683,11.926,25.468,25.468,0,0,0-5.254-3.052Zm1.832-10.956a27.135,27.135,0,0,0-1.611-8.278,25.316,25.316,0,0,0,5.381-3.212,20.152,20.152,0,0,1,4.335,11.491Zm2.4-13.056a23.123,23.123,0,0,1-4.791,2.851,24.343,24.343,0,0,0-6.718-8.781,20.212,20.212,0,0,1,11.509,5.93Zm-17.533-5.93a24.39,24.39,0,0,0-6.842,9.074,23.4,23.4,0,0,1-5-2.79A20.225,20.225,0,0,1,189.185,102.172Zm-11.454,34.183a23.5,23.5,0,0,1,4.88-2.618,24.307,24.307,0,0,0,6.573,8.491,20.218,20.218,0,0,1-11.453-5.872Z" fill="#cfe4ff" stroke="#cfe4ff" stroke-width="1"/>
  </g>
</svg>
