<svg xmlns="http://www.w3.org/2000/svg" width="49.929" height="52.85" viewBox="0 0 49.929 52.85">
  <g id="noun-roi-dollar-1339611_1_" data-name="noun-roi-dollar-1339611 (1)" transform="translate(-118.06 -6.137)">
    <path id="Path_38554" data-name="Path 38554" d="M87.29,54.39a23.465,23.465,0,1,0,9.2,18.631,23.621,23.621,0,0,0-.387-4.269" transform="translate(70 -38.999)" fill="none" stroke="#cfe4ff" stroke-linecap="round" stroke-width="3"/>
    <path id="Path_38555" data-name="Path 38555" d="M403.542,6.137l5.715,13.038L395.109,17.6Z" transform="translate(-247.491 0)" fill="#cfe4ff"/>
    <path id="Path_38556" data-name="Path 38556" d="M271.175,152.252a5.876,5.876,0,0,1-2.132,4.736,10.589,10.589,0,0,1-5.968,2.141v3.8h-2.54V159.2a20.6,20.6,0,0,1-7.934-1.594v-4.894a21.374,21.374,0,0,0,3.883,1.409,20.806,20.806,0,0,0,4.05.723V149.1l-1.242-.482a13.86,13.86,0,0,1-5.2-3.142,6.039,6.039,0,0,1-1.529-4.2,5.478,5.478,0,0,1,2.1-4.421,10.7,10.7,0,0,1,5.867-2.1v-2.836h2.54v2.762a21.041,21.041,0,0,1,7.674,1.706l-1.743,4.338a20.055,20.055,0,0,0-5.931-1.446v5.468a28.55,28.55,0,0,1,5.144,2.41,7.033,7.033,0,0,1,2.242,2.243,5.575,5.575,0,0,1,.713,2.855Zm-13.032-10.974a1.758,1.758,0,0,0,.565,1.344,6.7,6.7,0,0,0,1.826,1.085v-4.356q-2.391.351-2.391,1.927ZM265.6,152.53a1.667,1.667,0,0,0-.63-1.316,8.268,8.268,0,0,0-1.891-1.112v4.616q2.521-.427,2.521-2.187Z" transform="translate(-119.462 -112.973)" fill="#cfe4ff"/>
  </g>
</svg>
