<svg xmlns="http://www.w3.org/2000/svg" width="51.518" height="46.256" viewBox="0 0 51.518 46.256">
  <g id="Group_36538" data-name="Group 36538" transform="translate(-1000.098 -3430.615)">
    <g id="noun-integration-1056387" transform="translate(900.469 3397.379)">
      <path id="Path_40612" data-name="Path 40612" d="M378.172,89.376a1.039,1.039,0,0,0-.118,2.068c9.174,1.453,16.123,9,16.123,18.085a17.425,17.425,0,0,1-1.218,6.428,1.039,1.039,0,1,0,1.933.764,19.52,19.52,0,0,0,1.363-7.192c0-10.141-7.76-18.536-17.876-20.137a1.011,1.011,0,0,0-.207-.015Z" transform="translate(-248.39 -50.703)" fill="#cfe4ff" stroke="#cfe4ff" stroke-width="0.5"/>
      <path id="Path_40613" data-name="Path 40613" d="M202.605,425.61a1.04,1.04,0,0,0-.788.381,19.98,19.98,0,0,1-30.205.01h0a1.04,1.04,0,1,0-1.59,1.34,22.057,22.057,0,0,0,33.385-.011h0a1.039,1.039,0,0,0-.8-1.72Z" transform="translate(-60.243 -355.731)" fill="#cfe4ff" stroke="#cfe4ff" stroke-width="0.5"/>
      <path id="Path_40614" data-name="Path 40614" d="M139.971,89.093a1.022,1.022,0,0,0-.176.014c-10.207,1.531-18.059,9.964-18.059,20.165a19.522,19.522,0,0,0,1.3,7.027h0a1.039,1.039,0,1,0,1.94-.746,17.414,17.414,0,0,1-1.161-6.28c0-9.134,7.031-16.72,16.29-18.11h0a1.039,1.039,0,0,0-.133-2.069Z" transform="translate(-16.668 -50.446)" fill="#cfe4ff" stroke="#cfe4ff" stroke-width="0.5"/>
      <path id="Path_40615" data-name="Path 40615" d="M115.17,296.163a1.039,1.039,0,0,0-.179,2.046l4.856,1.2L103.931,307.9a1.04,1.04,0,1,0,.974,1.836L121.1,301.1l-1.3,4.808a1.039,1.039,0,1,0,2,.552l1.884-7a1.079,1.079,0,0,0-.7-1.429l-7.5-1.835a1.042,1.042,0,0,0-.309-.032Z" transform="translate(0 -238.298)" fill="#cfe4ff" stroke="#cfe4ff" stroke-width="0.5"/>
      <path id="Path_40616" data-name="Path 40616" d="M385.478,296.15a1.022,1.022,0,0,0-.162.032l-7.487,1.835h0a1.04,1.04,0,0,0-.764,1.283L379,306.446a1.044,1.044,0,0,0,2.014-.552l-1.3-4.808,16.144,8.624a1.04,1.04,0,1,0,.975-1.835L380.962,299.4l4.84-1.2h0a1.039,1.039,0,0,0-.211-2.046.978.978,0,0,0-.113,0Z" transform="translate(-248.268 -238.284)" fill="#cfe4ff" stroke="#cfe4ff" stroke-width="0.5"/>
      <path id="Path_40617" data-name="Path 40617" d="M288.664,33.487a1.08,1.08,0,0,0-1.023,1.056l-.016,17.378-3.736-3.508a1.046,1.046,0,1,0-1.429,1.527l5.489,5.132a.992.992,0,0,0,1.429-.016l5.457-5.23a1.04,1.04,0,0,0-.731-1.8,1.05,1.05,0,0,0-.715.309l-3.687,3.54.016-17.33a1.081,1.081,0,0,0-1.056-1.056Z" transform="translate(-162.19)" fill="#cfe4ff" stroke="#cfe4ff" stroke-width="0.5"/>
    </g>
    <g id="Rectangle_18428" data-name="Rectangle 18428" transform="matrix(0.53, 0.848, -0.848, 0.53, 1047.8, 3441.348)" fill="#cfe4ff" stroke="#4b535b" stroke-width="2">
      <rect width="2" height="53" rx="1" stroke="none"/>
      <rect x="-1" y="-1" width="4" height="55" rx="2" fill="none"/>
    </g>
  </g>
</svg>
