<svg xmlns="http://www.w3.org/2000/svg" width="49.874" height="34.018" viewBox="0 0 49.874 34.018">
  <g id="noun-result-2349484" transform="translate(-69.96 -89.042)">
    <path id="Path_38560" data-name="Path 38560" d="M75.62,117.382a5.664,5.664,0,0,0,5.659-5.657,5.6,5.6,0,0,0-.533-2.36l3.9-3.388a5.629,5.629,0,0,0,6.368,0l3.929,3.4a5.658,5.658,0,1,0,9.649-1.013l7.56-8.4h0a5.589,5.589,0,0,0,2.026.394,5.659,5.659,0,1,0-5.659-5.659,5.6,5.6,0,0,0,1.139,3.368l-7.559,8.4a5.554,5.554,0,0,0-5.143.541l-3.966-3.429a5.584,5.584,0,0,0,.481-2.268,5.657,5.657,0,1,0-10.828,2.277L78.719,107a5.656,5.656,0,1,0-3.1,10.384Zm38.556-25.23a2.544,2.544,0,1,1-1.8.745,2.541,2.541,0,0,1,1.8-.745ZM102.6,111.726a2.542,2.542,0,1,1-4.481-1.626l.02-.016a.053.053,0,0,1,.017-.03h0a2.529,2.529,0,0,1,4.443,1.668ZM87.816,98.761a2.543,2.543,0,1,1-1.8.745,2.54,2.54,0,0,1,1.8-.745Zm-12.2,10.423a2.545,2.545,0,1,1-1.8.746,2.541,2.541,0,0,1,1.8-.746Z" fill="#cfe4ff"/>
    <path id="Path_38561" data-name="Path 38561" d="M118.313,436.03H71.559a1.558,1.558,0,1,0,0,3.117h46.754a1.558,1.558,0,1,0,0-3.117Z" transform="translate(-0.037 -316.087)" fill="#cfe4ff"/>
  </g>
</svg>
