<svg xmlns="http://www.w3.org/2000/svg" width="49.641" height="46.535" viewBox="0 0 49.641 46.535">
  <g id="Group_36539" data-name="Group 36539" transform="translate(-658.18 -3434.17)">
    <g id="noun-service-1235570" transform="translate(566.751 3417.376)">
      <path id="Path_38563" data-name="Path 38563" d="M137.941,44.621l-3.961-3.084c.04-.445.069-.945.069-1.485s-.03-1.025-.069-1.485l3.961-3.089h0a2.589,2.589,0,0,0,.628-3.3l-4.332-7.461a2.6,2.6,0,0,0-3.188-1.149l-4.658,1.852a17.486,17.486,0,0,0-2.54-1.485l-.708-4.951a2.549,2.549,0,0,0-2.54-2.188h-8.713a2.545,2.545,0,0,0-2.54,2.188l-.713,4.951a18.022,18.022,0,0,0-2.535,1.485l-4.678-1.876a2.549,2.549,0,0,0-3.158,1.119l-4.342,7.525a2.575,2.575,0,0,0,.624,3.317l3.961,3.084c-.049.535-.074,1.015-.074,1.485a10.494,10.494,0,0,0,.074,1.485l-3.961,3.089h0a2.589,2.589,0,0,0-.629,3.3l4.337,7.461a2.594,2.594,0,0,0,3.188,1.143l4.658-1.871a17.448,17.448,0,0,0,2.54,1.485l.708,4.951a2.555,2.555,0,0,0,2.54,2.213H120.6a2.544,2.544,0,0,0,2.54-2.188l.713-4.951h0a17.988,17.988,0,0,0,2.535-1.485l4.678,1.876h0a2.55,2.55,0,0,0,3.159-1.119l4.376-7.569h0a2.58,2.58,0,0,0-.663-3.273Zm-6.124,9.065-5.084-2.04a1.485,1.485,0,0,0-1.446.188,15.144,15.144,0,0,1-3.352,1.95,1.486,1.486,0,0,0-.906,1.163l-.777,5.411h-8.01l-.777-5.411a1.485,1.485,0,0,0-.906-1.163,14.507,14.507,0,0,1-3.336-1.936,1.486,1.486,0,0,0-1.46-.2l-5.084,2.04-4.015-6.931,4.312-3.376h0a1.486,1.486,0,0,0,.559-1.356,13.38,13.38,0,0,1,0-3.911,1.486,1.486,0,0,0-.559-1.352l-4.312-3.371,4.015-6.931,5.085,2.02a1.485,1.485,0,0,0,1.446-.188,15.163,15.163,0,0,1,3.351-1.95,1.485,1.485,0,0,0,.906-1.163l.777-5.411h8.01l.777,5.411h0a1.486,1.486,0,0,0,.906,1.163,14.32,14.32,0,0,1,3.342,1.936,1.486,1.486,0,0,0,1.46.2l5.084-2.039,4.015,6.931-4.312,3.371h0a1.485,1.485,0,0,0-.559,1.351,13.6,13.6,0,0,1,0,3.9,1.486,1.486,0,0,0,.559,1.356l4.312,3.371Z" transform="translate(0 0)" fill="#cfe4ff"/>
      <path id="Path_38565" data-name="Path 38565" d="M282.547,204.23a8.277,8.277,0,1,0,5.844,2.422,8.266,8.266,0,0,0-5.844-2.422Zm0,12.863a4.606,4.606,0,1,1,3.254-1.347,4.6,4.6,0,0,1-3.254,1.347Z" transform="translate(-166.303 -172.432)" fill="#cfe4ff"/>
    </g>
    <g id="Rectangle_18064" data-name="Rectangle 18064" transform="matrix(0.588, 0.809, -0.809, 0.588, 703.851, 3442.32)" fill="#cfe4ff" stroke="#4b535b" stroke-width="2">
      <rect width="2" height="53" rx="1" stroke="none"/>
      <rect x="-1" y="-1" width="4" height="55" rx="2" fill="none"/>
    </g>
  </g>
</svg>
