<svg xmlns="http://www.w3.org/2000/svg" width="39.484" height="48.72" viewBox="0 0 39.484 48.72">
  <g id="noun-shield-4475434" transform="translate(-173.81 -59.707)">
    <path id="Path_38572" data-name="Path 38572" d="M210.477,64.142l-16.122-4.215h0a3.649,3.649,0,0,0-1.851,0l-15.888,4.209a3.641,3.641,0,0,0-2.706,3.516V88.86a13.305,13.305,0,0,0,5.973,11.12L191.7,107.8a3.151,3.151,0,0,0,3.466.011l11.991-7.836a13.293,13.293,0,0,0,6.04-11.164V67.662a3.638,3.638,0,0,0-2.717-3.519Zm.292,24.671a10.877,10.877,0,0,1-4.942,9.134l-11.991,7.838a.726.726,0,0,1-.8,0l-11.814-7.822a10.886,10.886,0,0,1-4.887-9.1V67.655a1.214,1.214,0,0,1,.9-1.172l15.888-4.208a1.194,1.194,0,0,1,.31-.041,1.22,1.22,0,0,1,.307.039l16.122,4.215a1.212,1.212,0,0,1,.905,1.173Z" transform="translate(0)" fill="#cfe4ff" stroke="#cfe4ff" stroke-width="0.2"/>
    <path id="Path_38573" data-name="Path 38573" d="M246.335,107.917l-13.693-3.579a1.2,1.2,0,0,0-.617,0l-13.467,3.568a1.212,1.212,0,0,0-.9,1.171v19.339a8.468,8.468,0,0,0,3.8,7.077l10.218,6.766h0a1.213,1.213,0,0,0,1.334,0l10.388-6.789a8.464,8.464,0,0,0,3.844-7.106V109.09a1.213,1.213,0,0,0-.906-1.173Zm-1.52,20.452a6.044,6.044,0,0,1-2.747,5.076l-9.72,6.354-9.553-6.327a6.052,6.052,0,0,1-2.715-5.055V110.011l12.257-3.245,12.478,3.263Z" transform="translate(-38.897 -39.557)" fill="#cfe4ff" stroke="#cfe4ff" stroke-width="0.2"/>
  </g>
</svg>
