<svg xmlns="http://www.w3.org/2000/svg" width="48.979" height="39.137" viewBox="0 0 48.979 39.137">
  <g id="noun-scale-4477289" transform="translate(-101.101 -81.113)">
    <path id="Path_38574" data-name="Path 38574" d="M135.43,214.44h-32.8a1.531,1.531,0,0,0-1.531,1.531v22.958a1.531,1.531,0,0,0,1.531,1.53h32.8a1.53,1.53,0,0,0,1.53-1.53V215.971a1.531,1.531,0,0,0-1.53-1.531ZM133.9,237.4H104.163V217.5H133.9Z" transform="translate(0 -120.209)" fill="#cfe4ff"/>
    <path id="Path_38575" data-name="Path 38575" d="M172.051,147.779H135.975a1.531,1.531,0,0,0,0,3.061h34.546v24.707a1.53,1.53,0,1,0,3.061,0V149.309a1.53,1.53,0,0,0-1.53-1.53Z" transform="translate(-30.062 -60.106)" fill="#cfe4ff"/>
    <path id="Path_38576" data-name="Path 38576" d="M208.67,81.113H169.315a1.53,1.53,0,1,0,0,3.061H207.14v27.988a1.531,1.531,0,0,0,3.061,0V82.644a1.531,1.531,0,0,0-1.531-1.53Z" transform="translate(-60.122)" fill="#cfe4ff"/>
  </g>
</svg>
