<svg id="Group_70097" data-name="Group 70097" xmlns="http://www.w3.org/2000/svg" xmlns:xlink="http://www.w3.org/1999/xlink" width="50" height="50" viewBox="0 0 50 50">
  <defs>
    <clipPath id="clip-path">
      <rect id="Rectangle_18453" data-name="Rectangle 18453" width="50" height="50" fill="none"/>
    </clipPath>
  </defs>
  <g id="Group_70096" data-name="Group 70096" clip-path="url(#clip-path)">
    <path id="Path_111990" data-name="Path 111990" d="M14.528,43.713a5.619,5.619,0,0,0,.8-9.482L17.2,29.414a5.647,5.647,0,0,0,5.647-2.971l5.075,1.174A5.672,5.672,0,1,0,36,22.219l2.775-10.957A5.621,5.621,0,0,0,43.128,3.02,5.671,5.671,0,0,0,33.091,8.3a5.607,5.607,0,0,0,2.586,2.448L32.9,21.7A5.569,5.569,0,0,0,28.6,24.583L23.475,23.4a5.573,5.573,0,0,0-.635-2.23A5.668,5.668,0,1,0,14.3,28.236L12.42,33.084a5.656,5.656,0,1,0,2.109,10.631ZM36.916,3.408a2.542,2.542,0,1,1-1.247,1.5,2.554,2.554,0,0,1,1.247-1.5M35.808,26.122a2.547,2.547,0,1,1-4.735.653l.011-.024a.05.05,0,0,1,0-.034,2.538,2.538,0,0,1,4.72-.6ZM16.633,21.553a2.54,2.54,0,1,1-1.248,1.5,2.552,2.552,0,0,1,1.248-1.5M10.69,36.464a2.543,2.543,0,1,1-1.247,1.5,2.554,2.554,0,0,1,1.247-1.5" fill="#cfe4ff"/>
    <path id="Path_111991" data-name="Path 111991" d="M48.438,46.883H1.563a1.559,1.559,0,1,0,0,3.117H48.438a1.559,1.559,0,1,0,0-3.117" fill="#cfe4ff"/>
  </g>
</svg>
