<svg xmlns="http://www.w3.org/2000/svg" width="51.165" height="44.926" viewBox="0 0 51.165 44.926">
  <g id="noun-cloud-storage-1978763" transform="translate(-77.88 -41.994)">
    <path id="Path_38568" data-name="Path 38568" d="M250.144,405.57a2.811,2.811,0,1,0,2.811,2.811A2.85,2.85,0,0,0,250.144,405.57Zm0,4.06a1.249,1.249,0,1,1,1.249-1.249A1.233,1.233,0,0,1,250.144,409.63Z" transform="translate(-153.316 -329.556)" fill="#cfe4ff" stroke="#cfe4ff" stroke-width="0.5"/>
    <path id="Path_38569" data-name="Path 38569" d="M434.646,275.138a.755.755,0,0,0-1.093,0l-1.015,1.015a.773.773,0,0,0,1.093,1.093l1.015-1.015A.755.755,0,0,0,434.646,275.138Z" transform="translate(-321.268 -210.913)" fill="#cfe4ff" stroke="#cfe4ff" stroke-width="0.5"/>
    <path id="Path_38570" data-name="Path 38570" d="M413.436,254.778a.755.755,0,0,0-1.093,0l-1.015,1.015a.773.773,0,1,0,1.093,1.093l1.015-1.015A.755.755,0,0,0,413.436,254.778Z" transform="translate(-302.01 -192.427)" fill="#cfe4ff" stroke="#cfe4ff" stroke-width="0.5"/>
    <path id="Path_38571" data-name="Path 38571" d="M121.966,59.307c.234-4.762-5.309-9.837-11.242-8.041-3.513-14.6-25.685-9.212-22.719,5a8.8,8.8,0,1,0-.7,17.566h4.372l-.234.234a7.176,7.176,0,0,0,10.149,10.149l10.384-10.384h9.134a7.283,7.283,0,0,0,.859-14.521ZM100.5,83.119a5.631,5.631,0,0,1-7.963-7.963l11.633-11.633,7.963,7.963Zm6.558-18.894,4.138-4.138,4.45,4.45L111.5,68.675Zm14.053,8.041h-7.573l.234-.234a.755.755,0,0,0,0-1.093L112.6,69.768l4.684-4.684a.754.754,0,0,0,0-1.093l-5.543-5.543a.755.755,0,0,0-1.093,0l-4.684,4.684-1.171-1.171a.755.755,0,0,0-1.093,0L93.236,72.267H87.3A7.274,7.274,0,1,1,88.942,57.9a.63.63,0,0,0,.7-.234.907.907,0,0,0,.156-.781c-3.982-13.272,17.1-18.425,19.6-4.528.078.234.156.468.39.546a.747.747,0,0,0,.7,0c5.387-2.264,10.7,2.889,9.915,6.87a.608.608,0,0,0,.156.625.964.964,0,0,0,.625.312,5.764,5.764,0,0,1,5.777,5.777,5.881,5.881,0,0,1-5.855,5.777Z" transform="translate(0 0)" fill="#cfe4ff" stroke="#cfe4ff" stroke-width="1.2"/>
  </g>
</svg>
