<svg xmlns="http://www.w3.org/2000/svg" width="61.857" height="61.823" viewBox="0 0 61.857 61.823">
  <g id="noun-confidential-4341786" transform="translate(0.5 0.5)">
    <path id="Path_40327" data-name="Path 40327" d="M126.722,273.362a2.172,2.172,0,0,0-2.172-2.172h-2.172v-2.172a6.517,6.517,0,0,0-13.033,0v2.172h-2.172A2.172,2.172,0,0,0,105,273.362v8.422a13.624,13.624,0,0,0,10.336,13.235,2.179,2.179,0,0,0,1.051,0,13.624,13.624,0,0,0,10.336-13.235Zm-13.033-4.344a2.172,2.172,0,1,1,4.344,0v2.172h-4.344Zm8.689,12.766a9.284,9.284,0,0,1-6.517,8.871,9.284,9.284,0,0,1-6.517-8.871v-6.25h13.033Z" transform="translate(-105 -234.262)" fill="#fffadc" stroke="#8b9197" stroke-width="1"/>
    <path id="Path_40328" data-name="Path 40328" d="M222.789,43.8V41.515A6.516,6.516,0,0,0,216.272,35h-22.1a6.474,6.474,0,0,0-4.607,1.909L176.909,49.57A6.474,6.474,0,0,0,175,54.178v4.716a2.172,2.172,0,1,0,4.344,0V56.721a2.172,2.172,0,0,1,2.172-2.172h10.861a2.172,2.172,0,0,0,2.172-2.172V41.516a2.172,2.172,0,0,1,2.172-2.172h19.55a2.172,2.172,0,0,1,2.172,2.172v2.172h-6.517a2.172,2.172,0,1,0,0,4.344H221.7a1.086,1.086,0,1,1,0,2.172h-1.086a2.172,2.172,0,0,0-2.172,2.172V89.3a2.172,2.172,0,0,1-2.172,2.172H188.033a2.172,2.172,0,1,0,0,4.344h28.239a6.516,6.516,0,0,0,6.517-6.517V54.44a5.431,5.431,0,0,0,0-10.642ZM182.416,50.2l7.789-7.789V50.2Z" transform="translate(-166.311 -34.999)" fill="#fffadc" stroke="#8b9197" stroke-width="1"/>
  </g>
</svg>
