<svg xmlns="http://www.w3.org/2000/svg" width="47.583" height="50.4" viewBox="0 0 47.583 50.4">
  <g id="noun-archive-1165433" transform="translate(-162.198 -80.999)">
    <path id="Path_111996" data-name="Path 111996" d="M209.581,129.79V98.1a1.409,1.409,0,0,0-1.409-1.409h-2.817V90.353a1.409,1.409,0,0,0-1.408-1.408h-4.226V82.607a1.409,1.409,0,0,0-1.408-1.408H173.665a1.408,1.408,0,0,0-1.408,1.408v6.338h-4.226a1.408,1.408,0,0,0-1.408,1.408v6.338h-2.817A1.409,1.409,0,0,0,162.4,98.1v31.69a1.409,1.409,0,0,0,1.409,1.408h44.366a1.409,1.409,0,0,0,1.409-1.408ZM175.074,84.016H196.9v4.929H175.074Zm-5.634,7.747h33.1v4.929h-33.1Zm37.324,36.62H165.215V99.509h41.549Z" fill="#fffadc" stroke="#fffadc" stroke-width="0.4"/>
    <path id="Path_111997" data-name="Path 111997" d="M285.6,305.2h19.7v3.426H285.6Z" transform="translate(-109.462 -196.196)" fill="#fffadc" stroke="#fffadc" stroke-width="0.4"/>
  </g>
</svg>
