<svg id="Group_70120" data-name="Group 70120" xmlns="http://www.w3.org/2000/svg" xmlns:xlink="http://www.w3.org/1999/xlink" width="50.05" height="47.82" viewBox="0 0 50.05 47.82">
  <defs>
    <clipPath id="clip-path">
      <rect id="Rectangle_18463" data-name="Rectangle 18463" width="50.05" height="47.82" transform="translate(0 0)" fill="#fffadc"/>
    </clipPath>
  </defs>
  <g id="Group_70119" data-name="Group 70119" clip-path="url(#clip-path)">
    <path id="Path_112033" data-name="Path 112033" d="M49.55,36.22a1.616,1.616,0,0,1,.5,1.19,1.633,1.633,0,0,1-.5,1.18l-5.79,5.8a1.641,1.641,0,0,1-1.17.48h-.03a1.615,1.615,0,0,1-1.17-.51,1.663,1.663,0,0,1-.01-2.33l2.95-2.94h-7.4a9.975,9.975,0,0,1-8.17-4.27l-5.52-7.96-2.05,2.95a9.943,9.943,0,0,1-8.16,4.27H1.68a1.675,1.675,0,1,1,0-3.35H13.03a6.542,6.542,0,0,0,5.4-2.84l2.76-3.98-2.76-3.98a6.589,6.589,0,0,0-5.41-2.83H1.68a1.68,1.68,0,0,1,0-3.36H13.03a9.957,9.957,0,0,1,8.16,4.27l2.05,2.96,5.52-7.96a9.943,9.943,0,0,1,8.16-4.27h7.39L41.39,5.8a1.669,1.669,0,0,1-.49-1.2,1.68,1.68,0,0,1,2.85-1.18l5.8,5.81a1.633,1.633,0,0,1,.5,1.18,1.616,1.616,0,0,1-.5,1.19l-5.81,5.82a1.683,1.683,0,0,1-1.18.51h-.02a1.691,1.691,0,0,1-1.68-1.66,1.642,1.642,0,0,1,.52-1.23l2.93-2.95H36.92a6.6,6.6,0,0,0-5.41,2.84l-6.12,8.84-.1.14,6.22,8.98a6.573,6.573,0,0,0,5.41,2.84h7.39L41.38,32.8a1.68,1.68,0,0,1,2.36-2.39Z" fill="#fffadc"/>
    <path id="Path_112034" data-name="Path 112034" d="M26.66,1.68a1.677,1.677,0,0,1-1.68,1.68H1.68A1.68,1.68,0,1,1,1.68,0h23.3a1.677,1.677,0,0,1,1.68,1.68" fill="#fffadc"/>
    <path id="Path_112035" data-name="Path 112035" d="M26.66,46.14a1.677,1.677,0,0,1-1.68,1.68H1.68a1.68,1.68,0,0,1,0-3.36h23.3a1.677,1.677,0,0,1,1.68,1.68" fill="#fffadc"/>
  </g>
</svg>
