<svg xmlns="http://www.w3.org/2000/svg" xmlns:xlink="http://www.w3.org/1999/xlink" width="468.526" height="440.369" viewBox="0 0 468.526 440.369">
  <defs>
    <clipPath id="clip-path">
      <rect id="Rectangle_18173" data-name="Rectangle 18173" width="398.296" height="223.631" fill="none"/>
    </clipPath>
    <clipPath id="clip-path-3">
      <rect id="Rectangle_18115" data-name="Rectangle 18115" width="58.484" height="44.738" fill="none"/>
    </clipPath>
    <clipPath id="clip-path-4">
      <rect id="Rectangle_18118" data-name="Rectangle 18118" width="60.874" height="35.419" fill="none"/>
    </clipPath>
    <clipPath id="clip-path-5">
      <rect id="Rectangle_18119" data-name="Rectangle 18119" width="10.092" height="10.092" fill="none"/>
    </clipPath>
    <clipPath id="clip-path-6">
      <rect id="Rectangle_18120" data-name="Rectangle 18120" width="65.228" height="37.55" fill="none"/>
    </clipPath>
    <clipPath id="clip-path-7">
      <rect id="Rectangle_18166" data-name="Rectangle 18166" width="3.197" height="2.658" fill="none"/>
    </clipPath>
    <clipPath id="clip-path-8">
      <rect id="Rectangle_18167" data-name="Rectangle 18167" width="14.919" height="1.459" fill="none"/>
    </clipPath>
    <clipPath id="clip-path-9">
      <rect id="Rectangle_18168" data-name="Rectangle 18168" width="3.965" height="2.614" fill="none"/>
    </clipPath>
    <clipPath id="clip-path-10">
      <rect id="Rectangle_18169" data-name="Rectangle 18169" width="13.59" height="6.531" fill="none"/>
    </clipPath>
    <clipPath id="clip-path-11">
      <rect id="Rectangle_18170" data-name="Rectangle 18170" width="5.552" height="24.127" fill="none"/>
    </clipPath>
    <clipPath id="clip-path-12">
      <rect id="Rectangle_18171" data-name="Rectangle 18171" width="2.444" height="10.027" fill="none"/>
    </clipPath>
  </defs>
  <g id="Group_70084" data-name="Group 70084" transform="translate(-759.474 -4902.178)">
    <path id="Path_111986" data-name="Path 111986" d="M4773.912-1767.958c12.23,40.192,35.82,232.417,219.311,336.393,190.474-107.47,216.689-336.393,216.689-336.393s-87.375-35.824-123.2-103.976h-188.73S4848.181-1788.927,4773.912-1767.958Z" transform="translate(-4014.438 6774.111)" fill="#fff"/>
    <g id="Group_36203" data-name="Group 36203" transform="translate(1.125 -989.914)">
      <g id="Group_36177" data-name="Group 36177" transform="translate(828.579 6054.248)">
        <g id="Group_36176" data-name="Group 36176" clip-path="url(#clip-path)">
          <g id="Group_36175" data-name="Group 36175">
            <g id="Group_36174" data-name="Group 36174" clip-path="url(#clip-path)">
              <path id="Path_39896" data-name="Path 39896" d="M121.483,328.921c.049.115-6.9,3.157-15.517,6.795s-15.645,6.495-15.694,6.38,6.9-3.157,15.518-6.8,15.644-6.494,15.693-6.379" transform="translate(-69.079 -251.7)" fill="#e1e1e1"/>
              <path id="Path_39897" data-name="Path 39897" d="M130.78,350.945c.049.115-6.9,3.158-15.517,6.8s-15.645,6.494-15.694,6.379,6.9-3.156,15.518-6.8,15.644-6.494,15.693-6.379" transform="translate(-76.194 -268.553)" fill="#e1e1e1"/>
              <path id="Path_39898" data-name="Path 39898" d="M125.642,398.915c.048.115-3.668,1.793-8.3,3.749s-8.428,3.448-8.476,3.333,3.667-1.793,8.3-3.749,8.427-3.447,8.475-3.332" transform="translate(-83.307 -305.259)" fill="#e1e1e1"/>
              <rect id="Rectangle_18111" data-name="Rectangle 18111" width="45.566" height="56.996" transform="matrix(0.233, -0.972, 0.972, 0.233, 139.892, 45.129)" fill="#f5f5f5"/>
              <rect id="Rectangle_18112" data-name="Rectangle 18112" width="39.829" height="52.991" transform="translate(142.471 42.798) rotate(-76.513)" fill="#ececec"/>
              <path id="Path_39899" data-name="Path 39899" d="M606.871,117.9l23.772-19.758,7.537,17.736,9.493-6.239L658.4,130.258Z" transform="translate(-464.399 -75.101)" fill="#e1e1e1"/>
              <path id="Path_39900" data-name="Path 39900" d="M751.963,85.027A4.172,4.172,0,1,1,748.879,80a4.173,4.173,0,0,1,3.084,5.031" transform="translate(-569.131 -61.128)" fill="#e1e1e1"/>
              <path id="Path_39901" data-name="Path 39901" d="M1080.062,41.588c2.722-6.361,1.07-13-3.405-18.272a19.16,19.16,0,0,0-18.751-6.08,20.962,20.962,0,0,0-41.576,2.7,15.691,15.691,0,0,0-11.983,21.29Z" transform="translate(-767.726 0)" fill="#ececec"/>
              <path id="Path_39902" data-name="Path 39902" d="M361.107,194.872H163.35a6.173,6.173,0,0,0-6.173,6.173v139.68a6.173,6.173,0,0,0,6.173,6.173h75.9s4.828,14.93-10.139,22.654H300.08s-16.9-5.793-12.553-22.654h73.581a6.173,6.173,0,0,0,6.173-6.173V201.045a6.173,6.173,0,0,0-6.173-6.173" transform="translate(-120.277 -149.123)" fill="#e1e1e1"/>
              <path id="Path_39903" data-name="Path 39903" d="M594.571,776.026c2.69,3.844-1.52,8.055-5.366,5.366a1.364,1.364,0,0,1-.33-.332c-2.683-3.844,1.522-8.049,5.365-5.365a1.351,1.351,0,0,1,.331.331" transform="translate(-449.979 -592.94)" fill="#375a64"/>
              <path id="Path_39904" data-name="Path 39904" d="M374.974,329.686H171.681V211.405a5.633,5.633,0,0,1,5.633-5.633H369.341a5.633,5.633,0,0,1,5.633,5.633Z" transform="translate(-131.376 -157.464)" fill="#fff"/>
              <g id="Group_36146" data-name="Group 36146" transform="translate(166.35 95.495)">
                <g id="Group_36145" data-name="Group 36145">
                  <g id="Group_36144" data-name="Group 36144" clip-path="url(#clip-path-3)">
                    <path id="Path_111989" data-name="Path 111989" d="M0,0H35.6V52.823H0Z" transform="translate(0 32.994) rotate(-79.37)" fill="#fffadc"/>
                  </g>
                </g>
              </g>
              <path id="Path_39905" data-name="Path 39905" d="M788.474,416.515a3.688,3.688,0,0,1-.571.375l-1.683,1-6.24,3.586-20.723,11.7-.17.1-.128-.149-.31-.36-15.7-18.315-4.715-5.586-1.263-1.535a3.768,3.768,0,0,1-.416-.556,3.775,3.775,0,0,1,.489.493l1.332,1.476,4.831,5.486,15.8,18.223.31.36-.3-.053,20.793-11.579,6.314-3.454,1.727-.917a3.675,3.675,0,0,1,.618-.292" transform="translate(-563.64 -311.275)" fill="#1a2e35"/>
              <path id="Path_39906" data-name="Path 39906" d="M708.58,497.863c-.084-.1,4.721-4.167,10.729-9.076s10.95-8.808,11.034-8.706-4.72,4.166-10.731,9.077-10.949,8.807-11.033,8.7" transform="translate(-542.23 -367.373)" fill="#1a2e35"/>
              <path id="Path_39907" data-name="Path 39907" d="M875.134,492.018c.118-.061,3.081,5.425,6.619,12.251s6.312,12.412,6.194,12.473-3.081-5.424-6.62-12.252-6.311-12.411-6.194-12.472" transform="translate(-669.681 -376.51)" fill="#1a2e35"/>
              <path id="Path_39908" data-name="Path 39908" d="M370.915,586.188a1.075,1.075,0,0,1-.026-.207l-.046-.605q-.013-.2-.03-.446c-.018-.163-.054-.34-.084-.532a9.355,9.355,0,0,0-.271-1.314,12.2,12.2,0,0,0-1.421-3.374,12.65,12.65,0,0,0-15.193-5.384,11.585,11.585,0,0,0-3.194,1.72,11.554,11.554,0,0,0-2.668,2.681,12.221,12.221,0,0,0-1.8,3.477,12.511,12.511,0,0,0,0,7.964,12.232,12.232,0,0,0,1.8,3.478,11.56,11.56,0,0,0,2.668,2.682,11.6,11.6,0,0,0,3.194,1.721,12.683,12.683,0,0,0,15.194-5.385,12.193,12.193,0,0,0,1.421-3.374,9.356,9.356,0,0,0,.271-1.314c.03-.192.066-.369.084-.532s.021-.311.03-.445c.019-.254.034-.454.046-.605a1.075,1.075,0,0,1,.026-.207,1.042,1.042,0,0,1,.005.207c0,.152-.009.354-.016.608q-.007.2-.016.449c-.013.165-.045.343-.07.537a9.056,9.056,0,0,1-.246,1.33,12.092,12.092,0,0,1-1.39,3.432,12.862,12.862,0,0,1-8.657,6.1,12.915,12.915,0,0,1-6.777-.542,11.862,11.862,0,0,1-3.271-1.751,11.818,11.818,0,0,1-2.735-2.739,12.5,12.5,0,0,1-1.85-3.559,12.786,12.786,0,0,1,0-8.153,12.494,12.494,0,0,1,1.85-3.558,11.819,11.819,0,0,1,2.735-2.738,11.854,11.854,0,0,1,3.271-1.75,12.914,12.914,0,0,1,6.777-.542,12.86,12.86,0,0,1,8.657,6.1,12.08,12.08,0,0,1,1.39,3.432,9.042,9.042,0,0,1,.246,1.33c.025.194.057.373.07.537s.011.313.015.449c.007.255.012.456.016.609a1.041,1.041,0,0,1-.005.207" transform="translate(-264.179 -438.713)" fill="#1a2e35"/>
              <path id="Path_39909" data-name="Path 39909" d="M387.306,611.754a1.346,1.346,0,0,1,.02.338c0,.257,0,.577-.006.966-.02.884-.048,2.083-.081,3.543l-.165-.1,8.547-4.565c0-.058-.019.495-.01.26h0l0,0-.009-.006-.019-.011-.037-.023-.074-.047-.148-.093-.294-.185-.583-.367-1.141-.719-2.165-1.368-3.708-2.362.172-.091-.181,3.539-.066.963a.17.17,0,1,1-.065,0c0-.257,0-.576.006-.966.02-.884.048-2.083.081-3.543l0-.195.168.1,3.738,2.313,2.173,1.355,1.144.716.583.366.295.185.148.093.074.047.037.023.019.012.009.006,0,0,0,0c.009-.234-.009.32-.009.263l-8.584,4.5-.175.092.01-.2c.075-1.458.136-2.656.181-3.539.027-.388.048-.707.066-.964a1.333,1.333,0,0,1,.045-.335" transform="translate(-296.149 -464.279)" fill="#1a2e35"/>
              <rect id="Rectangle_18116" data-name="Rectangle 18116" width="68.911" height="55.092" transform="translate(53.933 83.908) rotate(-18.171)" fill="#f5f5f5"/>
              <path id="Path_39910" data-name="Path 39910" d="M294.65,265.874s-.107.041-.313.111l-.914.308-3.548,1.182-13.388,4.432-47.268,15.586.086-.171L246.5,339.656l0,.006-.191-.1L311.791,318.1l-.08.159-12.4-38-3.451-10.616-.9-2.8c-.2-.635-.3-.971-.3-.971s.113.313.322.937l.924,2.769,3.5,10.569,12.551,38.031.039.12-.12.039L246.4,339.852l-.144.047-.047-.144,0-.006-17.164-52.344-.042-.129.129-.042,47.394-15.485L289.91,267.4l3.533-1.143.9-.289c.2-.064.3-.091.3-.091" transform="translate(-175.243 -203.456)" fill="#1a2e35"/>
              <rect id="Rectangle_18117" data-name="Rectangle 18117" width="64.069" height="48.156" transform="translate(57.272 86.462) rotate(-18.171)" fill="#fffadc"/>
              <g id="Group_36149" data-name="Group 36149" transform="translate(72.29 96.797)" opacity="0.4">
                <g id="Group_36148" data-name="Group 36148">
                  <g id="Group_36147" data-name="Group 36147" clip-path="url(#clip-path-4)">
                    <path id="Path_39911" data-name="Path 39911" d="M307.924,447.737l11.927-35.419,19.011,13.47,5.811-12.444L368.8,427.757Z" transform="translate(-307.924 -412.318)"/>
                  </g>
                </g>
              </g>
              <g id="Group_36152" data-name="Group 36152" transform="translate(91.995 83.683)" opacity="0.4">
                <g id="Group_36151" data-name="Group 36151">
                  <g id="Group_36150" data-name="Group 36150" clip-path="url(#clip-path-5)">
                    <path id="Path_39912" data-name="Path 39912" d="M401.7,359.928a5.045,5.045,0,1,1-6.366-3.22,5.045,5.045,0,0,1,6.366,3.22" transform="translate(-391.862 -356.455)"/>
                  </g>
                </g>
              </g>
              <path id="Path_39913" data-name="Path 39913" d="M487.744,466.933l1.778,32.7a2.208,2.208,0,0,0,2.189,2.088l58.848.431a2.208,2.208,0,0,0,2.224-2.192l.187-25.456a2.208,2.208,0,0,0-2.206-2.224l-36.192-.032a2.209,2.209,0,0,1-1.559-.646l-6.245-6.242a2.208,2.208,0,0,0-1.545-.646l-15.257-.112a2.208,2.208,0,0,0-2.221,2.328" transform="translate(-373.237 -355.532)" fill="#4b535b"/>
              <g id="Group_36155" data-name="Group 36155" transform="translate(114.504 109.073)" opacity="0.2">
                <g id="Group_36154" data-name="Group 36154">
                  <g id="Group_36153" data-name="Group 36153" clip-path="url(#clip-path-6)">
                    <path id="Path_39914" data-name="Path 39914" d="M487.744,466.933l1.778,32.7a2.208,2.208,0,0,0,2.189,2.088l58.848.431a2.208,2.208,0,0,0,2.224-2.192l.187-25.456a2.208,2.208,0,0,0-2.206-2.224l-36.192-.032a2.209,2.209,0,0,1-1.559-.646l-6.245-6.242a2.208,2.208,0,0,0-1.545-.646l-15.257-.112a2.208,2.208,0,0,0-2.221,2.328" transform="translate(-487.741 -464.605)"/>
                  </g>
                </g>
              </g>
              <rect id="Rectangle_18121" data-name="Rectangle 18121" width="43.569" height="59.62" transform="translate(110.487 98.397) rotate(-24.525)" fill="#fff"/>
              <path id="Path_39915" data-name="Path 39915" d="M534.077,395.488s-.05-.09-.132-.262l-.361-.763-1.374-2.955-5.131-11.12-17.929-39.06.261.1-39.625,18.1,0,0,.108-.288L494.6,413.5l-.235-.088,28.821-13.048,8.028-3.613,2.119-.945c.482-.213.743-.318.743-.318s-.227.118-.692.337l-2.072.968-7.955,3.679-28.845,13.263-.161.074-.074-.162-24.784-54.225-.09-.2.2-.09,0,0,39.642-18.064.18-.082.082.18,17.8,39.258,5.017,11.123,1.315,2.939.331.752a2.269,2.269,0,0,1,.1.251" transform="translate(-359.204 -260.935)" fill="#1a2e35"/>
              <path id="Path_39916" data-name="Path 39916" d="M532.287,418.443c.05.109-4.222,2.165-9.541,4.592s-9.672,4.306-9.722,4.2,4.221-2.165,9.541-4.592,9.671-4.306,9.721-4.2" transform="translate(-392.584 -320.204)" fill="#1a2e35"/>
              <path id="Path_39917" data-name="Path 39917" d="M551.864,418.278c.05.109-6.554,3.229-14.749,6.968s-14.881,6.683-14.931,6.573,6.553-3.229,14.751-6.969,14.88-6.682,14.93-6.573" transform="translate(-399.594 -320.079)" fill="#1a2e35"/>
              <path id="Path_39918" data-name="Path 39918" d="M561.42,439.223c.05.109-6.554,3.229-14.749,6.968s-14.881,6.683-14.931,6.573,6.553-3.229,14.751-6.969,14.88-6.682,14.93-6.573" transform="translate(-406.906 -336.107)" fill="#1a2e35"/>
              <path id="Path_39919" data-name="Path 39919" d="M570.976,460.168c.05.109-6.554,3.229-14.749,6.968s-14.881,6.683-14.931,6.573,6.553-3.229,14.751-6.969,14.88-6.682,14.93-6.573" transform="translate(-414.219 -352.135)" fill="#1a2e35"/>
              <path id="Path_39920" data-name="Path 39920" d="M580.532,481.112c.05.109-6.554,3.229-14.749,6.968s-14.881,6.683-14.931,6.573,6.553-3.229,14.751-6.969,14.88-6.682,14.93-6.573" transform="translate(-421.531 -368.162)" fill="#1a2e35"/>
              <path id="Path_39921" data-name="Path 39921" d="M590.088,502.057c.05.109-6.554,3.229-14.749,6.968s-14.881,6.682-14.931,6.573,6.553-3.229,14.751-6.969,14.88-6.682,14.93-6.573" transform="translate(-428.844 -384.19)" fill="#1a2e35"/>
              <path id="Path_39922" data-name="Path 39922" d="M599.644,523c.05.109-6.555,3.229-14.749,6.968s-14.881,6.683-14.931,6.573,6.553-3.229,14.751-6.969,14.88-6.682,14.93-6.573" transform="translate(-436.157 -400.218)" fill="#1a2e35"/>
              <path id="Path_39923" data-name="Path 39923" d="M595.473,570.616c.05.109-3.481,1.827-7.886,3.837s-8.018,3.551-8.068,3.442,3.481-1.827,7.887-3.837,8.017-3.551,8.066-3.441" transform="translate(-443.469 -436.652)" fill="#1a2e35"/>
              <rect id="Rectangle_18122" data-name="Rectangle 18122" width="45.243" height="61.912" transform="matrix(0.971, -0.241, 0.241, 0.971, 121.47, 87.166)" fill="#fff"/>
              <path id="Path_39924" data-name="Path 39924" d="M575.354,384.113s-.034-.1-.085-.293l-.223-.847-.839-3.278-3.119-12.329-10.857-43.289.248.149-43.9,10.926h0l.165-.274,14.884,60.1-.223-.134,31.907-7.827,8.884-2.158,2.343-.561c.532-.125.818-.183.818-.183s-.254.077-.771.212l-2.3.593-8.821,2.24L531.49,395.2l-.178.045-.045-.179L516.3,334.988l-.055-.219.22-.054h0l43.909-10.885.2-.049.049.2,10.692,43.468,3,12.311.782,3.251.194.831a2.266,2.266,0,0,1,.056.275" transform="translate(-395.051 -247.767)" fill="#1a2e35"/>
              <path id="Path_39925" data-name="Path 39925" d="M575.021,394.291c.03.121-4.723,1.406-10.614,2.869s-10.694,2.552-10.724,2.431,4.722-1.405,10.615-2.869,10.693-2.552,10.723-2.431" transform="translate(-423.698 -301.719)" fill="#1a2e35"/>
              <path id="Path_39926" data-name="Path 39926" d="M592.085,404.332c.03.121-7.306,2.047-16.384,4.3s-16.464,3.985-16.494,3.864,7.3-2.047,16.386-4.3,16.463-3.985,16.493-3.864" transform="translate(-427.925 -309.404)" fill="#1a2e35"/>
              <path id="Path_39927" data-name="Path 39927" d="M597.848,427.534c.03.121-7.306,2.047-16.384,4.3S565,435.821,564.97,435.7s7.3-2.047,16.385-4.3,16.463-3.985,16.493-3.864" transform="translate(-432.335 -327.159)" fill="#1a2e35"/>
              <path id="Path_39928" data-name="Path 39928" d="M603.611,450.735c.03.121-7.306,2.047-16.384,4.3s-16.465,3.985-16.495,3.864,7.3-2.047,16.386-4.3,16.463-3.985,16.493-3.864" transform="translate(-436.745 -344.914)" fill="#1a2e35"/>
              <path id="Path_39929" data-name="Path 39929" d="M609.374,473.936c.03.121-7.306,2.047-16.384,4.3s-16.464,3.985-16.494,3.864,7.3-2.047,16.385-4.3,16.463-3.985,16.493-3.864" transform="translate(-441.155 -362.669)" fill="#1a2e35"/>
              <path id="Path_39930" data-name="Path 39930" d="M615.137,497.138c.03.121-7.306,2.047-16.384,4.3s-16.464,3.985-16.495,3.864,7.3-2.047,16.386-4.3,16.463-3.985,16.493-3.864" transform="translate(-445.565 -380.424)" fill="#1a2e35"/>
              <path id="Path_39931" data-name="Path 39931" d="M620.9,520.339c.03.121-7.306,2.047-16.384,4.3s-16.464,3.985-16.495,3.864,7.3-2.047,16.386-4.3,16.463-3.985,16.493-3.864" transform="translate(-449.975 -398.178)" fill="#1a2e35"/>
              <path id="Path_39932" data-name="Path 39932" d="M611.457,559.613c.03.121-3.9,1.2-8.781,2.414s-8.861,2.1-8.891,1.976,3.9-1.2,8.782-2.414,8.86-2.1,8.89-1.976" transform="translate(-454.385 -428.227)" fill="#1a2e35"/>
              <path id="Path_39933" data-name="Path 39933" d="M469.966,488.288l4.616,40.1a1.419,1.419,0,0,0,1.4,1.257l62.663.459a1.42,1.42,0,0,0,1.425-1.3l3.448-40.044a1.42,1.42,0,0,0-1.4-1.542l-70.727-.518a1.42,1.42,0,0,0-1.421,1.582" transform="translate(-359.627 -372.445)" fill="#69ac4a"/>
              <path id="Path_39934" data-name="Path 39934" d="M760.175,315.6c-.029-.018.2-.315.422-.93a4.158,4.158,0,0,0,.028-2.7,4.056,4.056,0,0,0-2.821-2.654,3.993,3.993,0,0,0-2.337.084,4.014,4.014,0,0,0-2.727,3.9,3.992,3.992,0,0,0,.721,2.225,4.055,4.055,0,0,0,3.459,1.742,4.16,4.16,0,0,0,2.526-.95c.5-.421.7-.736.729-.715a.9.9,0,0,1-.14.229,3.273,3.273,0,0,1-.513.575,4.153,4.153,0,0,1-2.594,1.075,4.222,4.222,0,0,1-1.942-.358,4.3,4.3,0,0,1-1.755-1.438,4.246,4.246,0,0,1-.789-2.378,4.286,4.286,0,0,1,2.929-4.184,4.247,4.247,0,0,1,2.5-.072,4.29,4.29,0,0,1,1.951,1.156,4.218,4.218,0,0,1,1,1.7,4.15,4.15,0,0,1-.121,2.806,3.261,3.261,0,0,1-.365.679c-.1.144-.159.216-.167.21" transform="translate(-575.794 -236.38)" fill="#1a2e35"/>
              <path id="Path_39935" data-name="Path 39935" d="M809.547,350.161c-.029-.018.2-.315.422-.93a4.159,4.159,0,0,0,.028-2.7,4.057,4.057,0,0,0-2.821-2.654,3.991,3.991,0,0,0-2.337.084,4.014,4.014,0,0,0-2.728,3.9,3.992,3.992,0,0,0,.721,2.225,4.057,4.057,0,0,0,3.46,1.742,4.158,4.158,0,0,0,2.526-.95c.5-.421.7-.736.729-.715a.889.889,0,0,1-.14.229,3.259,3.259,0,0,1-.513.575,4.153,4.153,0,0,1-2.594,1.075,4.221,4.221,0,0,1-1.942-.358,4.3,4.3,0,0,1-1.755-1.438,4.246,4.246,0,0,1-.789-2.378,4.286,4.286,0,0,1,2.929-4.184,4.243,4.243,0,0,1,2.5-.072,4.29,4.29,0,0,1,1.951,1.156,4.22,4.22,0,0,1,1,1.7,4.152,4.152,0,0,1-.121,2.806,3.265,3.265,0,0,1-.365.679c-.1.144-.159.216-.167.209" transform="translate(-613.575 -262.824)" fill="#1a2e35"/>
              <path id="Path_39936" data-name="Path 39936" d="M795.657,292.812a1.642,1.642,0,0,1,.149-.288l.47-.809c.405-.709,1-1.743,1.682-3.078s1.453-2.972,2.245-4.865,1.628-4.032,2.553-6.328l.074.184a44.224,44.224,0,0,1-12.823-8.719l.245-.121a17.81,17.81,0,0,1-.66,7.209,18.085,18.085,0,0,1-2.483,5.157,16.992,16.992,0,0,1-2.464,2.84c-.318.3-.593.5-.767.65a1.8,1.8,0,0,1-.278.207,1.827,1.827,0,0,1,.246-.246c.162-.16.427-.37.732-.682a18.478,18.478,0,0,0,4.777-8,17.755,17.755,0,0,0,.609-7.1l-.047-.4.292.283a44.877,44.877,0,0,0,12.737,8.666l.126.057-.052.127c-.934,2.29-1.779,4.427-2.595,6.316s-1.6,3.525-2.311,4.852-1.327,2.349-1.758,3.044l-.51.786a1.609,1.609,0,0,1-.19.262" transform="translate(-599.639 -205.404)" fill="#1a2e35"/>
              <path id="Path_39937" data-name="Path 39937" d="M820.856,306.888c-.048.069-2.521-1.58-5.523-3.681s-5.4-3.861-5.35-3.929,2.52,1.58,5.523,3.681,5.4,3.861,5.349,3.929" transform="translate(-619.828 -229.017)" fill="#1a2e35"/>
              <path id="Path_39938" data-name="Path 39938" d="M615.066,553.643a19.242,19.242,0,0,0-.79-2.912,8.511,8.511,0,0,0-1.8-2.647,8.347,8.347,0,0,0-3.331-1.991,8.441,8.441,0,0,0-3.877-.213,8.309,8.309,0,0,0-2.971,1.189,20.051,20.051,0,0,0-2.281,1.975c-.031-.02.082-.3.4-.739a7.4,7.4,0,0,1,1.617-1.622,8.137,8.137,0,0,1,3.117-1.4,8.335,8.335,0,0,1,7.765,2.374,8.306,8.306,0,0,1,1.8,2.9,7.551,7.551,0,0,1,.44,2.248c-.012.542-.041.836-.087.835" transform="translate(-459.151 -417.131)" fill="#fff"/>
              <path id="Path_39939" data-name="Path 39939" d="M647.392,564.446c.111-.146,1.931,1.052,4.065,2.676l.119.091-.514.154c.868-2.467,1.7-4.393,1.865-4.333s-.382,2.082-1.239,4.552l-.15.431-.364-.277-.119-.09c-2.134-1.623-3.775-3.058-3.664-3.2" transform="translate(-495.403 -430.853)" fill="#fff"/>
              <path id="Path_39940" data-name="Path 39940" d="M597.422,575.674a20.751,20.751,0,0,0,.409,2.9,8.411,8.411,0,0,0,1.378,2.785,8.03,8.03,0,0,0,2.906,2.4,9.072,9.072,0,0,0,.919.389c.316.089.623.2.935.256a8.2,8.2,0,0,0,4.87-.429,9.4,9.4,0,0,0,1.866-1.026c.42-.288.64-.471.678-.433s-.132.273-.514.633a7.238,7.238,0,0,1-1.837,1.254,8.029,8.029,0,0,1-3.222.8,8.369,8.369,0,0,1-1.972-.163c-.338-.062-.673-.172-1.016-.267a9.22,9.22,0,0,1-1-.418,8.255,8.255,0,0,1-4.447-5.67,8.052,8.052,0,0,1-.165-1.263c-.006-.374.008-.7.026-.957.077-.521.141-.8.186-.794" transform="translate(-457.005 -440.526)" fill="#fff"/>
              <path id="Path_39941" data-name="Path 39941" d="M594.66,576.852c-.128.131-1.788-1.28-3.708-3.152l-.107-.1.529-.09c-1.163,2.342-2.219,4.153-2.381,4.073s.634-2.02,1.786-4.367l.2-.41.328.319.107.1c1.92,1.872,3.373,3.5,3.245,3.628" transform="translate(-450.703 -438.328)" fill="#fff"/>
              <rect id="Rectangle_18123" data-name="Rectangle 18123" width="73.874" height="20.009" transform="translate(294.515 159.785)" fill="#e1e1e1"/>
              <rect id="Rectangle_18124" data-name="Rectangle 18124" width="3.98" height="15.314" transform="translate(296.498 162.3)" fill="#1a2e35"/>
              <path id="Path_39942" data-name="Path 39942" d="M1291.639,700.932a1.265,1.265,0,1,1-1.265-1.265,1.265,1.265,0,0,1,1.265,1.265" transform="translate(-986.473 -535.41)" fill="#fff"/>
              <path id="Path_39943" data-name="Path 39943" d="M1291.639,723.98a1.265,1.265,0,1,1-1.265-1.265,1.265,1.265,0,0,1,1.265,1.265" transform="translate(-986.473 -553.047)" fill="#fff"/>
              <rect id="Rectangle_18125" data-name="Rectangle 18125" width="3.911" height="11.763" transform="translate(310.222 164.257)" fill="#1a2e35"/>
              <rect id="Rectangle_18126" data-name="Rectangle 18126" width="3.911" height="11.763" transform="translate(315.871 164.257)" fill="#1a2e35"/>
              <rect id="Rectangle_18127" data-name="Rectangle 18127" width="3.911" height="11.763" transform="translate(321.52 164.257)" fill="#1a2e35"/>
              <rect id="Rectangle_18128" data-name="Rectangle 18128" width="3.911" height="11.763" transform="translate(327.169 164.257)" fill="#1a2e35"/>
              <rect id="Rectangle_18129" data-name="Rectangle 18129" width="3.911" height="11.763" transform="translate(332.818 164.257)" fill="#1a2e35"/>
              <rect id="Rectangle_18130" data-name="Rectangle 18130" width="3.911" height="11.763" transform="translate(338.467 164.257)" fill="#1a2e35"/>
              <rect id="Rectangle_18131" data-name="Rectangle 18131" width="3.911" height="11.763" transform="translate(344.116 164.257)" fill="#1a2e35"/>
              <rect id="Rectangle_18132" data-name="Rectangle 18132" width="3.911" height="11.763" transform="translate(349.765 164.257)" fill="#1a2e35"/>
              <rect id="Rectangle_18133" data-name="Rectangle 18133" width="3.911" height="11.763" transform="translate(355.414 164.257)" fill="#1a2e35"/>
              <rect id="Rectangle_18134" data-name="Rectangle 18134" width="3.911" height="11.763" transform="translate(361.063 164.257)" fill="#1a2e35"/>
              <rect id="Rectangle_18135" data-name="Rectangle 18135" width="13.197" height="20.009" transform="translate(368.389 159.785)" fill="#1a2e35"/>
              <rect id="Rectangle_18136" data-name="Rectangle 18136" width="73.874" height="20.009" transform="translate(294.515 181.857)" fill="#e1e1e1"/>
              <rect id="Rectangle_18137" data-name="Rectangle 18137" width="3.98" height="15.314" transform="translate(296.498 184.372)" fill="#1a2e35"/>
              <path id="Path_39944" data-name="Path 39944" d="M1291.639,794.949a1.265,1.265,0,1,1-1.265-1.265,1.265,1.265,0,0,1,1.265,1.265" transform="translate(-986.473 -607.355)" fill="#fff"/>
              <path id="Path_39945" data-name="Path 39945" d="M1291.639,818a1.265,1.265,0,1,1-1.265-1.265,1.265,1.265,0,0,1,1.265,1.265" transform="translate(-986.473 -624.993)" fill="#fff"/>
              <rect id="Rectangle_18138" data-name="Rectangle 18138" width="3.911" height="11.763" transform="translate(310.222 186.329)" fill="#1a2e35"/>
              <rect id="Rectangle_18139" data-name="Rectangle 18139" width="3.911" height="11.763" transform="translate(315.871 186.329)" fill="#1a2e35"/>
              <rect id="Rectangle_18140" data-name="Rectangle 18140" width="3.911" height="11.763" transform="translate(321.52 186.329)" fill="#1a2e35"/>
              <rect id="Rectangle_18141" data-name="Rectangle 18141" width="3.911" height="11.763" transform="translate(327.169 186.329)" fill="#1a2e35"/>
              <rect id="Rectangle_18142" data-name="Rectangle 18142" width="3.911" height="11.763" transform="translate(332.818 186.329)" fill="#1a2e35"/>
              <rect id="Rectangle_18143" data-name="Rectangle 18143" width="3.911" height="11.763" transform="translate(338.467 186.329)" fill="#1a2e35"/>
              <rect id="Rectangle_18144" data-name="Rectangle 18144" width="3.911" height="11.763" transform="translate(344.116 186.329)" fill="#1a2e35"/>
              <rect id="Rectangle_18145" data-name="Rectangle 18145" width="3.911" height="11.763" transform="translate(349.765 186.329)" fill="#1a2e35"/>
              <rect id="Rectangle_18146" data-name="Rectangle 18146" width="3.911" height="11.763" transform="translate(355.414 186.329)" fill="#1a2e35"/>
              <rect id="Rectangle_18147" data-name="Rectangle 18147" width="3.911" height="11.763" transform="translate(361.063 186.329)" fill="#1a2e35"/>
              <rect id="Rectangle_18148" data-name="Rectangle 18148" width="13.197" height="20.009" transform="translate(368.389 181.857)" fill="#1a2e35"/>
              <rect id="Rectangle_18149" data-name="Rectangle 18149" width="73.874" height="20.009" transform="translate(294.515 203.622)" fill="#e1e1e1"/>
              <rect id="Rectangle_18150" data-name="Rectangle 18150" width="3.98" height="15.314" transform="translate(296.498 206.138)" fill="#1a2e35"/>
              <path id="Path_39946" data-name="Path 39946" d="M1291.639,887.662a1.265,1.265,0,1,1-1.265-1.265,1.265,1.265,0,0,1,1.265,1.265" transform="translate(-986.473 -678.303)" fill="#fff"/>
              <path id="Path_39947" data-name="Path 39947" d="M1291.639,910.71a1.265,1.265,0,1,1-1.265-1.265,1.265,1.265,0,0,1,1.265,1.265" transform="translate(-986.473 -695.94)" fill="#fff"/>
              <rect id="Rectangle_18151" data-name="Rectangle 18151" width="3.911" height="11.763" transform="translate(310.222 208.094)" fill="#1a2e35"/>
              <rect id="Rectangle_18152" data-name="Rectangle 18152" width="3.911" height="11.763" transform="translate(315.871 208.094)" fill="#1a2e35"/>
              <rect id="Rectangle_18153" data-name="Rectangle 18153" width="3.911" height="11.763" transform="translate(321.52 208.094)" fill="#1a2e35"/>
              <rect id="Rectangle_18154" data-name="Rectangle 18154" width="3.911" height="11.763" transform="translate(327.169 208.094)" fill="#1a2e35"/>
              <rect id="Rectangle_18155" data-name="Rectangle 18155" width="3.911" height="11.763" transform="translate(332.818 208.094)" fill="#1a2e35"/>
              <rect id="Rectangle_18156" data-name="Rectangle 18156" width="3.911" height="11.763" transform="translate(338.467 208.094)" fill="#1a2e35"/>
              <rect id="Rectangle_18157" data-name="Rectangle 18157" width="3.911" height="11.763" transform="translate(344.116 208.094)" fill="#1a2e35"/>
              <rect id="Rectangle_18158" data-name="Rectangle 18158" width="3.911" height="11.763" transform="translate(349.765 208.094)" fill="#1a2e35"/>
              <rect id="Rectangle_18159" data-name="Rectangle 18159" width="3.911" height="11.763" transform="translate(355.414 208.094)" fill="#1a2e35"/>
              <rect id="Rectangle_18160" data-name="Rectangle 18160" width="3.911" height="11.763" transform="translate(361.063 208.094)" fill="#1a2e35"/>
              <rect id="Rectangle_18161" data-name="Rectangle 18161" width="13.197" height="20.009" transform="translate(368.389 203.622)" fill="#1a2e35"/>
              <rect id="Rectangle_18162" data-name="Rectangle 18162" width="5.038" height="3.496" transform="translate(381.585 169.668)" fill="#1a2e35"/>
              <path id="Path_39948" data-name="Path 39948" d="M1367.842,307.129v-3.761a.534.534,0,0,1,.534-.534h3.5a.534.534,0,0,1,.534.534v3.761a2.282,2.282,0,1,1-4.564,0" transform="translate(-1046.722 -231.739)" fill="#1a2e35"/>
              <rect id="Rectangle_18163" data-name="Rectangle 18163" width="5.038" height="3.496" transform="translate(381.585 190.873)" fill="#1a2e35"/>
              <rect id="Rectangle_18164" data-name="Rectangle 18164" width="5.038" height="3.496" transform="translate(381.585 211.254)" fill="#1a2e35"/>
              <rect id="Rectangle_18165" data-name="Rectangle 18165" width="5.038" height="3.496" transform="translate(289.136 211.254)" fill="#1a2e35"/>
              <path id="Path_39949" data-name="Path 39949" d="M1658.412,772.9a3.241,3.241,0,0,1,.022.716,5.106,5.106,0,0,1-.054.839,8.551,8.551,0,0,1-.177,1.1,9.373,9.373,0,0,1-.369,1.3c-.087.228-.154.473-.265.708l-.342.726a11.347,11.347,0,0,1-4.975,4.975l-.726.343c-.235.111-.48.178-.708.265a9.361,9.361,0,0,1-1.3.369,8.529,8.529,0,0,1-1.1.177,5.121,5.121,0,0,1-.839.054,3.213,3.213,0,0,1-.715-.023c0-.072,1.025-.035,2.608-.417a9.839,9.839,0,0,0,1.267-.4c.221-.09.459-.16.687-.273l.7-.346a11.545,11.545,0,0,0,4.857-4.857l.346-.7c.113-.228.183-.466.273-.687a9.867,9.867,0,0,0,.4-1.267c.382-1.584.345-2.612.417-2.609" transform="translate(-1260.234 -591.452)" fill="#1a2e35"/>
              <path id="Path_39950" data-name="Path 39950" d="M1658.412,679.3a3.241,3.241,0,0,1,.022.716,5.107,5.107,0,0,1-.054.839,8.55,8.55,0,0,1-.177,1.1,9.375,9.375,0,0,1-.369,1.3c-.087.228-.154.473-.265.708l-.342.726a11.346,11.346,0,0,1-4.975,4.975l-.726.342c-.235.111-.48.179-.708.265a9.322,9.322,0,0,1-1.3.369,8.529,8.529,0,0,1-1.1.177,5.106,5.106,0,0,1-.839.054,3.23,3.23,0,0,1-.715-.023c0-.072,1.025-.035,2.608-.417a9.859,9.859,0,0,0,1.267-.4c.221-.09.459-.16.687-.273l.7-.346a11.542,11.542,0,0,0,4.857-4.857l.346-.7c.113-.228.183-.466.273-.687a9.876,9.876,0,0,0,.4-1.267c.382-1.583.345-2.612.417-2.608" transform="translate(-1260.234 -519.825)" fill="#1a2e35"/>
              <path id="Path_39951" data-name="Path 39951" d="M963.206,828.6s-.09.01-.266.016l-.781.015-3.005.028-11.053.048-36.464.044-10.4,0-4.943,0c-1.618-.02-3.188.045-4.749-.073a15.752,15.752,0,0,1-4.4-1.062,10.847,10.847,0,0,1-1-.456,7.5,7.5,0,0,1-.953-.508l-.907-.556-.837-.628a7.424,7.424,0,0,1-.784-.663c-.246-.234-.51-.446-.735-.692a15.272,15.272,0,0,1-4.356-10.843c.01-1.85.019-3.445.026-4.755.012-1.293.022-2.3.028-3,.006-.333.011-.592.015-.782s.015-.266.015-.266.01.09.016.266.009.449.015.782c.007.7.016,1.711.028,3,.007,1.31.016,2.905.026,4.755a14.987,14.987,0,0,0,3.1,9.207,15.219,15.219,0,0,0,1.256,1.467c.223.241.484.448.727.677a7.215,7.215,0,0,0,.774.649l.825.615.894.543a7.334,7.334,0,0,0,.938.5,10.629,10.629,0,0,0,.982.445,15.518,15.518,0,0,0,4.329,1.031c1.519.112,3.114.045,4.725.062l4.943,0,10.4,0,36.464.044,11.053.048,3.005.029.781.015c.176.005.266.016.266.016" transform="translate(-671.552 -615.602)" fill="#1a2e35"/>
              <path id="Path_39952" data-name="Path 39952" d="M1376.311,326.753s.009.18.013.531,0,.88.007,1.56c0,1.379,0,3.4,0,6-.014,5.217-.035,12.751-.06,22.061-.017,4.657-.036,9.758-.056,15.234q-.008,2.054-.016,4.176,0,1.061-.009,2.139c.022.715.067,1.432.105,2.155a19.684,19.684,0,0,0,2.919,8.36,19.327,19.327,0,0,0,6.7,6.442c.172.1.34.212.516.307l.543.261,1.089.524,1.14.419a8.12,8.12,0,0,0,1.162.371l1.188.305c.4.1.81.134,1.215.2a17.539,17.539,0,0,0,2.47.215c6.693.04,13.636.009,20.739.018l20.749,0,4.981,0a9.569,9.569,0,0,1,9.5,9.15c0,12.317-.008,23.409-.011,32.727q-.006,3.493-.011,6.644,0,1.573-.006,3.056a18.708,18.708,0,0,1-.144,2.874,12.32,12.32,0,0,1-1.782,4.829,12.47,12.47,0,0,1-2.923,3.2,12.072,12.072,0,0,1-5.464,2.369c-.34.046-.639.1-.9.122l-.655.026c-.351.013-.531.011-.531.011s.18-.02.53-.042l.652-.04c.258-.027.554-.086.893-.136a12.147,12.147,0,0,0,5.4-2.4,12.392,12.392,0,0,0,2.872-3.181,12.187,12.187,0,0,0,1.737-4.776,18.471,18.471,0,0,0,.131-2.851q0-1.482-.006-3.056-.005-3.147-.011-6.644c-.015-9.314-.033-20.4-.053-32.714a9.285,9.285,0,0,0-9.223-8.87h-4.98l-20.749,0c-7.106-.009-14.04.02-20.745-.024a17.815,17.815,0,0,1-2.507-.22c-.412-.071-.83-.108-1.233-.207l-1.206-.311a8.315,8.315,0,0,1-1.179-.377l-1.157-.427-1.106-.533-.55-.266c-.179-.1-.349-.208-.523-.312a19.6,19.6,0,0,1-6.789-6.543,19.942,19.942,0,0,1-2.948-8.482c-.038-.733-.082-1.462-.1-2.183q.006-1.078.012-2.139.012-2.122.024-4.176c.034-5.475.064-10.576.093-15.234.066-9.309.119-16.844.156-22.06.025-2.6.044-4.619.058-6q.015-1.02.022-1.56c.007-.351.018-.531.018-.531" transform="translate(-1052.909 -250.043)" fill="#1a2e35"/>
              <path id="Path_39953" data-name="Path 39953" d="M1283.563,322.468c-1.288-.293-1.571-1.812-1.689-2.665a2.912,2.912,0,0,1,.772-2.375c1.148-1.2,3.087-1.174,4.668-.675a22.782,22.782,0,0,0,3.779,1.093c1.267.216,2.969-.3,4.761.567,1.368.661,1.188,1.892,1.864,2.322s1.067.836,1.75,1.286c.88.579.945,1.842.763,2.88a5.57,5.57,0,0,0-.1,3.109c.288.679.9,1.182,1.172,1.869a2.156,2.156,0,0,1-.948,2.6,3.686,3.686,0,0,0-.913.508,3.218,3.218,0,0,0-.54,1.372,2.436,2.436,0,0,1-2.144,1.656,2.2,2.2,0,0,1-2.162-1.563,4.722,4.722,0,0,1,.278-2.381,15.171,15.171,0,0,0,.295-6.475" transform="translate(-980.917 -242.143)" fill="#1a2e35"/>
              <path id="Path_39954" data-name="Path 39954" d="M1299.026,356.264l-8.445-.674c-.052-.986.018-4.8.018-4.8a4.217,4.217,0,0,1-3.557-4.059c-.043-3.513.566-11.58.566-11.58a12.209,12.209,0,0,1,12.268,1.542l.521.4Z" transform="translate(-984.889 -255.709)" fill="#ffc09d"/>
              <path id="Path_39955" data-name="Path 39955" d="M1290.6,362.345a.51.51,0,1,0-.721-.035.51.51,0,0,0,.721.035" transform="translate(-986.96 -276.6)" fill="#1a2e35"/>
              <path id="Path_39956" data-name="Path 39956" d="M1289.252,359.059c.055.061.4-.2.884-.207s.835.247.889.186c.026-.028-.029-.137-.182-.254a1.192,1.192,0,0,0-1.414.017c-.151.12-.2.231-.176.258" transform="translate(-986.577 -274.383)" fill="#1a2e35"/>
              <path id="Path_39957" data-name="Path 39957" d="M1312.28,362.014a.51.51,0,1,0,.7.167.51.51,0,0,0-.7-.167" transform="translate(-1004.018 -276.968)" fill="#1a2e35"/>
              <path id="Path_39958" data-name="Path 39958" d="M1311.691,359.946c.055.061.4-.2.884-.207s.835.247.889.185c.026-.028-.029-.137-.182-.254a1.193,1.193,0,0,0-1.415.017c-.151.12-.2.231-.176.258" transform="translate(-1003.748 -275.061)" fill="#1a2e35"/>
              <path id="Path_39959" data-name="Path 39959" d="M1299.3,365.792a2.349,2.349,0,0,0-.782-.166c-.126-.014-.226-.042-.235-.111a.689.689,0,0,1,.091-.362l.383-.983a13.448,13.448,0,0,0,.828-2.584,13.468,13.468,0,0,0-1.085,2.487l-.363.991a.809.809,0,0,0-.069.526.332.332,0,0,0,.218.2.814.814,0,0,0,.216.028,2.345,2.345,0,0,0,.8-.028" transform="translate(-993.309 -276.698)" fill="#1a2e35"/>
              <path id="Path_39960" data-name="Path 39960" d="M1302.149,400.544a8.17,8.17,0,0,0,4.58-1.3,4.328,4.328,0,0,1-4.588,2.212Z" transform="translate(-996.445 -305.514)" fill="#ff9b6c"/>
              <path id="Path_39961" data-name="Path 39961" d="M1289.15,333.24a5.856,5.856,0,0,0,4.932.01c1.888-.774,4.043-1.061,4.483-.66s.4,2.284,2.164,2.965c0,0-.389,3.57,1.048,3.548s.955-5.631.955-5.631l-3.365-1.963-3.756-1-3.627.24-2.834.555Z" transform="translate(-986.504 -252.916)" fill="#1a2e35"/>
              <path id="Path_39962" data-name="Path 39962" d="M1341.643,361.8c.06-.026,2.414-.714,2.337,1.688a1.807,1.807,0,0,1-2.474,1.761c0-.069.137-3.448.137-3.448" transform="translate(-1026.568 -276.777)" fill="#ffc09d"/>
              <path id="Path_39963" data-name="Path 39963" d="M1344.747,366.925c.011-.007.041.031.111.065a.418.418,0,0,0,.313.016,1.035,1.035,0,0,0,.508-.913,1.381,1.381,0,0,0-.1-.6.485.485,0,0,0-.3-.331.213.213,0,0,0-.251.107c-.034.066-.021.115-.033.118s-.05-.042-.028-.14a.268.268,0,0,1,.1-.147.317.317,0,0,1,.234-.054.588.588,0,0,1,.425.386,1.42,1.42,0,0,1,.124.674,1.087,1.087,0,0,1-.643,1.018.449.449,0,0,1-.381-.076c-.073-.062-.083-.116-.075-.12" transform="translate(-1029.047 -279.341)" fill="#ff9b6c"/>
              <path id="Path_39964" data-name="Path 39964" d="M1290.9,356.015c-.078.14-.538.026-1.088.008s-1.018.042-1.083-.1.409-.493,1.109-.461,1.146.43,1.063.557" transform="translate(-986.174 -272.008)" fill="#1a2e35"/>
              <path id="Path_39965" data-name="Path 39965" d="M1314.77,356.443c-.078.14-.538.026-1.088.008s-1.018.042-1.083-.1.409-.494,1.108-.461,1.147.43,1.063.557" transform="translate(-1004.442 -272.335)" fill="#1a2e35"/>
              <path id="Path_39966" data-name="Path 39966" d="M1321.227,335.312a5.056,5.056,0,0,0,5.331,4.77,9.35,9.35,0,0,0-1.474-3.82,3.411,3.411,0,0,0-3.62-1.36" transform="translate(-1011.05 -256.175)" fill="#1a2e35"/>
              <path id="Path_39967" data-name="Path 39967" d="M1306.047,379.081c.031,0,.057.148,0,.377a1.506,1.506,0,0,1-1.318,1.129c-.235.018-.375-.031-.372-.061a3.3,3.3,0,0,0,1.053-.478c.487-.415.566-.981.634-.967" transform="translate(-998.144 -290.086)" fill="#1a2e35"/>
              <path id="Path_39968" data-name="Path 39968" d="M1310.2,379.264c-.026.022-.166-.121-.394-.146s-.4.07-.418.043.151-.2.433-.162.412.254.379.266" transform="translate(-1001.986 -290.019)" fill="#1a2e35"/>
              <path id="Path_39969" data-name="Path 39969" d="M1343.785,374.91a.634.634,0,0,1,.1.567.817.817,0,0,1-.368.528.874.874,0,0,1-.785.042.8.8,0,0,1-.474-.624.847.847,0,0,1,.145-.626c.238-.317.536-.254.515-.237a.624.624,0,0,0-.445.285.781.781,0,0,0-.105.559.7.7,0,0,0,.412.531.781.781,0,0,0,.681-.027.752.752,0,0,0,.341-.452,1.065,1.065,0,0,0-.017-.547" transform="translate(-1027.136 -286.615)" fill="#375a64"/>
              <path id="Path_39970" data-name="Path 39970" d="M1284.374,321.684a2.591,2.591,0,0,0,.093.53,2.2,2.2,0,0,0,.873,1.134,4.336,4.336,0,0,0,2.052.639,6.715,6.715,0,0,0,2.632-.29,24.893,24.893,0,0,1,2.5-1,2.458,2.458,0,0,1,2.071.634,2.413,2.413,0,0,1,.7,1.3,1.7,1.7,0,0,1,.025.544,4.572,4.572,0,0,0-.071-.535,2.432,2.432,0,0,0-.715-1.248,2.384,2.384,0,0,0-1.993-.586c-.807.135-1.552.726-2.48,1a6.713,6.713,0,0,1-2.68.286,4.349,4.349,0,0,1-2.09-.679,2.2,2.2,0,0,1-.869-1.191,1.275,1.275,0,0,1-.047-.543" transform="translate(-982.841 -246.164)" fill="#375a64"/>
              <path id="Path_39971" data-name="Path 39971" d="M1330.78,333.77a1.39,1.39,0,0,1,.453-.443,1.849,1.849,0,0,1,1.682-.189,1.944,1.944,0,0,1,.926.765,2.4,2.4,0,0,1,.311,1.342,11.92,11.92,0,0,0-.006,1.5,1.648,1.648,0,0,0,.83,1.264,5.507,5.507,0,0,1,1.343.927,2.689,2.689,0,0,1,.553,1.42c.1.972-.049,1.841.094,2.553a2.237,2.237,0,0,0,.821,1.442,1.754,1.754,0,0,0,.565.261,1.121,1.121,0,0,1-.593-.222,2.252,2.252,0,0,1-.878-1.465c-.156-.728-.015-1.609-.121-2.554a2.587,2.587,0,0,0-.533-1.357,5.532,5.532,0,0,0-1.319-.9,1.954,1.954,0,0,1-.613-.576,1.814,1.814,0,0,1-.269-.773,11.61,11.61,0,0,1,.012-1.518,2.316,2.316,0,0,0-.284-1.288,1.871,1.871,0,0,0-.872-.739,1.819,1.819,0,0,0-1.625.15,2.468,2.468,0,0,0-.478.4" transform="translate(-1018.361 -254.835)" fill="#375a64"/>
              <path id="Path_39972" data-name="Path 39972" d="M1337.927,334.394a.431.431,0,0,0-.043-.319.706.706,0,0,0-.8-.25,3.432,3.432,0,0,1-.649.084.988.988,0,0,1-.686-.331c-.394-.4-.48-1.014-.826-1.484a2.289,2.289,0,0,0-1.36-.88,2.193,2.193,0,0,0-1.328.138,2.7,2.7,0,0,0-.988.769,1.331,1.331,0,0,1,.2-.284,2.284,2.284,0,0,1,2.142-.733,2.369,2.369,0,0,1,1.436.918c.367.508.447,1.114.809,1.479a.887.887,0,0,0,.61.307,3.567,3.567,0,0,0,.632-.068,1.139,1.139,0,0,1,.545.037.56.56,0,0,1,.309.276.319.319,0,0,1,0,.342" transform="translate(-1018.718 -253.339)" fill="#375a64"/>
              <path id="Path_39973" data-name="Path 39973" d="M1326.95,322.592a.316.316,0,0,1,.16-.034,1.025,1.025,0,0,1,.44.081,1.445,1.445,0,0,1,.839,1.155,2.935,2.935,0,0,1-.193,1.438,2.423,2.423,0,0,1-.244.547,3.7,3.7,0,0,1,.162-.574,3.19,3.19,0,0,0,.154-1.392,1.412,1.412,0,0,0-.755-1.1,1.539,1.539,0,0,0-.564-.125" transform="translate(-1015.43 -246.832)" fill="#375a64"/>
              <path id="Path_39974" data-name="Path 39974" d="M1292.1,335.683a6.6,6.6,0,0,0,1.421.293,5.089,5.089,0,0,0,3.3-.912c.551-.4.974-.917,1.481-1.257a1.919,1.919,0,0,1,1.542-.338,3.321,3.321,0,0,1,1,.4c.109.065.192.119.246.157s.082.06.08.064a3.622,3.622,0,0,1-.349-.179,3.594,3.594,0,0,0-.99-.362,1.846,1.846,0,0,0-1.462.346c-.487.332-.9.851-1.473,1.263a5.035,5.035,0,0,1-3.375.9,3.852,3.852,0,0,1-1.413-.378" transform="translate(-988.764 -255.148)" fill="#375a64"/>
              <path id="Path_39975" data-name="Path 39975" d="M1209.563,855.271l.772,8.462,8.754.939V854.286Z" transform="translate(-925.601 -653.73)" fill="#e1e1e1"/>
              <path id="Path_39976" data-name="Path 39976" d="M1211,874.258h9.189v1.013l-9.076.226Z" transform="translate(-926.703 -669.013)" fill="#375a64"/>
              <path id="Path_39977" data-name="Path 39977" d="M1211.77,882.474l.1,1.125,8.906-.046v-1.136Z" transform="translate(-927.29 -675.257)" fill="#375a64"/>
              <path id="Path_39978" data-name="Path 39978" d="M1212.658,891.884l-.06-.655,8.815-.155-.011.636Z" transform="translate(-927.923 -681.881)" fill="#375a64"/>
              <path id="Path_39979" data-name="Path 39979" d="M1193.669,894.219l-.031-.944,8.888-.332.136,3.111-.547.057c-2.436.232-12.4,1.009-14.053.579-1.842-.48,5.608-2.471,5.608-2.471" transform="translate(-908.923 -683.312)" fill="#4b535b"/>
              <g id="Group_36158" data-name="Group 36158" transform="translate(290.528 210.141)" opacity="0.3">
                <g id="Group_36157" data-name="Group 36157">
                  <g id="Group_36156" data-name="Group 36156" clip-path="url(#clip-path-7)">
                    <path id="Path_39980" data-name="Path 39980" d="M1237.532,897.774a3.073,3.073,0,0,1,1.054-1.931,2.983,2.983,0,0,1,2.042-.725l.1,2.473Z" transform="translate(-1237.532 -895.116)" fill="#fff"/>
                  </g>
                </g>
              </g>
              <g id="Group_36161" data-name="Group 36161" transform="translate(278.82 212.011)" opacity="0.3">
                <g id="Group_36160" data-name="Group 36160">
                  <g id="Group_36159" data-name="Group 36159" clip-path="url(#clip-path-8)">
                    <path id="Path_39981" data-name="Path 39981" d="M1189.953,903.08s-2.6.864-2.259,1.285,10.447.015,14.886-.554l-.022-.2-11.778.574s-.312-1.107-.828-1.108" transform="translate(-1187.662 -903.08)" fill="#fff"/>
                  </g>
                </g>
              </g>
              <path id="Path_39982" data-name="Path 39982" d="M1202.772,905.3a.817.817,0,0,1-.152.022l-.436.044-1.605.134c-1.356.1-3.231.222-5.305.307s-3.953.12-5.313.128l-1.61,0-.438-.008a.077.077,0,1,1,0-.021l.438-.012,1.61-.032c1.359-.027,3.237-.075,5.31-.16s3.947-.191,5.3-.275l1.607-.1.437-.024a.774.774,0,0,1,.153,0" transform="translate(-908.916 -692.765)" fill="#1a2e35"/>
              <path id="Path_39983" data-name="Path 39983" d="M1198.03,903.977a2.336,2.336,0,0,0-.9-1.349,1.43,1.43,0,0,1,.9,1.349" transform="translate(-916.083 -690.721)" fill="#1a2e35"/>
              <path id="Path_39984" data-name="Path 39984" d="M1210.238,899.953c-.025.017-.156-.13-.293-.328s-.229-.372-.2-.389.155.13.293.328.229.372.2.389" transform="translate(-925.734 -688.126)" fill="#1a2e35"/>
              <path id="Path_39985" data-name="Path 39985" d="M1212.986,899c-.019.023-.162-.065-.32-.2s-.271-.255-.252-.278.162.065.32.2.271.256.252.278" transform="translate(-927.781 -687.585)" fill="#1a2e35"/>
              <path id="Path_39986" data-name="Path 39986" d="M1213.632,896.812a2.02,2.02,0,1,1-.465-.03,1.044,1.044,0,0,1,.465.03" transform="translate(-928.008 -686.246)" fill="#1a2e35"/>
              <path id="Path_39987" data-name="Path 39987" d="M1213.8,894.366a1.3,1.3,0,0,1-1.044.121,41.438,41.438,0,0,0,1.044-.121" transform="translate(-928.046 -684.395)" fill="#1a2e35"/>
              <path id="Path_39988" data-name="Path 39988" d="M1204.96,896.613a1.64,1.64,0,0,1-.569.019,3.32,3.32,0,0,1-.61-.109,1.672,1.672,0,0,1-.352-.129.307.307,0,0,1-.148-.171.223.223,0,0,1,.077-.231,1.043,1.043,0,0,1,1.3.253,1.016,1.016,0,0,1,.2.372.311.311,0,0,1,.021.153,1.61,1.61,0,0,0-.278-.475,1.028,1.028,0,0,0-.5-.3.883.883,0,0,0-.676.073c-.088.07-.048.175.054.231a1.691,1.691,0,0,0,.325.124,3.889,3.889,0,0,0,.591.129c.343.047.56.038.56.056" transform="translate(-920.787 -685.546)" fill="#1a2e35"/>
              <path id="Path_39989" data-name="Path 39989" d="M1209.566,895.547a.564.564,0,0,1-.082-.392.931.931,0,0,1,.139-.422.571.571,0,0,1,.462-.309.226.226,0,0,1,.186.255.618.618,0,0,1-.086.258,1.715,1.715,0,0,1-.255.355.819.819,0,0,1-.316.243c-.01-.013.109-.107.259-.293a1.991,1.991,0,0,0,.224-.351c.073-.123.118-.341-.026-.361s-.282.14-.365.256a.941.941,0,0,0-.146.376,2.068,2.068,0,0,0,.006.384" transform="translate(-925.54 -684.446)" fill="#1a2e35"/>
              <path id="Path_39990" data-name="Path 39990" d="M1240.588,894.888c0,.02-.255-.014-.653.049a2.773,2.773,0,0,0-2.243,1.94c-.12.384-.123.64-.143.638a.527.527,0,0,1-.008-.178,2.375,2.375,0,0,1,.077-.481,2.691,2.691,0,0,1,2.306-1.994,2.319,2.319,0,0,1,.487-.007.519.519,0,0,1,.176.033" transform="translate(-947.01 -684.768)" fill="#1a2e35"/>
              <path id="Path_39991" data-name="Path 39991" d="M1224.218,902.93a7.269,7.269,0,0,1-2.584.129c0-.031.581-.019,1.293-.055s1.287-.1,1.291-.073" transform="translate(-934.838 -690.948)" fill="#1a2e35"/>
              <path id="Path_39992" data-name="Path 39992" d="M1239.257,902.637c.022.021-.042.125-.1.259s-.081.254-.112.253-.051-.138.012-.293.176-.24.2-.219" transform="translate(-948.143 -690.728)" fill="#1a2e35"/>
              <path id="Path_39993" data-name="Path 39993" d="M1241.619,899.06c.022.02-.031.114-.119.211s-.177.158-.2.139.032-.114.12-.211.177-.158.2-.139" transform="translate(-949.884 -687.99)" fill="#1a2e35"/>
              <path id="Path_39994" data-name="Path 39994" d="M1244.966,897.182c-.005.03-.123.034-.251.085s-.219.124-.243.1.045-.144.2-.2.3-.012.289.015" transform="translate(-952.311 -686.522)" fill="#1a2e35"/>
              <path id="Path_39995" data-name="Path 39995" d="M1248.537,896.408c.012.027-.037.075-.109.106s-.141.035-.152.008.037-.075.109-.106.14-.035.152-.008" transform="translate(-955.224 -685.95)" fill="#1a2e35"/>
              <path id="Path_39996" data-name="Path 39996" d="M1210.485,867.827l.047.512,9.264-.126V867.6Z" transform="translate(-926.306 -663.917)" fill="#375a64"/>
              <path id="Path_39997" data-name="Path 39997" d="M1104.913,771.6l-3.15,7.892,7.376,4.808,4.711-9.256Z" transform="translate(-843.108 -590.454)" fill="#e1e1e1"/>
              <path id="Path_39998" data-name="Path 39998" d="M1107.805,786.31l8.189,4.168-.459.9-8.191-3.916Z" transform="translate(-847.38 -601.713)" fill="#375a64"/>
              <path id="Path_39999" data-name="Path 39999" d="M1104.815,794.148l-.419,1.049,7.958,4,.515-1.013Z" transform="translate(-845.124 -607.711)" fill="#375a64"/>
              <path id="Path_40000" data-name="Path 40000" d="M1101.763,803.221l.244-.611,7.926,3.86-.3.562Z" transform="translate(-843.109 -614.186)" fill="#375a64"/>
              <path id="Path_40001" data-name="Path 40001" d="M1079.533,805.88l.4-.856,8.072,3.735-1.29,2.834-.513-.2c-2.276-.9-11.51-4.726-12.787-5.859-1.424-1.263,6.118.342,6.118.342" transform="translate(-821.278 -616.033)" fill="#4b535b"/>
              <g id="Group_36164" data-name="Group 36164" transform="translate(262.548 192.828)" opacity="0.3">
                <g id="Group_36163" data-name="Group 36163">
                  <g id="Group_36162" data-name="Group 36162" clip-path="url(#clip-path-9)">
                    <path id="Path_40002" data-name="Path 40002" d="M1118.354,822.7a3.069,3.069,0,0,1,1.815-1.243,2.985,2.985,0,0,1,2.149.28l-1.033,2.249Z" transform="translate(-1118.353 -821.369)" fill="#fff"/>
                  </g>
                </g>
              </g>
              <g id="Group_36167" data-name="Group 36167" transform="translate(251.916 189.029)" opacity="0.3">
                <g id="Group_36166" data-name="Group 36166">
                  <g id="Group_36165" data-name="Group 36165" clip-path="url(#clip-path-10)">
                    <path id="Path_40003" data-name="Path 40003" d="M1075.655,805.341s-2.713-.411-2.6.121,9.3,4.752,13.518,6.258l.07-.185L1075.89,806.7s.224-1.128-.235-1.363" transform="translate(-1073.056 -805.189)" fill="#fff"/>
                  </g>
                </g>
              </g>
              <path id="Path_40004" data-name="Path 40004" d="M1086.979,812.033a.792.792,0,0,1-.145-.049l-.408-.159-1.491-.609c-1.255-.523-2.98-1.268-4.867-2.133s-3.578-1.686-4.794-2.3l-1.434-.733-.387-.206a.861.861,0,0,1-.131-.078.773.773,0,0,1,.141.059l.4.188,1.449.7c1.224.592,2.919,1.4,4.8,2.266s3.6,1.62,4.852,2.161l1.478.64.4.177a.8.8,0,0,1,.137.068" transform="translate(-821.344 -616.605)" fill="#1a2e35"/>
              <path id="Path_40005" data-name="Path 40005" d="M1084.255,806.918a2.34,2.34,0,0,0-.194-1.612,1.431,1.431,0,0,1,.194,1.612" transform="translate(-829.561 -616.248)" fill="#1a2e35"/>
              <path id="Path_40006" data-name="Path 40006" d="M1096.913,808.873a1.809,1.809,0,1,1-.006-.44.938.938,0,0,1,.006.44" transform="translate(-839.292 -618.316)" fill="#1a2e35"/>
              <path id="Path_40007" data-name="Path 40007" d="M1099.825,809.275c-.027.012-.115-.131-.2-.32s-.125-.35-.1-.362.115.131.2.319.125.351.1.362" transform="translate(-841.394 -618.765)" fill="#1a2e35"/>
              <path id="Path_40008" data-name="Path 40008" d="M1101.3,807.822a1.038,1.038,0,0,1-.444-.139c-.233-.1-.413-.21-.4-.238a1.041,1.041,0,0,1,.444.139c.233.1.413.21.4.237" transform="translate(-842.104 -617.881)" fill="#1a2e35"/>
              <path id="Path_40009" data-name="Path 40009" d="M1102.489,805.862a1.3,1.3,0,0,1-.985-.365,2.826,2.826,0,0,1,.491.186,2.875,2.875,0,0,1,.494.18" transform="translate(-842.909 -616.392)" fill="#1a2e35"/>
              <path id="Path_40010" data-name="Path 40010" d="M1093.259,803.993a1.641,1.641,0,0,1-.516-.241,3.36,3.36,0,0,1-.494-.374,1.647,1.647,0,0,1-.255-.275.306.306,0,0,1-.054-.219.223.223,0,0,1,.173-.171,1.043,1.043,0,0,1,1.045.816,1.024,1.024,0,0,1,.01.423c-.02.1-.044.148-.051.146a1.611,1.611,0,0,0-.033-.549,1.022,1.022,0,0,0-.31-.49.882.882,0,0,0-.635-.241c-.11.023-.123.134-.056.23a1.681,1.681,0,0,0,.234.258,3.9,3.9,0,0,0,.469.383c.284.2.481.288.474.3" transform="translate(-835.588 -614.265)" fill="#1a2e35"/>
              <path id="Path_40011" data-name="Path 40011" d="M1096.932,805.364a.561.561,0,0,1,.105-.386.935.935,0,0,1,.315-.313.571.571,0,0,1,.552-.066.227.227,0,0,1,.05.312.625.625,0,0,1-.194.191,1.712,1.712,0,0,1-.388.2.819.819,0,0,1-.392.073c0-.017.146-.046.363-.144a1.978,1.978,0,0,0,.359-.211c.121-.077.26-.25.141-.333a.509.509,0,0,0-.442.063.935.935,0,0,0-.3.269,2.078,2.078,0,0,0-.168.345" transform="translate(-839.407 -615.67)" fill="#1a2e35"/>
              <path id="Path_40012" data-name="Path 40012" d="M1122.392,821.135c-.01.017-.221-.128-.6-.252a2.773,2.773,0,0,0-2.879.712c-.281.288-.4.515-.417.5a.513.513,0,0,1,.074-.162,2.316,2.316,0,0,1,.287-.394,2.691,2.691,0,0,1,2.959-.732,2.323,2.323,0,0,1,.437.215.516.516,0,0,1,.142.109" transform="translate(-855.91 -627.984)" fill="#1a2e35"/>
              <path id="Path_40013" data-name="Path 40013" d="M1107.878,818.247a7.27,7.27,0,0,1-2.361-1.058c.016-.027.526.246,1.177.537s1.194.491,1.184.521" transform="translate(-845.981 -625.341)" fill="#1a2e35"/>
              <path id="Path_40014" data-name="Path 40014" d="M1120.912,824.742c.011.029-.094.092-.2.188s-.188.189-.215.175.017-.146.144-.256.265-.134.274-.107" transform="translate(-857.437 -631.114)" fill="#1a2e35"/>
              <path id="Path_40015" data-name="Path 40015" d="M1124.833,822.745c.011.028-.08.088-.2.134s-.229.061-.24.033.08-.087.2-.134.229-.061.24-.033" transform="translate(-860.424 -629.583)" fill="#1a2e35"/>
              <path id="Path_40016" data-name="Path 40016" d="M1128.84,822.534c-.018.025-.125-.025-.262-.038s-.251.011-.264-.017.105-.108.275-.09.27.124.251.145" transform="translate(-863.425 -629.32)" fill="#1a2e35"/>
              <path id="Path_40017" data-name="Path 40017" d="M1132.521,823.314c0,.029-.067.05-.146.045s-.141-.033-.139-.062.067-.05.145-.045.141.033.14.062" transform="translate(-866.427 -629.981)" fill="#1a2e35"/>
              <path id="Path_40018" data-name="Path 40018" d="M1110.8,781.009l-.191.477,8.313,4.089.279-.547Z" transform="translate(-849.881 -597.656)" fill="#375a64"/>
              <path id="Path_40019" data-name="Path 40019" d="M1158.945,583.417s-38.8-10.938-42.558-9.42-23.771,46.528-23.771,46.528l13.312,6.316,18.329-38.422s25.958,14.318,31.058,10.059c6.182-5.162,3.714-16.819,3.63-15.061" transform="translate(-836.109 -439.132)" fill="#1a2e35"/>
              <path id="Path_40020" data-name="Path 40020" d="M1231.212,617.044c-.589.159-32,0-37.262,6.212-2.12,2.5-.715,52.931-.715,52.931.581-.018,13.76-.341,13.76-.341l.379-43.549,22.395-.02a2.122,2.122,0,0,0,2.117-2.232Z" transform="translate(-912.757 -472.184)" fill="#1a2e35"/>
              <path id="Path_40021" data-name="Path 40021" d="M1256.055,637.778a1.414,1.414,0,0,1-.328-.055l-.925-.213-3.391-.833c-2.858-.721-6.81-1.723-11.106-3.074-2.147-.682-4.17-1.4-5.989-2.11a24.262,24.262,0,0,1-4.753-2.072c-1.328-.645-2.387-1.2-3.1-1.616l-.821-.478a1.361,1.361,0,0,1-.276-.184,1.431,1.431,0,0,1,.305.132l.846.429c.728.385,1.8.909,3.134,1.528s2.949,1.3,4.763,2.007,3.838,1.4,5.98,2.083c4.286,1.347,8.226,2.381,11.07,3.153l3.367.924.912.266a1.392,1.392,0,0,1,.313.112" transform="translate(-937.693 -479.911)" fill="#375a64"/>
              <path id="Path_40022" data-name="Path 40022" d="M1242.517,675.582a8.837,8.837,0,0,1,2.867,1.468,8.831,8.831,0,0,1-2.867-1.468" transform="translate(-950.817 -516.971)" fill="#375a64"/>
              <path id="Path_40023" data-name="Path 40023" d="M1247.472,670.306a29.019,29.019,0,0,0,1.909,2.861,4.436,4.436,0,0,1-1.909-2.861" transform="translate(-954.599 -512.942)" fill="#375a64"/>
              <path id="Path_40024" data-name="Path 40024" d="M1200.96,626.328a6.027,6.027,0,0,1-.921.036,11.152,11.152,0,0,0-2.471.26,4.267,4.267,0,0,0-2.854,2.042,9.588,9.588,0,0,0-.713,4.389c-.046,3.237-.1,6.167-.162,8.287-.034,1.019-.062,1.864-.084,2.511a.462.462,0,1,1-.118,0c0-.647-.007-1.492-.012-2.512,0-2.121.027-5.051.073-8.288a9.619,9.619,0,0,1,.771-4.518,3.9,3.9,0,0,1,1.408-1.469,5.365,5.365,0,0,1,1.642-.647,9.872,9.872,0,0,1,2.521-.17,4.872,4.872,0,0,1,.92.082" transform="translate(-913.404 -479.216)" fill="#375a64"/>
              <path id="Path_40025" data-name="Path 40025" d="M1178.525,380.513c.166.233,6.127,16.942,6.127,16.942l-9.66,1.93-5.338-13.605Z" transform="translate(-895.061 -291.182)" fill="#375a64"/>
              <path id="Path_40026" data-name="Path 40026" d="M1213.238,395.83l.846-.52-6.162-16.921-.912.559Z" transform="translate(-923.647 -289.557)" fill="#1a2e35"/>
              <path id="Path_40027" data-name="Path 40027" d="M1188.6,399.842a.414.414,0,1,1-.51-.287.414.414,0,0,1,.51.287" transform="translate(-908.936 -305.742)" fill="#1a2e35"/>
              <path id="Path_40028" data-name="Path 40028" d="M1189.548,426.531l-9.232,9.055-5.678-13.851-.132-.74,3.625-2.9-2.163-2.661a2.753,2.753,0,0,0-4.047-.185l-1.106,1.1a3.91,3.91,0,0,0-1.157,2.968c.095,1.912.287,3.95.278,3.771h0l3.252,19.13a6.884,6.884,0,0,0,4.3,5.993c3.276,1.358,6.831-2.941,8.726-4.577l12.141-11.051Z" transform="translate(-895.062 -317.153)" fill="#ffc09d"/>
              <path id="Path_40029" data-name="Path 40029" d="M1264.989,440.292,1253.3,442.11l-.28-.7,3.7,25.069-28.566-8.235.832-14.691-9.731-7.021,7.445-11.415a13.136,13.136,0,0,1,8.787-5.2c1.03-.14,1.813-.208,2.321-.272a14.94,14.94,0,0,0,9-.005,13.062,13.062,0,0,1,3.728.714c.886.3,1.735.536,2.543.771a10.315,10.315,0,0,1,6.686,6.092Z" transform="translate(-933.024 -321.127)" fill="#4b535b"/>
              <path id="Path_40030" data-name="Path 40030" d="M1262.138,536.91c-.1-1.164,4.731-1.811,5.136-1.9s.3-.673-.065-.576c-.52.138-6.01,1.456-6.118.314-.06-.633,1.087-.635,1.087-.635s5.229-.854,5.159-1.392-3.157-.147-4.188.061-1.531-.2-1.247-.723c.194-.359,3.337-1.071,4.362-1.252s3.844-.631,2.274-1.54-2.434-2.2-2.425-2.712a.568.568,0,0,1,1.049-.225,6.619,6.619,0,0,0,1.38,1.2,4.322,4.322,0,0,0,1.323.634c.553.155,1.027.265,1.433.348,2.743-.863,10.382-3.57,15.786-8.427.976-.877-1.592-9.874-1.592-9.874l10.418-1.373,1.49,8.862c2.027,12.062-24.968,18.122-24.968,18.122l-.008-.026a54.109,54.109,0,0,1-5.4,2.228c-2.584.784-2.658.554-2.7.237-.107-.85,4.494-1.552,3.417-1.975s-5.528,1.513-5.6.62" transform="translate(-965.03 -389.385)" fill="#ffc09d"/>
              <path id="Path_40031" data-name="Path 40031" d="M1285.14,441.422a1.385,1.385,0,0,1-.252.221,7.072,7.072,0,0,1-.792.544,9.406,9.406,0,0,1-3.316,1.2,9.543,9.543,0,0,1-5.184-.575c-.923-.362-1.84-.837-2.828-1.213a8.168,8.168,0,0,0-3.179-.566,26.476,26.476,0,0,0-6.209,1.25,13.778,13.778,0,0,1-5.2.586,6.673,6.673,0,0,1-3.287-1.257,3.48,3.48,0,0,1-.9-.933,9.137,9.137,0,0,0,.968.838,6.8,6.8,0,0,0,3.241,1.14,13.918,13.918,0,0,0,5.1-.643,25.866,25.866,0,0,1,6.277-1.283,8.391,8.391,0,0,1,3.289.591c1.009.389,1.923.869,2.827,1.231a9.464,9.464,0,0,0,5.047.623,9.855,9.855,0,0,0,3.291-1.094c.723-.4,1.084-.688,1.1-.663" transform="translate(-959.604 -337.225)" fill="#fafafa"/>
              <path id="Path_40032" data-name="Path 40032" d="M1272.194,478.024s-.02.034-.07.09a3.149,3.149,0,0,1-.232.24,5.156,5.156,0,0,1-1.042.754,7.912,7.912,0,0,1-4.605.825,17.111,17.111,0,0,1-3.195-.658c-1.126-.323-2.3-.739-3.56-1.091a14.068,14.068,0,0,0-4.012-.617,15.3,15.3,0,0,0-4.28.836c-1.438.452-2.831.974-4.237,1.293a10.666,10.666,0,0,1-4.139.243,8.568,8.568,0,0,1-3.44-1.5c-.969-.667-1.8-1.372-2.586-1.971a9.983,9.983,0,0,0-4.118-2.092,6.6,6.6,0,0,0-1.7-.068c0-.005.036-.015.11-.031s.183-.04.33-.055a4.877,4.877,0,0,1,1.285.037,9.786,9.786,0,0,1,4.227,2.038c.8.591,1.637,1.287,2.6,1.934a8.365,8.365,0,0,0,3.345,1.431,10.463,10.463,0,0,0,4.027-.257c1.381-.317,2.764-.837,4.214-1.293a15.428,15.428,0,0,1,4.366-.843,14.206,14.206,0,0,1,4.093.645c1.267.363,2.441.788,3.555,1.119a17.28,17.28,0,0,0,3.146.686A7.971,7.971,0,0,0,1270.8,479a7.493,7.493,0,0,0,1.4-.98" transform="translate(-941.985 -362.872)" fill="#fafafa"/>
              <path id="Path_40033" data-name="Path 40033" d="M1284.674,525.929a8.8,8.8,0,0,0-.995-.009,8.321,8.321,0,0,0-2.562.855,16.778,16.778,0,0,1-1.759.73,8.22,8.22,0,0,1-2.167.377,15.546,15.546,0,0,1-4.946-.732c-1.7-.49-3.29-1.043-4.777-1.355a11.558,11.558,0,0,0-3.994-.229,7.35,7.35,0,0,0-2.567.813c-.561.31-.834.546-.853.523-.007-.008.057-.071.186-.184a4.335,4.335,0,0,1,.607-.44,6.966,6.966,0,0,1,2.595-.923,11.384,11.384,0,0,1,4.082.168c1.513.3,3.113.851,4.8,1.337a15.744,15.744,0,0,0,4.852.745,8.131,8.131,0,0,0,2.1-.338,17.7,17.7,0,0,0,1.748-.686,7.782,7.782,0,0,1,2.64-.777,3.266,3.266,0,0,1,.751.053.845.845,0,0,1,.252.073" transform="translate(-964.239 -401.933)" fill="#fafafa"/>
              <path id="Path_40034" data-name="Path 40034" d="M1284.348,561.46a4.923,4.923,0,0,0-3.467.965,9.445,9.445,0,0,1-1.743.73,8.423,8.423,0,0,1-2.151.32,16.281,16.281,0,0,1-4.882-.78c-1.681-.49-3.251-1.032-4.723-1.333a11.424,11.424,0,0,0-3.949-.206,7.319,7.319,0,0,0-2.535.812c-.554.308-.825.54-.843.517-.006-.008.057-.07.184-.182a4.339,4.339,0,0,1,.6-.436,6.923,6.923,0,0,1,2.563-.922,11.247,11.247,0,0,1,4.037.144c1.5.291,3.082.829,4.752,1.315a16.544,16.544,0,0,0,4.793.792,8.34,8.34,0,0,0,2.088-.283,9.588,9.588,0,0,0,1.716-.681,7.135,7.135,0,0,1,2.569-.893,3.017,3.017,0,0,1,.744.047.823.823,0,0,1,.249.073" transform="translate(-964.238 -429.164)" fill="#fafafa"/>
              <path id="Path_40035" data-name="Path 40035" d="M1331.289,504.691c0-.016.108-.062.322-.052a1.373,1.373,0,0,1,.821.355,1.313,1.313,0,0,1,.431,1.262,1.46,1.46,0,0,1-1.167,1.14,1.435,1.435,0,0,1-1.434-.779,1.234,1.234,0,0,1,.138-1.326,1.27,1.27,0,0,1,.753-.486c.211-.038.327,0,.326.014s-.114.031-.294.1a1.282,1.282,0,0,0-.61.5,1.022,1.022,0,0,0-.065,1.073,1.177,1.177,0,0,0,1.143.608,1.2,1.2,0,0,0,.939-.9,1.108,1.108,0,0,0-.307-1.047,1.781,1.781,0,0,0-.995-.457" transform="translate(-1017.861 -386.167)" fill="#fafafa"/>
              <path id="Path_40036" data-name="Path 40036" d="M1279.46,538.276c0-.016.108-.062.322-.052a1.371,1.371,0,0,1,.821.355,1.313,1.313,0,0,1,.432,1.262,1.46,1.46,0,0,1-1.167,1.14,1.434,1.434,0,0,1-1.434-.779,1.234,1.234,0,0,1,.138-1.326,1.273,1.273,0,0,1,.752-.486c.211-.038.328,0,.326.014s-.114.031-.294.1a1.281,1.281,0,0,0-.61.5,1.023,1.023,0,0,0-.065,1.073,1.177,1.177,0,0,0,1.144.608,1.2,1.2,0,0,0,.939-.9,1.109,1.109,0,0,0-.307-1.047,1.781,1.781,0,0,0-.994-.457" transform="translate(-978.2 -411.867)" fill="#fafafa"/>
              <path id="Path_40037" data-name="Path 40037" d="M1281.035,470.6c0-.016.108-.062.322-.052a1.372,1.372,0,0,1,.821.355,1.314,1.314,0,0,1,.432,1.262,1.46,1.46,0,0,1-1.168,1.14,1.434,1.434,0,0,1-1.434-.779,1.234,1.234,0,0,1,.138-1.326,1.273,1.273,0,0,1,.752-.486c.211-.038.328,0,.326.014s-.114.031-.294.1a1.281,1.281,0,0,0-.61.5,1.022,1.022,0,0,0-.065,1.073,1.177,1.177,0,0,0,1.144.608,1.2,1.2,0,0,0,.939-.9,1.11,1.11,0,0,0-.307-1.047,1.783,1.783,0,0,0-.994-.457" transform="translate(-979.405 -360.082)" fill="#fafafa"/>
              <path id="Path_40038" data-name="Path 40038" d="M1366.842,466.861c0-.016.108-.062.322-.052a1.371,1.371,0,0,1,.821.355,1.313,1.313,0,0,1,.431,1.262,1.46,1.46,0,0,1-1.167,1.14,1.434,1.434,0,0,1-1.434-.779,1.234,1.234,0,0,1,.138-1.326,1.273,1.273,0,0,1,.752-.486c.211-.038.328,0,.326.014s-.114.031-.294.1a1.281,1.281,0,0,0-.61.5,1.022,1.022,0,0,0-.065,1.073,1.176,1.176,0,0,0,1.143.608,1.2,1.2,0,0,0,.939-.9,1.108,1.108,0,0,0-.307-1.047,1.782,1.782,0,0,0-.995-.457" transform="translate(-1045.068 -357.218)" fill="#fafafa"/>
              <path id="Path_40039" data-name="Path 40039" d="M1333.248,425.36c0-.016.108-.062.322-.052a1.373,1.373,0,0,1,.82.355,1.314,1.314,0,0,1,.432,1.263,1.46,1.46,0,0,1-1.167,1.14,1.434,1.434,0,0,1-1.434-.779,1.235,1.235,0,0,1,.138-1.326,1.272,1.272,0,0,1,.752-.486c.211-.038.327,0,.326.014s-.114.031-.294.1a1.278,1.278,0,0,0-.61.5,1.022,1.022,0,0,0-.065,1.073,1.177,1.177,0,0,0,1.143.608,1.2,1.2,0,0,0,.939-.9,1.108,1.108,0,0,0-.307-1.047,1.782,1.782,0,0,0-.994-.457" transform="translate(-1019.36 -325.46)" fill="#fafafa"/>
              <path id="Path_40040" data-name="Path 40040" d="M1259.749,484.99a10.227,10.227,0,0,1-.092-1.833c-.011-1.133.012-2.7.062-4.423.057-1.679.108-3.2.15-4.419a11.96,11.96,0,0,1,.122-1.83,10.222,10.222,0,0,1,.092,1.833c.011,1.133-.012,2.7-.061,4.424-.057,1.678-.108,3.2-.15,4.418a11.912,11.912,0,0,1-.122,1.83" transform="translate(-963.933 -361.563)" fill="#1a2e35"/>
              <path id="Path_40041" data-name="Path 40041" d="M1362.39,444.768a1.123,1.123,0,0,1-.27.065l-.788.138-2.942.464-4.457.67c-.849.123-1.744.265-2.682.388l-2.933.347-.146.017-.018-.151c-.152-1.3-.27-2.672-.464-4.085-.32-2.514-.625-4.907-.9-7.09a15.478,15.478,0,0,1,.065-5.837,7.634,7.634,0,0,1,1.738-3.523,2.674,2.674,0,0,1,.9-.588,1.35,1.35,0,0,1,.365-.089,3.15,3.15,0,0,0-1.186.76,7.787,7.787,0,0,0-1.614,3.491,15.629,15.629,0,0,0,.005,5.755c.285,2.178.6,4.566.924,7.074.193,1.406.311,2.8.458,4.106l-.163-.134,2.931-.331,2.685-.365,4.465-.6,2.953-.378.794-.089a1.114,1.114,0,0,1,.277-.013" transform="translate(-1030.425 -325.603)" fill="#1a2e35"/>
              <g id="Group_36170" data-name="Group 36170" transform="translate(315.666 106.871)" opacity="0.3">
                <g id="Group_36169" data-name="Group 36169">
                  <g id="Group_36168" data-name="Group 36168" clip-path="url(#clip-path-11)">
                    <path id="Path_40042" data-name="Path 40042" d="M1345.189,455.228s-1.309,15.78,0,16.092,2.486.464,2.486.464,2.508,7.785,2.483,7.567-.937-10.011-.937-10.011l-2.4.108Z" transform="translate(-1344.608 -455.228)"/>
                  </g>
                </g>
              </g>
              <g id="Group_36173" data-name="Group 36173" transform="translate(293.526 112.401)" opacity="0.3">
                <g id="Group_36172" data-name="Group 36172">
                  <g id="Group_36171" data-name="Group 36171" clip-path="url(#clip-path-12)">
                    <path id="Path_40043" data-name="Path 40043" d="M1252.587,478.781l-2.292,8.262,2.446,1.765Z" transform="translate(-1250.297 -478.781)"/>
                  </g>
                </g>
              </g>
              <path id="Path_40044" data-name="Path 40044" d="M1260.657,95.745c4.218-9.858,1.659-20.139-5.276-28.316a29.693,29.693,0,0,0-29.058-9.422,32.485,32.485,0,0,0-64.43,4.189,24.317,24.317,0,0,0-18.57,32.993Z" transform="translate(-873.615 -23.949)" fill="#69ac4a"/>
              <path id="Path_40045" data-name="Path 40045" d="M1360.058,153.045c-.216.019-.1-1.966-1.29-4.757a13.9,13.9,0,0,0-2.937-4.324,13.633,13.633,0,0,0-5.442-3.252,13.782,13.782,0,0,0-6.333-.348,13.563,13.563,0,0,0-4.853,1.941c-2.53,1.668-3.569,3.353-3.726,3.227-.051-.033.133-.491.65-1.207a12.079,12.079,0,0,1,2.641-2.65,13.286,13.286,0,0,1,5.092-2.29,13.615,13.615,0,0,1,12.683,3.879,13.561,13.561,0,0,1,2.939,4.745,12.338,12.338,0,0,1,.719,3.672c-.02.885-.067,1.365-.142,1.364" transform="translate(-1021.948 -106.438)" fill="#fff"/>
              <path id="Path_40046" data-name="Path 40046" d="M1412.862,170.69c.181-.238,3.155,1.719,6.641,4.371l.194.148-.839.253c1.417-4.03,2.769-7.176,3.046-7.08s-.624,3.4-2.023,7.437l-.244.7-.595-.451-.195-.148c-3.486-2.652-6.166-5-5.985-5.233" transform="translate(-1081.166 -128.85)" fill="#fff"/>
              <path id="Path_40047" data-name="Path 40047" d="M1331.236,189.032c.22.009-.133,1.907.668,4.742a13.727,13.727,0,0,0,2.25,4.55,13.12,13.12,0,0,0,4.747,3.921,14.72,14.72,0,0,0,1.5.636c.516.145,1.018.319,1.528.418a13.4,13.4,0,0,0,7.955-.7,15.4,15.4,0,0,0,3.048-1.676c.685-.47,1.045-.77,1.107-.707.044.043-.217.446-.84,1.034a11.844,11.844,0,0,1-3,2.049,13.125,13.125,0,0,1-5.264,1.307,13.639,13.639,0,0,1-3.221-.266c-.553-.1-1.1-.281-1.659-.437a14.977,14.977,0,0,1-1.63-.683,13.485,13.485,0,0,1-7.264-9.261,13.209,13.209,0,0,1-.27-2.064c-.01-.612.013-1.138.042-1.563.126-.851.231-1.307.305-1.3" transform="translate(-1018.442 -144.654)" fill="#fff"/>
              <path id="Path_40048" data-name="Path 40048" d="M1326.724,190.956c-.209.214-2.921-2.092-6.057-5.15l-.174-.171.864-.148c-1.9,3.826-3.626,6.784-3.889,6.654s1.034-3.3,2.917-7.133l.329-.669.535.521.175.17c3.136,3.058,5.509,5.711,5.3,5.925" transform="translate(-1008.148 -141.063)" fill="#fff"/>
            </g>
          </g>
        </g>
      </g>
      <text id="of_office_storage_space_can_be_freed_up_in_a_digital_filing_system" data-name="of office storage space can be freed up in a digital filing system" transform="translate(859 5985)" fill="#640000" font-size="16" font-family="Montserrat-Medium, Montserrat" font-weight="500"><tspan x="0" y="0">of office storage space can be </tspan><tspan x="0" y="19">freed up in a digital filing system</tspan></text>
      <path id="Path_111987" data-name="Path 111987" d="M-48.322.555a30.85,30.85,0,0,1-6.66-.629,19.377,19.377,0,0,1-4.81-1.684A11.441,11.441,0,0,1-63.03-4.2a11.707,11.707,0,0,1-1.942-2.923,12.194,12.194,0,0,1-.962-3.127,18.9,18.9,0,0,1-.259-3.034v-.888a17.359,17.359,0,0,1,.277-3.016,12.619,12.619,0,0,1,1-3.127,11.743,11.743,0,0,1,1.98-2.941,12.188,12.188,0,0,1,3.219-2.461,18.289,18.289,0,0,1,4.736-1.7,29.931,29.931,0,0,1,6.549-.629h1.554a32.6,32.6,0,0,1,8.288.869,15.806,15.806,0,0,1,5.032,2.164,6.981,6.981,0,0,1,2.479,2.849,7.37,7.37,0,0,1,.666,2.886v.148H-41.07q-.074-.111-.333-.481a2.743,2.743,0,0,0-.925-.74,7.778,7.778,0,0,0-1.887-.666,14.343,14.343,0,0,0-3.256-.3,11.389,11.389,0,0,0-4.218.648,6.69,6.69,0,0,0-2.442,1.573,4.694,4.694,0,0,0-1.128,1.961,7.039,7.039,0,0,0-.278,1.776v.185q.3-.222.981-.647a9.429,9.429,0,0,1,2-.851,23.343,23.343,0,0,1,3.367-.758A32.555,32.555,0,0,1-44.1-17.76h.444a31.512,31.512,0,0,1,7.123.666,13.086,13.086,0,0,1,4.44,1.813,6.191,6.191,0,0,1,2.276,2.646,8.184,8.184,0,0,1,.629,3.2V-9.1a10,10,0,0,1-.592,3.293,6.919,6.919,0,0,1-2.424,3.126A14.749,14.749,0,0,1-37.5-.352a37.352,37.352,0,0,1-9.157.907ZM-54.575-9.01a1.987,1.987,0,0,0,.278.974,2.555,2.555,0,0,0,1.073.919,7.8,7.8,0,0,0,2.22.68,21.693,21.693,0,0,0,3.718.257,21.633,21.633,0,0,0,3.737-.257A7.969,7.969,0,0,0-41.366-7.1a2.242,2.242,0,0,0,1.017-.882,2.11,2.11,0,0,0,.241-.956v-.11a2.224,2.224,0,0,0-.241-.974,2.195,2.195,0,0,0-1.017-.9,7.633,7.633,0,0,0-2.183-.643,23.25,23.25,0,0,0-3.737-.239A23.314,23.314,0,0,0-51-11.564a9.041,9.041,0,0,0-2.22.606,2.255,2.255,0,0,0-1.073.864,1.988,1.988,0,0,0-.278.974Zm67.192-4.236a16.277,16.277,0,0,1-.259,2.756,11.9,11.9,0,0,1-.98,3.034A11.544,11.544,0,0,1,9.324-4.5,12.972,12.972,0,0,1,5.846-1.943,20.6,20.6,0,0,1,.611-.148,35.073,35.073,0,0,1-6.7.518H-8.362a35.012,35.012,0,0,1-7.326-.666,20.945,20.945,0,0,1-5.235-1.795A12.888,12.888,0,0,1-24.42-4.5a11.544,11.544,0,0,1-2.054-2.96,11.9,11.9,0,0,1-.98-3.034,16.277,16.277,0,0,1-.259-2.756v-1.11a16.6,16.6,0,0,1,.259-2.775,11.6,11.6,0,0,1,.98-3.034,11.677,11.677,0,0,1,2.054-2.941,12.32,12.32,0,0,1,3.5-2.516,22.034,22.034,0,0,1,5.235-1.757,35.012,35.012,0,0,1,7.326-.666H-6.7a35.073,35.073,0,0,1,7.307.666,21.659,21.659,0,0,1,5.236,1.757,12.393,12.393,0,0,1,3.478,2.516,11.677,11.677,0,0,1,2.054,2.941,11.6,11.6,0,0,1,.98,3.034,16.6,16.6,0,0,1,.259,2.775ZM1.7-14.173A6.693,6.693,0,0,0,1.3-16.4,5.336,5.336,0,0,0-.148-18.525a7.787,7.787,0,0,0-2.83-1.581,14.348,14.348,0,0,0-4.569-.614,14.811,14.811,0,0,0-4.662.614,7.584,7.584,0,0,0-2.831,1.581A5.233,5.233,0,0,0-16.446-16.4a6.977,6.977,0,0,0-.389,2.232v.446a7.013,7.013,0,0,0,.407,2.269,5.567,5.567,0,0,0,1.443,2.195,7.843,7.843,0,0,0,2.849,1.655,13.751,13.751,0,0,0,4.588.651,13.585,13.585,0,0,0,4.569-.651A8.024,8.024,0,0,0-.148-9.244,5.422,5.422,0,0,0,1.3-11.42,7.016,7.016,0,0,0,1.7-13.689Zm23.532,2.3a16.576,16.576,0,0,1-5.716-.814,9.11,9.11,0,0,1-3.33-2,5.979,5.979,0,0,1-1.554-2.535,8.869,8.869,0,0,1-.389-2.424v-.592a8.488,8.488,0,0,1,.389-2.386A5.817,5.817,0,0,1,16.206-25.1a9.1,9.1,0,0,1,3.33-1.942,17.134,17.134,0,0,1,5.7-.777h.814a17.134,17.134,0,0,1,5.7.777A8.908,8.908,0,0,1,35.058-25.1a5.886,5.886,0,0,1,1.554,2.479A8.489,8.489,0,0,1,37-20.239v.592a8.869,8.869,0,0,1-.389,2.424,5.979,5.979,0,0,1-1.554,2.535,9.124,9.124,0,0,1-3.311,2,16.414,16.414,0,0,1-5.7.814Zm34.04-15.651L29.082,0H21.127L51.319-27.528ZM25.6-16.687a6.584,6.584,0,0,0,2-.262,3.576,3.576,0,0,0,1.313-.711,2.723,2.723,0,0,0,.722-.992,2.894,2.894,0,0,0,.222-1.1v-.225a3.226,3.226,0,0,0-.2-1.142,2.393,2.393,0,0,0-.7-.973,3.539,3.539,0,0,0-1.313-.674,7.218,7.218,0,0,0-2.035-.243,7.06,7.06,0,0,0-2,.243,3.539,3.539,0,0,0-1.314.674,2.393,2.393,0,0,0-.7.973,3.226,3.226,0,0,0-.2,1.142v.187a3.035,3.035,0,0,0,.222,1.123,2.683,2.683,0,0,0,.722,1.011,3.589,3.589,0,0,0,1.295.711A6.4,6.4,0,0,0,25.6-16.687ZM54.39.3a16.444,16.444,0,0,1-5.68-.814,9.11,9.11,0,0,1-3.33-2A5.979,5.979,0,0,1,43.827-5.05a8.869,8.869,0,0,1-.389-2.424v-.592a8.677,8.677,0,0,1,.389-2.405,5.8,5.8,0,0,1,1.572-2.5,9.1,9.1,0,0,1,3.33-1.943,17.134,17.134,0,0,1,5.7-.777h.814a17.134,17.134,0,0,1,5.7.777,9.1,9.1,0,0,1,3.33,1.943,5.8,5.8,0,0,1,1.572,2.5,8.678,8.678,0,0,1,.389,2.405v.592a8.869,8.869,0,0,1-.389,2.424,5.979,5.979,0,0,1-1.554,2.534,9.124,9.124,0,0,1-3.312,2,16.414,16.414,0,0,1-5.7.814Zm.444-4.81a6.551,6.551,0,0,0,2-.264,3.569,3.569,0,0,0,1.314-.715,2.738,2.738,0,0,0,.722-1A2.926,2.926,0,0,0,59.089-7.6v-.264a3.02,3.02,0,0,0-.222-1.148,2.432,2.432,0,0,0-.722-.96,3.711,3.711,0,0,0-1.314-.659,7.021,7.021,0,0,0-2-.245,7.178,7.178,0,0,0-2.035.245,3.711,3.711,0,0,0-1.314.659,2.274,2.274,0,0,0-.7.96,3.261,3.261,0,0,0-.2,1.148v.188A3.164,3.164,0,0,0,50.8-6.51a2.7,2.7,0,0,0,.722,1.017,3.569,3.569,0,0,0,1.314.715A6.55,6.55,0,0,0,54.834-4.514Z" transform="translate(926 5954)" fill="#2d3233"/>
    </g>
  </g>
</svg>
