<svg xmlns="http://www.w3.org/2000/svg" xmlns:xlink="http://www.w3.org/1999/xlink" width="436" height="440.369" viewBox="0 0 436 440.369">
  <defs>
    <clipPath id="clip-path">
      <rect id="Rectangle_18174" data-name="Rectangle 18174" width="255.125" height="234.256" fill="none"/>
    </clipPath>
  </defs>
  <g id="Group_70085" data-name="Group 70085" transform="translate(-154 -4899.631)">
    <path id="Path_41080" data-name="Path 41080" d="M4773.912-1767.958c12.23,40.192,35.82,232.417,219.311,336.393,190.474-107.47,216.689-336.393,216.689-336.393s-87.375-35.824-123.2-103.976h-188.73S4848.181-1788.927,4773.912-1767.958Z" transform="translate(-4619.912 6771.564)" fill="#fff"/>
    <g id="Group_36204" data-name="Group 36204" transform="translate(-295.304 -998.914)">
      <g id="Group_36179" data-name="Group 36179" transform="translate(559.144 6057.542)">
        <g id="Group_36178" data-name="Group 36178" clip-path="url(#clip-path)">
          <path id="Path_40049" data-name="Path 40049" d="M400.518,252.9h9.675a4.177,4.177,0,0,1,4.177,4.177v83.224a13.137,13.137,0,0,1-13.137,13.137H342.788a5.947,5.947,0,0,1-5.947-5.947V344.64a5.947,5.947,0,0,1,5.947-5.947h52.725l.829-81.654a4.177,4.177,0,0,1,4.177-4.135" transform="translate(-238.935 -179.396)" fill="#fffadc"/>
          <path id="Path_40050" data-name="Path 40050" d="M485.527,651.943a1.591,1.591,0,0,0-.846-2.938H471V612.243h1.9V598.8h-7.953v13.441h1.781V649H453.053a1.591,1.591,0,0,0-.646,3.046,3.83,3.83,0,1,0,4.6.138h23.574a3.83,3.83,0,1,0,4.951-.245" transform="translate(-319.758 -424.755)" fill="#102a54"/>
          <path id="Path_40051" data-name="Path 40051" d="M263.078,329.769H243.645v3.255h1.379l2.9,29.3h10.894l2.882-29.3h1.378Z" transform="translate(-172.828 -233.919)" fill="#69ac4a"/>
          <path id="Path_40052" data-name="Path 40052" d="M262.733,340.62H247.8a.241.241,0,0,1,0-.483h14.934a.241.241,0,0,1,0,.483" transform="translate(-175.603 -241.274)" fill="#102a54"/>
          <path id="Path_40053" data-name="Path 40053" d="M276.347,293.546a.3.3,0,0,1-.3-.3V278.581a.3.3,0,0,1,.595,0v14.668a.3.3,0,0,1-.3.3" transform="translate(-195.814 -197.398)" fill="#102a54"/>
          <path id="Path_40054" data-name="Path 40054" d="M438.194,238.945l-.106.072a12.5,12.5,0,0,0-7.487-9.942,12.637,12.637,0,0,0-4.932-1H401.333a12.672,12.672,0,0,0-12.357,9.873l-9.225,29.184,9.053,3.831.116,24.938H429.5l4.231-26.4,12.115-3.245Z" transform="translate(-269.373 -161.787)" fill="#4b535b"/>
          <path id="Path_40055" data-name="Path 40055" d="M410.307,323.865H410.3a.241.241,0,0,1-.231-.251l.918-21.071a.241.241,0,1,1,.482.021l-.918,21.071a.241.241,0,0,1-.241.231" transform="translate(-290.876 -214.442)" fill="#102a54"/>
          <path id="Path_40056" data-name="Path 40056" d="M469.885,191.13h0a5.124,5.124,0,0,0,3.759-6.517l-5.305-17.092-7.064,1.605,2.4,17.694a5.124,5.124,0,0,0,6.213,4.309" transform="translate(-327.202 -118.83)" fill="#ffc0b1"/>
          <path id="Path_40057" data-name="Path 40057" d="M434.464,119.11,411.6,117.565,411.7,119a74.26,74.26,0,0,1-.459,14.832,14.526,14.526,0,0,0,.687,7.53,9.454,9.454,0,0,0,11.964,5.189c4.745-1.806,12.316-7.96,10.577-27.437" transform="translate(-291.571 -83.394)" fill="#ffc0b1"/>
          <path id="Path_40058" data-name="Path 40058" d="M436.44,155.989h-.017l-2.111-.143a1.063,1.063,0,0,1-.931-1.413l2.279-6.489a.241.241,0,0,1,.455.16l-2.279,6.489a.58.58,0,0,0,.508.771l2.111.143a.241.241,0,0,1-.016.482" transform="translate(-307.372 -104.829)" fill="#102a54"/>
          <path id="Path_40059" data-name="Path 40059" d="M451.215,208.634a.241.241,0,0,1-.059-.475,13.531,13.531,0,0,0,5.62-3.234.241.241,0,1,1,.346.337,13.763,13.763,0,0,1-5.847,3.365.232.232,0,0,1-.059.008" transform="translate(-319.894 -145.31)" fill="#102a54"/>
          <path id="Path_40060" data-name="Path 40060" d="M429.975,89.44a3.832,3.832,0,0,1-2.075,5.2c-2.053.818-5.763,1.5-12.3.788-12.55-1.369-19.295-5.265-16.938-10.679,3.746-8.608,20.212,2.773,20.212,2.773s8.992-2.423,11.106,1.917" transform="translate(-282.454 -57.833)" fill="#102a54"/>
          <path id="Path_40061" data-name="Path 40061" d="M482.934,118.84s-.872,8.022.961,9.42,2.635-1,2.635-1,3.276-8.045-.979-10.161c-2.607-1.3-2.617,1.739-2.617,1.739" transform="translate(-342.418 -82.836)" fill="#102a54"/>
          <path id="Path_40062" data-name="Path 40062" d="M484.837,145.146c-.14,2.069.891,3.823,2.3,3.918s2.668-1.5,2.808-3.573-.891-3.823-2.3-3.918-2.669,1.5-2.809,3.573" transform="translate(-343.906 -100.421)" fill="#ffc0b1"/>
          <path id="Path_40063" data-name="Path 40063" d="M411.874,135.16a.892.892,0,0,1-.034-1.784l4.6-.178a.892.892,0,0,1,.069,1.783l-4.6.178h-.035" transform="translate(-291.527 -94.482)" fill="#102a54"/>
          <path id="Path_40064" data-name="Path 40064" d="M454.311,136.154a.862.862,0,0,1-.091,0l-4.58-.462a.892.892,0,0,1,.179-1.776l4.58.462a.892.892,0,0,1-.089,1.78" transform="translate(-318.379 -94.986)" fill="#102a54"/>
          <path id="Path_40065" data-name="Path 40065" d="M422.615,147.69a1.164,1.164,0,1,0,2.239-.048Z" transform="translate(-299.752 -104.729)" fill="#102a54"/>
          <path id="Path_40066" data-name="Path 40066" d="M418.056,146.767a.241.241,0,0,1-.01-.482l5.159-.224a.241.241,0,1,1,.021.482l-5.16.224h-.01" transform="translate(-296.374 -103.607)" fill="#102a54"/>
          <path id="Path_40067" data-name="Path 40067" d="M455.878,148.976a1.164,1.164,0,1,0,2.239-.048Z" transform="translate(-323.347 -105.641)" fill="#102a54"/>
          <path id="Path_40068" data-name="Path 40068" d="M451.319,148.053a.241.241,0,0,1-.01-.482l5.159-.224a.241.241,0,0,1,.021.482l-5.16.224h-.01" transform="translate(-319.969 -104.519)" fill="#102a54"/>
          <path id="Path_40069" data-name="Path 40069" d="M431.284,187.178a.238.238,0,0,1-.094-.019,8.713,8.713,0,0,0-4.961-.667,5.5,5.5,0,0,0-1.852.647.241.241,0,0,1-.264-.4c.117-.077,2.916-1.857,7.264-.02a.241.241,0,0,1-.094.464" transform="translate(-300.764 -131.857)" fill="#102a54"/>
          <path id="Path_40070" data-name="Path 40070" d="M462.386,228.08l5.076,6.135-2.381,4.3a12.417,12.417,0,0,1-5.29-10.433Z" transform="translate(-326.145 -161.787)" fill="#cce6ff"/>
          <path id="Path_40071" data-name="Path 40071" d="M491.341,228.08l-5.146,6.135,2.451,4.3a12.416,12.416,0,0,0,5.29-10.433Z" transform="translate(-344.878 -161.787)" fill="#cce6ff"/>
          <path id="Path_40072" data-name="Path 40072" d="M470.73,251.093l-4.85,38.977s2.231,6.4,2.573,6.012c1.368-1.565,4.4-5.2,4.4-5.2l.026-39.775-1.1-1.915Z" transform="translate(-330.468 -176.759)" fill="#102a54"/>
          <path id="Path_40073" data-name="Path 40073" d="M296.577,771.524H286.6v2.626l-10.313,3.867a3.538,3.538,0,0,0-2.3,3.313h22.692a1.727,1.727,0,0,0,1.682-2.118Z" transform="translate(-194.35 -547.274)" fill="#0c203f"/>
          <path id="Path_40074" data-name="Path 40074" d="M327.786,763.111v2.445h-8.645l-.243-2.41Z" transform="translate(-226.208 -541.307)" fill="#ffc0b1"/>
          <path id="Path_40075" data-name="Path 40075" d="M376.881,470.724l-2.49-9.288h-48.44l-.119,6.792-16.5,1.539a18.529,18.529,0,0,0-16.71,20.359l6.113,58.994h11.977l3.662-54.737,1.008.021,5.669,54.716h11.978l3.63-54.268,20.955.441a19.519,19.519,0,0,0,19.264-24.57" transform="translate(-207.5 -327.316)" fill="#102a54"/>
          <path id="Path_40076" data-name="Path 40076" d="M369.415,514.331a.372.372,0,0,1-.368-.32,35.236,35.236,0,0,1,.028-8.561c.809-5.929,3.349-9.732,7.345-11,12.551-3.969,29.422-4.873,29.592-4.882a.372.372,0,1,1,.038.743c-.168.008-16.946.907-29.405,4.848-3.752,1.187-6.05,4.676-6.831,10.372a34.439,34.439,0,0,0-.031,8.37.372.372,0,0,1-.316.42.348.348,0,0,1-.053,0" transform="translate(-261.605 -347.274)" fill="#fff"/>
          <path id="Path_40077" data-name="Path 40077" d="M195.98,444.672h23.661V437.8H5.281v6.869H28.316L0,544.608H3.5l28.315-99.936H192.48L220.8,544.608h3.5Z" transform="translate(0 -310.552)" fill="#e1e1e1"/>
          <path id="Path_40078" data-name="Path 40078" d="M109.018,461.088H96.829a.241.241,0,0,1,0-.483h12.189a.241.241,0,0,1,0,.483" transform="translate(-68.514 -326.727)" fill="#102a54"/>
          <path id="Path_40079" data-name="Path 40079" d="M656.444,461.088h-7.06a.241.241,0,0,1,0-.483h7.06a.241.241,0,0,1,0,.483" transform="translate(-460.464 -326.727)" fill="#102a54"/>
          <path id="Path_40080" data-name="Path 40080" d="M576.027,437.456h-68.35a.241.241,0,0,1,0-.483h68.35a.241.241,0,1,1,0,.483" transform="translate(-359.945 -309.963)" fill="#102a54"/>
          <path id="Path_40081" data-name="Path 40081" d="M385.84,383.5l7.3-10.477-.013-2.715-5.165-2.186Z" transform="translate(-273.692 -261.121)" fill="#ffc0b1"/>
          <path id="Path_40082" data-name="Path 40082" d="M358.125,291.6l-8.717,32.86a6.1,6.1,0,0,0,.987,4.856l.312.439a4.961,4.961,0,0,0,5.263,1.929,6.1,6.1,0,0,0,4.555-5.229l4.01-35.8Z" transform="translate(-247.747 -206.17)" fill="#ffc0b1"/>
          <path id="Path_40083" data-name="Path 40083" d="M377.468,223.587H396.9v3.255h-1.379l-2.9,29.3H381.728l-2.882-29.3h-1.378Z" transform="translate(-267.753 -158.599)" fill="#69ac4a"/>
          <path id="Path_40084" data-name="Path 40084" d="M402.547,234.438H387.613a.241.241,0,0,1,0-.483h14.934a.241.241,0,1,1,0,.483" transform="translate(-274.779 -165.955)" fill="#102a54"/>
          <path id="Path_40085" data-name="Path 40085" d="M410.943,197.018a.3.3,0,0,1-.3-.3v-1.506a3.885,3.885,0,0,1,1.222-2.823l7.032-6.6a.3.3,0,0,1,.407.434l-7.032,6.6a3.288,3.288,0,0,0-1.034,2.389v1.506a.3.3,0,0,1-.3.3" transform="translate(-291.288 -131.734)" fill="#102a54"/>
          <path id="Path_40086" data-name="Path 40086" d="M389.373,375.981h-.027a.241.241,0,0,1-.213-.267l.92-8.211a.241.241,0,0,1,.479.054l-.92,8.211a.241.241,0,0,1-.239.215" transform="translate(-276.027 -260.532)" fill="#102a54"/>
          <path id="Path_40087" data-name="Path 40087" d="M381.256,269.135a.428.428,0,0,1,.548-.27c1.25.434,7.364,1.992,7.425,2.724.073.881-2.967,7.082-4.094,7.324s-5.229-.748-5.418-2.787c-.156-1.7,1.11-5.7,1.538-6.991" transform="translate(-269.34 -190.7)" fill="#ffc0b1"/>
          <path id="Path_40088" data-name="Path 40088" d="M385.665,307.039a.241.241,0,0,1-.24-.218l-.667-6.782-1.207-.569a.241.241,0,0,1,.206-.437l1.455.686.694,7.055a.241.241,0,0,1-.217.264h-.024" transform="translate(-271.971 -212.101)" fill="#102a54"/>
          <path id="Path_40089" data-name="Path 40089" d="M374.055,771.524h-9.982v2.626l-10.313,3.867a3.538,3.538,0,0,0-2.3,3.313h22.692a1.727,1.727,0,0,0,1.682-2.118Z" transform="translate(-249.309 -547.274)" fill="#102a54"/>
          <path id="Path_40090" data-name="Path 40090" d="M405.265,763.111v2.445H396.62l-.243-2.41Z" transform="translate(-281.166 -541.307)" fill="#ffc0b1"/>
          <path id="Path_40091" data-name="Path 40091" d="M461.27,377.415l-2.494-16.876-15.01,4.02,2.79,8.572-31.54,5.2-6.117-1.24a4.972,4.972,0,0,0-3.257.449l-4.367,2.241a2.987,2.987,0,0,0-1.57,3.219h57.371a4.064,4.064,0,0,0,3.837-2.723,6.343,6.343,0,0,0,.307-2.854Z" transform="translate(-283.491 -255.745)" fill="#ffc0b1"/>
          <path id="Path_40092" data-name="Path 40092" d="M578.637,404.364a.242.242,0,0,1-.234-.182c-.7-2.753-3.009-4.276-6.853-4.526a21.51,21.51,0,0,0-5.692.473.241.241,0,1,1-.114-.469,22.143,22.143,0,0,1,5.827-.487c4.024.259,6.548,1.949,7.3,4.889a.242.242,0,0,1-.174.293.239.239,0,0,1-.06.008" transform="translate(-401.175 -283.126)" fill="#102a54"/>
          <path id="Path_40093" data-name="Path 40093" d="M688.108,325.8H668.676v3.255h1.379l2.9,29.3h10.894l2.882-29.3h1.378Z" transform="translate(-474.32 -231.105)" fill="#69ac4a"/>
          <path id="Path_40094" data-name="Path 40094" d="M687.764,336.654H672.83a.241.241,0,1,1,0-.482h14.934a.241.241,0,0,1,0,.482" transform="translate(-477.095 -238.461)" fill="#102a54"/>
          <path id="Path_40095" data-name="Path 40095" d="M701.378,289.579a.3.3,0,0,1-.3-.3V274.614a.3.3,0,1,1,.595,0v14.667a.3.3,0,0,1-.3.3" transform="translate(-497.306 -194.584)" fill="#102a54"/>
          <path id="Path_40096" data-name="Path 40096" d="M607.9,325.8H588.471v3.255h1.378l2.9,29.3h10.895l2.882-29.3H607.9Z" transform="translate(-417.427 -231.105)" fill="#69ac4a"/>
          <path id="Path_40097" data-name="Path 40097" d="M607.559,336.654H592.625a.241.241,0,1,1,0-.482h14.934a.241.241,0,1,1,0,.482" transform="translate(-420.203 -238.461)" fill="#102a54"/>
          <path id="Path_40098" data-name="Path 40098" d="M621.173,285.788a.3.3,0,0,1-.3-.3v-7.015a3.884,3.884,0,0,1,1.222-2.823l7.032-6.6a.3.3,0,0,1,.407.434l-7.032,6.6a3.289,3.289,0,0,0-1.034,2.389v7.015a.3.3,0,0,1-.3.3" transform="translate(-440.413 -190.793)" fill="#102a54"/>
          <path id="Path_40099" data-name="Path 40099" d="M527.7,325.8H508.266v3.255h1.379l2.9,29.3h10.895l2.882-29.3H527.7Z" transform="translate(-360.534 -231.105)" fill="#69ac4a"/>
          <path id="Path_40100" data-name="Path 40100" d="M527.355,336.654H512.421a.241.241,0,1,1,0-.482h14.934a.241.241,0,1,1,0,.482" transform="translate(-363.311 -238.461)" fill="#102a54"/>
          <path id="Path_40101" data-name="Path 40101" d="M520.281,299.234a.3.3,0,0,1-.3-.3v-1.506a3.288,3.288,0,0,0-1.035-2.389l-7.032-6.6a.3.3,0,1,1,.407-.434l7.032,6.6a3.887,3.887,0,0,1,1.222,2.823v1.506a.3.3,0,0,1-.3.3" transform="translate(-363.058 -204.24)" fill="#102a54"/>
          <path id="Path_40102" data-name="Path 40102" d="M100.893,231.263H31.664a5.9,5.9,0,0,1-5.9-5.9V181.089a5.9,5.9,0,0,1,5.9-5.9h69.229a5.9,5.9,0,0,1,5.9,5.9V225.36a5.9,5.9,0,0,1-5.9,5.9" transform="translate(-18.273 -124.267)" fill="#102a54"/>
          <path id="Path_40103" data-name="Path 40103" d="M148.982,349.149H126.518v-33.16a3.167,3.167,0,0,1,3.167-3.167h16.13a3.167,3.167,0,0,1,3.167,3.167Z" transform="translate(-89.744 -221.898)" fill="#0c203f"/>
          <path id="Path_40104" data-name="Path 40104" d="M129.927,432.223H84.09a.91.91,0,0,1-.91-.91v-.467a.91.91,0,0,1,.91-.91h45.837a.91.91,0,0,1,.91.91v.467a.91.91,0,0,1-.91.91" transform="translate(-59.003 -304.972)" fill="#0c203f"/>
          <path id="Path_40105" data-name="Path 40105" d="M67.994,62.5H60.622a2.042,2.042,0,0,1-2.042-2.042V41.774a2.042,2.042,0,0,1,2.042-2.042h7.372Z" transform="translate(-41.553 -28.184)" fill="#e6515c"/>
          <path id="Path_40106" data-name="Path 40106" d="M100.193,61.966H59.175A1.876,1.876,0,0,1,57.3,60.092V40.327a1.876,1.876,0,0,1,1.874-1.874h41.018a1.876,1.876,0,0,1,1.874,1.874V60.092a1.876,1.876,0,0,1-1.874,1.874M59.175,39.2a1.132,1.132,0,0,0-1.131,1.131V60.092a1.132,1.132,0,0,0,1.131,1.131h41.018a1.132,1.132,0,0,0,1.131-1.131V40.327a1.132,1.132,0,0,0-1.131-1.131Z" transform="translate(-40.646 -27.276)" fill="#102a54"/>
          <path id="Path_40107" data-name="Path 40107" d="M212.29,73.224h-2.251V65.343h2.251a.681.681,0,0,1,.681.681v6.519a.681.681,0,0,1-.681.681" transform="translate(-148.989 -46.351)" fill="#102a54"/>
          <path id="Path_40108" data-name="Path 40108" d="M742.536,27.781a26.5,26.5,0,1,1-26.5-26.5,26.5,26.5,0,0,1,26.5,26.5" transform="translate(-489.114 -0.907)" fill="#fffadc"/>
          <path id="Path_40109" data-name="Path 40109" d="M719.7,53.747a26.874,26.874,0,1,1,26.874-26.874A26.9,26.9,0,0,1,719.7,53.747m0-53a26.13,26.13,0,1,0,26.13,26.13A26.16,26.16,0,0,0,719.7.743" transform="translate(-491.454 0.001)" fill="#102a54"/>
          <path id="Path_40110" data-name="Path 40110" d="M749.456,50.945a.372.372,0,0,1-.216-.675l10.123-7.187V23.495a.372.372,0,0,1,.744,0V43.468l-10.436,7.409a.371.371,0,0,1-.215.069" transform="translate(-531.356 -16.402)" fill="#102a54"/>
          <path id="Path_40111" data-name="Path 40111" d="M783.427,88.982A1.424,1.424,0,1,1,782,87.558a1.424,1.424,0,0,1,1.424,1.424" transform="translate(-553.697 -62.109)" fill="#102a54"/>
        </g>
      </g>
      <text id="is_the_average_time_spent_per_worker_searching_for_files" data-name="is the average time spent per worker searching for files" transform="translate(572.259 5994)" fill="#640000" font-size="16" font-family="Montserrat-Medium, Montserrat" font-weight="500"><tspan x="0" y="0">is the average time spent </tspan><tspan x="0" y="19">per worker searching for files</tspan></text>
      <text id="hours_per_week" data-name="hours per week" transform="translate(674.259 5945)" font-size="14" font-family="Montserrat-SemiBold, Montserrat" font-weight="600"><tspan x="0" y="0">hours </tspan><tspan x="0" y="18">per week</tspan></text>
      <path id="Path_111988" data-name="Path 111988" d="M-17.778-18.556a1.988,1.988,0,0,0-.278-.974,2.349,2.349,0,0,0-1.073-.882,8.849,8.849,0,0,0-2.22-.643,21.693,21.693,0,0,0-3.719-.257,23.249,23.249,0,0,0-3.737.239,7.364,7.364,0,0,0-2.164.643,2.328,2.328,0,0,0-1.018.9,2.1,2.1,0,0,0-.259.974v.074a2.1,2.1,0,0,0,.259.974,2.233,2.233,0,0,0,1.018.882,8.186,8.186,0,0,0,2.164.643,21.633,21.633,0,0,0,3.737.257,21.969,21.969,0,0,0,3.755-.257,8.521,8.521,0,0,0,2.2-.643,2.354,2.354,0,0,0,1.054-.882,1.987,1.987,0,0,0,.278-.974ZM-25.326.555a32.368,32.368,0,0,1-8.251-.871A16.25,16.25,0,0,1-38.665-2.5a7.353,7.353,0,0,1-2.571-2.853,6.878,6.878,0,0,1-.7-2.835v-.185H-31.32a2.74,2.74,0,0,0,.333.531,3.037,3.037,0,0,0,.944.732,7.219,7.219,0,0,0,1.924.659,15.7,15.7,0,0,0,3.274.275,11.044,11.044,0,0,0,4.181-.662,6.736,6.736,0,0,0,2.442-1.6,4.812,4.812,0,0,0,1.128-1.949,6.755,6.755,0,0,0,.278-1.747v-.147q-.3.222-.962.648a9.6,9.6,0,0,1-1.943.87,20.549,20.549,0,0,1-3.238.777,29.349,29.349,0,0,1-4.81.333h-.481a30.683,30.683,0,0,1-7.16-.7A13.968,13.968,0,0,1-40-12.247,6.854,6.854,0,0,1-42.439-15a7.849,7.849,0,0,1-.722-3.311v-.333a11.113,11.113,0,0,1,.222-2.183A6.388,6.388,0,0,1-42.05-23a7.641,7.641,0,0,1,1.85-1.961,11.491,11.491,0,0,1,3.071-1.591A24.155,24.155,0,0,1-32.5-27.639a44.694,44.694,0,0,1,6.475-.407h1.665a34.025,34.025,0,0,1,6.679.574A20.133,20.133,0,0,1-12.82-25.9a11.7,11.7,0,0,1,3.33,2.35,11.322,11.322,0,0,1,2.035,2.868A11.565,11.565,0,0,1-6.438-17.52a19.247,19.247,0,0,1,.277,3.2v.888a19.244,19.244,0,0,1-.259,3.052,12.915,12.915,0,0,1-.944,3.164,11.475,11.475,0,0,1-1.924,2.96,11.775,11.775,0,0,1-3.182,2.479,17.978,17.978,0,0,1-4.717,1.7,29.931,29.931,0,0,1-6.549.629ZM4.9,0H-5.532V-7.215H4.9ZM23.661.518a35.591,35.591,0,0,1-6.753-.555A21.543,21.543,0,0,1,12.136-1.48,11.011,11.011,0,0,1,9.028-3.5,9.307,9.307,0,0,1,7.252-5.772a7.868,7.868,0,0,1-.814-2.22,10.141,10.141,0,0,1-.2-1.85v-.333H17.075q.037.222.222.851A2.9,2.9,0,0,0,18.2-8.048,6.369,6.369,0,0,0,20.387-6.9a13.006,13.006,0,0,0,4.052.5,25.227,25.227,0,0,0,4.089-.259,7.767,7.767,0,0,0,2.257-.666,2.045,2.045,0,0,0,.962-.869,2.166,2.166,0,0,0,.2-.87,1.843,1.843,0,0,0-.148-.722,1.5,1.5,0,0,0-.536-.629,2.881,2.881,0,0,0-1.036-.425,7.8,7.8,0,0,0-1.684-.148H19.332v-6.586h8.954a7.812,7.812,0,0,0,1.573-.129,2.75,2.75,0,0,0,.944-.352,1.256,1.256,0,0,0,.462-.5,1.426,1.426,0,0,0,.129-.611V-19.2a1.642,1.642,0,0,0-.185-.74,1.677,1.677,0,0,0-.906-.666,9.618,9.618,0,0,0-2.183-.5,30.723,30.723,0,0,0-4.014-.2,16.138,16.138,0,0,0-3.941.37,6.142,6.142,0,0,0-2.054.87,2.005,2.005,0,0,0-.8.962q-.13.462-.167.684H6.382v-.37a9.64,9.64,0,0,1,.167-1.646,6.2,6.2,0,0,1,.759-1.979,8.564,8.564,0,0,1,1.684-2.035,10.341,10.341,0,0,1,2.979-1.795,22.329,22.329,0,0,1,4.643-1.3,37.882,37.882,0,0,1,6.642-.5h1.591a62.668,62.668,0,0,1,6.789.315,31.2,31.2,0,0,1,4.773.851,12.223,12.223,0,0,1,3.09,1.24,6.687,6.687,0,0,1,1.776,1.5,4.048,4.048,0,0,1,.814,1.628,7.261,7.261,0,0,1,.185,1.572v.222a3.7,3.7,0,0,1-.444,1.831A4.962,4.962,0,0,1,40.681-17.5a6.185,6.185,0,0,1-1.572.962,7.936,7.936,0,0,1-1.683.518,10.683,10.683,0,0,1,2.035.685,6.622,6.622,0,0,1,1.887,1.276,6.358,6.358,0,0,1,1.388,2,6.671,6.671,0,0,1,.536,2.775v.259a9.063,9.063,0,0,1-.684,3.4A7.079,7.079,0,0,1,39.96-2.553a16.13,16.13,0,0,1-5.439,2.22,39.581,39.581,0,0,1-9.083.851Z" transform="translate(616.259 5962)" fill="#2d3233"/>
    </g>
  </g>
</svg>
