<svg id="Group_36324" data-name="Group 36324" xmlns="http://www.w3.org/2000/svg" xmlns:xlink="http://www.w3.org/1999/xlink" width="39.165" height="69.758" viewBox="0 0 39.165 69.758">
  <defs>
    <clipPath id="clip-path">
      <rect id="Rectangle_17895" data-name="Rectangle 17895" width="36.402" height="69.758" fill="none"/>
    </clipPath>
    <clipPath id="clip-path-3">
      <rect id="Rectangle_17888" data-name="Rectangle 17888" width="16.751" height="14.251" fill="none"/>
    </clipPath>
    <clipPath id="clip-path-4">
      <rect id="Rectangle_17889" data-name="Rectangle 17889" width="3.953" height="4.016" fill="none"/>
    </clipPath>
    <clipPath id="clip-path-5">
      <rect id="Rectangle_17890" data-name="Rectangle 17890" width="5.667" height="4.55" fill="none"/>
    </clipPath>
    <clipPath id="clip-path-6">
      <rect id="Rectangle_17891" data-name="Rectangle 17891" width="19.931" height="49.877" fill="none"/>
    </clipPath>
    <clipPath id="clip-path-7">
      <rect id="Rectangle_17892" data-name="Rectangle 17892" width="13.302" height="7.681" fill="none"/>
    </clipPath>
  </defs>
  <path id="Path_38271" data-name="Path 38271" d="M9290.769,1891.63c-5.689-3.576-10.29-2.245-11.742-5.756s4.479-1.21-6.778-3.51-7.99-11.258-6.658-11.5a18.716,18.716,0,0,1,11.862,3.51c4.237,3.389,4.723,3.026,4.723,3.026s6.052-5.326,11.5-3.026,10.047,7.989,9.563,7.989-7.989,2.542-7.989,2.542v4.6" transform="translate(-9264.106 -1821.873)" fill="#343434"/>
  <g id="Group_35676" data-name="Group 35676" transform="translate(1.159)">
    <g id="Group_35675" data-name="Group 35675">
      <g id="Group_35674" data-name="Group 35674" clip-path="url(#clip-path)">
        <g id="Group_35673" data-name="Group 35673" transform="translate(0)">
          <g id="Group_35672" data-name="Group 35672" clip-path="url(#clip-path)">
            <path id="Path_38025" data-name="Path 38025" d="M1,100.67a3.527,3.527,0,0,0-1,2.084,3.356,3.356,0,0,0,1.493,1.788l1.666,2.282a4.267,4.267,0,0,0,1.9,1.291,5.746,5.746,0,0,0,2.348.044,2.459,2.459,0,0,0,1.739-1.36A4.986,4.986,0,0,0,6.9,104.716L5.3,102.78l-.069-2.035L2.269,99.338Z" transform="translate(0 -53.236)"/>
            <path id="Path_38026" data-name="Path 38026" d="M22.618,64.293,19.024,75.18c-.039.1-.081.194-.126.288a8.859,8.859,0,0,1-2.91,3.076C13.4,80.421,9.9,82.08,7.781,84.36c-1.88.694-5.228-.7-5.228-2.737a28.005,28.005,0,0,1,3.314-4.016,37.109,37.109,0,0,1,5.64-4.361l2.353-8.673Z" transform="translate(-1.368 -34.455)" fill="#1a6ca3"/>
            <g id="Group_35654" data-name="Group 35654" transform="translate(4.499 29.838)" opacity="0.5" style="mix-blend-mode: multiply;isolation: isolate">
              <g id="Group_35653" data-name="Group 35653">
                <g id="Group_35652" data-name="Group 35652" clip-path="url(#clip-path-3)">
                  <path id="Path_38027" data-name="Path 38027" d="M26.444,64.293,22.85,75.18c-.039.1-.081.194-.126.288l-2.91,3.076-2.651-2.391L9.693,77.607a37.109,37.109,0,0,1,5.64-4.361l2.353-8.673Z" transform="translate(-9.693 -64.293)" fill="#167f9c"/>
                </g>
              </g>
            </g>
            <path id="Path_38028" data-name="Path 38028" d="M41.889,25.232,53.423,35.873a6.579,6.579,0,0,0,2.583-2.441l-12.764-15a6.134,6.134,0,0,0-3.984-2.021Z" transform="translate(-21.038 -8.795)" fill="#aaa"/>
            <path id="Path_38029" data-name="Path 38029" d="M27.383,38.634a42.273,42.273,0,0,0-2.985,3.44A7.49,7.49,0,0,1,22.753,43.5c-2.646,1.689-2.785,4.2-5.719,1.712-.011-.006-.028-.022-.045-.033-3.38-2.129-3.507-4.908-3.141-7.575l-.739-3.213-.695-3.024L12.3,30.346l-.033-.322-.823-7.532q.492-.567,1.017-1.117c.372-.389.75-.773,1.145-1.145A35.23,35.23,0,0,1,18.4,16.412h5.953c1.367,1.284,2.118,3.335,2.518,5.819,0,0,.511,13.267.511,16.4" transform="translate(-6.135 -8.795)" fill="#9a9a9a"/>
            <path id="Path_38030" data-name="Path 38030" d="M28,19.355a.98.98,0,0,1-.568.543c-2.332.688-4.244-1.973-3.977-3.541.218-1.612.344-2.49.344-2.49l4.511,1.112s.049.423.075,1.021A8.006,8.006,0,0,1,28,19.355" transform="translate(-12.554 -7.432)" fill="#ffa473"/>
            <g id="Group_35657" data-name="Group 35657" transform="translate(11.891 8.152)" opacity="0.5" style="mix-blend-mode: multiply;isolation: isolate">
              <g id="Group_35656" data-name="Group 35656">
                <g id="Group_35655" data-name="Group 35655" clip-path="url(#clip-path-4)">
                  <path id="Path_38031" data-name="Path 38031" d="M29.173,21.337a1.3,1.3,0,0,1-.739.244c-2.131,0-2.811-4.016-2.811-4.016l3.935.417a8.006,8.006,0,0,1-.385,3.354" transform="translate(-25.623 -17.565)" fill="#ffb294"/>
                </g>
              </g>
            </g>
            <path id="Path_38032" data-name="Path 38032" d="M23.08,8.06a7.256,7.256,0,0,0,1.363,2.8,5.278,5.278,0,0,0,2.8,1.292,1.4,1.4,0,0,0,1.292-.423c.345-.4.556-4.119.556-4.119a11.138,11.138,0,0,0-.2-2.667c-.251-1.177-1.1-3.786-4.533-3.315a3.306,3.306,0,0,0-2.894,2.889,8.02,8.02,0,0,0,.756,3.218Z" transform="translate(-11.486 -0.84)" fill="#ffa473"/>
            <g id="Group_35660" data-name="Group 35660" transform="translate(11.891 5.252)" opacity="0.5" style="mix-blend-mode: multiply;isolation: isolate">
              <g id="Group_35659" data-name="Group 35659">
                <g id="Group_35658" data-name="Group 35658" clip-path="url(#clip-path-5)">
                  <path id="Path_38033" data-name="Path 38033" d="M29.977,15.866c-2.131,0-4.353-4.129-4.353-4.129l5.6-.421c.135,3.032.23,4.55-1.243,4.55" transform="translate(-25.624 -11.316)" fill="#ffb294"/>
                </g>
              </g>
            </g>
            <path id="Path_38034" data-name="Path 38034" d="M21.975,7.971,23.6,8.84l.123-.974a.793.793,0,0,1,.85-.8,6.152,6.152,0,0,0,3.13-.547,2.27,2.27,0,0,0,1.282-1.269c.55-2.114-2.236-3.747-4.336-3.676a3.342,3.342,0,0,0-3.587,3.308,8.128,8.128,0,0,0,.908,3.093" transform="translate(-11.29 -0.84)"/>
            <path id="Path_38037" data-name="Path 38037" d="M22.908,12.447a.562.562,0,0,0-.688.1.54.54,0,0,0-.084.4,1.4,1.4,0,0,0,.142.4,7.023,7.023,0,0,0,.359.643.785.785,0,0,0,.432.392c.2.047.438.184.545.011a1.641,1.641,0,0,0,.056-.846,1.622,1.622,0,0,0-.762-1.105" transform="translate(-11.858 -6.633)" fill="#ffa473"/>
            <path id="Path_38038" data-name="Path 38038" d="M48.191,135.2a7.153,7.153,0,0,0,.5,3.115,2.526,2.526,0,0,0,1.2.791,3.06,3.06,0,0,0,1.481,1.386c1.646.622,4.666-.355,5.114-1.717a4.962,4.962,0,0,0-2.342-2.158l-2.054-1.992-.632-2.276-3.489.835Z" transform="translate(-25.708 -70.927)"/>
            <path id="Path_38039" data-name="Path 38039" d="M39.619,99.969c-.667,1.5-2.235,2.051-4.8,1.534-.389-.89-.772-1.784-1.139-2.679a113.529,113.529,0,0,1-4.43-12.912L23.483,73.122l2.382,1.2,2.709-2.465L30.209,68.5c.211.5.422,1.006.622,1.506q.242.576.467,1.151l.828,2.134.05.122q.742,1.985,1.379,3.968a65.122,65.122,0,0,1,1.851,6.954Z" transform="translate(-12.585 -36.709)" fill="#1a6ca3"/>
            <g id="Group_35663" data-name="Group 35663" transform="translate(6.28 12.233)" opacity="0.5" style="mix-blend-mode: multiply;isolation: isolate">
              <g id="Group_35662" data-name="Group 35662">
                <g id="Group_35661" data-name="Group 35661" clip-path="url(#clip-path-6)">
                  <path id="Path_38040" data-name="Path 38040" d="M28.344,76.235a112.988,112.988,0,0,1-4.43-12.906L18.151,50.54c-.011-.006-.028-.022-.045-.033C14.727,48.377,14.6,45.6,14.966,42.93l-.739-3.213-.695-3.024L16.614,31l2.53,2.2,9.815-4.068-.772-2.772,5.277,4.97-7.5,17.243.828,2.134.051.122q.741,1.985,1.378,3.968l-4.652-.711L25.2,63.329Z" transform="translate(-13.532 -26.358)" fill="#bfbfbf"/>
                </g>
              </g>
            </g>
            <path id="Path_38041" data-name="Path 38041" d="M37.409,65.684,24.5,58.232V46.87l12.908,7.453Z" transform="translate(-13.13 -25.118)" fill="#bd8a4b"/>
            <path id="Path_38042" data-name="Path 38042" d="M63.676,60.157,52.315,66.716V55.355L63.676,48.8Z" transform="translate(-28.036 -26.15)" fill="#efb972"/>
            <path id="Path_38043" data-name="Path 38043" d="M48.771,40.192l-5.294,3.057-.394.228L37.41,46.751,24.5,39.3l5.671-3.275.394-.227,5.294-3.057Z" transform="translate(-13.132 -17.545)" fill="#ffe1b3"/>
            <g id="Group_35666" data-name="Group 35666" transform="translate(17.043 18.25)" opacity="0.7" style="mix-blend-mode: multiply;isolation: isolate">
              <g id="Group_35665" data-name="Group 35665">
                <g id="Group_35664" data-name="Group 35664" clip-path="url(#clip-path-7)">
                  <path id="Path_38044" data-name="Path 38044" d="M50.026,46.778l-.394.228L36.724,39.553l.394-.228Z" transform="translate(-36.724 -39.325)" fill="#bd8a4b"/>
                </g>
              </g>
            </g>
            <path id="Path_38045" data-name="Path 38045" d="M75.259,58.8l.585-.542V57.23l.795,1.32v1.919l-.306.569-.481.2H75.74a.658.658,0,0,1-.658-.658v-1.33a.553.553,0,0,1,.175-.447" transform="translate(-40.237 -30.67)" fill="#ffa473"/>
            <path id="Path_38046" data-name="Path 38046" d="M40.343,72.538l2.414,1.454c.606.435,2.459,1.373,2.459,1.373a16.407,16.407,0,0,0,1.754-.408c.712-.122.92-.66.3-.712,1.163-.122,1.233-.7.486-.753.7-.15.825-.732.148-.75.643-.373.4-.885-.39-.578l-.916.174-1.188-.009-.355-.665.336-.4.693-.17c.492-.25.564-.659.152-.655l-1.482.207c-.935.462-.7-.018-1.144.745l-2.3-.953Z" transform="translate(-21.62 -37.747)" fill="#ffa473"/>
            <path id="Path_38047" data-name="Path 38047" d="M9.094,35.24c.9,1.8,2.746,6.437,5.741,9.714a37.826,37.826,0,0,0,10.575,6.7c-.332-.62-.883-2.228.435-2.717L16.888,39.81l-2.611-6.475c-.883-2.794-2.943-4.867-4.367-4.038-.982.572-1.965,2.832-.816,5.944" transform="translate(-4.596 -15.601)" fill="#aaa"/>
          </g>
        </g>
      </g>
    </g>
  </g>
</svg>
