<svg id="Group_36621" data-name="Group 36621" xmlns="http://www.w3.org/2000/svg" xmlns:xlink="http://www.w3.org/1999/xlink" width="137.163" height="102.299" viewBox="0 0 137.163 102.299">
  <defs>
    <clipPath id="clip-path">
      <rect id="Rectangle_18440" data-name="Rectangle 18440" width="137.163" height="102.299" fill="none"/>
    </clipPath>
  </defs>
  <g id="Group_36620" data-name="Group 36620" clip-path="url(#clip-path)">
    <path id="Path_40984" data-name="Path 40984" d="M166.042,65.029h0v-2.8l-6.274,0L157.6,60.975a2.158,2.158,0,0,0-1.941.081l-2.023,1.168-6.279,0V65.1a.562.562,0,0,0,.334.52L155.8,70.3a2.158,2.158,0,0,0,1.942-.081l7.83-4.521a.769.769,0,0,0,.473-.67" transform="translate(-87.926 -36.268)" fill="#4b535b"/>
    <path id="Path_40985" data-name="Path 40985" d="M156.7,60.785a2.243,2.243,0,0,0-1.041.273l-2.023,1.168-6.279,0V65.1a.563.563,0,0,0,.334.52L155.8,70.3a1.756,1.756,0,0,0,.9.193Z" transform="translate(-87.926 -36.27)" fill="#4b535b"/>
    <path id="Path_40986" data-name="Path 40986" d="M148.066,64.349h-.711v2.878a.563.563,0,0,0,.334.52l.377.218Z" transform="translate(-87.926 -38.397)" fill="#fff"/>
    <path id="Path_40987" data-name="Path 40987" d="M168.6,79.675a2.211,2.211,0,0,0,1.552-.018V76.39H168.6Z" transform="translate(-100.603 -45.582)" fill="#fff"/>
    <path id="Path_40988" data-name="Path 40988" d="M155.8,61.593l-8.109-4.682c-.5-.288-.435-.789.14-1.121l7.83-4.521a2.158,2.158,0,0,1,1.941-.08l8.109,4.682c.5.287.435.789-.14,1.121l-7.83,4.521a2.158,2.158,0,0,1-1.942.08" transform="translate(-87.923 -30.429)" fill="#707070"/>
    <path id="Path_40989" data-name="Path 40989" d="M165.567,63.982,157.737,68.5a2.158,2.158,0,0,1-1.941.081L147.686,63.9a.752.752,0,0,1-.249-.22.521.521,0,0,0,.249.771l8.109,4.682a2.158,2.158,0,0,0,1.941-.08l7.831-4.521c.446-.258.582-.618.387-.9a1.084,1.084,0,0,1-.387.35" transform="translate(-87.923 -37.969)" fill="#fff"/>
    <path id="Path_40990" data-name="Path 40990" d="M185.327,72.8a.725.725,0,0,1-.327.568c-.181.1-.327.02-.327-.19a.725.725,0,0,1,.327-.567c.181-.1.327-.019.327.189" transform="translate(-110.193 -43.298)" fill="#d4ecff"/>
    <path id="Path_40991" data-name="Path 40991" d="M187.94,71.289a.725.725,0,0,1-.327.567c-.181.1-.327.02-.327-.189a.724.724,0,0,1,.327-.567c.181-.1.327-.02.327.189" transform="translate(-111.752 -42.398)" fill="#64a84d"/>
    <path id="Path_40992" data-name="Path 40992" d="M190.553,69.78a.725.725,0,0,1-.327.567c-.181.1-.327.02-.327-.189a.724.724,0,0,1,.327-.567c.181-.1.327-.02.327.189" transform="translate(-113.311 -41.498)" fill="#d4ecff"/>
    <path id="Path_40993" data-name="Path 40993" d="M163.632,62.739l-3.795-2.191c-.233-.135-.2-.369.065-.525l3.664-2.115a1.011,1.011,0,0,1,.909-.038l3.795,2.191c.233.134.2.369-.065.524L164.541,62.7a1.01,1.01,0,0,1-.909.038" transform="translate(-95.28 -34.477)" fill="#64a84d"/>
    <path id="Path_40994" data-name="Path 40994" d="M169.571,64.513l-.525-.3c-.032-.019-.028-.051.009-.073l.507-.292a.14.14,0,0,1,.125-.005l.525.3c.032.019.028.051-.009.073l-.507.293a.14.14,0,0,1-.126.005" transform="translate(-100.856 -38.085)" fill="#71d14e"/>
    <path id="Path_40995" data-name="Path 40995" d="M159.838,60.548l.011.006a.644.644,0,0,1,.054-.037l3.664-2.116a1.009,1.009,0,0,1,.909-.038l3.784,2.185c.215-.154.226-.363.011-.487l-3.795-2.191a1.009,1.009,0,0,0-.909.038L159.9,60.023c-.269.155-.3.39-.065.525" transform="translate(-95.281 -34.477)" fill="#3a6d26"/>
    <path id="Path_40996" data-name="Path 40996" d="M287.591,136.275a.658.658,0,0,1-.33-.089l-9.551-5.514a.662.662,0,0,1,.662-1.146l9.551,5.514a.661.661,0,0,1-.331,1.235" transform="translate(-165.511 -77.235)" fill="#64a84d"/>
    <path id="Path_40997" data-name="Path 40997" d="M239.206,108.341a.652.652,0,0,1-.33-.089l-9.81-5.663a.662.662,0,0,1,.662-1.146l9.809,5.664a.662.662,0,0,1-.331,1.235" transform="translate(-136.485 -60.477)" fill="#64a84d"/>
    <path id="Path_40998" data-name="Path 40998" d="M190.945,80.477a.654.654,0,0,1-.33-.089l-9.551-5.514a.662.662,0,0,1,.662-1.146l9.551,5.514a.662.662,0,0,1-.332,1.235" transform="translate(-107.843 -43.94)" fill="#64a84d"/>
    <path id="Path_40999" data-name="Path 40999" d="M87.075,141.188l24.865-14.363-28.03,1.321-1.741,1.665-.378,2.5.277,1.7.833,2.062.832,1.615.934,1.211Z" transform="translate(-48.804 -75.676)" fill="#4b535b"/>
    <path id="Path_41000" data-name="Path 41000" d="M110.01,93.753c.042-.026.086-.051.129-.075l.008,0h0a3.923,3.923,0,0,1,3.828.423l33.965,19.61a2.366,2.366,0,0,0-.391.38l-1.287-.743-6.874,14.936-3.558,4.857-2.321.807-2.328-.909-11.3-6.421L97.49,113.809l-8.213-4.934-2.145-.681-1.929-.115Z" transform="translate(-50.84 -55.699)" fill="#d4ecff"/>
    <path id="Path_41001" data-name="Path 41001" d="M136.861,130.252a12.222,12.222,0,0,0-5.522-9.564v.605a11.062,11.062,0,0,1,5,8.655c0,3.182-2.242,4.476-5,2.885L89.121,108.459a3.878,3.878,0,0,0-3.9-.384l24.8-14.323c.042-.026.085-.051.129-.075l.008,0h0a3.923,3.923,0,0,1,3.828.423l33.965,19.61a2.4,2.4,0,0,0-.391.38l-1.287-.743L139.4,128.279l-2.843,3.881a5.579,5.579,0,0,0,.3-1.908" transform="translate(-50.85 -55.699)" fill="#fff" stroke="#707070" stroke-width="1"/>
    <path id="Path_41002" data-name="Path 41002" d="M85.2,129.874h0l0,0,0,0" transform="translate(-50.84 -77.494)" fill="#d4ecff"/>
    <path id="Path_41003" data-name="Path 41003" d="M210.771,176.173c0,.061-.005.119-.007.179a11.478,11.478,0,0,0-1.68-5.4l.141-.09a11.212,11.212,0,0,1,1.546,5.307" transform="translate(-124.76 -101.955)" fill="#fff"/>
    <path id="Path_41004" data-name="Path 41004" d="M89.121,128.878l42.219,24.375c2.69,1.553,4.89.355,4.992-2.664,0,.038.005.077.005.115,0,3.182-2.242,4.476-5,2.885L89.121,129.214a3.879,3.879,0,0,0-3.9-.384l1.2-.693a4.782,4.782,0,0,1,2.7.741" transform="translate(-50.85 -76.454)" fill="#fff"/>
    <path id="Path_41005" data-name="Path 41005" d="M215.355,157.032l6.873-14.936,1.287.743c.052-.062.106-.12.162-.177l.229.132a2.416,2.416,0,0,0-.391.38l-1.287-.743-6.873,14.937-2.842,3.881a4.709,4.709,0,0,0,.156-.55Z" transform="translate(-126.806 -84.788)" fill="#fff"/>
    <path id="Path_41006" data-name="Path 41006" d="M85.2,129.041h0l0,0,0,0" transform="translate(-50.84 -76.997)" fill="#d4ecff"/>
    <path id="Path_41007" data-name="Path 41007" d="M224.441,125.53h0a12.221,12.221,0,0,1,5.522,9.564,3.943,3.943,0,0,1-1.518,3.508v0l-.015.008q-.084.053-.171.1l-24.775,14.316L205,150.284l-.177-2.738-.48-1.539-.732-1.64s-.606-1.123-.644-1.148-.9-1.136-.9-1.136l-.834-.87-.907-.58-.755-.74Z" transform="translate(-119.086 -74.903)" fill="#d8d8d8"/>
    <path id="Path_41008" data-name="Path 41008" d="M86.724,142.46v-.605a11.061,11.061,0,0,1-5-8.655c0-3.182,2.242-4.476,5-2.885l42.219,24.375c3.045,1.758,5.522.328,5.522-3.188a12.222,12.222,0,0,0-5.522-9.563v.606a11.061,11.061,0,0,1,5,8.655c0,3.182-2.242,4.476-5,2.885L86.724,129.709c-3.045-1.758-5.522-.328-5.522,3.188a12.222,12.222,0,0,0,5.522,9.564" transform="translate(-48.453 -76.948)" fill="#173d7a"/>
    <path id="Path_41009" data-name="Path 41009" d="M163.626,136.079l-18.78-10.95-.722.413,18.78,10.95Z" transform="translate(-85.998 -74.664)" fill="#707070"/>
    <path id="Path_41010" data-name="Path 41010" d="M167.972,129.583l-15.306-8.923-.722.413L167.25,130Z" transform="translate(-90.664 -71.997)" fill="#707070"/>
    <path id="Path_41011" data-name="Path 41011" d="M162.978,131.186l-14.222-8.292-.722.413,14.222,8.292Z" transform="translate(-88.332 -73.33)" fill="#707070"/>
    <path id="Path_41012" data-name="Path 41012" d="M190.181,147.046l-3.474-2.026-.722.413,3.474,2.026Z" transform="translate(-110.977 -86.533)" fill="#707070"/>
    <path id="Path_41013" data-name="Path 41013" d="M312.442,150.848h0v-2.8l-6.274,0L304,146.794a2.158,2.158,0,0,0-1.942.081l-2.023,1.168-6.279,0v2.878a.563.563,0,0,0,.334.52l8.109,4.682a2.159,2.159,0,0,0,1.942-.08l7.83-4.521a.769.769,0,0,0,.473-.67" transform="translate(-175.282 -87.476)" fill="#4b535b"/>
    <path id="Path_41014" data-name="Path 41014" d="M303.1,146.6a2.239,2.239,0,0,0-1.041.273l-2.023,1.168-6.279,0v2.878a.563.563,0,0,0,.334.52l8.109,4.682a1.756,1.756,0,0,0,.9.193Z" transform="translate(-175.282 -87.478)" fill="#4b535b"/>
    <path id="Path_41015" data-name="Path 41015" d="M294.466,150.169h-.711v2.878a.563.563,0,0,0,.334.52l.377.218Z" transform="translate(-175.282 -89.605)" fill="#707070"/>
    <path id="Path_41016" data-name="Path 41016" d="M315,165.494a2.212,2.212,0,0,0,1.552-.018v-3.267H315Z" transform="translate(-187.959 -96.789)" fill="#707070"/>
    <path id="Path_41017" data-name="Path 41017" d="M302.2,147.413l-8.109-4.682c-.5-.287-.435-.789.14-1.121l7.83-4.521a2.158,2.158,0,0,1,1.941-.08l8.109,4.682c.5.287.435.789-.14,1.121l-7.83,4.521a2.159,2.159,0,0,1-1.942.081" transform="translate(-175.279 -81.637)" fill="#707070"/>
    <path id="Path_41018" data-name="Path 41018" d="M311.968,149.8l-7.83,4.521a2.158,2.158,0,0,1-1.941.081l-8.109-4.682a.755.755,0,0,1-.248-.22.521.521,0,0,0,.248.771l8.109,4.682a2.157,2.157,0,0,0,1.941-.081l7.83-4.521c.446-.258.582-.618.388-.9a1.087,1.087,0,0,1-.388.35" transform="translate(-175.28 -89.177)" fill="#fff"/>
    <path id="Path_41019" data-name="Path 41019" d="M331.727,158.617a.725.725,0,0,1-.328.567c-.181.1-.327.02-.327-.189a.724.724,0,0,1,.327-.567c.181-.1.328-.02.328.189" transform="translate(-197.549 -94.507)" fill="#d4ecff"/>
    <path id="Path_41020" data-name="Path 41020" d="M334.34,157.109a.725.725,0,0,1-.327.567c-.181.1-.327.02-.327-.189a.724.724,0,0,1,.327-.567c.181-.1.327-.02.327.189" transform="translate(-199.109 -93.607)" fill="#d4ecff"/>
    <path id="Path_41021" data-name="Path 41021" d="M336.953,155.6a.725.725,0,0,1-.327.567c-.181.1-.327.02-.327-.189a.724.724,0,0,1,.327-.567c.181-.1.327-.02.327.189" transform="translate(-200.668 -92.706)" fill="#d4ecff"/>
    <path id="Path_41022" data-name="Path 41022" d="M310.032,148.559l-3.795-2.191c-.233-.135-.2-.369.065-.525l3.664-2.115a1.01,1.01,0,0,1,.909-.038l3.795,2.191c.233.134.2.369-.065.524l-3.664,2.116a1.01,1.01,0,0,1-.909.038" transform="translate(-182.637 -85.685)" fill="#64a84d"/>
    <path id="Path_41023" data-name="Path 41023" d="M315.971,150.333l-.525-.3c-.032-.019-.028-.051.009-.073l.507-.292a.14.14,0,0,1,.125-.005l.525.3c.032.019.028.051-.009.073l-.507.293a.141.141,0,0,1-.126.005" transform="translate(-188.212 -89.294)" fill="#71d14e"/>
    <path id="Path_41024" data-name="Path 41024" d="M306.238,146.368l.011.006c.017-.012.034-.025.054-.038l3.664-2.115a1.009,1.009,0,0,1,.909-.038l3.784,2.185c.215-.154.226-.363.011-.487l-3.795-2.191a1.009,1.009,0,0,0-.909.038l-3.664,2.115c-.269.155-.3.39-.065.525" transform="translate(-182.637 -85.685)" fill="#3a6d26"/>
    <path id="Path_41025" data-name="Path 41025" d="M183.816,221.533a.661.661,0,0,1-.331-1.235l9.551-5.514a.662.662,0,0,1,.662,1.146l-9.551,5.514a.654.654,0,0,1-.33.089" transform="translate(-109.287 -128.108)" fill="#64a84d"/>
    <path id="Path_41026" data-name="Path 41026" d="M231.819,193.6a.661.661,0,0,1-.331-1.235L241.3,186.7a.662.662,0,0,1,.662,1.146l-9.809,5.663a.655.655,0,0,1-.33.089" transform="translate(-137.93 -111.35)" fill="#64a84d"/>
    <path id="Path_41027" data-name="Path 41027" d="M280.461,165.734a.662.662,0,0,1-.332-1.235l9.551-5.514a.662.662,0,0,1,.662,1.146l-9.551,5.514a.658.658,0,0,1-.33.089" transform="translate(-166.955 -94.813)" fill="#64a84d"/>
    <path id="Path_41028" data-name="Path 41028" d="M36.794,136.275a.662.662,0,0,1-.332-1.235l9.551-5.514a.662.662,0,0,1,.662,1.146l-9.551,5.514a.661.661,0,0,1-.33.089" transform="translate(-21.559 -77.235)" fill="#64a84d"/>
    <path id="Path_41029" data-name="Path 41029" d="M84.8,108.341a.662.662,0,0,1-.332-1.235l9.809-5.663a.662.662,0,1,1,.662,1.146l-9.809,5.663a.657.657,0,0,1-.33.089" transform="translate(-50.203 -60.478)" fill="#64a84d"/>
    <path id="Path_41030" data-name="Path 41030" d="M133.439,80.477a.661.661,0,0,1-.331-1.235l9.551-5.514a.662.662,0,0,1,.662,1.146l-9.551,5.514a.654.654,0,0,1-.33.089" transform="translate(-79.228 -43.94)" fill="#64a84d"/>
    <path id="Path_41031" data-name="Path 41031" d="M18.692,150.721h0v-2.8l-6.274,0-2.169-1.252a2.158,2.158,0,0,0-1.942.081l-2.023,1.168-6.279,0v2.878a.564.564,0,0,0,.333.52l8.109,4.682a2.159,2.159,0,0,0,1.942-.08l7.83-4.521a.769.769,0,0,0,.473-.67" transform="translate(-0.002 -87.4)" fill="#4b535b"/>
    <path id="Path_41032" data-name="Path 41032" d="M9.348,146.477a2.238,2.238,0,0,0-1.041.273l-2.023,1.168-6.28,0v2.878a.563.563,0,0,0,.334.52l8.109,4.682a1.756,1.756,0,0,0,.9.193Z" transform="translate(-0.002 -87.402)" fill="#4b535b"/>
    <path id="Path_41033" data-name="Path 41033" d="M.715,150.042H.005v2.878a.562.562,0,0,0,.333.52l.377.218Z" transform="translate(-0.002 -89.529)" fill="#fff"/>
    <path id="Path_41034" data-name="Path 41034" d="M21.25,165.367a2.212,2.212,0,0,0,1.552-.018v-3.267H21.25Z" transform="translate(-12.68 -96.714)" fill="#fff"/>
    <path id="Path_41035" data-name="Path 41035" d="M8.445,147.286.336,142.6c-.5-.287-.435-.789.14-1.121l7.83-4.521a2.158,2.158,0,0,1,1.942-.08l8.109,4.682c.5.287.435.789-.14,1.121l-7.83,4.521a2.158,2.158,0,0,1-1.942.081" transform="translate(0 -81.561)" fill="#707070"/>
    <path id="Path_41036" data-name="Path 41036" d="M18.217,149.674l-7.83,4.521a2.158,2.158,0,0,1-1.942.081L.336,149.593a.755.755,0,0,1-.248-.22.521.521,0,0,0,.248.771l8.109,4.682a2.158,2.158,0,0,0,1.942-.081l7.83-4.521c.446-.258.582-.618.388-.9a1.088,1.088,0,0,1-.388.35" transform="translate(0 -89.101)" fill="#fff"/>
    <path id="Path_41037" data-name="Path 41037" d="M37.977,158.49a.725.725,0,0,1-.327.567c-.181.1-.327.02-.327-.189a.724.724,0,0,1,.327-.567c.181-.1.327-.02.327.189" transform="translate(-22.27 -94.431)" fill="#d4ecff"/>
    <path id="Path_41038" data-name="Path 41038" d="M40.59,156.982a.725.725,0,0,1-.327.567c-.181.1-.327.02-.327-.189a.724.724,0,0,1,.327-.567c.181-.1.327-.02.327.189" transform="translate(-23.829 -93.531)" fill="#d4ecff"/>
    <path id="Path_41039" data-name="Path 41039" d="M43.2,155.473a.725.725,0,0,1-.327.567c-.181.1-.327.02-.327-.189a.724.724,0,0,1,.327-.567c.181-.1.327-.02.327.189" transform="translate(-25.388 -92.631)" fill="#d4ecff"/>
    <path id="Path_41040" data-name="Path 41040" d="M16.282,148.432l-3.795-2.191c-.233-.135-.2-.369.065-.525l3.664-2.115a1.01,1.01,0,0,1,.909-.038l3.795,2.191c.233.134.2.369-.065.524l-3.664,2.116a1.01,1.01,0,0,1-.909.038" transform="translate(-7.357 -85.609)" fill="#64a84d"/>
    <path id="Path_41041" data-name="Path 41041" d="M22.221,150.206l-.525-.3c-.032-.019-.028-.051.009-.073l.507-.292a.139.139,0,0,1,.126-.005l.525.3c.032.019.028.051-.009.073l-.507.293a.14.14,0,0,1-.126.005" transform="translate(-12.933 -89.218)" fill="#71d14e"/>
    <path id="Path_41042" data-name="Path 41042" d="M12.488,146.241l.011.006c.017-.013.034-.025.054-.038l3.664-2.115a1.009,1.009,0,0,1,.909-.038l3.784,2.185c.215-.154.226-.363.011-.487l-3.795-2.191a1.009,1.009,0,0,0-.909.038l-3.664,2.115c-.269.155-.3.39-.065.525" transform="translate(-7.357 -85.609)" fill="#3a6d26"/>
    <path id="Path_41043" data-name="Path 41043" d="M140.448,222.724a.658.658,0,0,1-.33-.089l-9.551-5.514a.662.662,0,1,1,.662-1.146l9.551,5.514a.661.661,0,0,1-.331,1.235" transform="translate(-77.711 -128.819)" fill="#64a84d"/>
    <path id="Path_41044" data-name="Path 41044" d="M92.063,194.79a.654.654,0,0,1-.33-.089l-9.809-5.663a.662.662,0,0,1,.662-1.146l9.809,5.663a.661.661,0,0,1-.331,1.235" transform="translate(-48.686 -112.061)" fill="#64a84d"/>
    <path id="Path_41045" data-name="Path 41045" d="M43.8,166.926a.656.656,0,0,1-.33-.089l-9.551-5.514a.662.662,0,0,1,.662-1.146l9.551,5.514a.662.662,0,0,1-.332,1.235" transform="translate(-20.043 -95.524)" fill="#64a84d"/>
    <path id="Path_41046" data-name="Path 41046" d="M166.042,233.818h0v-2.8l-6.274,0-2.169-1.252a2.158,2.158,0,0,0-1.941.081l-2.023,1.168-6.279,0v2.878a.563.563,0,0,0,.334.52l8.109,4.682a2.159,2.159,0,0,0,1.942-.08l7.83-4.521a.769.769,0,0,0,.473-.67" transform="translate(-87.926 -136.984)" fill="#4b535b"/>
    <path id="Path_41047" data-name="Path 41047" d="M156.7,229.574a2.243,2.243,0,0,0-1.041.273l-2.023,1.168-6.28,0v2.878a.563.563,0,0,0,.334.52l8.109,4.682a1.756,1.756,0,0,0,.9.193Z" transform="translate(-87.926 -136.986)" fill="#4b535b"/>
    <path id="Path_41048" data-name="Path 41048" d="M148.066,233.138h-.711v2.878a.563.563,0,0,0,.334.52l.377.218Z" transform="translate(-87.926 -139.113)" fill="#707070"/>
    <path id="Path_41049" data-name="Path 41049" d="M168.6,248.464a2.211,2.211,0,0,0,1.552-.018v-3.267H168.6Z" transform="translate(-100.603 -146.297)" fill="#707070"/>
    <path id="Path_41050" data-name="Path 41050" d="M155.8,230.383l-8.109-4.682c-.5-.287-.435-.789.14-1.121l7.83-4.521a2.158,2.158,0,0,1,1.941-.08l8.109,4.682c.5.287.435.789-.14,1.121l-7.83,4.521a2.158,2.158,0,0,1-1.942.081" transform="translate(-87.923 -131.145)" fill="#707070"/>
    <path id="Path_41051" data-name="Path 41051" d="M165.568,232.771l-7.83,4.521a2.158,2.158,0,0,1-1.941.081l-8.109-4.682a.755.755,0,0,1-.248-.22.521.521,0,0,0,.248.771l8.109,4.682a2.158,2.158,0,0,0,1.941-.081l7.83-4.521c.446-.258.582-.618.388-.9a1.087,1.087,0,0,1-.388.35" transform="translate(-87.924 -138.685)" fill="#fff"/>
    <path id="Path_41052" data-name="Path 41052" d="M185.328,241.587a.725.725,0,0,1-.327.567c-.181.1-.327.02-.327-.189A.724.724,0,0,1,185,241.4c.181-.1.327-.02.327.189" transform="translate(-110.194 -144.014)" fill="#d4ecff"/>
    <path id="Path_41053" data-name="Path 41053" d="M187.941,240.078a.725.725,0,0,1-.327.567c-.181.1-.327.02-.327-.189a.724.724,0,0,1,.327-.567c.181-.1.327-.02.327.189" transform="translate(-111.753 -143.114)" fill="#d4ecff"/>
    <path id="Path_41054" data-name="Path 41054" d="M190.553,238.57a.725.725,0,0,1-.328.567c-.181.1-.327.02-.327-.189a.725.725,0,0,1,.327-.567c.181-.1.328-.02.328.189" transform="translate(-113.311 -142.214)" fill="#d4ecff"/>
    <path id="Path_41055" data-name="Path 41055" d="M163.632,231.528l-3.795-2.19c-.233-.135-.2-.37.065-.525l3.664-2.115a1.01,1.01,0,0,1,.909-.038l3.795,2.191c.233.134.2.369-.065.525l-3.664,2.116a1.01,1.01,0,0,1-.909.037" transform="translate(-95.281 -135.193)" fill="#64a84d"/>
    <path id="Path_41056" data-name="Path 41056" d="M169.571,233.3l-.525-.3c-.032-.019-.028-.051.009-.073l.507-.292a.14.14,0,0,1,.125-.005l.525.3c.032.019.028.051-.009.073l-.507.293a.141.141,0,0,1-.126.005" transform="translate(-100.856 -138.801)" fill="#71d14e"/>
    <path id="Path_41057" data-name="Path 41057" d="M159.838,229.337l.011.006c.017-.013.034-.025.054-.038l3.664-2.115a1.009,1.009,0,0,1,.909-.038l3.784,2.185c.215-.154.226-.363.011-.487l-3.795-2.191a1.009,1.009,0,0,0-.909.038l-3.664,2.115c-.269.155-.3.39-.065.525" transform="translate(-95.281 -135.193)" fill="#3a6d26"/>
    <path id="Path_41058" data-name="Path 41058" d="M197.494,143.126h0a.14.14,0,0,1-.078-.146l.268-1.973,1.36.661-1.387,1.428a.141.141,0,0,1-.163.029" transform="translate(-117.797 -84.139)" fill="#fff"/>
    <path id="Path_41059" data-name="Path 41059" d="M204.915,125.4a4.118,4.118,0,0,1-3.35-1.631c-.665-.984-.244-1.85.942-1.934a4.117,4.117,0,0,1,3.35,1.631c.665.984.244,1.85-.941,1.934" transform="translate(-120.085 -72.695)" fill="#396caa"/>
    <path id="Path_41060" data-name="Path 41060" d="M215.125,71.392l-5.6-2.725L199.313,90.743l2.432,1.184-2.432-1.184-.079.162a13.731,13.731,0,0,0-1.333,7.2.352.352,0,0,0,.065.319,1.076,1.076,0,0,0,.875.425.352.352,0,0,0,.291-.146l.523-.38a13.727,13.727,0,0,0,3.937-4.443l.459-.827Z" transform="translate(-118.056 -40.973)" fill="#707070"/>
    <path id="Path_41061" data-name="Path 41061" d="M230.865,71.024a4.866,4.866,0,0,1-3.958-1.927c-.786-1.163-.288-2.186,1.112-2.286a4.865,4.865,0,0,1,3.958,1.927c.786,1.163.288,2.187-1.112,2.286" transform="translate(-135.172 -39.862)" fill="#d4ecff"/>
    <path id="Path_41062" data-name="Path 41062" d="M232,68.686a4.866,4.866,0,0,1-3.958-1.927c-.786-1.163-.288-2.186,1.112-2.286a4.866,4.866,0,0,1,3.958,1.927c.786,1.163.288,2.187-1.112,2.286" transform="translate(-135.851 -38.467)" fill="#d4ecff"/>
    <path id="Path_41063" data-name="Path 41063" d="M230.664,71.436a4.866,4.866,0,0,1-3.958-1.927c-.786-1.163-.288-2.186,1.112-2.286a4.866,4.866,0,0,1,3.958,1.927c.786,1.163.288,2.187-1.112,2.286" transform="translate(-135.052 -40.107)" fill="#64a84d"/>
    <path id="Path_41064" data-name="Path 41064" d="M230.3,72.928A4.866,4.866,0,0,1,226.338,71a1.72,1.72,0,0,1-.346-1.285,1.4,1.4,0,0,0,.1,1.785,4.865,4.865,0,0,0,3.958,1.927c.836-.059,1.348-.449,1.459-1a1.739,1.739,0,0,1-1.209.5" transform="translate(-134.684 -41.599)" fill="#fff"/>
    <rect id="Rectangle_18439" data-name="Rectangle 18439" width="1.378" height="6.226" transform="translate(91.39 27.86) rotate(-64.05)" fill="#64a84d"/>
    <path id="Path_41065" data-name="Path 41065" d="M244.119,14.835l-5.6-2.725L227.94,33.847h0l-.063.13.01.005a1.636,1.636,0,0,0,.316,1.407,4.867,4.867,0,0,0,3.959,1.927,1.634,1.634,0,0,0,1.3-.619l.011.005Z" transform="translate(-135.946 -7.226)" fill="#fff"/>
    <path id="Path_41066" data-name="Path 41066" d="M235.65,21.559l-.429-.634a1.419,1.419,0,0,1,.041-1.433l1.159-2.382a1.739,1.739,0,0,1,1.3-.88l1.14-.081a.936.936,0,0,0,.555-.274l.534.044-.369-.542h0a.292.292,0,0,0-.288-.114l-1.14.081a3.625,3.625,0,0,0-2.714,1.833l-1.159,2.382a2.018,2.018,0,0,0-.058,2.039l.429.634a1.418,1.418,0,0,1-.04,1.433l-4.673,9.6a.3.3,0,0,0-.006.306h0l.369.541.148-.5a.939.939,0,0,0,.471-.416l4.673-9.6a2.017,2.017,0,0,0,.057-2.038" transform="translate(-137.176 -9.108)" fill="#4b535b"/>
    <path id="Path_41067" data-name="Path 41067" d="M236.149,22.286a1.419,1.419,0,0,1,.04-1.433l1.159-2.382a1.738,1.738,0,0,1,1.3-.879l1.14-.081a.941.941,0,0,0,.706-.477c.119-.244,0-.427-.275-.408l-1.14.081a3.626,3.626,0,0,0-2.714,1.833l-1.159,2.382a2.017,2.017,0,0,0-.058,2.038l.429.634a1.419,1.419,0,0,1-.04,1.433l-4.673,9.6c-.119.244,0,.427.275.407a.942.942,0,0,0,.706-.477l4.673-9.6a2.018,2.018,0,0,0,.058-2.039Z" transform="translate(-137.73 -9.92)" fill="#707070"/>
    <path id="Path_41068" data-name="Path 41068" d="M258.4,14.467a4.866,4.866,0,0,1-3.958-1.927c-.786-1.163-.288-2.186,1.112-2.286a4.866,4.866,0,0,1,3.958,1.927c.786,1.163.288,2.187-1.112,2.286" transform="translate(-151.599 -6.114)" fill="#d4ecff"/>
    <path id="Path_41069" data-name="Path 41069" d="M259.586,14.84a3.214,3.214,0,0,1-2.416-1.322c-.5-.747-.241-1.366.589-1.383a3.214,3.214,0,0,1,2.416,1.322c.5.747.241,1.366-.589,1.383" transform="translate(-153.299 -7.241)" fill="#4b535b"/>
    <path id="Path_41070" data-name="Path 41070" d="M261.315,6.566,258.9,5.391,261.156.756a1.343,1.343,0,0,1,2.415,1.176Z" transform="translate(-154.485 0)" fill="#707070"/>
    <path id="Path_41071" data-name="Path 41071" d="M260.652,14.382a2.1,2.1,0,0,1-1.708-.831c-.339-.5-.124-.944.48-.986a2.1,2.1,0,0,1,1.708.832c.339.5.124.943-.48.986" transform="translate(-154.415 -7.496)" fill="#707070"/>
    <path id="Path_41072" data-name="Path 41072" d="M140.433,153.953c.033-.019.07-.034.1-.054,3.669-2.118,3.669-5.553,0-7.671a14.685,14.685,0,0,0-13.286,0c-.078.045-.146.095-.221.141a6.149,6.149,0,0,1,1.2.536Z" transform="translate(-75.797 -86.306)" fill="#afafaf"/>
    <path id="Path_41073" data-name="Path 41073" d="M139.543,141.682v-1.727h-.5a6,6,0,0,0-2.254-2.108,14.682,14.682,0,0,0-13.286,0,6,6,0,0,0-2.254,2.108h-.5v1.713h0c-.006,1.393.91,2.787,2.751,3.85a14.682,14.682,0,0,0,13.286,0c1.835-1.059,2.752-2.448,2.752-3.836" transform="translate(-72.053 -81.305)" fill="#64a84d"/>
    <path id="Path_41074" data-name="Path 41074" d="M136.79,141.234a14.685,14.685,0,0,1-13.286,0c-3.669-2.119-3.669-5.553,0-7.671a14.683,14.683,0,0,1,13.286,0c3.669,2.118,3.669,5.553,0,7.671" transform="translate(-72.052 -78.749)" fill="#64a84d"/>
    <path id="Path_41075" data-name="Path 41075" d="M136.8,149.515a14.682,14.682,0,0,1-13.286,0c-1.758-1.015-2.665-2.333-2.738-3.663-.079,1.445.827,2.9,2.738,4.008a14.685,14.685,0,0,0,13.286,0c1.91-1.1,2.817-2.563,2.737-4.008-.073,1.33-.979,2.648-2.737,3.663" transform="translate(-72.066 -87.029)" fill="#fff"/>
    <path id="Path_41076" data-name="Path 41076" d="M132.453,143.415a.422.422,0,0,1-.248-.346l.01-3.534c0-.269.38-.488.847-.487s.845.219.844.489l-.008,2.93,8.5-1.042c.457-.056.905.113,1,.376s-.2.523-.652.579l-9.527,1.166a1.342,1.342,0,0,1-.709-.1l-.065-.034" transform="translate(-78.886 -82.969)" fill="#fff"/>
  </g>
</svg>
