<svg id="Group_36332" data-name="Group 36332" xmlns="http://www.w3.org/2000/svg" xmlns:xlink="http://www.w3.org/1999/xlink" width="136.693" height="97.614" viewBox="0 0 136.693 97.614">
  <defs>
    <clipPath id="clip-path">
      <rect id="Rectangle_18016" data-name="Rectangle 18016" width="136.693" height="97.614" fill="none"/>
    </clipPath>
    <clipPath id="clip-path-3">
      <rect id="Rectangle_18008" data-name="Rectangle 18008" width="81.744" height="47.195" fill="none"/>
    </clipPath>
    <clipPath id="clip-path-4">
      <rect id="Rectangle_18009" data-name="Rectangle 18009" width="47.403" height="28.276" fill="none"/>
    </clipPath>
    <clipPath id="clip-path-6">
      <rect id="Rectangle_18011" data-name="Rectangle 18011" width="39.935" height="42.997" fill="none"/>
    </clipPath>
    <clipPath id="clip-path-7">
      <path id="Path_38431" data-name="Path 38431" d="M223,36.852l-7.019,22.79a1.375,1.375,0,0,0,.569,1.534L247.59,79.1a.8.8,0,0,0,1.2-.513l7.019-22.79a1.375,1.375,0,0,0-.569-1.534L224.2,36.338a.851.851,0,0,0-.427-.12.822.822,0,0,0-.772.634" transform="translate(-215.927 -36.218)" fill="none"/>
    </clipPath>
    <radialGradient id="radial-gradient" cx="-1.075" cy="-0.32" r="2.648" gradientUnits="objectBoundingBox">
      <stop offset="0" stop-color="#e39a65"/>
      <stop offset="0.474" stop-color="#a92ffb"/>
      <stop offset="0.585" stop-color="#891cfa"/>
      <stop offset="0.726" stop-color="#6507fa"/>
      <stop offset="1" stop-color="#3919bb"/>
    </radialGradient>
    <clipPath id="clip-path-9">
      <rect id="Rectangle_18014" data-name="Rectangle 18014" width="22.648" height="13.231" fill="none"/>
    </clipPath>
  </defs>
  <g id="Group_35971" data-name="Group 35971" clip-path="url(#clip-path)">
    <g id="Group_35963" data-name="Group 35963">
      <g id="Group_35962" data-name="Group 35962" clip-path="url(#clip-path)">
        <path id="Path_38272" data-name="Path 38272" d="M370.223,191.532a3.714,3.714,0,0,1-1.858-.5l-6.637-3.832a1.008,1.008,0,0,1,0-1.747l6.636-3.832a3.725,3.725,0,0,1,3.717,0l6.637,3.832a1.009,1.009,0,0,1,0,1.747l-6.637,3.832a3.715,3.715,0,0,1-1.858.5m-1.553-1.026a3.115,3.115,0,0,0,3.105,0l6.637-3.832a.4.4,0,0,0,0-.688l-6.637-3.832a3.116,3.116,0,0,0-3.106,0l-6.636,3.832a.4.4,0,0,0,0,.688Z" transform="translate(-242.529 -121.612)" fill="#64a84d"/>
        <path id="Path_38273" data-name="Path 38273" d="M9,209.885a3.712,3.712,0,0,1-1.858-.5L.5,205.556a1.009,1.009,0,0,1,0-1.747l6.637-3.832a3.725,3.725,0,0,1,3.716,0L17.5,203.81a1.008,1.008,0,0,1,0,1.747l-6.637,3.832a3.715,3.715,0,0,1-1.858.5m0-9.792a3.108,3.108,0,0,0-1.553.415L.81,204.339a.4.4,0,0,0,0,.688l6.637,3.832a3.118,3.118,0,0,0,3.106,0l6.636-3.832a.4.4,0,0,0,0-.688l-6.637-3.832A3.105,3.105,0,0,0,9,200.092" transform="translate(0 -133.934)" fill="#64a84d"/>
        <g id="Group_35952" data-name="Group 35952" transform="translate(28.286 45.742)" opacity="0.6">
          <g id="Group_35951" data-name="Group 35951">
            <g id="Group_35950" data-name="Group 35950" clip-path="url(#clip-path-3)">
              <path id="Path_38274" data-name="Path 38274" d="M134.008,186.133l-47.458-27.4c-.692-.4-.605-1.1.194-1.558L117.2,139.589a3,3,0,0,1,2.7-.112l47.458,27.4c.692.4.6,1.1-.194,1.558l-30.459,17.586a3,3,0,0,1-2.7.112" transform="translate(-86.083 -139.208)" fill="#020230"/>
            </g>
          </g>
        </g>
        <path id="Path_38275" data-name="Path 38275" d="M120.118,182.564a3.03,3.03,0,0,1-1.493-.35h0L64.461,150.942a1.21,1.21,0,0,1-.686-1.037,1.562,1.562,0,0,1,.907-1.271L101.6,127a3.709,3.709,0,0,1,3.387-.129l54.164,31.272a1.21,1.21,0,0,1,.686,1.037,1.562,1.562,0,0,1-.907,1.271l-36.921,21.632a3.874,3.874,0,0,1-1.894.479M103.5,127.138a3.3,3.3,0,0,0-1.594.393L64.989,149.163c-.378.219-.6.5-.6.742a.647.647,0,0,0,.38.508l54.164,31.271h0a3.136,3.136,0,0,0,2.774-.128l36.921-21.632c.378-.219.6-.5.6-.742a.647.647,0,0,0-.38-.507L104.686,127.4a2.424,2.424,0,0,0-1.181-.265" transform="translate(-42.819 -84.95)" fill="#64a84d"/>
        <path id="Path_38276" data-name="Path 38276" d="M249.47,27.476,202.2.184a1.224,1.224,0,0,0-.965-.138h0l-.875.305.308.073a1.525,1.525,0,0,0-.289.541l-10.69,34.709a2.094,2.094,0,0,0,.867,2.336L237.821,65.3a1.393,1.393,0,0,0,.348.142l-.117.255.836-.294h0a1.337,1.337,0,0,0,.761-.884l10.69-34.709a2.094,2.094,0,0,0-.867-2.336" transform="translate(-127.3 0)" fill="#64a84d"/>
        <path id="Path_38277" data-name="Path 38277" d="M166.658,147.089l.017.02-46.692-26.958a2.98,2.98,0,0,0-2.68.111L87.136,137.68,86.13,137.3l.283,1.411h0a.845.845,0,0,0,.453.565l47.123,27.207a2.979,2.979,0,0,0,2.68-.111l30.244-17.462a1.209,1.209,0,0,0,.641-.747l0,0,.288-1.374Z" transform="translate(-57.829 -80.491)" fill="#9b8081"/>
        <path id="Path_38278" data-name="Path 38278" d="M134.008,162.023l-47.458-27.4c-.692-.4-.605-1.1.194-1.558L117.2,115.479a3,3,0,0,1,2.7-.112l47.458,27.4c.692.4.6,1.1-.194,1.558l-30.459,17.586a3,3,0,0,1-2.7.112" transform="translate(-57.797 -77.278)" fill="#f7f5e0"/>
        <path id="Path_38279" data-name="Path 38279" d="M167.182,182.092l-30.459,17.585a3,3,0,0,1-2.7.112l-47.458-27.4a.887.887,0,0,1-.432-.492.74.74,0,0,0,.432.862l47.458,27.4a3,3,0,0,0,2.7-.112l30.459-17.585c.527-.3.737-.71.625-1.066a1.256,1.256,0,0,1-.625.7" transform="translate(-57.813 -115.414)" fill="#fff"/>
        <g id="Group_35955" data-name="Group 35955" transform="translate(49.701 44.2)" opacity="0.4">
          <g id="Group_35954" data-name="Group 35954">
            <g id="Group_35953" data-name="Group 35953" clip-path="url(#clip-path-4)">
              <path id="Path_38280" data-name="Path 38280" d="M152.944,156.128l-1.6-.925c-.129-.074-.113-.2.036-.29l1.891-1.092a.558.558,0,0,1,.5-.021l1.6.925c.128.074.112.2-.036.29l-1.891,1.092a.558.558,0,0,1-.5.021" transform="translate(-151.256 -147.43)" fill="#06033e"/>
              <path id="Path_38281" data-name="Path 38281" d="M160.474,160.477l-1.6-.925c-.129-.074-.113-.2.036-.29l1.891-1.092a.556.556,0,0,1,.5-.021l1.6.925c.128.074.112.2-.036.29l-1.891,1.092a.558.558,0,0,1-.5.021" transform="translate(-156.311 -150.349)" fill="#06033e"/>
              <path id="Path_38282" data-name="Path 38282" d="M168.005,164.824l-1.6-.925c-.129-.074-.113-.2.036-.29l1.891-1.092a.558.558,0,0,1,.5-.021l1.6.925c.128.074.112.2-.036.29l-1.891,1.092a.558.558,0,0,1-.5.021" transform="translate(-161.368 -153.268)" fill="#06033e"/>
              <path id="Path_38283" data-name="Path 38283" d="M178.42,161.592l-1.6-.925c-.129-.074-.113-.2.036-.29l1.587-.916a.558.558,0,0,1,.5-.021l1.6.925c.128.074.112.2-.036.29l-1.588.917a.558.558,0,0,1-.5.021" transform="translate(-168.36 -151.216)" fill="#06033e"/>
              <path id="Path_38284" data-name="Path 38284" d="M185.95,165.939l-1.6-.925c-.129-.074-.113-.2.036-.29l1.588-.916a.558.558,0,0,1,.5-.021l1.6.925c.128.074.112.2-.036.29l-1.588.917a.557.557,0,0,1-.5.021" transform="translate(-173.416 -154.135)" fill="#06033e"/>
              <path id="Path_38285" data-name="Path 38285" d="M193.48,170.287l-1.6-.925c-.129-.074-.113-.2.036-.29l1.588-.917a.558.558,0,0,1,.5-.021l1.6.925c.128.074.112.2-.036.29l-1.588.917a.557.557,0,0,1-.5.021" transform="translate(-178.472 -157.054)" fill="#06033e"/>
              <path id="Path_38286" data-name="Path 38286" d="M201.01,174.635l-1.6-.925c-.129-.074-.113-.2.036-.29l1.588-.917a.557.557,0,0,1,.5-.021l1.6.925c.128.074.112.2-.036.29l-1.588.917a.557.557,0,0,1-.5.021" transform="translate(-183.528 -159.973)" fill="#06033e"/>
              <path id="Path_38287" data-name="Path 38287" d="M208.541,178.982l-1.6-.925c-.129-.074-.113-.2.036-.29l1.588-.917a.558.558,0,0,1,.5-.021l1.6.925c.129.074.112.2-.036.29l-1.588.917a.558.558,0,0,1-.5.021" transform="translate(-188.584 -162.892)" fill="#06033e"/>
              <path id="Path_38288" data-name="Path 38288" d="M216.071,183.33l-1.6-.925c-.129-.074-.113-.2.036-.29l1.587-.917a.558.558,0,0,1,.5-.021l1.6.925c.128.074.112.2-.036.29l-1.587.917a.558.558,0,0,1-.5.021" transform="translate(-193.64 -165.811)" fill="#06033e"/>
              <path id="Path_38289" data-name="Path 38289" d="M223.6,187.678l-1.6-.925c-.129-.074-.113-.2.036-.29l1.587-.917a.558.558,0,0,1,.5-.021l1.6.925c.128.074.112.2-.036.29l-1.588.917a.558.558,0,0,1-.5.021" transform="translate(-198.695 -168.73)" fill="#06033e"/>
              <path id="Path_38290" data-name="Path 38290" d="M231.132,192.025l-1.6-.925c-.129-.074-.112-.2.036-.29l1.587-.917a.558.558,0,0,1,.5-.021l1.6.925c.128.074.112.2-.036.29l-1.587.917a.558.558,0,0,1-.5.021" transform="translate(-203.751 -171.649)" fill="#06033e"/>
              <path id="Path_38291" data-name="Path 38291" d="M238.662,196.373l-1.6-.925c-.129-.074-.113-.2.036-.29l1.587-.917a.558.558,0,0,1,.5-.021l1.6.925c.128.074.112.2-.036.29l-1.588.917a.558.558,0,0,1-.5.021" transform="translate(-208.808 -174.568)" fill="#06033e"/>
              <path id="Path_38292" data-name="Path 38292" d="M246.192,200.72l-1.6-.925c-.129-.074-.113-.2.036-.29l1.588-.917a.558.558,0,0,1,.5-.021l1.6.925c.128.074.112.2-.036.29l-1.588.917a.558.558,0,0,1-.5.021" transform="translate(-213.863 -177.487)" fill="#06033e"/>
              <path id="Path_38293" data-name="Path 38293" d="M189.516,159.534l-1.6-.925c-.129-.074-.112-.2.036-.29l1.587-.917a.558.558,0,0,1,.5-.021l1.6.925c.128.074.112.2-.036.29l-1.587.917a.558.558,0,0,1-.5.021" transform="translate(-175.81 -149.834)" fill="#06033e"/>
              <path id="Path_38294" data-name="Path 38294" d="M181.872,155.121l-1.6-.925c-.129-.074-.113-.2.036-.29l1.587-.917a.558.558,0,0,1,.5-.021l1.6.925c.128.074.112.2-.036.29l-1.588.917a.558.558,0,0,1-.5.021" transform="translate(-170.678 -146.871)" fill="#06033e"/>
              <path id="Path_38295" data-name="Path 38295" d="M170.44,148.52l-3.451-1.992c-.129-.074-.112-.2.036-.29l1.587-.917a.558.558,0,0,1,.5-.021l3.451,1.992c.128.074.112.2-.036.29l-1.588.917a.558.558,0,0,1-.5.021" transform="translate(-161.761 -141.723)" fill="#06033e"/>
              <path id="Path_38296" data-name="Path 38296" d="M177.12,143.912l-2.8-1.617c-.128-.074-.112-.2.036-.289l1.588-.917a.558.558,0,0,1,.5-.021l2.8,1.617c.128.074.112.2-.036.29l-1.587.917a.558.558,0,0,1-.5.021" transform="translate(-166.683 -138.881)" fill="#06033e"/>
              <path id="Path_38297" data-name="Path 38297" d="M197.045,163.881l-1.6-.925c-.129-.074-.113-.2.036-.29l1.587-.917a.558.558,0,0,1,.5-.021l1.6.925c.128.074.112.2-.036.29l-1.588.917a.558.558,0,0,1-.5.021" transform="translate(-180.865 -152.753)" fill="#06033e"/>
              <path id="Path_38298" data-name="Path 38298" d="M204.576,168.229l-1.6-.925c-.129-.074-.113-.2.036-.29l1.587-.917a.558.558,0,0,1,.5-.021l1.6.925c.128.074.112.2-.036.29l-1.588.917a.558.558,0,0,1-.5.021" transform="translate(-185.921 -155.672)" fill="#06033e"/>
              <path id="Path_38299" data-name="Path 38299" d="M212.107,172.576l-1.6-.925c-.129-.074-.113-.2.036-.29l1.587-.916a.556.556,0,0,1,.5-.021l1.6.925c.128.074.112.2-.036.29l-1.588.917a.558.558,0,0,1-.5.021" transform="translate(-190.978 -158.591)" fill="#06033e"/>
              <path id="Path_38300" data-name="Path 38300" d="M219.636,176.924l-1.6-.925c-.129-.074-.113-.2.036-.29l1.588-.916a.557.557,0,0,1,.5-.021l1.6.925c.128.074.112.2-.036.29l-1.588.917a.558.558,0,0,1-.5.021" transform="translate(-196.033 -161.51)" fill="#06033e"/>
              <path id="Path_38301" data-name="Path 38301" d="M227.166,181.272l-1.6-.925c-.129-.074-.113-.2.036-.29l1.587-.917a.557.557,0,0,1,.5-.021l1.6.925c.128.074.112.2-.036.29l-1.588.917a.558.558,0,0,1-.5.021" transform="translate(-201.089 -164.429)" fill="#06033e"/>
              <path id="Path_38302" data-name="Path 38302" d="M234.7,185.619l-1.6-.925c-.129-.074-.113-.2.036-.29l1.588-.916a.558.558,0,0,1,.5-.021l1.6.925c.129.074.112.2-.036.29l-1.588.917a.558.558,0,0,1-.5.021" transform="translate(-206.145 -167.348)" fill="#06033e"/>
              <path id="Path_38303" data-name="Path 38303" d="M242.227,189.967l-1.6-.925c-.129-.074-.113-.2.036-.29l1.588-.916a.558.558,0,0,1,.5-.021l1.6.925c.128.074.112.2-.036.29l-1.588.917a.558.558,0,0,1-.5.021" transform="translate(-211.201 -170.267)" fill="#06033e"/>
              <path id="Path_38304" data-name="Path 38304" d="M249.757,194.314l-1.6-.925c-.129-.074-.113-.2.036-.29l1.587-.917a.558.558,0,0,1,.5-.021l1.6.925c.128.074.112.2-.036.29l-1.588.917a.558.558,0,0,1-.5.021" transform="translate(-216.257 -173.186)" fill="#06033e"/>
              <path id="Path_38305" data-name="Path 38305" d="M257.287,198.662l-1.6-.925c-.129-.074-.113-.2.036-.29l1.587-.917a.558.558,0,0,1,.5-.021l1.6.925c.128.074.112.2-.036.29l-1.588.917a.558.558,0,0,1-.5.021" transform="translate(-221.313 -176.105)" fill="#06033e"/>
              <path id="Path_38306" data-name="Path 38306" d="M266.805,204.157l-3.5-2.019c-.129-.074-.113-.2.036-.289l1.588-.917a.558.558,0,0,1,.5-.021l3.5,2.018c.128.074.112.2-.036.29l-1.588.917a.558.558,0,0,1-.5.021" transform="translate(-226.431 -179.061)" fill="#06033e"/>
              <path id="Path_38307" data-name="Path 38307" d="M282.58,196.336l-2.951-1.7c-.129-.074-.112-.2.036-.289l1.587-.917a.558.558,0,0,1,.5-.021l2.951,1.7c.128.074.112.2-.036.29l-1.588.917a.558.558,0,0,1-.5.021" transform="translate(-237.389 -174.021)" fill="#06033e"/>
              <path id="Path_38308" data-name="Path 38308" d="M210.232,163.031l-1.6-.925c-.129-.074-.113-.2.036-.29l1.587-.917a.558.558,0,0,1,.5-.021l1.6.925c.128.074.112.2-.036.29l-1.587.917a.558.558,0,0,1-.5.021" transform="translate(-189.719 -152.182)" fill="#06033e"/>
              <path id="Path_38309" data-name="Path 38309" d="M202.516,158.575l-1.6-.925c-.129-.074-.112-.2.036-.29l1.587-.917a.558.558,0,0,1,.5-.021l1.6.925c.128.074.112.2-.036.29l-1.587.917a.558.558,0,0,1-.5.021" transform="translate(-184.538 -149.19)" fill="#06033e"/>
              <path id="Path_38310" data-name="Path 38310" d="M194.8,154.119l-1.6-.925c-.129-.074-.113-.2.036-.29l1.588-.917a.558.558,0,0,1,.5-.021l1.6.925c.128.074.112.2-.036.29l-1.588.917a.558.558,0,0,1-.5.021" transform="translate(-179.356 -146.198)" fill="#06033e"/>
              <path id="Path_38311" data-name="Path 38311" d="M187.08,149.663l-1.6-.925c-.129-.074-.113-.2.036-.29l1.588-.917a.558.558,0,0,1,.5-.021l1.6.925c.128.074.112.2-.036.29l-1.588.917a.558.558,0,0,1-.5.021" transform="translate(-174.175 -143.207)" fill="#06033e"/>
              <path id="Path_38312" data-name="Path 38312" d="M217.763,167.378l-1.6-.925c-.129-.074-.113-.2.036-.29l1.588-.917a.558.558,0,0,1,.5-.021l1.6.925c.128.074.112.2-.036.29l-1.588.917a.558.558,0,0,1-.5.021" transform="translate(-194.776 -155.101)" fill="#06033e"/>
              <path id="Path_38313" data-name="Path 38313" d="M225.293,171.726l-1.6-.925c-.129-.074-.113-.2.036-.29l1.587-.917a.558.558,0,0,1,.5-.021l1.6.925c.128.074.112.2-.036.29l-1.588.917a.558.558,0,0,1-.5.021" transform="translate(-199.832 -158.02)" fill="#06033e"/>
              <path id="Path_38314" data-name="Path 38314" d="M232.823,176.073l-1.6-.925c-.129-.074-.113-.2.036-.29l1.588-.917a.558.558,0,0,1,.5-.021l1.6.925c.128.074.112.2-.036.29l-1.588.917a.558.558,0,0,1-.5.021" transform="translate(-204.887 -160.939)" fill="#06033e"/>
              <path id="Path_38315" data-name="Path 38315" d="M240.353,180.421l-1.6-.925c-.129-.074-.113-.2.036-.29l1.587-.917a.558.558,0,0,1,.5-.021l1.6.925c.129.074.112.2-.036.29l-1.587.917a.558.558,0,0,1-.5.021" transform="translate(-209.943 -163.858)" fill="#06033e"/>
              <path id="Path_38316" data-name="Path 38316" d="M247.884,184.769l-1.6-.925c-.129-.074-.113-.2.036-.29l1.587-.917a.558.558,0,0,1,.5-.021l1.6.925c.128.074.112.2-.036.29l-1.588.917a.558.558,0,0,1-.5.021" transform="translate(-214.999 -166.777)" fill="#06033e"/>
              <path id="Path_38317" data-name="Path 38317" d="M255.414,189.116l-1.6-.925c-.129-.074-.113-.2.036-.29l1.588-.917a.558.558,0,0,1,.5-.021l1.6.925c.129.074.112.2-.036.29l-1.588.917a.558.558,0,0,1-.5.021" transform="translate(-220.055 -169.696)" fill="#06033e"/>
              <path id="Path_38318" data-name="Path 38318" d="M262.944,193.464l-1.6-.925c-.129-.074-.113-.2.036-.29l1.587-.917a.558.558,0,0,1,.5-.021l1.6.925c.128.074.112.2-.036.29l-1.587.917a.558.558,0,0,1-.5.021" transform="translate(-225.111 -172.615)" fill="#06033e"/>
              <path id="Path_38319" data-name="Path 38319" d="M270.475,197.811l-1.6-.925c-.129-.074-.113-.2.036-.29l1.587-.917a.558.558,0,0,1,.5-.021l1.6.925c.128.074.112.2-.036.29l-1.588.917a.557.557,0,0,1-.5.021" transform="translate(-230.167 -175.534)" fill="#06033e"/>
              <path id="Path_38320" data-name="Path 38320" d="M278.005,202.159l-1.6-.925c-.129-.074-.113-.2.036-.29l1.588-.917a.558.558,0,0,1,.5-.021l1.6.925c.128.074.112.2-.036.29l-1.588.917a.558.558,0,0,1-.5.021" transform="translate(-235.223 -178.453)" fill="#06033e"/>
              <path id="Path_38321" data-name="Path 38321" d="M206.267,152.277l-1.6-.925c-.129-.074-.113-.2.036-.29l1.587-.917a.557.557,0,0,1,.5-.021l1.6.925c.128.074.112.2-.036.29l-1.588.917a.558.558,0,0,1-.5.021" transform="translate(-187.057 -144.962)" fill="#06033e"/>
              <path id="Path_38322" data-name="Path 38322" d="M198.774,147.951l-1.6-.925c-.129-.074-.113-.2.036-.29l1.587-.917a.558.558,0,0,1,.5-.021l1.6.925c.128.074.112.2-.036.29l-1.588.917a.558.558,0,0,1-.5.021" transform="translate(-182.026 -142.057)" fill="#06033e"/>
              <path id="Path_38323" data-name="Path 38323" d="M191.282,143.625l-1.6-.925c-.129-.074-.113-.2.036-.29l1.587-.917a.558.558,0,0,1,.5-.021l1.6.925c.128.074.112.2-.036.29l-1.588.917a.558.558,0,0,1-.5.021" transform="translate(-176.996 -139.153)" fill="#06033e"/>
              <path id="Path_38324" data-name="Path 38324" d="M183.789,139.3l-1.6-.925c-.129-.074-.113-.2.036-.29l1.588-.916a.556.556,0,0,1,.5-.021l1.6.925c.129.074.113.2-.036.29l-1.588.917a.558.558,0,0,1-.5.021" transform="translate(-171.965 -136.248)" fill="#06033e"/>
              <path id="Path_38325" data-name="Path 38325" d="M191.494,136.1l-1.6-.925c-.129-.074-.113-.2.036-.29l.525-.3a.558.558,0,0,1,.5-.021l1.6.925c.129.074.113.2-.036.29l-.525.3a.558.558,0,0,1-.5.021" transform="translate(-177.138 -134.515)" fill="#06033e"/>
              <path id="Path_38326" data-name="Path 38326" d="M201.272,141.75l-1.6-.925c-.129-.074-.113-.2.036-.29l.525-.3a.558.558,0,0,1,.5-.021l1.6.925c.129.074.113.2-.036.29l-.525.3a.558.558,0,0,1-.5.021" transform="translate(-183.704 -138.306)" fill="#06033e"/>
              <path id="Path_38327" data-name="Path 38327" d="M208.733,146.058l-1.6-.925c-.129-.074-.113-.2.036-.29l.525-.3a.558.558,0,0,1,.5-.021l1.6.925c.129.074.113.2-.036.289l-.525.3a.558.558,0,0,1-.5.021" transform="translate(-188.713 -141.198)" fill="#06033e"/>
              <path id="Path_38328" data-name="Path 38328" d="M216.2,150.366l-1.6-.925c-.129-.074-.113-.2.036-.29l.525-.3a.558.558,0,0,1,.5-.021l1.6.925c.129.074.113.2-.036.29l-.525.3a.558.558,0,0,1-.5.021" transform="translate(-193.723 -144.091)" fill="#06033e"/>
              <path id="Path_38329" data-name="Path 38329" d="M223.657,154.674l-1.6-.925c-.129-.074-.113-.2.036-.29l.525-.3a.558.558,0,0,1,.5-.021l1.6.925c.129.074.113.2-.035.29l-.525.3a.557.557,0,0,1-.5.021" transform="translate(-198.732 -146.983)" fill="#06033e"/>
              <path id="Path_38330" data-name="Path 38330" d="M265.313,178.725l-1.6-.925c-.129-.074-.113-.2.036-.29l.525-.3a.558.558,0,0,1,.5-.021l1.6.925c.129.074.113.2-.036.29l-.525.3a.558.558,0,0,1-.5.021" transform="translate(-226.701 -163.131)" fill="#06033e"/>
              <path id="Path_38331" data-name="Path 38331" d="M272.775,183.032l-1.6-.925c-.129-.074-.113-.2.036-.29l.525-.3a.558.558,0,0,1,.5-.021l1.6.925c.129.074.113.2-.036.29l-.525.3a.558.558,0,0,1-.5.021" transform="translate(-231.711 -166.023)" fill="#06033e"/>
              <path id="Path_38332" data-name="Path 38332" d="M280.237,187.34l-1.6-.925c-.129-.074-.113-.2.035-.29l.525-.3a.557.557,0,0,1,.5-.021l1.6.925c.129.074.113.2-.035.289l-.525.3a.557.557,0,0,1-.5.021" transform="translate(-236.721 -168.915)" fill="#06033e"/>
              <path id="Path_38333" data-name="Path 38333" d="M287.7,191.648l-1.6-.925c-.129-.074-.113-.2.036-.29l.525-.3a.558.558,0,0,1,.5-.021l1.6.925c.129.074.113.2-.036.29l-.525.3a.557.557,0,0,1-.5.021" transform="translate(-241.731 -171.808)" fill="#06033e"/>
              <path id="Path_38334" data-name="Path 38334" d="M213.8,156.625l-1.6-.925c-.129-.074-.112-.2.036-.29l1.587-.917a.558.558,0,0,1,.5-.021l1.6.925c.128.074.112.2-.036.29l-1.587.917a.558.558,0,0,1-.5.021" transform="translate(-192.113 -147.881)" fill="#06033e"/>
              <path id="Path_38335" data-name="Path 38335" d="M221.328,160.972l-1.6-.925c-.129-.074-.113-.2.036-.29l1.587-.917a.558.558,0,0,1,.5-.021l1.6.925c.128.074.112.2-.036.29l-1.588.917a.558.558,0,0,1-.5.021" transform="translate(-197.169 -150.8)" fill="#06033e"/>
              <path id="Path_38336" data-name="Path 38336" d="M228.858,165.32l-1.6-.925c-.129-.074-.113-.2.036-.29l1.588-.917a.558.558,0,0,1,.5-.021l1.6.925c.128.074.112.2-.036.29l-1.588.917a.558.558,0,0,1-.5.021" transform="translate(-202.225 -153.719)" fill="#06033e"/>
              <path id="Path_38337" data-name="Path 38337" d="M236.388,169.667l-1.6-.925c-.129-.074-.113-.2.036-.29l1.587-.917a.558.558,0,0,1,.5-.021l1.6.925c.128.074.112.2-.036.29l-1.588.917a.557.557,0,0,1-.5.021" transform="translate(-207.281 -156.638)" fill="#06033e"/>
              <path id="Path_38338" data-name="Path 38338" d="M243.918,174.015l-1.6-.925c-.129-.074-.113-.2.036-.29l1.588-.917a.558.558,0,0,1,.5-.021l1.6.925c.128.074.112.2-.036.29l-1.588.917a.558.558,0,0,1-.5.021" transform="translate(-212.336 -159.557)" fill="#06033e"/>
              <path id="Path_38339" data-name="Path 38339" d="M251.449,178.363l-1.6-.925c-.129-.074-.113-.2.036-.29l1.588-.917a.557.557,0,0,1,.5-.021l1.6.925c.128.074.112.2-.036.29l-1.588.917a.558.558,0,0,1-.5.021" transform="translate(-217.393 -162.476)" fill="#06033e"/>
              <path id="Path_38340" data-name="Path 38340" d="M258.979,182.71l-1.6-.925c-.129-.074-.113-.2.036-.29l1.588-.917a.558.558,0,0,1,.5-.021l1.6.925c.128.074.112.2-.036.29l-1.588.917a.558.558,0,0,1-.5.021" transform="translate(-222.449 -165.395)" fill="#06033e"/>
              <path id="Path_38341" data-name="Path 38341" d="M266.509,187.058l-1.6-.925c-.129-.074-.113-.2.036-.29l1.588-.917a.558.558,0,0,1,.5-.021l1.6.925c.128.074.112.2-.036.29l-1.588.917a.557.557,0,0,1-.5.021" transform="translate(-227.504 -168.314)" fill="#06033e"/>
              <path id="Path_38342" data-name="Path 38342" d="M274.04,191.4l-1.6-.925c-.129-.074-.113-.2.036-.29l1.588-.917a.558.558,0,0,1,.5-.021l1.6.925c.129.074.112.2-.036.29l-1.588.917a.558.558,0,0,1-.5.021" transform="translate(-232.561 -171.233)" fill="#06033e"/>
              <path id="Path_38343" data-name="Path 38343" d="M164.379,153.484l-4.719-2.724c-.128-.074-.112-.2.036-.29l1.587-.916a.558.558,0,0,1,.5-.021l4.719,2.724c.128.074.112.2-.036.29l-1.588.917a.558.558,0,0,1-.5.021" transform="translate(-156.84 -144.564)" fill="#06033e"/>
              <path id="Path_38344" data-name="Path 38344" d="M256.89,206.9l-4.719-2.724c-.128-.074-.112-.2.036-.29l1.587-.917a.558.558,0,0,1,.5-.021l4.719,2.724c.128.074.112.2-.036.29l-1.588.917a.558.558,0,0,1-.5.021" transform="translate(-218.953 -180.426)" fill="#06033e"/>
              <path id="Path_38345" data-name="Path 38345" d="M233.142,202.431l-1.6-.925c-.129-.074-.113-.2.036-.29l1.891-1.092a.557.557,0,0,1,.5-.021l1.6.925c.128.074.112.2-.036.29l-1.891,1.092a.557.557,0,0,1-.5.021" transform="translate(-205.101 -178.518)" fill="#06033e"/>
              <path id="Path_38346" data-name="Path 38346" d="M176.5,169.726l-2.562-1.479c-.129-.074-.113-.2.036-.29l1.891-1.092a.558.558,0,0,1,.5-.021l2.563,1.48c.128.074.112.2-.036.29L177,169.705a.558.558,0,0,1-.5.021" transform="translate(-166.423 -156.187)" fill="#06033e"/>
              <path id="Path_38347" data-name="Path 38347" d="M223.926,197.109l-2.562-1.479c-.129-.074-.113-.2.036-.29l1.891-1.092a.558.558,0,0,1,.5-.021l2.563,1.48c.128.074.112.2-.036.29l-1.891,1.092a.558.558,0,0,1-.5.021" transform="translate(-198.268 -174.573)" fill="#06033e"/>
              <path id="Path_38348" data-name="Path 38348" d="M187.361,176,184.8,174.52c-.129-.075-.113-.2.036-.29l1.891-1.092a.558.558,0,0,1,.5-.021l2.563,1.48c.128.074.112.2-.036.29l-1.891,1.092a.558.558,0,0,1-.5.021" transform="translate(-173.718 -160.399)" fill="#06033e"/>
              <path id="Path_38349" data-name="Path 38349" d="M187.457,173.25l11.141,6.432a.153.153,0,0,1,0,.289l-1.928,1.113a.553.553,0,0,1-.5,0l-11.141-6.432Z" transform="translate(-173.931 -160.522)" fill="#06033e"/>
              <path id="Path_38350" data-name="Path 38350" d="M255.013,215.088l1.785,1.03c.105.061.092.167-.03.238l-.774.447a.457.457,0,0,1-.411.017l-1.785-1.03c-.105-.061-.092-.167.03-.238l.773-.447a.457.457,0,0,1,.411-.017" transform="translate(-220.056 -188.585)" fill="#06033e"/>
              <path id="Path_38351" data-name="Path 38351" d="M247.42,210.7l1.785,1.03c.105.061.092.167-.03.238l-.774.447a.457.457,0,0,1-.411.017l-1.785-1.03c-.105-.061-.092-.167.03-.238l.773-.447a.458.458,0,0,1,.411-.017" transform="translate(-214.958 -185.642)" fill="#06033e"/>
              <path id="Path_38352" data-name="Path 38352" d="M239.89,206.357l1.785,1.03c.105.061.092.167-.03.238l-.774.447a.457.457,0,0,1-.411.017l-1.785-1.03c-.105-.061-.092-.167.03-.238l.773-.447a.458.458,0,0,1,.411-.017" transform="translate(-209.903 -182.723)" fill="#06033e"/>
              <path id="Path_38353" data-name="Path 38353" d="M251.579,208.3l1.785,1.03c.105.061.092.167-.029.238l-.774.447a.458.458,0,0,1-.411.017l-1.785-1.03c-.105-.061-.092-.167.029-.238l.774-.447a.457.457,0,0,1,.411-.017" transform="translate(-217.751 -184.03)" fill="#06033e"/>
            </g>
          </g>
        </g>
        <g id="Group_35958" data-name="Group 35958" transform="translate(49.701 44.2)" opacity="0.4">
          <g id="Group_35957" data-name="Group 35957">
            <g id="Group_35956" data-name="Group 35956" clip-path="url(#clip-path-4)">
              <path id="Path_38354" data-name="Path 38354" d="M152.944,156.128l-1.6-.925c-.129-.074-.113-.2.036-.29l1.891-1.092a.558.558,0,0,1,.5-.021l1.6.925c.128.074.112.2-.036.29l-1.891,1.092a.558.558,0,0,1-.5.021" transform="translate(-151.256 -147.43)" fill="#06033e"/>
              <path id="Path_38355" data-name="Path 38355" d="M160.474,160.477l-1.6-.925c-.129-.074-.113-.2.036-.29l1.891-1.092a.556.556,0,0,1,.5-.021l1.6.925c.128.074.112.2-.036.29l-1.891,1.092a.558.558,0,0,1-.5.021" transform="translate(-156.311 -150.349)" fill="#06033e"/>
              <path id="Path_38356" data-name="Path 38356" d="M168.005,164.824l-1.6-.925c-.129-.074-.113-.2.036-.29l1.891-1.092a.558.558,0,0,1,.5-.021l1.6.925c.128.074.112.2-.036.29l-1.891,1.092a.558.558,0,0,1-.5.021" transform="translate(-161.368 -153.268)" fill="#06033e"/>
              <path id="Path_38357" data-name="Path 38357" d="M178.42,161.592l-1.6-.925c-.129-.074-.113-.2.036-.29l1.587-.916a.558.558,0,0,1,.5-.021l1.6.925c.128.074.112.2-.036.29l-1.588.917a.558.558,0,0,1-.5.021" transform="translate(-168.36 -151.216)" fill="#06033e"/>
              <path id="Path_38358" data-name="Path 38358" d="M185.95,165.939l-1.6-.925c-.129-.074-.113-.2.036-.29l1.588-.916a.558.558,0,0,1,.5-.021l1.6.925c.128.074.112.2-.036.29l-1.588.917a.557.557,0,0,1-.5.021" transform="translate(-173.416 -154.135)" fill="#06033e"/>
              <path id="Path_38359" data-name="Path 38359" d="M193.48,170.287l-1.6-.925c-.129-.074-.113-.2.036-.29l1.588-.917a.558.558,0,0,1,.5-.021l1.6.925c.128.074.112.2-.036.29l-1.588.917a.557.557,0,0,1-.5.021" transform="translate(-178.472 -157.054)" fill="#06033e"/>
              <path id="Path_38360" data-name="Path 38360" d="M201.01,174.635l-1.6-.925c-.129-.074-.113-.2.036-.29l1.588-.917a.557.557,0,0,1,.5-.021l1.6.925c.128.074.112.2-.036.29l-1.588.917a.557.557,0,0,1-.5.021" transform="translate(-183.528 -159.973)" fill="#06033e"/>
              <path id="Path_38361" data-name="Path 38361" d="M208.541,178.982l-1.6-.925c-.129-.074-.113-.2.036-.29l1.588-.917a.558.558,0,0,1,.5-.021l1.6.925c.129.074.112.2-.036.29l-1.588.917a.558.558,0,0,1-.5.021" transform="translate(-188.584 -162.892)" fill="#06033e"/>
              <path id="Path_38362" data-name="Path 38362" d="M216.071,183.33l-1.6-.925c-.129-.074-.113-.2.036-.29l1.587-.917a.558.558,0,0,1,.5-.021l1.6.925c.128.074.112.2-.036.29l-1.587.917a.558.558,0,0,1-.5.021" transform="translate(-193.64 -165.811)" fill="#06033e"/>
              <path id="Path_38363" data-name="Path 38363" d="M223.6,187.678l-1.6-.925c-.129-.074-.113-.2.036-.29l1.587-.917a.558.558,0,0,1,.5-.021l1.6.925c.128.074.112.2-.036.29l-1.588.917a.558.558,0,0,1-.5.021" transform="translate(-198.695 -168.73)" fill="#06033e"/>
              <path id="Path_38364" data-name="Path 38364" d="M231.132,192.025l-1.6-.925c-.129-.074-.112-.2.036-.29l1.587-.917a.558.558,0,0,1,.5-.021l1.6.925c.128.074.112.2-.036.29l-1.587.917a.558.558,0,0,1-.5.021" transform="translate(-203.751 -171.649)" fill="#06033e"/>
              <path id="Path_38365" data-name="Path 38365" d="M238.662,196.373l-1.6-.925c-.129-.074-.113-.2.036-.29l1.587-.917a.558.558,0,0,1,.5-.021l1.6.925c.128.074.112.2-.036.29l-1.588.917a.558.558,0,0,1-.5.021" transform="translate(-208.808 -174.568)" fill="#06033e"/>
              <path id="Path_38366" data-name="Path 38366" d="M246.192,200.72l-1.6-.925c-.129-.074-.113-.2.036-.29l1.588-.917a.558.558,0,0,1,.5-.021l1.6.925c.128.074.112.2-.036.29l-1.588.917a.558.558,0,0,1-.5.021" transform="translate(-213.863 -177.487)" fill="#06033e"/>
              <path id="Path_38367" data-name="Path 38367" d="M189.516,159.534l-1.6-.925c-.129-.074-.112-.2.036-.29l1.587-.917a.558.558,0,0,1,.5-.021l1.6.925c.128.074.112.2-.036.29l-1.587.917a.558.558,0,0,1-.5.021" transform="translate(-175.81 -149.834)" fill="#06033e"/>
              <path id="Path_38368" data-name="Path 38368" d="M181.872,155.121l-1.6-.925c-.129-.074-.113-.2.036-.29l1.587-.917a.558.558,0,0,1,.5-.021l1.6.925c.128.074.112.2-.036.29l-1.588.917a.558.558,0,0,1-.5.021" transform="translate(-170.678 -146.871)" fill="#06033e"/>
              <path id="Path_38369" data-name="Path 38369" d="M170.44,148.52l-3.451-1.992c-.129-.074-.112-.2.036-.29l1.587-.917a.558.558,0,0,1,.5-.021l3.451,1.992c.128.074.112.2-.036.29l-1.588.917a.558.558,0,0,1-.5.021" transform="translate(-161.761 -141.723)" fill="#06033e"/>
              <path id="Path_38370" data-name="Path 38370" d="M177.12,143.912l-2.8-1.617c-.128-.074-.112-.2.036-.289l1.588-.917a.558.558,0,0,1,.5-.021l2.8,1.617c.128.074.112.2-.036.29l-1.587.917a.558.558,0,0,1-.5.021" transform="translate(-166.683 -138.881)" fill="#06033e"/>
              <path id="Path_38371" data-name="Path 38371" d="M197.045,163.881l-1.6-.925c-.129-.074-.113-.2.036-.29l1.587-.917a.558.558,0,0,1,.5-.021l1.6.925c.128.074.112.2-.036.29l-1.588.917a.558.558,0,0,1-.5.021" transform="translate(-180.865 -152.753)" fill="#06033e"/>
              <path id="Path_38372" data-name="Path 38372" d="M204.576,168.229l-1.6-.925c-.129-.074-.113-.2.036-.29l1.587-.917a.558.558,0,0,1,.5-.021l1.6.925c.128.074.112.2-.036.29l-1.588.917a.558.558,0,0,1-.5.021" transform="translate(-185.921 -155.672)" fill="#06033e"/>
              <path id="Path_38373" data-name="Path 38373" d="M212.107,172.576l-1.6-.925c-.129-.074-.113-.2.036-.29l1.587-.916a.556.556,0,0,1,.5-.021l1.6.925c.128.074.112.2-.036.29l-1.588.917a.558.558,0,0,1-.5.021" transform="translate(-190.978 -158.591)" fill="#06033e"/>
              <path id="Path_38374" data-name="Path 38374" d="M219.636,176.924l-1.6-.925c-.129-.074-.113-.2.036-.29l1.588-.916a.557.557,0,0,1,.5-.021l1.6.925c.128.074.112.2-.036.29l-1.588.917a.558.558,0,0,1-.5.021" transform="translate(-196.033 -161.51)" fill="#06033e"/>
              <path id="Path_38375" data-name="Path 38375" d="M227.166,181.272l-1.6-.925c-.129-.074-.113-.2.036-.29l1.587-.917a.557.557,0,0,1,.5-.021l1.6.925c.128.074.112.2-.036.29l-1.588.917a.558.558,0,0,1-.5.021" transform="translate(-201.089 -164.429)" fill="#06033e"/>
              <path id="Path_38376" data-name="Path 38376" d="M234.7,185.619l-1.6-.925c-.129-.074-.113-.2.036-.29l1.588-.916a.558.558,0,0,1,.5-.021l1.6.925c.129.074.112.2-.036.29l-1.588.917a.558.558,0,0,1-.5.021" transform="translate(-206.145 -167.348)" fill="#06033e"/>
              <path id="Path_38377" data-name="Path 38377" d="M242.227,189.967l-1.6-.925c-.129-.074-.113-.2.036-.29l1.588-.916a.558.558,0,0,1,.5-.021l1.6.925c.128.074.112.2-.036.29l-1.588.917a.558.558,0,0,1-.5.021" transform="translate(-211.201 -170.267)" fill="#06033e"/>
              <path id="Path_38378" data-name="Path 38378" d="M249.757,194.314l-1.6-.925c-.129-.074-.113-.2.036-.29l1.587-.917a.558.558,0,0,1,.5-.021l1.6.925c.128.074.112.2-.036.29l-1.588.917a.558.558,0,0,1-.5.021" transform="translate(-216.257 -173.186)" fill="#06033e"/>
              <path id="Path_38379" data-name="Path 38379" d="M257.287,198.662l-1.6-.925c-.129-.074-.113-.2.036-.29l1.587-.917a.558.558,0,0,1,.5-.021l1.6.925c.128.074.112.2-.036.29l-1.588.917a.558.558,0,0,1-.5.021" transform="translate(-221.313 -176.105)" fill="#06033e"/>
              <path id="Path_38380" data-name="Path 38380" d="M266.805,204.157l-3.5-2.019c-.129-.074-.113-.2.036-.289l1.588-.917a.558.558,0,0,1,.5-.021l3.5,2.018c.128.074.112.2-.036.29l-1.588.917a.558.558,0,0,1-.5.021" transform="translate(-226.431 -179.061)" fill="#06033e"/>
              <path id="Path_38381" data-name="Path 38381" d="M282.58,196.336l-2.951-1.7c-.129-.074-.112-.2.036-.289l1.587-.917a.558.558,0,0,1,.5-.021l2.951,1.7c.128.074.112.2-.036.29l-1.588.917a.558.558,0,0,1-.5.021" transform="translate(-237.389 -174.021)" fill="#06033e"/>
              <path id="Path_38382" data-name="Path 38382" d="M210.232,163.031l-1.6-.925c-.129-.074-.113-.2.036-.29l1.587-.917a.558.558,0,0,1,.5-.021l1.6.925c.128.074.112.2-.036.29l-1.587.917a.558.558,0,0,1-.5.021" transform="translate(-189.719 -152.182)" fill="#06033e"/>
              <path id="Path_38383" data-name="Path 38383" d="M202.516,158.575l-1.6-.925c-.129-.074-.112-.2.036-.29l1.587-.917a.558.558,0,0,1,.5-.021l1.6.925c.128.074.112.2-.036.29l-1.587.917a.558.558,0,0,1-.5.021" transform="translate(-184.538 -149.19)" fill="#06033e"/>
              <path id="Path_38384" data-name="Path 38384" d="M194.8,154.119l-1.6-.925c-.129-.074-.113-.2.036-.29l1.588-.917a.558.558,0,0,1,.5-.021l1.6.925c.128.074.112.2-.036.29l-1.588.917a.558.558,0,0,1-.5.021" transform="translate(-179.356 -146.198)" fill="#06033e"/>
              <path id="Path_38385" data-name="Path 38385" d="M187.08,149.663l-1.6-.925c-.129-.074-.113-.2.036-.29l1.588-.917a.558.558,0,0,1,.5-.021l1.6.925c.128.074.112.2-.036.29l-1.588.917a.558.558,0,0,1-.5.021" transform="translate(-174.175 -143.207)" fill="#06033e"/>
              <path id="Path_38386" data-name="Path 38386" d="M217.763,167.378l-1.6-.925c-.129-.074-.113-.2.036-.29l1.588-.917a.558.558,0,0,1,.5-.021l1.6.925c.128.074.112.2-.036.29l-1.588.917a.558.558,0,0,1-.5.021" transform="translate(-194.776 -155.101)" fill="#06033e"/>
              <path id="Path_38387" data-name="Path 38387" d="M225.293,171.726l-1.6-.925c-.129-.074-.113-.2.036-.29l1.587-.917a.558.558,0,0,1,.5-.021l1.6.925c.128.074.112.2-.036.29l-1.588.917a.558.558,0,0,1-.5.021" transform="translate(-199.832 -158.02)" fill="#06033e"/>
              <path id="Path_38388" data-name="Path 38388" d="M232.823,176.073l-1.6-.925c-.129-.074-.113-.2.036-.29l1.588-.917a.558.558,0,0,1,.5-.021l1.6.925c.128.074.112.2-.036.29l-1.588.917a.558.558,0,0,1-.5.021" transform="translate(-204.887 -160.939)" fill="#06033e"/>
              <path id="Path_38389" data-name="Path 38389" d="M240.353,180.421l-1.6-.925c-.129-.074-.113-.2.036-.29l1.587-.917a.558.558,0,0,1,.5-.021l1.6.925c.129.074.112.2-.036.29l-1.587.917a.558.558,0,0,1-.5.021" transform="translate(-209.943 -163.858)" fill="#06033e"/>
              <path id="Path_38390" data-name="Path 38390" d="M247.884,184.769l-1.6-.925c-.129-.074-.113-.2.036-.29l1.587-.917a.558.558,0,0,1,.5-.021l1.6.925c.128.074.112.2-.036.29l-1.588.917a.558.558,0,0,1-.5.021" transform="translate(-214.999 -166.777)" fill="#06033e"/>
              <path id="Path_38391" data-name="Path 38391" d="M255.414,189.116l-1.6-.925c-.129-.074-.113-.2.036-.29l1.588-.917a.558.558,0,0,1,.5-.021l1.6.925c.129.074.112.2-.036.29l-1.588.917a.558.558,0,0,1-.5.021" transform="translate(-220.055 -169.696)" fill="#06033e"/>
              <path id="Path_38392" data-name="Path 38392" d="M262.944,193.464l-1.6-.925c-.129-.074-.113-.2.036-.29l1.587-.917a.558.558,0,0,1,.5-.021l1.6.925c.128.074.112.2-.036.29l-1.587.917a.558.558,0,0,1-.5.021" transform="translate(-225.111 -172.615)" fill="#06033e"/>
              <path id="Path_38393" data-name="Path 38393" d="M270.475,197.811l-1.6-.925c-.129-.074-.113-.2.036-.29l1.587-.917a.558.558,0,0,1,.5-.021l1.6.925c.128.074.112.2-.036.29l-1.588.917a.557.557,0,0,1-.5.021" transform="translate(-230.167 -175.534)" fill="#06033e"/>
              <path id="Path_38394" data-name="Path 38394" d="M278.005,202.159l-1.6-.925c-.129-.074-.113-.2.036-.29l1.588-.917a.558.558,0,0,1,.5-.021l1.6.925c.128.074.112.2-.036.29l-1.588.917a.558.558,0,0,1-.5.021" transform="translate(-235.223 -178.453)" fill="#06033e"/>
              <path id="Path_38395" data-name="Path 38395" d="M206.267,152.277l-1.6-.925c-.129-.074-.113-.2.036-.29l1.587-.917a.557.557,0,0,1,.5-.021l1.6.925c.128.074.112.2-.036.29l-1.588.917a.558.558,0,0,1-.5.021" transform="translate(-187.057 -144.962)" fill="#06033e"/>
              <path id="Path_38396" data-name="Path 38396" d="M198.774,147.951l-1.6-.925c-.129-.074-.113-.2.036-.29l1.587-.917a.558.558,0,0,1,.5-.021l1.6.925c.128.074.112.2-.036.29l-1.588.917a.558.558,0,0,1-.5.021" transform="translate(-182.026 -142.057)" fill="#06033e"/>
              <path id="Path_38397" data-name="Path 38397" d="M191.282,143.625l-1.6-.925c-.129-.074-.113-.2.036-.29l1.587-.917a.558.558,0,0,1,.5-.021l1.6.925c.128.074.112.2-.036.29l-1.588.917a.558.558,0,0,1-.5.021" transform="translate(-176.996 -139.153)" fill="#06033e"/>
              <path id="Path_38398" data-name="Path 38398" d="M183.789,139.3l-1.6-.925c-.129-.074-.113-.2.036-.29l1.588-.916a.556.556,0,0,1,.5-.021l1.6.925c.129.074.113.2-.036.29l-1.588.917a.558.558,0,0,1-.5.021" transform="translate(-171.965 -136.248)" fill="#06033e"/>
              <path id="Path_38399" data-name="Path 38399" d="M191.494,136.1l-1.6-.925c-.129-.074-.113-.2.036-.29l.525-.3a.558.558,0,0,1,.5-.021l1.6.925c.129.074.113.2-.036.29l-.525.3a.558.558,0,0,1-.5.021" transform="translate(-177.138 -134.515)" fill="#06033e"/>
              <path id="Path_38400" data-name="Path 38400" d="M201.272,141.75l-1.6-.925c-.129-.074-.113-.2.036-.29l.525-.3a.558.558,0,0,1,.5-.021l1.6.925c.129.074.113.2-.036.29l-.525.3a.558.558,0,0,1-.5.021" transform="translate(-183.704 -138.306)" fill="#06033e"/>
              <path id="Path_38401" data-name="Path 38401" d="M208.733,146.058l-1.6-.925c-.129-.074-.113-.2.036-.29l.525-.3a.558.558,0,0,1,.5-.021l1.6.925c.129.074.113.2-.036.289l-.525.3a.558.558,0,0,1-.5.021" transform="translate(-188.713 -141.198)" fill="#06033e"/>
              <path id="Path_38402" data-name="Path 38402" d="M216.2,150.366l-1.6-.925c-.129-.074-.113-.2.036-.29l.525-.3a.558.558,0,0,1,.5-.021l1.6.925c.129.074.113.2-.036.29l-.525.3a.558.558,0,0,1-.5.021" transform="translate(-193.723 -144.091)" fill="#06033e"/>
              <path id="Path_38403" data-name="Path 38403" d="M223.657,154.674l-1.6-.925c-.129-.074-.113-.2.036-.29l.525-.3a.558.558,0,0,1,.5-.021l1.6.925c.129.074.113.2-.035.29l-.525.3a.557.557,0,0,1-.5.021" transform="translate(-198.732 -146.983)" fill="#06033e"/>
              <path id="Path_38404" data-name="Path 38404" d="M265.313,178.725l-1.6-.925c-.129-.074-.113-.2.036-.29l.525-.3a.558.558,0,0,1,.5-.021l1.6.925c.129.074.113.2-.036.29l-.525.3a.558.558,0,0,1-.5.021" transform="translate(-226.701 -163.131)" fill="#06033e"/>
              <path id="Path_38405" data-name="Path 38405" d="M272.775,183.032l-1.6-.925c-.129-.074-.113-.2.036-.29l.525-.3a.558.558,0,0,1,.5-.021l1.6.925c.129.074.113.2-.036.29l-.525.3a.558.558,0,0,1-.5.021" transform="translate(-231.711 -166.023)" fill="#06033e"/>
              <path id="Path_38406" data-name="Path 38406" d="M280.237,187.34l-1.6-.925c-.129-.074-.113-.2.035-.29l.525-.3a.557.557,0,0,1,.5-.021l1.6.925c.129.074.113.2-.035.289l-.525.3a.557.557,0,0,1-.5.021" transform="translate(-236.721 -168.915)" fill="#06033e"/>
              <path id="Path_38407" data-name="Path 38407" d="M287.7,191.648l-1.6-.925c-.129-.074-.113-.2.036-.29l.525-.3a.558.558,0,0,1,.5-.021l1.6.925c.129.074.113.2-.036.29l-.525.3a.557.557,0,0,1-.5.021" transform="translate(-241.731 -171.808)" fill="#06033e"/>
              <path id="Path_38408" data-name="Path 38408" d="M213.8,156.625l-1.6-.925c-.129-.074-.112-.2.036-.29l1.587-.917a.558.558,0,0,1,.5-.021l1.6.925c.128.074.112.2-.036.29l-1.587.917a.558.558,0,0,1-.5.021" transform="translate(-192.113 -147.881)" fill="#06033e"/>
              <path id="Path_38409" data-name="Path 38409" d="M221.328,160.972l-1.6-.925c-.129-.074-.113-.2.036-.29l1.587-.917a.558.558,0,0,1,.5-.021l1.6.925c.128.074.112.2-.036.29l-1.588.917a.558.558,0,0,1-.5.021" transform="translate(-197.169 -150.8)" fill="#06033e"/>
              <path id="Path_38410" data-name="Path 38410" d="M228.858,165.32l-1.6-.925c-.129-.074-.113-.2.036-.29l1.588-.917a.558.558,0,0,1,.5-.021l1.6.925c.128.074.112.2-.036.29l-1.588.917a.558.558,0,0,1-.5.021" transform="translate(-202.225 -153.719)" fill="#06033e"/>
              <path id="Path_38411" data-name="Path 38411" d="M236.388,169.667l-1.6-.925c-.129-.074-.113-.2.036-.29l1.587-.917a.558.558,0,0,1,.5-.021l1.6.925c.128.074.112.2-.036.29l-1.588.917a.557.557,0,0,1-.5.021" transform="translate(-207.281 -156.638)" fill="#06033e"/>
              <path id="Path_38412" data-name="Path 38412" d="M243.918,174.015l-1.6-.925c-.129-.074-.113-.2.036-.29l1.588-.917a.558.558,0,0,1,.5-.021l1.6.925c.128.074.112.2-.036.29l-1.588.917a.558.558,0,0,1-.5.021" transform="translate(-212.336 -159.557)" fill="#06033e"/>
              <path id="Path_38413" data-name="Path 38413" d="M251.449,178.363l-1.6-.925c-.129-.074-.113-.2.036-.29l1.588-.917a.557.557,0,0,1,.5-.021l1.6.925c.128.074.112.2-.036.29l-1.588.917a.558.558,0,0,1-.5.021" transform="translate(-217.393 -162.476)" fill="#06033e"/>
              <path id="Path_38414" data-name="Path 38414" d="M258.979,182.71l-1.6-.925c-.129-.074-.113-.2.036-.29l1.588-.917a.558.558,0,0,1,.5-.021l1.6.925c.128.074.112.2-.036.29l-1.588.917a.558.558,0,0,1-.5.021" transform="translate(-222.449 -165.395)" fill="#06033e"/>
              <path id="Path_38415" data-name="Path 38415" d="M266.509,187.058l-1.6-.925c-.129-.074-.113-.2.036-.29l1.588-.917a.558.558,0,0,1,.5-.021l1.6.925c.128.074.112.2-.036.29l-1.588.917a.557.557,0,0,1-.5.021" transform="translate(-227.504 -168.314)" fill="#06033e"/>
              <path id="Path_38416" data-name="Path 38416" d="M274.04,191.4l-1.6-.925c-.129-.074-.113-.2.036-.29l1.588-.917a.558.558,0,0,1,.5-.021l1.6.925c.129.074.112.2-.036.29l-1.588.917a.558.558,0,0,1-.5.021" transform="translate(-232.561 -171.233)" fill="#06033e"/>
              <path id="Path_38417" data-name="Path 38417" d="M164.379,153.484l-4.719-2.724c-.128-.074-.112-.2.036-.29l1.587-.916a.558.558,0,0,1,.5-.021l4.719,2.724c.128.074.112.2-.036.29l-1.588.917a.558.558,0,0,1-.5.021" transform="translate(-156.84 -144.564)" fill="#06033e"/>
              <path id="Path_38418" data-name="Path 38418" d="M256.89,206.9l-4.719-2.724c-.128-.074-.112-.2.036-.29l1.587-.917a.558.558,0,0,1,.5-.021l4.719,2.724c.128.074.112.2-.036.29l-1.588.917a.558.558,0,0,1-.5.021" transform="translate(-218.953 -180.426)" fill="#06033e"/>
              <path id="Path_38419" data-name="Path 38419" d="M233.142,202.431l-1.6-.925c-.129-.074-.113-.2.036-.29l1.891-1.092a.557.557,0,0,1,.5-.021l1.6.925c.128.074.112.2-.036.29l-1.891,1.092a.557.557,0,0,1-.5.021" transform="translate(-205.101 -178.518)" fill="#06033e"/>
              <path id="Path_38420" data-name="Path 38420" d="M176.5,169.726l-2.562-1.479c-.129-.074-.113-.2.036-.29l1.891-1.092a.558.558,0,0,1,.5-.021l2.563,1.48c.128.074.112.2-.036.29L177,169.705a.558.558,0,0,1-.5.021" transform="translate(-166.423 -156.187)" fill="#06033e"/>
              <path id="Path_38421" data-name="Path 38421" d="M223.926,197.109l-2.562-1.479c-.129-.074-.113-.2.036-.29l1.891-1.092a.558.558,0,0,1,.5-.021l2.563,1.48c.128.074.112.2-.036.29l-1.891,1.092a.558.558,0,0,1-.5.021" transform="translate(-198.268 -174.573)" fill="#06033e"/>
              <path id="Path_38422" data-name="Path 38422" d="M187.361,176,184.8,174.52c-.129-.075-.113-.2.036-.29l1.891-1.092a.558.558,0,0,1,.5-.021l2.563,1.48c.128.074.112.2-.036.29l-1.891,1.092a.558.558,0,0,1-.5.021" transform="translate(-173.718 -160.399)" fill="#06033e"/>
              <path id="Path_38423" data-name="Path 38423" d="M187.457,173.25l11.141,6.432a.153.153,0,0,1,0,.289l-1.928,1.113a.553.553,0,0,1-.5,0l-11.141-6.432Z" transform="translate(-173.931 -160.522)" fill="#06033e"/>
              <path id="Path_38424" data-name="Path 38424" d="M255.013,215.088l1.785,1.03c.105.061.092.167-.03.238l-.774.447a.457.457,0,0,1-.411.017l-1.785-1.03c-.105-.061-.092-.167.03-.238l.773-.447a.457.457,0,0,1,.411-.017" transform="translate(-220.056 -188.585)" fill="#06033e"/>
              <path id="Path_38425" data-name="Path 38425" d="M247.42,210.7l1.785,1.03c.105.061.092.167-.03.238l-.774.447a.457.457,0,0,1-.411.017l-1.785-1.03c-.105-.061-.092-.167.03-.238l.773-.447a.458.458,0,0,1,.411-.017" transform="translate(-214.958 -185.642)" fill="#06033e"/>
              <path id="Path_38426" data-name="Path 38426" d="M239.89,206.357l1.785,1.03c.105.061.092.167-.03.238l-.774.447a.457.457,0,0,1-.411.017l-1.785-1.03c-.105-.061-.092-.167.03-.238l.773-.447a.458.458,0,0,1,.411-.017" transform="translate(-209.903 -182.723)" fill="#06033e"/>
              <path id="Path_38427" data-name="Path 38427" d="M251.579,208.3l1.785,1.03c.105.061.092.167-.029.238l-.774.447a.458.458,0,0,1-.411.017l-1.785-1.03c-.105-.061-.092-.167.029-.238l.774-.447a.457.457,0,0,1,.411-.017" transform="translate(-217.751 -184.03)" fill="#06033e"/>
            </g>
          </g>
        </g>
        <path id="Path_38428" data-name="Path 38428" d="M235.37,66.16,188.1,38.867a2.094,2.094,0,0,1-.867-2.336l10.69-34.709a1.214,1.214,0,0,1,1.825-.781l47.271,27.292a2.093,2.093,0,0,1,.866,2.336L237.2,65.378a1.214,1.214,0,0,1-1.825.781" transform="translate(-125.654 -0.576)" fill="#f7f5e0"/>
        <path id="Path_38429" data-name="Path 38429" d="M237,67.5,191.15,41.009a2,2,0,0,1-.829-2.235l10.22-33.181a1.161,1.161,0,0,1,1.747-.748l45.851,26.494a2,2,0,0,1,.829,2.235l-10.22,33.182A1.161,1.161,0,0,1,237,67.5" transform="translate(-127.73 -3.135)" fill="#2d2d2d"/>
        <g id="Group_35961" data-name="Group 35961" transform="translate(75.145 11.351)" opacity="0.5">
          <g id="Group_35960" data-name="Group 35960">
            <g id="Group_35959" data-name="Group 35959" clip-path="url(#clip-path-6)">
              <path id="Path_38430" data-name="Path 38430" d="M260.352,77.421,229.314,59.5a1.375,1.375,0,0,1-.569-1.534l7.019-22.79a.8.8,0,0,1,1.2-.513L268,52.584a1.375,1.375,0,0,1,.569,1.534l-7.019,22.79a.8.8,0,0,1-1.2.513" transform="translate(-228.69 -34.544)" fill="#06033e"/>
            </g>
          </g>
        </g>
      </g>
    </g>
    <g id="Group_35965" data-name="Group 35965" transform="translate(70.951 11.901)">
      <g id="Group_35964" data-name="Group 35964" clip-path="url(#clip-path-7)">
        <rect id="Rectangle_18013" data-name="Rectangle 18013" width="40.173" height="43.159" transform="translate(-0.119 0)" fill="url(#radial-gradient)"/>
      </g>
    </g>
    <g id="Group_35970" data-name="Group 35970">
      <g id="Group_35969" data-name="Group 35969" clip-path="url(#clip-path)">
        <path id="Path_38432" data-name="Path 38432" d="M247.589,79.1l-31.038-17.92a1.375,1.375,0,0,1-.569-1.534L223,36.851a.8.8,0,0,1,1.2-.513l31.038,17.92a1.375,1.375,0,0,1,.569,1.534l-7.019,22.79a.8.8,0,0,1-1.2.513" transform="translate(-144.976 -24.317)" fill="#fff"/>
        <path id="Path_38433" data-name="Path 38433" d="M270.357,54.259l-31.038-17.92a.773.773,0,0,0-.873.03.836.836,0,0,1,.448.115L269.932,54.4a1.374,1.374,0,0,1,.569,1.534l-7.019,22.79a.939.939,0,0,1-.325.483.822.822,0,0,0,.751-.628l7.019-22.79a1.374,1.374,0,0,0-.569-1.534" transform="translate(-160.095 -24.317)" fill="#fff"/>
        <g id="Group_35968" data-name="Group 35968" transform="translate(49.37 60.157)" opacity="0.4">
          <g id="Group_35967" data-name="Group 35967">
            <g id="Group_35966" data-name="Group 35966" clip-path="url(#clip-path-9)">
              <path id="Path_38434" data-name="Path 38434" d="M164.345,196.308a2.335,2.335,0,0,1-1.15-.269h0l-12.435-7.18a.9.9,0,0,1-.511-.766,1.175,1.175,0,0,1,.686-.95l6.4-3.7a2.866,2.866,0,0,1,2.615-.1l12.435,7.179a.9.9,0,0,1,.511.767,1.176,1.176,0,0,1-.686.95l-6.4,3.7a3,3,0,0,1-1.464.37m-5.539-12.868a2.666,2.666,0,0,0-1.291.318l-6.4,3.7c-.322.186-.507.419-.507.639a.568.568,0,0,0,.332.455l12.435,7.18a2.551,2.551,0,0,0,2.255-.1l6.4-3.7c.322-.186.506-.419.506-.639a.567.567,0,0,0-.332-.455l-12.435-7.18a1.976,1.976,0,0,0-.965-.217" transform="translate(-150.249 -183.077)" fill="#06033e"/>
            </g>
          </g>
        </g>
        <path id="Path_38435" data-name="Path 38435" d="M259.43,68.6,257.511,67.5a.5.5,0,0,1-.213-.552.284.284,0,0,1,.431-.179l1.919,1.108a.5.5,0,0,1,.213.552.284.284,0,0,1-.431.179" transform="translate(-172.741 -44.797)" fill="#fff"/>
        <path id="Path_38436" data-name="Path 38436" d="M271.481,75.561l-2.829-1.634a.5.5,0,0,1-.213-.552.284.284,0,0,1,.431-.179L271.7,74.83a.5.5,0,0,1,.213.552.284.284,0,0,1-.431.179" transform="translate(-180.221 -49.115)" fill="#fff"/>
        <path id="Path_38437" data-name="Path 38437" d="M247.653,94.6,245.734,93.5a.5.5,0,0,1-.213-.552.284.284,0,0,1,.431-.179l1.919,1.108a.5.5,0,0,1,.213.552.284.284,0,0,1-.431.179" transform="translate(-164.834 -62.253)" fill="#fff"/>
        <path id="Path_38438" data-name="Path 38438" d="M258.193,100.689l-2.829-1.633a.5.5,0,0,1-.213-.552.284.284,0,0,1,.431-.179l2.83,1.633a.5.5,0,0,1,.213.552.284.284,0,0,1-.431.179" transform="translate(-171.299 -65.986)" fill="#fff"/>
        <path id="Path_38439" data-name="Path 38439" d="M243.408,64.82l-1.2-.692a.5.5,0,0,1-.213-.552.284.284,0,0,1,.431-.179l1.2.692a.5.5,0,0,1,.213.552.284.284,0,0,1-.431.18" transform="translate(-162.467 -42.535)" fill="#fff"/>
        <path id="Path_38440" data-name="Path 38440" d="M249.352,73.718,245.689,71.6a.5.5,0,0,1-.213-.552.284.284,0,0,1,.431-.179l3.662,2.114a.5.5,0,0,1,.213.552.284.284,0,0,1-.431.179" transform="translate(-164.803 -47.555)" fill="#fff"/>
        <path id="Path_38441" data-name="Path 38441" d="M244.105,81.622l-1.2-.692a.5.5,0,0,1-.213-.552.284.284,0,0,1,.431-.18l1.2.692a.5.5,0,0,1,.213.552.284.284,0,0,1-.431.179" transform="translate(-162.935 -53.816)" fill="#fff"/>
        <path id="Path_38442" data-name="Path 38442" d="M258.776,111.959l-3.2-1.849a.5.5,0,0,1-.213-.552.284.284,0,0,1,.431-.179l3.2,1.848a.5.5,0,0,1,.213.552.284.284,0,0,1-.431.179" transform="translate(-171.44 -73.409)" fill="#64a84d"/>
        <path id="Path_38443" data-name="Path 38443" d="M240.893,90.7l-.77-.444a.5.5,0,0,1-.213-.552.284.284,0,0,1,.431-.18l.77.444a.5.5,0,0,1,.213.552.284.284,0,0,1-.431.179" transform="translate(-161.067 -60.079)" fill="#fff"/>
        <path id="Path_38444" data-name="Path 38444" d="M238.3,100.135l-.956-.552a.5.5,0,0,1-.213-.552.284.284,0,0,1,.431-.18l.956.552a.5.5,0,0,1,.213.552.284.284,0,0,1-.431.18" transform="translate(-159.199 -66.34)" fill="#fff"/>
        <path id="Path_38445" data-name="Path 38445" d="M246.415,104.822l-2.519-1.454a.5.5,0,0,1-.213-.552.284.284,0,0,1,.431-.179l2.519,1.454a.5.5,0,0,1,.213.552.284.284,0,0,1-.431.179" transform="translate(-163.599 -68.881)" fill="#fff"/>
        <path id="Path_38446" data-name="Path 38446" d="M237.762,105.292l-1.811-1.046a.5.5,0,0,1-.214-.552.284.284,0,0,1,.431-.179l1.811,1.046a.5.5,0,0,1,.213.552.284.284,0,0,1-.431.179" transform="translate(-158.265 -69.471)" fill="#fff"/>
        <path id="Path_38447" data-name="Path 38447" d="M271.3,119.214l-1.163-.672a.5.5,0,0,1-.213-.552.284.284,0,0,1,.431-.18l1.163.672a.5.5,0,0,1,.213.552.284.284,0,0,1-.431.179" transform="translate(-181.219 -79.069)" fill="#fff"/>
        <path id="Path_38448" data-name="Path 38448" d="M253.582,87.094l-3.2-1.849a.5.5,0,0,1-.213-.552.284.284,0,0,1,.431-.179l3.2,1.848a.5.5,0,0,1,.213.552.284.284,0,0,1-.431.179" transform="translate(-167.953 -56.714)" fill="#fff"/>
        <path id="Path_38449" data-name="Path 38449" d="M249.877,79.488l-5.58-3.222a.5.5,0,0,1-.213-.552.284.284,0,0,1,.431-.18l5.58,3.222a.5.5,0,0,1,.213.552.284.284,0,0,1-.431.179" transform="translate(-163.869 -50.685)" fill="#64a84d"/>
        <path id="Path_38450" data-name="Path 38450" d="M244.717,87.442l-3.2-1.849a.5.5,0,0,1-.213-.552.284.284,0,0,1,.431-.179l3.2,1.848a.5.5,0,0,1,.213.552.284.284,0,0,1-.431.179" transform="translate(-162.001 -56.948)" fill="#64a84d"/>
        <path id="Path_38451" data-name="Path 38451" d="M265.138,93.766l-1.163-.672a.5.5,0,0,1-.213-.552.284.284,0,0,1,.431-.18l1.163.672a.5.5,0,0,1,.213.552.284.284,0,0,1-.431.179" transform="translate(-177.081 -61.984)" fill="#64a84d"/>
        <path id="Path_38452" data-name="Path 38452" d="M289.45,85.936l-6.889-3.977a.5.5,0,0,1-.213-.552.284.284,0,0,1,.431-.18l6.889,3.977a.5.5,0,0,1,.213.552.284.284,0,0,1-.431.18" transform="translate(-189.56 -54.507)" fill="#64a84d"/>
        <path id="Path_38453" data-name="Path 38453" d="M242.581,97.142l-3.849-2.222a.5.5,0,0,1-.213-.552.284.284,0,0,1,.431-.179L242.8,96.41a.5.5,0,0,1,.213.552.284.284,0,0,1-.431.179" transform="translate(-160.132 -63.209)" fill="#64a84d"/>
        <path id="Path_38454" data-name="Path 38454" d="M246.43,61.1,243.6,59.465a.5.5,0,0,1-.213-.552.284.284,0,0,1,.431-.179l2.829,1.633a.5.5,0,0,1,.213.552.284.284,0,0,1-.431.179" transform="translate(-163.401 -39.404)" fill="#64a84d"/>
        <path id="Path_38455" data-name="Path 38455" d="M232.966,107.99l-3.277-1.892a.5.5,0,0,1-.213-.552.284.284,0,0,1,.431-.18l3.277,1.892a.5.5,0,0,1,.213.552.284.284,0,0,1-.431.179" transform="translate(-154.061 -70.714)" fill="#64a84d"/>
        <path id="Path_38456" data-name="Path 38456" d="M303.141,82.053l-1.4-.81a.366.366,0,0,1-.156-.4.208.208,0,0,1,.315-.131l1.4.81a.366.366,0,0,1,.156.4.208.208,0,0,1-.315.131" transform="translate(-202.477 -54.167)" fill="#64a84d"/>
        <path id="Path_38457" data-name="Path 38457" d="M311.283,86.754l-1.4-.81a.366.366,0,0,1-.156-.4.208.208,0,0,1,.315-.131l1.4.81a.366.366,0,0,1,.156.4.208.208,0,0,1-.315.131" transform="translate(-207.944 -57.323)" fill="#fff"/>
        <path id="Path_38458" data-name="Path 38458" d="M319.425,91.454l-1.4-.81a.366.366,0,0,1-.156-.4.208.208,0,0,1,.315-.131l1.4.81a.366.366,0,0,1,.156.4.208.208,0,0,1-.315.131" transform="translate(-213.41 -60.479)" fill="#fff"/>
        <path id="Path_38459" data-name="Path 38459" d="M326.206,95.371l-.042-.025a.366.366,0,0,1-.156-.4.208.208,0,0,1,.315-.131l.042.025a.366.366,0,0,1,.156.4.208.208,0,0,1-.315.131" transform="translate(-218.877 -63.635)" fill="#64a84d"/>
      </g>
    </g>
  </g>
</svg>
