<svg xmlns="http://www.w3.org/2000/svg" width="65.459" height="60.647" viewBox="0 0 65.459 60.647">
  <g id="noun-team-4504872" transform="translate(-76.808 -26.796)">
    <path id="Path_40637" data-name="Path 40637" d="M140.7,52.828a8.669,8.669,0,0,0-5.888-3.91,46.77,46.77,0,0,0-13.653-.271,11.888,11.888,0,0,0,.139-3.759,9.873,9.873,0,1,0-4.114-8.014c0,.143,0,.285.011.427a11.824,11.824,0,0,0-15.317,0c.006-.142.011-.284.011-.427a9.894,9.894,0,1,0-4.113,8.014,11.89,11.89,0,0,0,.139,3.759,46.769,46.769,0,0,0-13.653.271,8.644,8.644,0,0,0-6.9,10.885A15.226,15.226,0,0,0,91.427,70.856a10.3,10.3,0,0,0,.387,3,18.426,18.426,0,0,0,35.449,0,10.3,10.3,0,0,0,.387-3A15.226,15.226,0,0,0,141.71,59.8a8.644,8.644,0,0,0-1.008-6.974ZM127.063,29.6a7.274,7.274,0,1,1-7.274,7.274,7.282,7.282,0,0,1,7.274-7.274Zm-17.526,7.489a9.245,9.245,0,1,1-9.245,9.245A9.255,9.255,0,0,1,109.537,37.089ZM112.416,59.8c.032.111.067.22.1.331a57.148,57.148,0,0,0-5.961,0c.034-.11.07-.22.1-.331a8.647,8.647,0,0,0,.318-1.9,11.864,11.864,0,0,0,5.124,0,8.616,8.616,0,0,0,.317,1.9ZM92.011,44.148a7.274,7.274,0,1,1,7.274-7.274A7.282,7.282,0,0,1,92.011,44.148ZM79.87,59.091a6.04,6.04,0,0,1,4.822-7.6,44.194,44.194,0,0,1,14.139-.079,11.926,11.926,0,0,0,5.535,5.586,5.976,5.976,0,0,1-.213,2.1,12.7,12.7,0,0,1-.433,1.259q-1.835.188-3.663.493A10.313,10.313,0,0,0,91.8,68.258a12.67,12.67,0,0,1-11.934-9.166Zm44.886,14.051a15.822,15.822,0,0,1-30.439,0,7.727,7.727,0,0,1,6.168-9.729,54.643,54.643,0,0,1,18.1,0,7.727,7.727,0,0,1,6.168,9.729ZM139.2,59.091a12.672,12.672,0,0,1-11.934,9.167,10.312,10.312,0,0,0-8.252-7.415q-1.827-.306-3.663-.493a12.618,12.618,0,0,1-.433-1.259,5.978,5.978,0,0,1-.213-2.1,11.926,11.926,0,0,0,5.535-5.586,44.194,44.194,0,0,1,14.139.079,6.041,6.041,0,0,1,4.822,7.6Z" transform="translate(0)" fill="#fffadc" stroke="#fffadc" stroke-width="0.4"/>
  </g>
</svg>
