<svg xmlns="http://www.w3.org/2000/svg" xmlns:xlink="http://www.w3.org/1999/xlink" width="65.707" height="50" viewBox="0 0 65.707 50">
  <defs>
    <clipPath id="clip-path">
      <rect id="Rectangle_18455" data-name="Rectangle 18455" width="65.707" height="50" transform="translate(0 0)" fill="#fffadc"/>
    </clipPath>
  </defs>
  <g id="Group_70104" data-name="Group 70104" transform="translate(0 0)">
    <g id="Group_70103" data-name="Group 70103" clip-path="url(#clip-path)">
      <path id="Path_112003" data-name="Path 112003" d="M52.529,29.478a1.416,1.416,0,0,0-1.485,1.411V37.3H2.882V2.886H51.044V9.368a1.441,1.441,0,0,0,2.881-.073V1.439A1.439,1.439,0,0,0,52.485,0H1.441A1.442,1.442,0,0,0,0,1.441v37.3a1.443,1.443,0,0,0,1.441,1.441H25.522v6.934H18.054A1.441,1.441,0,0,0,18.085,50H35.872a1.441,1.441,0,0,0-.074-2.881H28.4V40.183H52.484a1.443,1.443,0,0,0,1.441-1.441V30.875a1.443,1.443,0,0,0-1.4-1.4" transform="translate(0 0)" fill="#fffadc"/>
      <path id="Path_112004" data-name="Path 112004" d="M63.342,24.082h0a2.423,2.423,0,1,0-2.425-2.423,2.426,2.426,0,0,0,2.425,2.423" transform="translate(-4.966 -1.568)" fill="#fffadc"/>
      <path id="Path_112005" data-name="Path 112005" d="M48.379,24.082h0a2.423,2.423,0,1,0,0-4.846h0a2.423,2.423,0,1,0,0,4.846" transform="translate(-3.746 -1.568)" fill="#fffadc"/>
      <path id="Path_112006" data-name="Path 112006" d="M55.859,24.082h0a2.423,2.423,0,0,0,0-4.846h0a2.423,2.423,0,0,0,0,4.846" transform="translate(-4.356 -1.568)" fill="#fffadc"/>
      <path id="Path_112007" data-name="Path 112007" d="M61.686,13.893H47.937a7.329,7.329,0,0,0-7.326,7.331l0,.459h.015a7.344,7.344,0,0,0,7.313,6.871H61.686a7.331,7.331,0,1,0,0-14.662M43.033,21.224l.459,0a4.453,4.453,0,0,1,4.449-4.445H61.68a4.449,4.449,0,0,1,.006,8.9H47.943a4.458,4.458,0,0,1-4.451-4.448Z" transform="translate(-3.311 -1.133)" fill="#fffadc"/>
    </g>
  </g>
</svg>
