<svg xmlns="http://www.w3.org/2000/svg" width="59.476" height="51.533" viewBox="0 0 59.476 51.533">
  <g id="noun-folder-2069620" transform="translate(-105.592 -69.5)">
    <path id="Union_1" data-name="Union 1" d="M-1645.057-3406.934a4.212,4.212,0,0,1-4.2-3.978l-1.637-29.478a4.208,4.208,0,0,1,1.967-3.8v-6.959a6.316,6.316,0,0,1,6.316-6.316h17.717l4.211,4.211h20.183a6.317,6.317,0,0,1,6.317,6.316v2.9a4.205,4.205,0,0,1,1.756,3.421c0,.078,0,.156-.006.233l-1.637,29.478a4.212,4.212,0,0,1-4.2,3.978Zm0-4.212h46.777l1.638-29.477h-50.053Zm46.658-33.688v-2.106a2.106,2.106,0,0,0-2.106-2.105h-21.928l-4.211-4.211h-15.972a2.106,2.106,0,0,0-2.106,2.105v6.317Z" transform="translate(1757 3527.467)" fill="#fffadc" stroke="#4b535b" stroke-width="1"/>
    <path id="Path_40656" data-name="Path 40656" d="M192.5,299.606a2.106,2.106,0,0,1,4.211,0v8.422h8.422a2.106,2.106,0,1,1,0,4.211h-8.422a4.211,4.211,0,0,1-4.211-4.211Z" transform="translate(-76.01 -200.128)" fill="#fffadc" stroke="#4b535b" stroke-width="1"/>
  </g>
</svg>
