<svg xmlns="http://www.w3.org/2000/svg" width="54.172" height="54.172" viewBox="0 0 54.172 54.172">
  <g id="noun-traceability-2183995" transform="translate(-119 -49)">
    <path id="Path_40638" data-name="Path 40638" d="M307.133,150.236a6.566,6.566,0,1,0-8.208,6.35v5.14a4.93,4.93,0,0,0,4.925,4.925h9.029a4.93,4.93,0,0,0,4.925-4.925v-23.8A4.93,4.93,0,0,0,312.878,133H299.746a1.642,1.642,0,0,0,0,3.283h13.133a1.642,1.642,0,0,1,1.642,1.642v23.8a1.642,1.642,0,0,1-1.642,1.642H303.85a1.642,1.642,0,0,1-1.642-1.642v-5.14a6.573,6.573,0,0,0,4.925-6.35Zm-9.849,0a3.283,3.283,0,1,1,3.351,3.277c-.023,0-.044-.006-.067-.006s-.044.006-.067.006a3.283,3.283,0,0,1-3.216-3.277Z" transform="translate(-154.481 -74.151)" fill="#fffadc"/>
    <path id="Path_40639" data-name="Path 40639" d="M120.642,455.387a1.642,1.642,0,0,0,1.642-1.642v-4.1a1.642,1.642,0,1,0-3.283,0v4.1a1.642,1.642,0,0,0,1.642,1.642Z" transform="translate(0 -352.215)" fill="#fffadc"/>
    <path id="Path_40640" data-name="Path 40640" d="M168.247,49H123.925A4.931,4.931,0,0,0,119,53.925V87.577a1.642,1.642,0,1,0,3.283,0V53.925a1.642,1.642,0,0,1,1.642-1.642h44.322a1.642,1.642,0,0,1,1.642,1.642v3.283a1.642,1.642,0,0,0,3.283,0V53.925A4.931,4.931,0,0,0,168.247,49Z" fill="#fffadc"/>
    <path id="Path_40641" data-name="Path 40641" d="M245.681,139.566a1.642,1.642,0,0,0-1.642,1.642V172.4a1.642,1.642,0,0,1-1.642,1.642H207.925a1.642,1.642,0,0,1-1.642-1.642V137.925a1.642,1.642,0,0,1,1.642-1.642h1.642a1.642,1.642,0,0,0,0-3.283h-1.642A4.931,4.931,0,0,0,203,137.925V172.4a4.931,4.931,0,0,0,4.925,4.925H242.4a4.931,4.931,0,0,0,4.925-4.925v-31.19a1.642,1.642,0,0,0-1.642-1.642Z" transform="translate(-74.151 -74.151)" fill="#fffadc"/>
    <path id="Path_40642" data-name="Path 40642" d="M122.283,407.642A1.642,1.642,0,1,1,120.642,406a1.642,1.642,0,0,1,1.642,1.642" transform="translate(0 -315.14)" fill="#fffadc"/>
    <path id="Path_40643" data-name="Path 40643" d="M556.283,148.642A1.642,1.642,0,1,1,554.642,147a1.642,1.642,0,0,1,1.642,1.642" transform="translate(-383.111 -86.509)" fill="#fffadc"/>
    <path id="Path_40644" data-name="Path 40644" d="M290.283,134.642A1.642,1.642,0,1,1,288.642,133a1.642,1.642,0,0,1,1.642,1.642" transform="translate(-148.301 -74.151)" fill="#fffadc"/>
  </g>
</svg>
