<svg xmlns="http://www.w3.org/2000/svg" width="73.627" height="58.395" viewBox="0 0 73.627 58.395">
  <g id="noun-monitor-4505717" transform="translate(-96.25 -78.75)">
    <path id="Path_40645" data-name="Path 40645" d="M351.269,125.039H379.2a1.269,1.269,0,1,0,0-2.539H351.269a1.269,1.269,0,0,0,0,2.539Z" transform="translate(-216.937 -37.403)" fill="#fffadc"/>
    <path id="Path_40646" data-name="Path 40646" d="M351.269,160.039h22.85a1.269,1.269,0,1,0,0-2.539h-22.85a1.269,1.269,0,0,0,0,2.539Z" transform="translate(-216.937 -67.325)" fill="#fffadc"/>
    <path id="Path_40647" data-name="Path 40647" d="M351.269,195.039h25.389a1.269,1.269,0,1,0,0-2.539H351.269a1.269,1.269,0,0,0,0,2.539Z" transform="translate(-216.937 -97.247)" fill="#fffadc"/>
    <path id="Path_40648" data-name="Path 40648" d="M351.269,230.039H366.5a1.269,1.269,0,0,0,0-2.539H351.269a1.269,1.269,0,0,0,0,2.539Z" transform="translate(-216.937 -127.17)" fill="#fffadc"/>
    <path id="Path_40649" data-name="Path 40649" d="M351.269,265.039h10.156a1.269,1.269,0,1,0,0-2.539H351.269a1.269,1.269,0,1,0,0,2.539Z" transform="translate(-216.937 -157.092)" fill="#fffadc"/>
    <path id="Path_40650" data-name="Path 40650" d="M351.269,300.039h24.753a1.269,1.269,0,1,0,0-2.539H351.269a1.269,1.269,0,0,0,0,2.539Z" transform="translate(-216.937 -187.014)" fill="#fffadc"/>
    <path id="Path_40651" data-name="Path 40651" d="M98.789,119.372H164.8a1.269,1.269,0,1,0,0-2.539H98.789V82.558a1.269,1.269,0,0,1,1.269-1.269h6.347a1.269,1.269,0,1,0,0-2.539h-6.347a3.81,3.81,0,0,0-3.808,3.808v38.083a3.81,3.81,0,0,0,3.808,3.808h24.9l-.825,2.474a3.808,3.808,0,0,1-3.613,2.6h-7.665a6.747,6.747,0,0,0-6.421,6.086c0,.263-.027,1.531,1.243,1.531h6.347a1.269,1.269,0,0,0,0-2.539h-4.759a3.807,3.807,0,0,1,3.59-2.539h7.665a6.345,6.345,0,0,0,6.021-4.34l1.093-3.276h10.864l1.093,3.276a6.346,6.346,0,0,0,6.021,4.34h7.665a3.807,3.807,0,0,1,3.59,2.539H121.639a1.269,1.269,0,0,0,0,2.539h36.814c1.269,0,1.269-1.269,1.243-1.531a6.747,6.747,0,0,0-6.421-6.086h-7.665a3.808,3.808,0,0,1-3.613-2.6l-.825-2.474h24.9a3.81,3.81,0,0,0,3.808-3.808V82.558a3.81,3.81,0,0,0-3.808-3.808H110.213a1.269,1.269,0,1,0,0,2.539h55.855a1.269,1.269,0,0,1,1.269,1.269v38.083a1.269,1.269,0,0,1-1.269,1.269H100.058a1.269,1.269,0,0,1-1.269-1.269Z" fill="#fffadc"/>
    <path id="Path_40652" data-name="Path 40652" d="M238.789,465.019a1.269,1.269,0,1,1-1.269-1.269,1.27,1.27,0,0,1,1.269,1.269" transform="translate(-119.689 -329.145)" fill="#fffadc"/>
    <path id="Path_40653" data-name="Path 40653" d="M146.345,138.87h-3.808a1.271,1.271,0,0,0-1.265,1.164L140,155.268a1.271,1.271,0,0,0,1.266,1.375h22.85a1.268,1.268,0,0,0,1.267-1.345L165,148.95a1.269,1.269,0,1,0-2.534.152l.3,5H142.647L143.7,141.41h2.64v1.269a1.269,1.269,0,0,0,2.539,0V141.41H156.5v1.269a1.269,1.269,0,0,0,2.539,0V141.41h2.66l.393,3.935a1.27,1.27,0,0,0,2.526-.254l-.508-5.078a1.268,1.268,0,0,0-1.263-1.143H159.04V137.6a6.347,6.347,0,1,0-12.694,0v1.269Zm10.156,0V137.6a3.808,3.808,0,1,0-7.617,0v1.269Z" transform="translate(-37.401 -44.887)" fill="#fffadc"/>
  </g>
</svg>
