<svg xmlns="http://www.w3.org/2000/svg" width="24.865" height="51.778" viewBox="0 0 24.865 51.778">
  <g id="noun-thermometer-1712702" transform="translate(-232.405 -35.112)">
    <path id="Path_40632" data-name="Path 40632" d="M253.125,65.209V56.7h3.553v-2.96h-3.553v-2.96h3.553v-2.96h-3.553V43.4a8.288,8.288,0,0,0-16.576,0V65.209a12.433,12.433,0,1,0,16.576,0Zm-8.288,17.537a8.276,8.276,0,0,1-5.521-14.452l1.377-1.235V43.4a4.144,4.144,0,1,1,8.288,0v4.416h-4.144v2.96h4.144v2.96h-4.144V56.7h4.144V67.059l1.377,1.235a8.276,8.276,0,0,1-5.521,14.452Z" fill="#e9f1e6"/>
    <path id="Path_40633" data-name="Path 40633" d="M306.115,291.923V284.09h-2.368v7.833a5.328,5.328,0,1,0,2.368,0Z" transform="translate(-60.094 -222.657)" fill="#e9f1e6"/>
  </g>
</svg>
