<svg xmlns="http://www.w3.org/2000/svg" width="46.472" height="50" viewBox="0 0 46.472 50">
  <g id="noun-pest-control-4220228" transform="translate(-95.138 -24.083)">
    <path id="Path_40634" data-name="Path 40634" d="M248.08,153.39a9.4,9.4,0,0,0-7.53-4.231l-2.391-.176a21.255,21.255,0,0,0-1.152-5.112,9.52,9.52,0,0,0,6.555-10.313,1.654,1.654,0,0,0-3.278.441,6.277,6.277,0,0,1-1.329,4.759,6.391,6.391,0,0,1-3.455,2.116,8.233,8.233,0,0,0-2.037-1.851l-.62-4.584a7.074,7.074,0,0,0-2.569-4.584l1.949-6.346a1.652,1.652,0,0,0-1.063-2.027,1.593,1.593,0,0,0-2.037,1.058l-1.772,5.818a7.815,7.815,0,0,0-1.417-.176,6.894,6.894,0,0,0-1.418.176l-1.772-5.818a1.561,1.561,0,0,0-2.037-1.058,1.632,1.632,0,0,0-1.152,2.027l1.949,6.346a7.471,7.471,0,0,0-2.569,4.584l-.62,4.584a8.221,8.221,0,0,0-2.037,1.851,5.749,5.749,0,0,1-3.455-2.116A6.083,6.083,0,0,1,211.5,134a1.654,1.654,0,0,0-3.278-.441,9.232,9.232,0,0,0,2.037,7.228,9.9,9.9,0,0,0,4.518,3.085,20.358,20.358,0,0,0-1.152,5.112l-2.48.088a9.885,9.885,0,0,0-7.53,4.231l-.709,1.057a1.67,1.67,0,0,0,.443,2.292,1.715,1.715,0,0,0,.886.264,1.853,1.853,0,0,0,1.418-.705l.709-1.058a5.882,5.882,0,0,1,4.961-2.732l2.126-.088a21.679,21.679,0,0,0,1.152,6.258,9.719,9.719,0,0,0-2.835,2.556,9.524,9.524,0,0,0-1.683,7.668l.266,1.234a1.682,1.682,0,0,0,1.594,1.322.535.535,0,0,0,.354-.088,1.623,1.623,0,0,0,1.24-1.939v-1.321A6.372,6.372,0,0,1,214.595,163a5.055,5.055,0,0,1,1.417-1.322c1.417,3,4.872,5.024,8.858,5.024h2.215c3.9,0,7.441-2.027,8.858-5.024A6.647,6.647,0,0,1,237.361,163a6.3,6.3,0,0,1,1.063,5.024l-.355,1.234a1.623,1.623,0,0,0,1.24,1.939c.088,0,.266.088.354.088a1.609,1.609,0,0,0,1.594-1.322l.266-1.234a9.479,9.479,0,0,0-1.594-7.668,11.106,11.106,0,0,0-2.835-2.556,21.693,21.693,0,0,0,1.152-6.258l2.215.088a6.3,6.3,0,0,1,4.872,2.732l.709,1.058a1.852,1.852,0,0,0,1.417.705,1.714,1.714,0,0,0,.886-.264,1.6,1.6,0,0,0,.443-2.292Zm-25.867-18.6a3.753,3.753,0,0,1,7.441,0l.354,2.732a11.034,11.034,0,0,0-2.392-.264h-3.277a11.042,11.042,0,0,0-2.392.264Zm10.718,25.385c-.8,1.939-3.189,3.261-5.847,3.261H224.87c-2.658,0-5.138-1.322-5.847-3.261l-.531-1.234a19.364,19.364,0,0,1-.354-13.927l.354-.97c.709-2.027,3.189-3.438,5.935-3.438H227.7c2.835,0,5.226,1.41,5.935,3.438l.354.97a19.845,19.845,0,0,1-.354,13.927Z" transform="translate(-107.482 -97.287)" fill="#e9f1e6"/>
    <path id="Path_40635" data-name="Path 40635" d="M326.085,282a1.658,1.658,0,0,0-2.3,0l-2.658,2.658L318.467,282a1.629,1.629,0,1,0-2.3,2.3l2.658,2.658-2.658,2.658a1.658,1.658,0,0,0,0,2.3,1.468,1.468,0,0,0,1.152.443,1.685,1.685,0,0,0,1.152-.443l2.658-2.658,2.658,2.658a1.468,1.468,0,0,0,1.152.443,1.684,1.684,0,0,0,1.152-.443,1.657,1.657,0,0,0,0-2.3l-2.658-2.658,2.658-2.658a1.514,1.514,0,0,0,0-2.3Z" transform="translate(-202.673 -232.28)" fill="#e9f1e6"/>
  </g>
</svg>
