<svg xmlns="http://www.w3.org/2000/svg" width="58.381" height="62.273" viewBox="0 0 58.381 62.273">
  <g id="noun-fire-extinguisher-1509386" transform="translate(-105)">
    <path id="Path_40625" data-name="Path 40625" d="M235.3,186.705H211.946A1.946,1.946,0,0,1,210,184.759V153.623a13.622,13.622,0,1,1,27.244,0v31.136a1.946,1.946,0,0,1-1.946,1.946Zm-21.406-3.892h19.46v-29.19a9.73,9.73,0,0,0-19.46,0Z" transform="translate(-93.324 -124.432)" fill="#e9f1e6"/>
    <path id="Path_40626" data-name="Path 40626" d="M367.514,73.892H351.946a1.946,1.946,0,1,1,0-3.892h15.568a1.946,1.946,0,1,1,0,3.892Z" transform="translate(-217.756 -62.216)" fill="#e9f1e6"/>
    <path id="Path_40627" data-name="Path 40627" d="M106.946,105.995A1.946,1.946,0,0,1,105,104.049V88.48A17.561,17.561,0,0,1,120.327,71.1a1.985,1.985,0,0,1,2.176,1.685,1.946,1.946,0,0,1-1.689,2.176A13.662,13.662,0,0,0,108.892,88.48v15.568a1.946,1.946,0,0,1-1.946,1.946Z" transform="translate(0 -63.182)" fill="#e9f1e6"/>
    <path id="Path_40628" data-name="Path 40628" d="M289.73,20.161a1.946,1.946,0,0,1-1.946-1.946V3.892h-3.892V6.383a1.946,1.946,0,1,1-3.892,0V1.946A1.946,1.946,0,0,1,281.946,0h7.784a1.946,1.946,0,0,1,1.946,1.946V18.215a1.946,1.946,0,0,1-1.946,1.946Z" transform="translate(-155.54 0)" fill="#e9f1e6"/>
    <path id="Path_40629" data-name="Path 40629" d="M281.946,109.131A1.946,1.946,0,0,1,280,107.185v-5.137a1.946,1.946,0,1,1,3.892,0v5.137a1.946,1.946,0,0,1-1.946,1.946Z" transform="translate(-155.54 -88.97)" fill="#e9f1e6"/>
    <path id="Path_40630" data-name="Path 40630" d="M503.633,19.467a1.948,1.948,0,0,1-1.078-.327l-11.676-7.784a1.946,1.946,0,0,1,0-3.238L502.555.333a1.946,1.946,0,0,1,3.024,1.619V17.52a1.946,1.946,0,0,1-1.946,1.946Zm-8.173-9.73,6.227,4.149v-8.3Z" transform="translate(-342.198 -0.006)" fill="#e9f1e6"/>
    <path id="Path_40631" data-name="Path 40631" d="M233.338,46.676a5.837,5.837,0,1,1,4.128-1.71A5.839,5.839,0,0,1,233.338,46.676Zm0-7.784a1.946,1.946,0,1,0,1.376.57A1.946,1.946,0,0,0,233.338,38.892Z" transform="translate(-108.878 -31.108)" fill="#e9f1e6"/>
  </g>
</svg>
