<svg xmlns="http://www.w3.org/2000/svg" width="61.807" height="61.807" viewBox="0 0 61.807 61.807">
  <g id="noun-pest-control-4220228" transform="translate(-83.996 -13.998)">
    <path id="Path_40634" data-name="Path 40634" d="M235.937,144.954a6.88,6.88,0,0,0-5.519-3.116l-1.753-.13a15.722,15.722,0,0,0-.844-3.766,7.011,7.011,0,0,0,4.8-7.6,1.212,1.212,0,1,0-2.4.325,4.527,4.527,0,0,1-3.506,5.064,6.045,6.045,0,0,0-1.493-1.364L224.77,131a5.217,5.217,0,0,0-1.883-3.376l1.428-4.674a1.218,1.218,0,0,0-.779-1.493,1.166,1.166,0,0,0-1.493.779l-1.3,4.285a5.7,5.7,0,0,0-1.039-.13,5.028,5.028,0,0,0-1.039.13l-1.3-4.285a1.143,1.143,0,0,0-1.493-.779,1.2,1.2,0,0,0-.844,1.493l1.428,4.674A5.51,5.51,0,0,0,214.578,131l-.455,3.376a6.035,6.035,0,0,0-1.493,1.364,4.21,4.21,0,0,1-2.532-1.558,4.5,4.5,0,0,1-.974-3.506,1.212,1.212,0,1,0-2.4-.325,6.824,6.824,0,0,0,1.493,5.324,7.257,7.257,0,0,0,3.311,2.273,15.058,15.058,0,0,0-.844,3.766l-1.818.065a7.237,7.237,0,0,0-5.519,3.116l-.519.779a1.234,1.234,0,0,0,.325,1.688,1.252,1.252,0,0,0,.649.195,1.356,1.356,0,0,0,1.039-.519l.519-.779a4.306,4.306,0,0,1,3.636-2.012l1.558-.065a16.039,16.039,0,0,0,.844,4.61,7.135,7.135,0,0,0-2.078,1.883,7.043,7.043,0,0,0-1.234,5.648l.195.909a1.235,1.235,0,0,0,1.168.974.391.391,0,0,0,.259-.065,1.2,1.2,0,0,0,.909-1.428v-.973a4.712,4.712,0,0,1,.779-3.7,3.712,3.712,0,0,1,1.039-.974,7.05,7.05,0,0,0,6.492,3.7h1.623a7.12,7.12,0,0,0,6.492-3.7,4.882,4.882,0,0,1,1.039.974,4.656,4.656,0,0,1,.779,3.7l-.26.909a1.2,1.2,0,0,0,.909,1.428c.065,0,.195.065.259.065a1.181,1.181,0,0,0,1.168-.974l.195-.909a7.01,7.01,0,0,0-1.168-5.648,8.154,8.154,0,0,0-2.078-1.883,16.051,16.051,0,0,0,.844-4.61l1.623.065a4.615,4.615,0,0,1,3.571,2.012l.519.779a1.355,1.355,0,0,0,1.039.519,1.252,1.252,0,0,0,.649-.195,1.178,1.178,0,0,0,.325-1.688Zm-18.957-13.7a2.749,2.749,0,0,1,5.454,0l.26,2.012a8.049,8.049,0,0,0-1.753-.195h-2.4a8.055,8.055,0,0,0-1.753.195Zm7.855,18.7a4.544,4.544,0,0,1-4.285,2.4h-1.623c-1.948,0-3.766-.974-4.285-2.4l-.389-.909a14.329,14.329,0,0,1-.259-10.258l.259-.714c.519-1.493,2.337-2.532,4.35-2.532H221a4.433,4.433,0,0,1,4.35,2.532l.259.714a14.686,14.686,0,0,1-.259,10.258Z" transform="translate(-104.872 -94.924)" fill="#e9f1e6"/>
    <path id="Path_40635" data-name="Path 40635" d="M323.311,281.88a1.215,1.215,0,0,0-1.688,0l-1.948,1.948-1.948-1.948a1.194,1.194,0,1,0-1.688,1.688l1.948,1.948-1.948,1.948a1.215,1.215,0,0,0,0,1.688,1.076,1.076,0,0,0,.844.325,1.235,1.235,0,0,0,.844-.325l1.948-1.948,1.948,1.948a1.076,1.076,0,0,0,.844.325,1.234,1.234,0,0,0,.844-.325,1.215,1.215,0,0,0,0-1.688l-1.948-1.948,1.948-1.948a1.109,1.109,0,0,0,0-1.688Z" transform="translate(-204.84 -236.524)" fill="#e9f1e6"/>
    <path id="Path_40636" data-name="Path 40636" d="M144.44,43.6h-2.921A26.829,26.829,0,0,0,116,18.088V15.232A1.233,1.233,0,0,0,114.769,14a1.194,1.194,0,0,0-1.234,1.234v2.921A26.829,26.829,0,0,0,88.021,43.668H85.23A1.233,1.233,0,0,0,84,44.9a1.194,1.194,0,0,0,1.234,1.234h2.921A26.829,26.829,0,0,0,113.666,71.65v2.921a1.233,1.233,0,0,0,1.234,1.234,1.194,1.194,0,0,0,1.234-1.234V71.65a26.829,26.829,0,0,0,25.515-25.515h2.921A1.233,1.233,0,0,0,145.8,44.9a1.359,1.359,0,0,0-1.363-1.3ZM116.068,69.118V66.261a1.234,1.234,0,0,0-2.467,0v2.791A24.315,24.315,0,0,1,90.554,46.07H93.41a1.234,1.234,0,0,0,0-2.467H90.619A24.315,24.315,0,0,1,113.6,20.555v2.857a1.233,1.233,0,0,0,1.234,1.234,1.194,1.194,0,0,0,1.234-1.234V20.62A24.315,24.315,0,0,1,139.116,43.6H136.26a1.233,1.233,0,0,0-1.234,1.234,1.194,1.194,0,0,0,1.234,1.234h2.791a24.315,24.315,0,0,1-22.983,23.048Z" fill="#e9f1e6"/>
  </g>
</svg>
