<svg xmlns="http://www.w3.org/2000/svg" width="57.53" height="57.481" viewBox="0 0 57.53 57.481">
  <path id="noun-cctv-1094848" d="M123.657,5.648h-8.472V2.824A2.668,2.668,0,0,0,112.361,0H78.472a2.668,2.668,0,0,0-2.824,2.824V25.417a2.668,2.668,0,0,0,2.824,2.824h14.12v8.472a5.665,5.665,0,0,1-5.648,5.648h-11.3V39.537a2.824,2.824,0,1,0-5.648,0v14.12a2.824,2.824,0,1,0,5.648,0V48.009h11.3a11.329,11.329,0,0,0,11.3-11.3V28.241h14.12a2.668,2.668,0,0,0,2.824-2.824V22.593h5.648a2.75,2.75,0,0,0,2.824-2.259l2.824-11.3a2.828,2.828,0,0,0-2.824-3.389Zm-14.12,16.944H81.3V5.648h28.241Zm9.037-5.648h-3.389V11.3h4.8Z" transform="translate(-69.5 0.5)" fill="#e9f1e6" stroke="#2d3233" stroke-width="1"/>
</svg>
