<svg xmlns="http://www.w3.org/2000/svg" width="49.391" height="63.712" viewBox="0 0 49.391 63.712">
  <g id="Group_36215" data-name="Group 36215" transform="translate(-205.5 -1774.911)">
    <path id="Path_38573" data-name="Path 38573" d="M265.534,110.341l-22.859-5.976a2.006,2.006,0,0,0-1.03,0l-22.482,5.957a2.023,2.023,0,0,0-1.506,1.955v32.285A14.137,14.137,0,0,0,224,156.377l17.058,11.3h0a2.025,2.025,0,0,0,2.227.006l17.343-11.333a14.13,14.13,0,0,0,6.417-11.862V112.3a2.025,2.025,0,0,0-1.512-1.958ZM263,144.484a10.09,10.09,0,0,1-4.585,8.473l-16.227,10.607L226.236,153a10.1,10.1,0,0,1-4.533-8.439V113.836l20.463-5.418L263,113.865Z" transform="translate(-12.157 1670.613)" fill="#e9f1e6"/>
  </g>
</svg>
