<svg xmlns="http://www.w3.org/2000/svg" width="79.579" height="79.579" viewBox="0 0 79.579 79.579">
  <g id="noun-network-connection-3654876" transform="translate(-69.903 0.099)">
    <path id="Path_38580" data-name="Path 38580" d="M241.618,149.881a21.544,21.544,0,0,0-7.11-15.943.746.746,0,0,0-.232-.165,21.262,21.262,0,0,0-13.026-5.436H218.9a21.348,21.348,0,0,0-12.993,5.287,1.271,1.271,0,0,0-.232.182,21.427,21.427,0,0,0,0,31.886,1.247,1.247,0,0,0,.232.182,21.349,21.349,0,0,0,12.993,5.552h2.354a21.382,21.382,0,0,0,13.026-5.32,1.523,1.523,0,0,0,.2-.149,21.545,21.545,0,0,0,7.143-16.076Zm-8.486,12.7a21.57,21.57,0,0,0-3.53-2.188,27.825,27.825,0,0,0,2.072-8.85H238.3a18.079,18.079,0,0,1-5.171,11.038Zm-4.972-26.2a27.66,27.66,0,0,0-2.5-3.829,18.39,18.39,0,0,1,4.873,2.42,16.844,16.844,0,0,1-2.337,1.409Zm-8.088-4.723h.348a25.052,25.052,0,0,1,4.624,5.933,18.343,18.343,0,0,1-9.944,0,25.055,25.055,0,0,1,4.624-5.933Zm-8.121,4.723a16.845,16.845,0,0,1-2.337-1.409,18.392,18.392,0,0,1,4.839-2.42A27.656,27.656,0,0,0,211.952,136.374Zm8.121,5.221a21.56,21.56,0,0,0,6.447-1.011,24.56,24.56,0,0,1,1.839,7.64H211.952a24.58,24.58,0,0,1,1.757-7.64A21.544,21.544,0,0,0,220.073,141.594Zm8.286,9.944a24.55,24.55,0,0,1-1.757,7.64,21.063,21.063,0,0,0-12.894,0,24.561,24.561,0,0,1-1.839-7.64Zm-16.407,11.849a27.662,27.662,0,0,0,2.5,3.829,18.389,18.389,0,0,1-4.839-2.42A16.84,16.84,0,0,1,211.952,163.387Zm8.121,4.723h-.348a25.052,25.052,0,0,1-4.624-5.933,18.343,18.343,0,0,1,9.944,0,25.056,25.056,0,0,1-4.624,5.933Zm8.121-4.723a16.837,16.837,0,0,1,2.337,1.409,18.393,18.393,0,0,1-4.839,2.42A27.659,27.659,0,0,0,228.194,163.387ZM238.3,148.223h-6.629a27.833,27.833,0,0,0-1.989-8.85,21.573,21.573,0,0,0,3.53-2.188A18.08,18.08,0,0,1,238.3,148.223Zm-31.291-11.038a21.568,21.568,0,0,0,3.53,2.188,27.819,27.819,0,0,0-1.989,8.85h-6.629A18.084,18.084,0,0,1,207.013,137.185Zm-5.088,14.353h6.629a27.818,27.818,0,0,0,1.989,8.85,21.58,21.58,0,0,0-3.53,2.188A18.083,18.083,0,0,1,201.925,151.539Z" transform="translate(-110.381 -110.19)" fill="#fffadc"/>
    <path id="Path_38581" data-name="Path 38581" d="M79.562,251.631h5.271a1.658,1.658,0,0,0,0-3.315H79.562a4.972,4.972,0,1,0,0,3.315Zm-6.331-1.658a1.657,1.657,0,1,1,1.658,1.658,1.657,1.657,0,0,1-1.658-1.658Z" transform="translate(0 -210.283)" fill="#fffadc"/>
    <path id="Path_38582" data-name="Path 38582" d="M524.933,245a4.971,4.971,0,0,0-4.673,3.314h-5.271a1.658,1.658,0,1,0,0,3.315h5.271A4.972,4.972,0,1,0,524.933,245Zm0,6.629a1.658,1.658,0,1,1,1.172-.486,1.657,1.657,0,0,1-1.172.486Z" transform="translate(-380.437 -210.281)" fill="#fffadc"/>
    <path id="Path_38583" data-name="Path 38583" d="M318.312,9.56v5.271a1.658,1.658,0,1,0,3.315,0V9.56a4.972,4.972,0,1,0-3.315,0Zm1.657-6.331a1.657,1.657,0,1,1-1.658,1.658,1.657,1.657,0,0,1,1.658-1.658Z" transform="translate(-210.277 0)" fill="#fffadc"/>
    <path id="Path_38584" data-name="Path 38584" d="M321.631,450.258v-5.271a1.658,1.658,0,0,0-3.315,0v5.271a4.972,4.972,0,1,0,3.315,0Zm-1.658,6.331a1.658,1.658,0,1,1,1.172-.486,1.657,1.657,0,0,1-1.172.486Z" transform="translate(-210.281 -380.438)" fill="#fffadc"/>
    <path id="Path_38585" data-name="Path 38585" d="M109.971,44.944a4.973,4.973,0,0,0,2.155-.514v.1l9.563,8.37a1.656,1.656,0,1,0,2.187-2.486l-9.5-8.286h0a4.813,4.813,0,0,0,.563-2.155,4.972,4.972,0,1,0-4.972,4.972Zm0-6.629a1.657,1.657,0,1,1-1.658,1.658,1.657,1.657,0,0,1,1.658-1.658Z" transform="translate(-30.111 -30.113)" fill="#fffadc"/>
    <path id="Path_38586" data-name="Path 38586" d="M121.762,396.411,112.2,404.7v.1h0a4.971,4.971,0,1,0,2.751,4.541,4.809,4.809,0,0,0-.5-2.121l9.5-8.286a1.657,1.657,0,1,0-2.188-2.486ZM109.979,411a1.658,1.658,0,1,1,1.172-.486,1.657,1.657,0,0,1-1.172.486Z" transform="translate(-30.118 -339.816)" fill="#fffadc"/>
    <path id="Path_38587" data-name="Path 38587" d="M459.353,53.374a1.658,1.658,0,0,0,1.094-.415l9.563-8.37v-.1a4.972,4.972,0,1,0-2.751-4.458,4.809,4.809,0,0,0,.5,2.121l-9.5,8.286a1.689,1.689,0,0,0,1.094,2.934Zm12.877-15a1.657,1.657,0,1,1-1.658,1.658,1.657,1.657,0,0,1,1.658-1.658Z" transform="translate(-332.707 -30.173)" fill="#fffadc"/>
    <path id="Path_38588" data-name="Path 38588" d="M472.946,405.24a4.972,4.972,0,0,0-2.155.514v-.1l-9.563-8.286h0a1.657,1.657,0,0,0-2.187,2.486l9.5,8.286h0a4.814,4.814,0,0,0-.563,2.071,4.972,4.972,0,1,0,4.972-4.972Zm0,6.629a1.658,1.658,0,1,1,1.172-.486,1.657,1.657,0,0,1-1.172.486Z" transform="translate(-333.422 -340.69)" fill="#fffadc"/>
  </g>
</svg>
