<svg xmlns="http://www.w3.org/2000/svg" width="85.922" height="79.579" viewBox="0 0 85.922 79.579">
  <g id="noun-warehouse-4268096" transform="translate(-78.727 -48.747)">
    <path id="Path_38577" data-name="Path 38577" d="M224.761,172.6l10.552-7.823h0a1.506,1.506,0,0,1,1.794,2.418l-10.552,7.823a1.506,1.506,0,1,1-1.794-2.419Z" transform="translate(-124.118 -95.826)" fill="#fffadc"/>
    <path id="Path_38578" data-name="Path 38578" d="M307.945,141.824l1.9-1.407a1.505,1.505,0,0,1,1.791,2.42l-1.9,1.407h0a1.505,1.505,0,0,1-1.79-2.42Z" transform="translate(-192.993 -75.658)" fill="#fffadc"/>
    <path id="Path_38579" data-name="Path 38579" d="M185.627,79.777,144.171,49.044a1.5,1.5,0,0,0-1.793,0L100.922,79.777a1.506,1.506,0,0,0-.116,2.323l4.28,3.894a1.5,1.5,0,0,0,1.91.1l1.653-1.225v41.957a1.505,1.505,0,0,0,1.506,1.506H176.4a1.505,1.505,0,0,0,1.505-1.506V84.864l1.653,1.225a1.506,1.506,0,0,0,1.909-.1l4.28-3.894a1.506,1.506,0,0,0-.116-2.323ZM130.1,125.316V113.648h1.686v3.236c0,1.112.814,1.342,1.788,1.762a1.623,1.623,0,0,0,1.477-.122,1.638,1.638,0,0,0,1.76,0,1.638,1.638,0,0,0,1.477.123c.973-.418,1.793-.649,1.793-1.762v-3.236h1.686v11.668Zm12.037-26.347h2.273v1.752a1.735,1.735,0,0,0-1.139.223,1.738,1.738,0,0,0-1.134-.224Zm-1.223,5h0a1.626,1.626,0,0,0,1.477-.122,1.64,1.64,0,0,0,1.76,0,1.63,1.63,0,0,0,1.477.123c.973-.418,1.792-.649,1.792-1.762V98.968h1.686v11.668H137.441V98.968h1.686V102.2c0,1.111.814,1.341,1.788,1.762Zm8.563,9.683h2.273V115.4a1.735,1.735,0,0,0-1.139.223,1.746,1.746,0,0,0-1.134-.224Zm-12.406,0V115.4a1.735,1.735,0,0,0-1.139.223,1.746,1.746,0,0,0-1.134-.224v-1.752Zm7.708,11.668V113.648h1.686v3.236c0,1.112.814,1.342,1.788,1.762a1.623,1.623,0,0,0,1.477-.122,1.638,1.638,0,0,0,1.76,0,1.991,1.991,0,0,0,.882.245,1.508,1.508,0,0,0,.595-.122c.973-.418,1.793-.649,1.793-1.762v-3.236h1.686v11.668Zm11.668-14.679H152.12V98.968a3.015,3.015,0,0,0-3.011-3.011H137.441a3.015,3.015,0,0,0-3.011,3.011v11.668H130.1a3.015,3.015,0,0,0-3.011,3.011v11.668h-6.4V93.2h45.165v32.118h-6.4V113.648a3.015,3.015,0,0,0-3.011-3.011Zm9.41-20.451H120.692V88.68h45.165Zm9.033,35.129h-6.022V87.175a1.505,1.505,0,0,0-1.506-1.506H119.187a1.505,1.505,0,0,0-1.506,1.506v38.14h-6.022V82.632l31.616-23.438,31.616,23.438Zm5.464-42.382L144.172,56.111a1.5,1.5,0,0,0-1.793,0L106.2,82.933l-2.01-1.828,39.088-28.978,39.088,28.978Z" transform="translate(-21.587 0)" fill="#fffadc"/>
  </g>
</svg>
