<svg xmlns="http://www.w3.org/2000/svg" width="56.018" height="70.022" viewBox="0 0 56.018 70.022">
  <g id="noun-shred-3820656" transform="translate(-174.988 -69.992)">
    <path id="Path_38589" data-name="Path 38589" d="M184.094,69.995a6.335,6.335,0,0,0-6.3,6.3V97.3a2.1,2.1,0,0,0,4.2,0V76.3a2.051,2.051,0,0,1,2.1-2.1H209.3a2.1,2.1,0,1,0,0-4.2ZM217,72.1v8.4a3.5,3.5,0,0,0,3.5,3.5h6.3v19.838l-3.153-1.442a2.1,2.1,0,0,0-1.745,0l-5.254,2.4-5.254-2.4a2.1,2.1,0,0,0-1.745,0l-5.254,2.4-5.254-2.4a2.1,2.1,0,0,0-1.745,0l-5.254,2.4-5.254-2.4a2.1,2.1,0,0,0-1.745,0l-6.127,2.8a2.1,2.1,0,0,0,1.745,3.818l5.254-2.4,5.254,2.4a2.1,2.1,0,0,0,1.745,0l5.254-2.4,5.254,2.4a2.1,2.1,0,0,0,1.745,0l5.254-2.4,5.254,2.4a2.1,2.1,0,0,0,1.745,0l5.254-2.4,5.254,2.4a2.1,2.1,0,0,0,2.973-1.909V81.911a2.116,2.116,0,0,0-.615-1.5l-9.8-9.8A2.1,2.1,0,0,0,217,72.095Zm-31.856,40.1L179.02,115a2.1,2.1,0,0,0-1.228,1.909v9.8a2.1,2.1,0,0,0,4.2,0v-8.454l4.026-1.841,5.254,2.4a2.1,2.1,0,0,0,1.745,0l5.254-2.4,5.254,2.4a2.1,2.1,0,0,0,1.745,0l5.254-2.4,5.254,2.4a2.1,2.1,0,0,0,1.745,0l5.254-2.4,4.026,1.841v8.454a2.1,2.1,0,0,0,4.2,0v-9.8A2.1,2.1,0,0,0,229.778,115l-6.127-2.8a2.1,2.1,0,0,0-1.745,0l-5.254,2.4-5.254-2.4a2.1,2.1,0,0,0-1.745,0l-5.254,2.4-5.254-2.4a2.1,2.1,0,0,0-1.745,0l-5.254,2.4-5.254-2.4a2.085,2.085,0,0,0-1.745,0Zm7,11.012a2.1,2.1,0,0,0-2.1,2.1v2.8c0,5.679-2.341,8.49-2.341,8.49a2.1,2.1,0,0,0,3.282,2.626,19.232,19.232,0,0,0,3.26-11.116v-2.8a2.1,2.1,0,0,0-2.1-2.1Zm12.253,0a2.1,2.1,0,0,0-2.1,2.1v1.4a2.1,2.1,0,0,0,4.2,0v-1.4A2.1,2.1,0,0,0,204.4,123.208Zm12.253,0a2.1,2.1,0,0,0-2.1,2.1v2.8c0,5.679-2.341,8.49-2.341,8.49a2.1,2.1,0,1,0,3.282,2.626,19.232,19.232,0,0,0,3.26-11.116v-2.8a2.1,2.1,0,0,0-2.1-2.1ZM176.633,134.37a9.074,9.074,0,0,1-1.184,2.229,2.1,2.1,0,1,0,3.282,2.626,14.8,14.8,0,0,0,1.8-3.282,2.1,2.1,0,1,0-3.895-1.573Zm24.507,0a9.073,9.073,0,0,1-1.184,2.229,2.1,2.1,0,1,0,3.282,2.626,14.8,14.8,0,0,0,1.8-3.282,2.1,2.1,0,1,0-3.895-1.573Zm24.507,0a9.073,9.073,0,0,1-1.184,2.229,2.1,2.1,0,0,0,3.282,2.626,14.8,14.8,0,0,0,1.8-3.282,2.1,2.1,0,1,0-3.895-1.573Z" fill="#fffadc"/>
  </g>
</svg>
